<?xml version="1.0" encoding="UTF-8"?>
<svg xmlns="http://www.w3.org/2000/svg" width="20px" height="20px" viewBox="0 0 20 20" version="1.1">
<g id="surface1">
<path style=" stroke:none;fill-rule:nonzero;fill:rgb(0%,0%,0%);fill-opacity:1;" d="M 2.1875 3.855469 L 1.667969 4.355469 L 1.667969 15.644531 L 2.1875 16.144531 C 2.605469 16.582031 2.894531 16.667969 3.855469 16.667969 L 5 16.667969 L 5 15 L 3.332031 15 L 3.332031 5 L 16.667969 5 L 16.667969 15 L 15 15 L 15 16.667969 L 16.144531 16.667969 C 17.105469 16.667969 17.394531 16.582031 17.8125 16.144531 L 18.332031 15.644531 L 18.332031 4.355469 L 17.8125 3.855469 L 17.3125 3.332031 L 2.6875 3.332031 Z M 2.1875 3.855469 "/>
<path style=" stroke:none;fill-rule:nonzero;fill:rgb(0%,0%,0%);fill-opacity:1;" d="M 8.644531 8.625 C 7.875 8.980469 7.1875 9.707031 6.894531 10.480469 C 6.75 10.832031 6.667969 12.875 6.667969 15.542969 L 6.667969 20 L 8.332031 19.167969 L 10 18.332031 L 11.6875 19.167969 L 13.355469 20.019531 L 13.292969 15.230469 C 13.230469 10 13.207031 9.917969 11.832031 8.894531 C 11.125 8.375 9.480469 8.230469 8.644531 8.625 Z M 11.144531 10.519531 C 11.480469 10.832031 11.667969 11.269531 11.667969 11.667969 C 11.667969 12.0625 11.480469 12.5 11.144531 12.8125 C 10.832031 13.144531 10.394531 13.332031 10 13.332031 C 9.605469 13.332031 9.167969 13.144531 8.855469 12.8125 C 8.519531 12.5 8.332031 12.0625 8.332031 11.667969 C 8.332031 11.269531 8.519531 10.832031 8.855469 10.519531 C 9.167969 10.1875 9.605469 10 10 10 C 10.394531 10 10.832031 10.1875 11.144531 10.519531 Z M 11.144531 10.519531 "/>
</g>
</svg>
