<?xml version="1.0" encoding="UTF-8"?>
<svg xmlns="http://www.w3.org/2000/svg" width="20px" height="20px" viewBox="0 0 20 20" version="1.1">
<g id="surface1">
<path style=" stroke:none;fill-rule:nonzero;fill:rgb(0%,0%,0%);fill-opacity:1;" d="M 3.855469 2.1875 L 3.332031 2.6875 L 3.332031 17.3125 L 3.855469 17.8125 L 4.355469 18.332031 L 15.644531 18.332031 L 16.144531 17.8125 L 16.667969 17.3125 L 16.667969 2.6875 L 16.144531 2.1875 L 15.644531 1.667969 L 4.355469 1.667969 Z M 12.292969 4.875 C 13.519531 5.6875 14.0625 6.730469 14.0625 8.332031 C 14.0625 9.957031 13.519531 10.980469 12.230469 11.832031 C 11.0625 12.605469 9.042969 12.644531 7.855469 11.894531 C 6.269531 10.917969 5.542969 8.980469 6.019531 7.125 C 6.3125 6.0625 7.582031 4.6875 8.582031 4.394531 C 9.6875 4.0625 11.394531 4.269531 12.292969 4.875 Z M 13.332031 15 L 13.332031 15.832031 L 6.667969 15.832031 L 6.667969 14.167969 L 13.332031 14.167969 Z M 13.332031 15 "/>
<path style=" stroke:none;fill-rule:nonzero;fill:rgb(0%,0%,0%);fill-opacity:1;" d="M 10 5.832031 L 10 6.480469 L 10.519531 6.105469 C 11.105469 5.667969 11.082031 5.332031 10.457031 5.25 C 10.0625 5.1875 10 5.269531 10 5.832031 Z M 10 5.832031 "/>
<path style=" stroke:none;fill-rule:nonzero;fill:rgb(0%,0%,0%);fill-opacity:1;" d="M 8.0625 5.875 C 7.292969 6.4375 6.875 7.292969 6.875 8.3125 C 6.875 8.957031 6.957031 9.167969 7.292969 9.269531 C 7.5625 9.355469 7.707031 9.582031 7.707031 9.894531 C 7.707031 10.4375 8.332031 11.144531 8.957031 11.3125 C 9.4375 11.4375 10.105469 10.769531 9.9375 10.3125 C 9.855469 10.144531 9.667969 10 9.5 10 C 9.355469 10 9.167969 9.855469 9.082031 9.6875 C 9.019531 9.519531 8.707031 9.375 8.394531 9.375 C 7.644531 9.355469 6.917969 8.832031 7.230469 8.519531 C 7.375 8.375 7.542969 8.394531 7.769531 8.625 C 8.0625 8.9375 8.105469 8.917969 8.167969 8.5 C 8.207031 8.25 8.5 7.894531 8.832031 7.730469 C 9.167969 7.542969 9.417969 7.3125 9.394531 7.230469 C 9.394531 7.144531 9.375 6.980469 9.375 6.875 C 9.375 6.605469 8.6875 6.605469 8.394531 6.894531 C 8.230469 7.0625 8.125 7.0625 8.019531 6.875 C 7.8125 6.542969 8.355469 6 8.792969 6.105469 C 9.019531 6.167969 9.167969 6.105469 9.167969 5.9375 C 9.167969 5.480469 8.644531 5.4375 8.0625 5.875 Z M 8.0625 5.875 "/>
<path style=" stroke:none;fill-rule:nonzero;fill:rgb(0%,0%,0%);fill-opacity:1;" d="M 11.769531 6.25 C 11.707031 6.355469 11.6875 6.542969 11.75 6.644531 C 11.8125 6.75 11.730469 6.9375 11.582031 7.0625 C 11.167969 7.417969 10.375 9.144531 10.519531 9.375 C 10.605469 9.5 10.832031 9.582031 11.0625 9.582031 C 11.292969 9.582031 11.5625 9.8125 11.707031 10.105469 C 11.832031 10.394531 12.019531 10.625 12.125 10.625 C 12.519531 10.625 13.125 9.230469 13.125 8.332031 C 13.125 6.980469 12.1875 5.5625 11.769531 6.25 Z M 11.769531 6.25 "/>
</g>
</svg>
