<?xml version="1.0" encoding="UTF-8"?>
<svg xmlns="http://www.w3.org/2000/svg" width="20px" height="20px" viewBox="0 0 20 20" version="1.1">
<g id="surface1">
<path style=" stroke:none;fill-rule:nonzero;fill:rgb(0%,0%,0%);fill-opacity:1;" d="M 2.1875 3.855469 L 1.667969 4.355469 L 1.667969 15.644531 L 2.1875 16.144531 L 2.6875 16.667969 L 17.3125 16.667969 L 17.8125 16.144531 L 18.332031 15.644531 L 18.332031 4.355469 L 17.8125 3.855469 L 17.3125 3.332031 L 2.6875 3.332031 Z M 14.855469 7.667969 L 15.417969 8.25 L 14.792969 8.855469 L 14.167969 9.457031 L 13.542969 8.855469 L 12.917969 8.25 L 13.480469 7.667969 C 13.792969 7.355469 14.105469 7.082031 14.167969 7.082031 C 14.230469 7.082031 14.542969 7.355469 14.855469 7.667969 Z M 10.832031 8.332031 L 10.832031 9.167969 L 5 9.167969 L 5 7.5 L 10.832031 7.5 Z M 14.855469 11.832031 L 15.417969 12.417969 L 14.792969 13.019531 L 14.167969 13.625 L 13.542969 13.019531 L 12.917969 12.417969 L 13.480469 11.832031 C 13.792969 11.519531 14.105469 11.25 14.167969 11.25 C 14.230469 11.25 14.542969 11.519531 14.855469 11.832031 Z M 9.167969 12.5 L 9.167969 13.332031 L 5 13.332031 L 5 11.667969 L 9.167969 11.667969 Z M 9.167969 12.5 "/>
</g>
</svg>
