<?xml version="1.0" encoding="UTF-8"?>
<svg xmlns="http://www.w3.org/2000/svg" width="20px" height="20px" viewBox="0 0 20 20" version="1.1">
<g id="surface1">
<path style=" stroke:none;fill-rule:nonzero;fill:rgb(0%,0%,0%);fill-opacity:1;" d="M 2.1875 3.855469 L 1.667969 4.355469 L 1.667969 15.644531 L 2.1875 16.144531 L 2.6875 16.667969 L 17.3125 16.667969 L 17.8125 16.144531 L 18.332031 15.644531 L 18.332031 4.355469 L 17.8125 3.855469 L 17.3125 3.332031 L 2.6875 3.332031 Z M 7.8125 7.1875 C 8.855469 8.207031 8.125 10 6.667969 10 C 5.8125 10 5 9.1875 5 8.332031 C 5 7.480469 5.8125 6.667969 6.667969 6.667969 C 7.0625 6.667969 7.5 6.855469 7.8125 7.1875 Z M 15.832031 8.332031 L 15.832031 9.167969 L 10.832031 9.167969 L 10.832031 7.5 L 15.832031 7.5 Z M 15.832031 11.667969 L 15.832031 12.5 L 10.832031 12.5 L 10.832031 10.832031 L 15.832031 10.832031 Z M 7.605469 11.480469 C 8.644531 11.769531 9.167969 12.207031 9.167969 12.855469 C 9.167969 13.332031 9.144531 13.332031 6.667969 13.332031 C 4.1875 13.332031 4.167969 13.332031 4.167969 12.855469 C 4.167969 12.230469 4.667969 11.769531 5.625 11.5 C 6.605469 11.207031 6.644531 11.207031 7.605469 11.480469 Z M 7.605469 11.480469 "/>
</g>
</svg>
