<?xml version="1.0" encoding="UTF-8"?>
<svg xmlns="http://www.w3.org/2000/svg" width="20px" height="20px" viewBox="0 0 20 20" version="1.1">
<g id="surface1">
<path style=" stroke:none;fill-rule:nonzero;fill:rgb(0%,0%,0%);fill-opacity:1;" d="M 3.230469 1.855469 C 2.269531 2.269531 1.792969 3.082031 1.707031 4.480469 L 1.625 5.832031 L 3.332031 5.832031 L 3.332031 16.667969 L 7.5 16.667969 L 7.5 15 L 5 15 L 5 5.832031 L 14.144531 5.832031 L 14.207031 4.769531 C 14.269531 3.542969 14.730469 3.0625 15.375 3.457031 C 15.6875 3.667969 15.730469 4.269531 15.792969 10.1875 L 15.832031 16.667969 L 17.519531 16.667969 L 17.457031 9.894531 L 17.394531 3.125 L 16.707031 2.457031 L 16.042969 1.769531 L 9.832031 1.730469 C 6.4375 1.707031 3.457031 1.769531 3.230469 1.855469 Z M 3.230469 1.855469 "/>
<path style=" stroke:none;fill-rule:nonzero;fill:rgb(0%,0%,0%);fill-opacity:1;" d="M 6.667969 9.167969 L 6.667969 10 L 14.167969 10 L 14.167969 8.332031 L 6.667969 8.332031 Z M 6.667969 9.167969 "/>
<path style=" stroke:none;fill-rule:nonzero;fill:rgb(0%,0%,0%);fill-opacity:1;" d="M 6.667969 12.5 L 6.667969 13.332031 L 8.332031 13.332031 L 8.332031 11.667969 L 6.667969 11.667969 Z M 6.667969 12.5 "/>
<path style=" stroke:none;fill-rule:nonzero;fill:rgb(0%,0%,0%);fill-opacity:1;" d="M 10.730469 11.855469 C 10.5 11.957031 10.082031 12.292969 9.792969 12.605469 C 9.144531 13.292969 9.0625 14.9375 9.644531 15.5625 C 9.917969 15.875 10 16.332031 10 17.480469 L 10 18.980469 L 10.832031 18.5 L 11.667969 18.019531 L 13.332031 18.980469 L 13.332031 17.480469 C 13.332031 16.332031 13.417969 15.875 13.707031 15.5625 C 13.9375 15.292969 14.0625 14.832031 14.0625 14.144531 C 14.0625 13.292969 13.957031 13.042969 13.417969 12.480469 C 12.730469 11.792969 11.5 11.519531 10.730469 11.855469 Z M 12.292969 13.644531 C 12.605469 14.019531 12.5 14.582031 12.042969 14.875 C 11.3125 15.332031 10.5 14.3125 11.042969 13.644531 C 11.375 13.25 11.957031 13.25 12.292969 13.644531 Z M 12.292969 13.644531 "/>
</g>
</svg>
