<?xml version="1.0" encoding="UTF-8"?>
<svg xmlns="http://www.w3.org/2000/svg" width="20px" height="20px" viewBox="0 0 20 20" version="1.1">
<g id="surface1">
<path style=" stroke:none;fill-rule:nonzero;fill:rgb(0%,0%,0%);fill-opacity:1;" d="M 5.625 4.144531 L 1.769531 6.605469 L 1.707031 7.457031 L 1.644531 8.332031 L 17.519531 8.332031 L 17.394531 6.582031 L 13.542969 4.144531 C 11.417969 2.792969 9.644531 1.6875 9.582031 1.6875 C 9.519531 1.6875 7.75 2.792969 5.625 4.144531 Z M 5.625 4.144531 "/>
<path style=" stroke:none;fill-rule:nonzero;fill:rgb(0%,0%,0%);fill-opacity:1;" d="M 3.332031 12.082031 L 3.332031 15 L 5.832031 15 L 5.832031 9.167969 L 3.332031 9.167969 Z M 3.332031 12.082031 "/>
<path style=" stroke:none;fill-rule:nonzero;fill:rgb(0%,0%,0%);fill-opacity:1;" d="M 8.332031 10.980469 L 8.332031 12.8125 L 8.75 12.125 C 9 11.707031 9.519531 11.269531 10 11.082031 C 10.75 10.75 10.832031 10.667969 10.832031 9.9375 L 10.832031 9.167969 L 8.332031 9.167969 Z M 8.332031 10.980469 "/>
<path style=" stroke:none;fill-rule:nonzero;fill:rgb(0%,0%,0%);fill-opacity:1;" d="M 13.332031 10 L 13.332031 10.832031 L 15.832031 10.832031 L 15.832031 9.167969 L 13.332031 9.167969 Z M 13.332031 10 "/>
<path style=" stroke:none;fill-rule:nonzero;fill:rgb(0%,0%,0%);fill-opacity:1;" d="M 10.25 12.75 C 10.105469 12.894531 10 13.269531 10 13.582031 L 10 14.167969 L 20 14.167969 L 20 13.582031 C 20 13.269531 19.894531 12.894531 19.75 12.75 C 19.394531 12.394531 10.605469 12.394531 10.25 12.75 Z M 10.25 12.75 "/>
<path style=" stroke:none;fill-rule:nonzero;fill:rgb(0%,0%,0%);fill-opacity:1;" d="M 1.667969 17.082031 L 1.667969 18.332031 L 8.332031 18.332031 L 8.332031 15.832031 L 1.667969 15.832031 Z M 1.667969 17.082031 "/>
<path style=" stroke:none;fill-rule:nonzero;fill:rgb(0%,0%,0%);fill-opacity:1;" d="M 10 17.667969 C 10 18.8125 10.082031 19.582031 10.25 19.75 C 10.605469 20.105469 19.394531 20.105469 19.75 19.75 C 19.917969 19.582031 20 18.8125 20 17.667969 L 20 15.832031 L 10 15.832031 Z M 10 17.667969 "/>
</g>
</svg>
