<svg width="67" height="67" viewBox="0 0 67 67" fill="none" xmlns="http://www.w3.org/2000/svg">
<path d="M32.3793 26.7624L32.4364 26.7253L34.0888 30.4187L33.8815 30.4594L33.7076 30.4954L33.4309 30.5699L33.0164 30.6885L32.0338 31.0565L29.8713 32.1996L28.0112 33.4431C28.0112 33.4431 27.4392 33.902 27.0574 34.1755C26.8404 34.331 26.7032 34.3968 26.4943 34.5632C26.2939 34.7229 26.0095 35.0056 26.0095 35.0056C26.0095 35.0056 25.7755 35.1686 25.6335 35.2833C25.5344 35.3633 25.3861 35.4957 25.3861 35.4957L25.3643 35.5073L25.2285 35.3817L24.729 34.1575L24.0379 32.6239C24.0379 32.6239 23.7543 31.9814 23.591 31.5907C23.3912 31.1123 23.3488 30.8915 23.1574 30.4096C22.9872 29.9812 22.8169 29.2793 22.8169 29.2793L22.7073 28.6905L22.7687 28.6993L22.8169 28.7053L22.9679 28.7288L23.1068 28.7414L23.3845 28.7687L23.6631 28.7836H24.0379H24.5759L25.5128 28.7051L26.5647 28.5419L29.0672 27.9011L31.1769 27.2241L32.3793 26.7624Z" fill="#E0885B"/>
<path d="M42.2242 30.7495C42.125 30.2369 41.9352 29.7462 41.6637 29.3004C41.5216 29.0855 41.361 28.8871 41.1248 28.8259C40.8833 28.7656 40.6311 28.762 40.3879 28.8154C40.1346 28.857 39.8804 28.9256 39.6167 28.9752C39.4821 29.003 39.3455 29.0198 39.2082 29.0254C39.0575 29.0348 38.9071 29.004 38.7722 28.9362C38.6357 28.8635 38.5241 28.7515 38.4519 28.6147C38.3862 28.4872 38.3412 28.3501 38.3186 28.2085C38.3063 28.1426 38.2976 28.0702 38.2864 28.0189C38.2719 27.9661 38.2496 27.9157 38.2202 27.8695C38.1554 27.7648 38.0785 27.668 37.9911 27.5813L38.0544 27.4193C38.0539 27.4189 38.0533 27.4185 38.0526 27.4183C38.052 27.418 38.0513 27.418 38.0506 27.418C38.0499 27.4181 38.0493 27.4182 38.0487 27.4186C38.0481 27.4189 38.0475 27.4193 38.0471 27.4199C38.0482 27.4199 38.055 27.4153 38.0588 27.4136C38.0707 27.4072 38.0819 27.3997 38.0924 27.3911C38.1184 27.3707 38.1432 27.3489 38.1667 27.3256C38.2163 27.2779 38.2646 27.2255 38.3116 27.1718C38.4057 27.0645 38.4966 26.9512 38.5837 26.8374L38.6852 26.9368C38.6693 26.9459 38.6524 26.9534 38.635 26.9591L38.5996 26.9658C38.5758 26.9703 38.5567 26.9702 38.535 26.9725C38.4939 26.9745 38.4537 26.9754 38.414 26.9748C38.3346 26.974 38.2562 26.9707 38.1781 26.966C38.0217 26.9571 37.8669 26.9426 37.7113 26.9282L37.7104 26.9281C37.7014 26.9273 37.6927 26.9239 37.6855 26.9184C37.6782 26.9128 37.6727 26.9054 37.6694 26.8968C37.6458 26.8336 37.6186 26.7718 37.5879 26.7117C37.5575 26.655 37.5212 26.5889 37.4804 26.5729C37.3592 26.5265 37.2184 26.4962 37.0859 26.4591C36.9479 26.4255 36.8119 26.3839 36.6786 26.3347C36.6586 26.3242 36.641 26.3094 36.6273 26.2914C36.6136 26.2734 36.6041 26.2525 36.5994 26.2304C36.5914 26.1912 36.5912 26.1508 36.5989 26.1115C36.6126 26.0398 36.6353 25.9702 36.6663 25.9041C36.7906 25.6523 36.9359 25.4114 37.1006 25.184C37.1789 25.0751 37.2402 24.9549 37.2826 24.8277C37.3247 24.7077 37.3353 24.5789 37.3133 24.4537L37.3153 24.4596C37.2298 24.2335 37.1697 23.9986 37.1362 23.7591C37.0997 23.5229 37.0771 23.2848 37.0684 23.046C37.0579 22.8078 37.0574 22.5698 37.0632 22.3321C37.0689 22.0938 37.08 21.8579 37.1026 21.6181C37.1051 21.5923 37.1162 21.568 37.1341 21.5492C37.152 21.5304 37.1758 21.5182 37.2015 21.5145C37.2272 21.5109 37.2534 21.516 37.2758 21.5291C37.2983 21.5422 37.3156 21.5624 37.3252 21.5866L37.3269 21.5911C37.4662 21.9425 37.6314 22.2831 37.8212 22.61C38.0081 22.9359 38.2265 23.2428 38.4734 23.526C38.7094 23.8061 39.0022 24.0328 39.3324 24.1912C39.4932 24.2652 39.6667 24.3075 39.8435 24.316C40.0206 24.3216 40.1973 24.2978 40.3667 24.2458L40.2857 24.3429C40.3193 24.1519 40.3792 23.9666 40.4636 23.7921C40.5076 23.7008 40.564 23.6161 40.6311 23.5402C40.7054 23.4571 40.8014 23.3963 40.9083 23.3647C40.9636 23.3516 41.0205 23.3466 41.0772 23.3498C41.1311 23.3554 41.1842 23.3676 41.235 23.3864C41.3324 23.4208 41.4224 23.4734 41.5002 23.5414C41.6471 23.6761 41.7512 23.851 41.7997 24.0444C41.8557 24.221 41.8997 24.4013 41.9314 24.5839C41.9663 24.7686 41.9736 24.9576 41.9531 25.1445C41.9466 25.2418 41.9182 25.3363 41.87 25.421C41.8218 25.5058 41.7551 25.5785 41.6749 25.6338C41.506 25.7201 41.3119 25.7437 41.1273 25.7002C41.124 25.6997 41.121 25.6979 41.1191 25.6952C41.1171 25.6925 41.1163 25.6891 41.1168 25.6858C41.1174 25.6827 41.1191 25.6799 41.1216 25.678C41.1242 25.676 41.1273 25.6751 41.1305 25.6753C41.3058 25.7006 41.4845 25.6658 41.6376 25.5765C41.7038 25.5233 41.7571 25.4558 41.7934 25.379C41.8297 25.3022 41.8481 25.2181 41.8472 25.1332C41.8486 24.7779 41.7796 24.4258 41.6442 24.0974C41.5968 23.9375 41.5039 23.7949 41.3769 23.6869C41.3159 23.6369 41.246 23.5989 41.1708 23.5752C41.1362 23.5634 41.1003 23.556 41.0638 23.5531C41.0468 23.5519 41.0297 23.5531 41.013 23.5566C40.9968 23.5603 40.9786 23.5556 40.9638 23.5651C40.8947 23.5961 40.8327 23.6409 40.7815 23.6968C40.7304 23.7526 40.6911 23.8183 40.6662 23.8899C40.5973 24.0455 40.5499 24.2097 40.5252 24.3781L40.5251 24.3788C40.5217 24.4007 40.5123 24.4213 40.4981 24.4383C40.4838 24.4553 40.4652 24.4681 40.4442 24.4752C40.2479 24.5439 40.0408 24.5764 39.8329 24.5713C39.6244 24.5642 39.4192 24.5175 39.2283 24.4336C38.8595 24.2648 38.5332 24.0155 38.2734 23.7039C38.0155 23.4059 37.7905 23.081 37.6021 22.7348C37.4114 22.3928 37.2465 22.0369 37.1089 21.6702L37.3332 21.6432C37.3085 21.8726 37.2909 22.1076 37.2775 22.3405C37.2646 22.5739 37.258 22.8077 37.2611 23.0409C37.2648 23.274 37.2704 23.5075 37.2972 23.7378C37.3179 23.9672 37.3648 24.1935 37.4369 24.4122L37.4386 24.4166L37.439 24.4182C37.4633 24.5686 37.4464 24.7228 37.3902 24.8643C37.3393 24.9994 37.2683 25.126 37.1797 25.2398C37.0133 25.4591 36.8667 25.6927 36.7417 25.9379C36.7126 25.9972 36.691 26.06 36.6773 26.1246C36.6645 26.1875 36.672 26.2469 36.7162 26.2681C36.7775 26.2934 36.8407 26.3139 36.9052 26.3296L37.1059 26.3826C37.2413 26.4184 37.3729 26.4466 37.5134 26.494C37.5346 26.502 37.5539 26.5142 37.5702 26.53C37.5847 26.5438 37.5979 26.5588 37.6096 26.575C37.6314 26.6046 37.6512 26.6358 37.6688 26.6681C37.7032 26.7308 37.734 26.7954 37.7611 26.8616L37.7192 26.8303C37.8732 26.8395 38.0282 26.8441 38.1821 26.8457C38.2591 26.8465 38.336 26.8459 38.4118 26.8428C38.4497 26.8414 38.4871 26.8387 38.5234 26.8351C38.5401 26.8323 38.5601 26.8311 38.5742 26.8273L38.5959 26.8223C38.5983 26.8204 38.5969 26.8204 38.599 26.8217L38.6911 26.8772C38.6946 26.8793 38.6976 26.8821 38.7 26.8853C38.7024 26.8886 38.7042 26.8923 38.7051 26.8962C38.7061 26.9001 38.7063 26.9042 38.7057 26.9082C38.7051 26.9122 38.7037 26.916 38.7016 26.9195L38.7006 26.9211C38.6167 27.0431 38.5309 27.1616 38.4384 27.2779C38.3922 27.3361 38.3445 27.3934 38.2919 27.4494C38.2649 27.4787 38.2363 27.5064 38.2062 27.5323C38.189 27.5475 38.1705 27.5611 38.1509 27.573C38.1393 27.5803 38.1272 27.5868 38.1147 27.5925C38.0951 27.5991 38.0749 27.6036 38.0544 27.606L38.1176 27.4441C38.2222 27.5379 38.3151 27.644 38.3944 27.76C38.4377 27.8238 38.4705 27.8941 38.4917 27.9682C38.5101 28.0452 38.5175 28.1038 38.5312 28.167C38.554 28.2852 38.5932 28.3997 38.6477 28.507C38.6991 28.6047 38.7788 28.6846 38.8764 28.736C39.068 28.8396 39.326 28.8077 39.5794 28.7657C39.8339 28.7231 40.0902 28.6591 40.3573 28.6201C40.6312 28.564 40.9148 28.578 41.1819 28.6607C41.2496 28.6856 41.3146 28.7172 41.376 28.7552L41.4614 28.8215C41.4906 28.8423 41.517 28.8669 41.5397 28.8946L41.611 28.9741C41.6328 29.0012 41.6509 29.0295 41.671 29.0571C41.7118 29.1117 41.7457 29.1703 41.7808 29.2281C41.9151 29.4604 42.0197 29.7086 42.0924 29.9669C42.1689 30.2212 42.2214 30.4821 42.2491 30.7462C42.2492 30.7479 42.2491 30.7495 42.2486 30.7511C42.2481 30.7527 42.2473 30.7541 42.2463 30.7554C42.2452 30.7567 42.2439 30.7577 42.2425 30.7585C42.241 30.7593 42.2394 30.7598 42.2378 30.7599C42.2346 30.7601 42.2315 30.7592 42.229 30.7572C42.2265 30.7553 42.2248 30.7525 42.2242 30.7495Z" fill="#141414"/>
<path d="M41.3247 25.8085C41.1207 26.1867 41.0618 26.6265 41.1589 27.0452C41.3247 27.739 41.0516 28.7126 41.0516 28.7126C41.0516 28.7126 40.3601 31.1777 42.3947 30.7479C44.4293 30.3181 47.6395 29.2095 48.2047 26.9698C48.2047 26.9698 47.5849 25.3788 47.2326 24.8658C46.4394 23.7108 45.1075 20.6805 44.452 20.228C44.3053 20.0001 44.1144 19.804 43.8904 19.6514C43.2117 19.1569 42.3741 18.9314 41.5391 19.0182C40.3099 19.1327 38.3305 19.6411 37.2178 21.6307C37.2178 21.6307 38.2949 24.9855 40.4053 24.3606C40.4053 24.3606 40.5717 23.1741 41.297 23.5308C41.4861 23.6289 41.6313 23.7948 41.7035 23.9954C41.8955 24.4972 42.2 25.5886 41.3247 25.8085Z" fill="#141414"/>
<path d="M37.489 24.3683C37.5352 24.2943 37.5931 24.2282 37.6606 24.1729C37.7271 24.1163 37.8003 24.0681 37.8786 24.0295C37.9584 23.9907 38.0437 23.9646 38.1315 23.952C38.22 23.9392 38.3104 23.9502 38.3933 23.9837C38.2332 24.0145 38.0783 24.068 37.9333 24.1426C37.7873 24.2121 37.6473 24.2945 37.489 24.3683ZM38.0542 25.032C38.103 25.0303 38.1493 25.0097 38.1832 24.9745C38.2172 24.9393 38.2362 24.8923 38.2362 24.8434C38.2362 24.7945 38.2172 24.7475 38.1832 24.7124C38.1493 24.6772 38.103 24.6566 38.0542 24.6549C38.0054 24.6566 37.9591 24.6772 37.9251 24.7124C37.8912 24.7475 37.8722 24.7945 37.8722 24.8434C37.8722 24.8923 37.8912 24.9393 37.9251 24.9745C37.9591 25.0097 38.0054 25.0303 38.0542 25.032ZM48.205 26.9521C48.6398 26.9609 49.0726 27.0138 49.4968 27.1099C49.9225 27.2021 50.3408 27.3258 50.7482 27.4802C51.1574 27.6323 51.5565 27.81 51.9434 28.0122C52.1335 28.1195 52.3281 28.2196 52.5116 28.3382L52.7906 28.5105L53.0607 28.696C53.7782 29.1963 54.4359 29.7775 55.0207 30.4282C55.5972 31.0815 56.1117 31.7872 56.5573 32.5361C57.4281 34.0351 58.1392 35.6215 58.6788 37.2692C58.7535 37.4727 58.8159 37.6799 58.8773 37.8876L59.0658 38.5096C59.1816 38.9275 59.2892 39.3495 59.3958 39.7712C59.5433 40.6226 59.6937 41.4741 59.8335 42.3275C59.8393 42.3628 59.8337 42.399 59.8175 42.4309C59.8013 42.4628 59.7754 42.4887 59.7435 42.5048L59.7412 42.5059C58.9448 42.9087 58.1278 43.2694 57.2936 43.5865C56.8755 43.7425 56.4536 43.8879 56.0278 44.0225C55.6005 44.1512 55.1719 44.2756 54.7387 44.3827C53.873 44.5972 52.9964 44.765 52.1127 44.8853C51.2304 45.004 50.3422 45.0739 49.4521 45.0946L49.4473 45.0948C49.428 45.0953 49.4092 45.0881 49.3952 45.0748C48.9946 44.6942 48.5898 44.3183 48.1928 43.9336C48.1895 43.9304 48.1875 43.9261 48.1873 43.9214C48.1871 43.9168 48.1887 43.9123 48.1918 43.9089C48.1948 43.9054 48.1991 43.9032 48.2037 43.9028C48.2083 43.9024 48.2128 43.9038 48.2165 43.9067C48.6483 44.2518 49.0725 44.6056 49.5008 44.9548L49.4439 44.9349C50.3252 44.8684 51.2002 44.747 52.0692 44.6021C52.9383 44.4551 53.7979 44.2597 54.6472 44.0302C55.4966 43.8007 56.3343 43.5336 57.1604 43.2288C57.9856 42.9246 58.7988 42.5856 59.5913 42.2019L59.499 42.3803C59.3698 41.5285 59.2511 40.6746 59.1296 39.8207C59.041 39.4019 58.9569 38.9818 58.8612 38.5631L58.7013 37.9382C58.6487 37.7295 58.5951 37.5211 58.5292 37.3163L58.3406 36.6989C58.2783 36.4927 58.1956 36.2938 58.1241 36.0909C57.9819 35.6844 57.8156 35.2874 57.6422 34.8934C57.2901 34.1085 56.8714 33.3553 56.3906 32.6421C55.9121 31.9327 55.3773 31.2628 54.7916 30.6391C54.2117 30.0143 53.573 29.4469 52.8844 28.9448C52.1953 28.4415 51.4524 28.0166 50.6694 27.678C49.884 27.3336 49.0542 27.1013 48.2042 26.988L48.2029 26.9878C48.1984 26.9873 48.1942 26.985 48.1913 26.9815C48.1883 26.978 48.1869 26.9736 48.1871 26.969C48.1874 26.9644 48.1894 26.9601 48.1927 26.957C48.196 26.9538 48.2004 26.9521 48.205 26.9521L48.205 26.9521Z" fill="#141414"/>
<path d="M59.0597 42.5031C59.167 42.6939 59.2545 42.8952 59.3205 43.104C59.3868 43.3073 59.4405 43.5145 59.4815 43.7244C59.5231 43.9342 59.5517 44.1463 59.567 44.3597C59.5847 44.578 59.5796 44.7975 59.5517 45.0147C59.4439 44.8241 59.3563 44.6228 59.2904 44.4139C59.2241 44.2106 59.1705 44.0034 59.1298 43.7934C59.0886 43.5835 59.0602 43.3714 59.0448 43.158C59.0273 42.9398 59.0322 42.7203 59.0597 42.5031ZM48.7602 33.0688C48.8914 32.6996 49.0718 32.3497 49.2966 32.0288C49.5188 31.7015 49.7827 31.4047 50.0818 31.1458C50.2342 31.0169 50.3965 30.9004 50.5674 30.7972C50.7404 30.6958 50.9233 30.6122 51.1132 30.5477C51.3037 30.4864 51.5009 30.4484 51.7005 30.4347C51.8976 30.4255 52.095 30.444 52.2869 30.4898C52.0958 30.4994 51.9057 30.5248 51.7187 30.5655C51.5371 30.6094 51.3597 30.669 51.1884 30.7438C50.8505 30.9009 50.5365 31.1052 50.2559 31.3506C50.1116 31.471 49.9745 31.5996 49.845 31.7357C49.7115 31.8691 49.5878 32.0124 49.4627 32.1557C49.2174 32.4466 48.9849 32.751 48.7602 33.0688ZM53.3527 31.092C53.578 31.2475 53.7768 31.4384 53.9413 31.6573C54.1099 31.875 54.2499 32.1133 54.3581 32.3665C54.4687 32.6204 54.5403 32.8896 54.5707 33.1649C54.6047 33.438 54.587 33.7152 54.5185 33.9818C54.4814 33.7197 54.43 33.4597 54.3644 33.2032C54.2984 32.9535 54.2136 32.709 54.1108 32.472C54.0088 32.2331 53.8941 31.9998 53.7673 31.7732C53.6382 31.5451 53.5004 31.3206 53.3527 31.092ZM38.6958 34.7527C38.5704 35.2373 38.4358 35.7259 38.2735 36.2027C38.1125 36.6794 37.9384 37.1495 37.7866 37.6262C37.7154 37.8507 37.6467 38.0765 37.586 38.3036C37.5557 38.2785 37.5253 38.2521 37.495 38.2271C37.5517 38.0144 37.6137 37.8032 37.6758 37.5919C37.817 37.1099 37.9568 36.6292 38.0822 36.1459C38.2115 35.6639 38.3079 35.1779 38.4041 34.6867C38.6048 33.7068 38.8211 32.7296 39.0442 31.7537C39.2659 30.7765 39.4994 29.8033 39.7567 28.8326C39.7582 28.8282 39.7614 28.8244 39.7656 28.8222C39.7698 28.82 39.7746 28.8195 39.7792 28.8208C39.7836 28.8216 39.7874 28.8242 39.7899 28.8279C39.7924 28.8316 39.7933 28.8362 39.7924 28.8406C39.6605 29.8349 39.4981 30.824 39.316 31.8092C39.1326 32.7956 38.9373 33.7781 38.6958 34.7527ZM43.5584 41.3726C43.4588 41.4022 43.3543 41.4116 43.251 41.4004C43.1745 41.1046 43.1063 40.8065 43.0465 40.5063C42.9686 40.1234 42.9066 39.7391 42.8552 39.3509C42.8102 39.0049 42.776 38.6562 42.7654 38.3023C42.3032 38.231 41.8351 38.2062 41.368 38.2284C40.8426 38.2484 40.3239 38.3532 39.832 38.5387C39.421 38.6976 39.0359 38.9165 38.6892 39.1884C38.6087 39.129 38.5269 39.0656 38.4438 39.0009C38.8173 38.6718 39.2432 38.4075 39.7039 38.2191C40.2272 38.0063 40.7817 37.8805 41.3455 37.8467C41.8148 37.8206 42.2855 37.8449 42.7495 37.9194C42.6796 37.5562 42.615 37.1931 42.5583 36.8286C42.487 36.3756 42.4197 35.9214 42.3616 35.4658C42.3101 35.0089 42.2639 34.5533 42.2349 34.0937C42.2033 33.6353 42.198 33.1754 42.2191 32.7164C42.2191 32.7141 42.2197 32.7118 42.2207 32.7096C42.2216 32.7075 42.223 32.7056 42.2247 32.704C42.2265 32.7024 42.2285 32.7011 42.2307 32.7003C42.2329 32.6995 42.2352 32.6991 42.2376 32.6992C42.2419 32.6998 42.246 32.7017 42.2491 32.7048C42.2522 32.708 42.2542 32.712 42.2547 32.7164C42.2851 33.172 42.3405 33.6249 42.4052 34.0766C42.4671 34.5282 42.545 34.9772 42.6282 35.4262C42.7047 35.8752 42.7905 36.3228 42.8815 36.7705L43.1639 38.1069C43.1692 38.1307 43.1696 38.1554 43.1653 38.1794C43.1609 38.2035 43.1519 38.2264 43.1386 38.2469C43.1254 38.2674 43.1082 38.2851 43.0881 38.2989C43.0679 38.3127 43.0453 38.3224 43.0214 38.3274C42.9988 38.3322 42.9756 38.3331 42.9528 38.3301L42.9501 38.3287C42.9039 38.3221 42.8577 38.3168 42.8129 38.3089C42.9347 38.6326 43.0399 38.9623 43.1283 39.2967C43.2312 39.6731 43.321 40.0534 43.3975 40.435C43.4608 40.7467 43.5145 41.0592 43.5584 41.3726ZM38.8792 44.7519C39.0521 44.9275 39.2276 45.1045 39.4044 45.2788L35.9286 45.2696C34.0574 45.255 32.185 45.2498 30.3138 45.2247C28.4426 45.2062 26.5715 45.1802 24.7003 45.1467L21.8922 45.086L20.4895 45.0556L19.0854 45.0147L20.4895 44.9737L21.8922 44.9434L24.7003 44.8826C26.5714 44.8509 28.4426 44.825 30.3138 44.8047C32.185 44.7796 34.0574 44.7743 35.9286 44.7598L38.8792 44.7519Z" fill="#141414"/>
<path d="M64 45.0147L62.596 45.0556L61.1932 45.086L58.3852 45.1454C56.514 45.1771 54.6429 45.2031 52.7717 45.2233C50.8992 45.2484 49.028 45.2537 47.1568 45.2682L46.8876 45.2696C47.0619 45.1085 47.236 44.9394 47.4076 44.7625C49.1956 44.7757 50.9823 44.7823 52.7717 44.8061C54.6429 44.8232 56.514 44.8492 58.3852 44.884L61.1933 44.9434L62.596 44.9738L64 45.0147ZM22.8152 29.5716C22.7403 29.5306 22.6359 29.5014 22.5831 29.5487C22.5602 29.5793 22.5441 29.6144 22.5358 29.6517C22.5276 29.689 22.5273 29.7277 22.5351 29.7651C22.5546 29.9371 22.5928 30.1065 22.6491 30.2701C22.7533 30.6054 22.8867 30.9342 23.0189 31.2629C23.1577 31.5912 23.2862 31.9253 23.4221 32.2552L23.8154 33.251L24.5884 35.2441C24.7208 35.574 24.8499 35.9057 24.9967 36.227C25.065 36.3878 25.146 36.5428 25.2388 36.6908C25.2825 36.7564 25.3507 36.8379 25.3921 36.8161C25.4231 36.7924 25.4453 36.7591 25.4554 36.7214C25.4704 36.6795 25.4823 36.6364 25.491 36.5927C25.493 36.6382 25.4916 36.6838 25.4867 36.7291C25.4849 36.7807 25.4648 36.8301 25.4301 36.8683C25.4177 36.879 25.4029 36.8867 25.387 36.8907C25.371 36.8947 25.3544 36.8949 25.3384 36.8913C25.311 36.8856 25.2849 36.875 25.2614 36.8598C25.2204 36.8329 25.1824 36.8018 25.148 36.7669C25.0229 36.6313 24.9106 36.4843 24.8126 36.328C24.62 36.0215 24.4435 35.7053 24.2839 35.3804C24.1188 35.0597 23.9752 34.7299 23.8276 34.4023C23.6854 34.0723 23.5511 33.7394 23.4174 33.4064C23.2909 33.0707 23.1636 32.7353 23.0443 32.3972C22.9293 32.0571 22.8091 31.7202 22.7061 31.3751C22.595 31.0289 22.508 30.6754 22.4457 30.3171C22.4133 30.1337 22.4038 29.9469 22.4174 29.7611C22.4227 29.7122 22.4338 29.6641 22.4505 29.6179C22.4665 29.5655 22.5019 29.5211 22.5495 29.4939C22.5733 29.4833 22.5991 29.478 22.6252 29.4784C22.6512 29.4789 22.6769 29.485 22.7003 29.4964C22.7426 29.5148 22.7814 29.5402 22.8152 29.5716Z" fill="#141414"/>
<path d="M22.4756 29.7813C22.897 29.8371 23.3227 29.8536 23.7472 29.8306C24.171 29.8157 24.5939 29.7823 25.0143 29.7273C25.8556 29.6204 26.6902 29.4655 27.5139 29.2632C28.3417 29.076 29.1547 28.8294 29.9703 28.5895L31.1832 28.1931C31.586 28.0553 31.9864 27.9105 32.3925 27.7784C32.0046 27.9554 31.611 28.1199 31.2197 28.2913L30.0221 28.7457C29.82 28.8147 29.6175 28.8828 29.4141 28.9482C29.2103 29.0123 29.0093 29.0859 28.8027 29.1414C28.3909 29.256 27.9809 29.3782 27.5629 29.4712C27.1475 29.5737 26.7264 29.6519 26.3056 29.7302C25.8821 29.7938 25.4587 29.8596 25.031 29.8902C24.1803 29.956 23.3096 29.9799 22.4756 29.7813ZM33.7824 31.5391C33.3723 31.6368 32.9711 31.7688 32.5831 31.9338C32.3883 32.0128 32.1945 32.0946 32.0028 32.1807C31.8133 32.2724 31.6202 32.3553 31.4343 32.4539C30.6828 32.8319 29.9516 33.249 29.2436 33.7035C28.5273 34.1455 27.8419 34.6357 27.1518 35.12L26.1363 35.8751C25.8008 36.1312 25.4696 36.3932 25.1291 36.645C25.4381 36.3563 25.7565 36.0778 26.0705 35.7935L27.053 34.9885C27.2208 34.8594 27.3896 34.7315 27.5595 34.6049C27.7299 34.4791 27.8965 34.3479 28.0723 34.2293C28.4215 33.989 28.7685 33.7452 29.1298 33.5226C29.4863 33.2928 29.8561 33.0841 30.2242 32.8732C30.6003 32.6761 30.9749 32.4762 31.3642 32.306C32.1378 31.9629 32.9403 31.6505 33.7824 31.5391Z" fill="#141414"/>
<path d="M32.0742 27.5805L33.8954 31.7977L35.5668 29.9099L34.5934 27.656L32.0742 27.5805Z" fill="#141414"/>
<path d="M49.4632 42.1119C48.6438 43.6674 47.5036 45.031 46.1181 46.1124C45.424 46.6672 44.6293 47.0826 43.7778 47.3356C43.3465 47.4613 42.8959 47.5067 42.4483 47.4694C42.3363 47.4556 42.2252 47.4353 42.1155 47.4087C42.0062 47.3792 41.8992 47.3419 41.7952 47.297C41.5949 47.2015 41.4039 47.0875 41.2248 46.9563C40.873 46.6976 40.5355 46.42 40.2138 46.1246C39.8913 45.8322 39.5744 45.5344 39.263 45.2311L37.3797 43.433C36.7438 42.8317 36.155 42.1824 35.6185 41.4908C35.0767 40.8124 34.5274 40.1399 33.9929 39.4558L34.1376 39.5287C33.7509 39.5136 33.3678 39.4481 32.998 39.3338C32.6326 39.224 32.2775 39.0824 31.9368 38.9106C31.5931 38.7388 31.2696 38.5291 30.9724 38.2854C30.8919 38.2181 30.8187 38.1424 30.7543 38.0595C30.6828 37.961 30.6399 37.8446 30.6303 37.7232C30.625 37.6019 30.6552 37.4817 30.7173 37.3774C30.7734 37.2804 30.8475 37.1949 30.9357 37.1256L30.9192 37.3296L30.7966 37.1805C30.7595 37.1267 30.7243 37.0709 30.6904 37.0147C30.6238 36.8948 30.5811 36.7631 30.5647 36.6269C30.5515 36.4856 30.5779 36.3435 30.6411 36.2165C30.7034 36.0923 30.7957 35.9856 30.9096 35.9061L30.9671 36.0849C30.8681 36.0783 30.7717 36.05 30.685 36.0018C30.5982 35.9536 30.5232 35.8868 30.4652 35.8062C30.4084 35.7299 30.3681 35.6426 30.3471 35.5498C30.3261 35.457 30.3248 35.3608 30.3432 35.2674C30.3744 35.0856 30.4722 34.9218 30.6174 34.8081C30.6872 34.753 30.7673 34.7124 30.8528 34.6884C30.9384 34.6644 31.0279 34.6576 31.1162 34.6684L31.1189 34.6688C31.1234 34.6694 31.1275 34.6717 31.1304 34.6752C31.1333 34.6788 31.1347 34.6833 31.1344 34.6878C31.134 34.6924 31.1319 34.6966 31.1285 34.6997C31.1252 34.7028 31.1207 34.7044 31.1162 34.7043C30.9518 34.7002 30.7924 34.7605 30.6718 34.8724C30.5547 34.9797 30.4818 35.1269 30.4673 35.2851C30.4584 35.3598 30.4651 35.4355 30.4869 35.5075C30.5088 35.5794 30.5455 35.646 30.5945 35.703C30.6391 35.7582 30.6949 35.8034 30.7582 35.8355C30.8215 35.8676 30.8908 35.8859 30.9617 35.8893C30.9821 35.8877 31.0024 35.8926 31.0198 35.9033C31.0371 35.914 31.0506 35.93 31.0583 35.9489C31.0659 35.9679 31.0674 35.9887 31.0624 36.0085C31.0574 36.0283 31.0462 36.046 31.0304 36.059L31.0192 36.0681C30.9403 36.1328 30.8779 36.2153 30.8372 36.3089C30.7984 36.4002 30.7859 36.5006 30.801 36.5987C30.8205 36.7001 30.859 36.7969 30.9144 36.8841C30.9453 36.9284 30.9775 36.9723 31.01 37.0158L31.1204 37.1405C31.1327 37.1544 31.1422 37.1706 31.1483 37.1882C31.1544 37.2058 31.1569 37.2245 31.1558 37.2431C31.1547 37.2616 31.1499 37.2798 31.1418 37.2966C31.1336 37.3133 31.1223 37.3283 31.1084 37.3407L31.1076 37.3413L31.104 37.3445C31.0486 37.3932 31.0024 37.4514 30.9674 37.5163C30.9355 37.5729 30.9209 37.6378 30.9257 37.7027C30.9347 37.7665 30.9605 37.8268 31.0005 37.8773C31.0532 37.9381 31.1118 37.9935 31.1755 38.0427C31.4606 38.2586 31.7687 38.4423 32.0942 38.5904C32.4188 38.746 32.756 38.8737 33.1022 38.9722C33.4433 39.0701 33.7945 39.1285 34.149 39.146L34.1498 39.146C34.1776 39.1471 34.2048 39.1542 34.2297 39.1668C34.2545 39.1794 34.2763 39.1972 34.2937 39.219C34.8324 39.8998 35.3563 40.5923 35.8876 41.2789C36.4034 41.9697 36.9633 42.6263 37.5639 43.2445L39.3569 45.1363C39.6586 45.4478 39.9673 45.7519 40.2872 46.0434C40.6034 46.3372 40.9408 46.6073 41.2967 46.8515C41.4714 46.9724 41.6587 47.0741 41.8552 47.1547C41.9528 47.1901 42.0529 47.2185 42.1545 47.2398C42.2569 47.2583 42.3603 47.2709 42.4642 47.2778C42.885 47.2877 43.3041 47.2208 43.7011 47.0805C44.1016 46.9414 44.4885 46.7659 44.857 46.5562C45.2294 46.3483 45.5876 46.1159 45.9292 45.8604C47.2994 44.8335 48.4564 43.5263 49.4325 42.0933C49.435 42.0895 49.439 42.0868 49.4435 42.0858C49.448 42.0848 49.4527 42.0856 49.4566 42.088C49.4606 42.0903 49.4635 42.0942 49.4647 42.0986C49.4659 42.1031 49.4653 42.1078 49.4631 42.1119L49.4632 42.1119Z" fill="#141414"/>
<path d="M31.1173 34.7043L31.1147 34.7045H31.1145L31.1097 34.7038C30.9052 34.68 30.7062 34.6215 30.5213 34.5309C30.419 34.4812 30.333 34.4033 30.2734 34.3063C30.2448 34.2514 30.229 34.1908 30.227 34.1289C30.225 34.067 30.237 34.0055 30.2621 33.9489C30.3452 33.7355 30.5085 33.5631 30.717 33.4687C30.8175 33.4217 30.9236 33.3879 31.0327 33.3682C31.1496 33.3413 31.2711 33.3415 31.3879 33.3687C31.7746 33.477 32.1619 33.5831 32.547 33.6966C32.9323 33.8094 33.3181 33.9208 33.7011 34.041L33.5086 34.2572C33.4332 34.0849 33.3642 33.9099 33.2923 33.7361L33.2896 33.7296C33.2746 33.6933 33.2746 33.6526 33.2896 33.6163C33.3046 33.58 33.3335 33.5511 33.3697 33.5361C33.3927 33.5267 33.4176 33.5231 33.4422 33.5257C33.7285 33.5568 34.0123 33.6079 34.2914 33.6788C34.4353 33.7139 34.5756 33.7618 34.7109 33.8221C34.7468 33.8387 34.7816 33.8578 34.8149 33.8792L34.8664 33.914C34.884 33.9288 34.9009 33.9445 34.9168 33.9612C34.9338 33.9761 34.948 33.994 34.9587 34.014C34.9701 34.0316 34.9806 34.0497 34.9901 34.0683L35.0382 34.1668C35.2682 34.6881 35.4817 35.2066 35.6989 35.7279C35.8079 35.9904 35.9173 36.2428 36.009 36.5237L36.0225 36.5796C36.0249 36.5938 36.0287 36.6077 36.0337 36.6212C36.044 36.6508 36.0571 36.6793 36.0729 36.7063C36.1058 36.7644 36.144 36.8194 36.187 36.8706C36.2748 36.9769 36.3686 37.0781 36.468 37.1737C36.8756 37.5566 37.3027 37.918 37.7477 38.2566C38.19 38.6046 38.629 38.9471 39.0857 39.2682C39.5403 39.5896 40.0161 39.8771 40.5006 40.1544L40.8652 40.3609C40.9855 40.4278 41.1059 40.4897 41.2297 40.5503C41.4758 40.6722 41.7288 40.784 41.9861 40.8835C42.2439 40.981 42.5033 41.0759 42.766 41.1483C42.8954 41.1842 43.0266 41.213 43.1591 41.2346C43.274 41.2577 43.3922 41.2581 43.5073 41.2359L43.5231 41.231C43.5216 41.2297 43.5083 41.2366 43.518 41.2325L43.5392 41.2234L43.5818 41.2052L43.6669 41.1689L43.8339 41.0946C43.9437 41.0438 44.0543 40.9951 44.1601 40.9391C44.3736 40.8326 44.5741 40.702 44.758 40.5499C45.1142 40.2165 45.4404 39.8523 45.7329 39.4617C45.7358 39.4581 45.7399 39.4558 45.7444 39.4552C45.7489 39.4546 45.7535 39.4557 45.7572 39.4583C45.7609 39.4609 45.7635 39.4649 45.7644 39.4693C45.7654 39.4738 45.7646 39.4784 45.7622 39.4823C45.6344 39.6937 45.5022 39.9021 45.3615 40.1069C45.2225 40.3166 45.0633 40.512 44.886 40.6905C44.703 40.8677 44.5003 41.0235 44.282 41.1547C44.1744 41.2214 44.0652 41.2844 43.9535 41.3407C43.8978 41.369 43.8418 41.3985 43.7868 41.4246L43.7038 41.4648L43.6624 41.4849L43.6417 41.4949C43.6261 41.5022 43.6101 41.5084 43.5937 41.5135L43.6095 41.5086C43.5268 41.5379 43.4397 41.5531 43.352 41.5535C43.275 41.555 43.198 41.5517 43.1214 41.5438C42.9751 41.5272 42.8299 41.5027 42.6863 41.4701C42.4054 41.406 42.1288 41.3242 41.8582 41.225C41.5884 41.1275 41.3234 41.0175 41.0629 40.8952C40.933 40.8344 40.8042 40.7653 40.6785 40.6956L40.3094 40.485C39.3306 39.908 38.4128 39.233 37.5705 38.4702C37.1421 38.0985 36.7337 37.7043 36.3471 37.2893C36.2499 37.1835 36.1588 37.0721 36.0743 36.9558C36.0309 36.8959 35.9918 36.8329 35.9573 36.7675C35.9389 36.733 35.9239 36.6968 35.9125 36.6594C35.9061 36.6396 35.9014 36.6192 35.8987 36.5986C35.8952 36.5774 35.8919 36.5677 35.8887 36.5516C35.806 36.2859 35.7094 36.0249 35.5994 35.7694C35.385 35.2507 35.1441 34.7434 34.8775 34.2495L34.826 34.1619C34.8187 34.1496 34.8106 34.1378 34.802 34.1264C34.796 34.1153 34.7871 34.1059 34.7763 34.0992C34.7663 34.092 34.7595 34.0838 34.748 34.0764L34.71 34.0554C34.6829 34.0408 34.6548 34.0282 34.6259 34.0176C34.4999 33.9731 34.3704 33.9396 34.2386 33.9177C33.9673 33.8722 33.6936 33.8418 33.4189 33.8265L33.5688 33.6161C33.6465 33.7874 33.727 33.9575 33.8012 34.1303C33.8131 34.1581 33.8169 34.1888 33.8121 34.2187C33.8073 34.2486 33.7941 34.2765 33.7741 34.2992C33.754 34.3219 33.7279 34.3384 33.6988 34.3469C33.6697 34.3553 33.6389 34.3553 33.6098 34.3468L33.6086 34.3465C33.2232 34.2337 32.8405 34.1121 32.4574 33.9919C32.074 33.8724 31.6929 33.7455 31.3112 33.6208C31.2325 33.5995 31.15 33.5959 31.0697 33.6103C30.9802 33.6207 30.8923 33.6427 30.8084 33.6756C30.6411 33.7357 30.5038 33.8587 30.4257 34.0184C30.406 34.0517 30.3939 34.089 30.3903 34.1275C30.3867 34.166 30.3917 34.2048 30.405 34.2412C30.444 34.3207 30.5047 34.3875 30.58 34.434C30.7479 34.5373 30.9296 34.6163 31.1196 34.6689L31.1147 34.6682L31.1173 34.6684C31.1219 34.6687 31.1261 34.6708 31.1292 34.6741C31.1323 34.6774 31.134 34.6818 31.134 34.6863C31.134 34.6909 31.1323 34.6952 31.1292 34.6986C31.1261 34.7019 31.1219 34.7039 31.1173 34.7043L31.1173 34.7043Z" fill="#141414"/>
<path d="M31.0155 34.6082L31.7213 34.7161L31.0093 34.7684L31.0155 34.6082Z" fill="#141414"/>
<path d="M30.9706 35.907L32.0247 36.0744L30.9575 36.0668L30.9706 35.907Z" fill="#141414"/>
<path d="M31.0411 37.1576L31.8131 37.4522L30.9988 37.3123L31.0411 37.1576Z" fill="#141414"/>
<path d="M30.2678 32.9642C30.4217 32.946 30.5773 32.9472 30.7308 32.9678C30.8821 32.9847 31.0316 33.0147 31.1777 33.0573L31.2239 33.0707L31.2338 33.1017C31.2773 33.2263 31.3065 33.3555 31.3208 33.4867C31.2329 33.3883 31.1565 33.2802 31.093 33.1644L31.1492 33.2088C30.9976 33.1953 30.8474 33.1688 30.7004 33.1295C30.5499 33.0927 30.4045 33.0372 30.2678 32.9642ZM32.8818 31.7729C32.9664 31.9094 33.0431 32.0493 33.1173 32.1904C33.192 32.3312 33.2624 32.4739 33.3312 32.6173L33.3456 32.6473L33.3298 32.6822C33.2841 32.7827 33.2414 32.8846 33.1932 32.9839L33.1948 32.9116C33.3813 33.3249 33.5525 33.7448 33.6999 34.175L33.6705 34.1478C33.8113 34.2089 33.9514 34.272 34.0887 34.3434C33.9365 34.3156 33.7871 34.2796 33.6385 34.2416L33.621 34.2371L33.609 34.2143C33.397 33.8121 33.2087 33.3995 33.0357 32.9804L33.0203 32.9431L33.0373 32.9081C33.0855 32.8088 33.1391 32.7122 33.1898 32.6142L33.1884 32.679C33.1312 32.5306 33.0756 32.3815 33.0244 32.2306C32.9725 32.0799 32.9233 31.9281 32.8818 31.7729Z" fill="#141414"/>
<path d="M31.1635 33.1328C31.3209 33.0826 31.4818 33.0438 31.6448 33.0166C31.8062 32.9879 31.9682 32.9654 32.1308 32.95C32.2935 32.9339 32.4568 32.9254 32.6207 32.9228C32.7859 32.9185 32.9512 32.9261 33.1153 32.9457C32.9579 32.9961 32.797 33.035 32.634 33.0622C32.4726 33.0907 32.3106 33.1134 32.1479 33.1285C31.9853 33.1442 31.822 33.1529 31.6581 33.1554C31.4929 33.1597 31.3276 33.1521 31.1635 33.1328ZM18.4309 31.3076C17.2336 31.4718 16.0345 31.6156 14.8338 31.7391C13.6333 31.867 12.4314 31.9763 11.229 32.0819C10.0262 32.1815 8.82308 32.2771 7.61835 32.3541C6.41397 32.4357 5.20786 32.4965 4 32.5367C5.19729 32.3721 6.39633 32.2281 7.59712 32.1047C8.79754 31.9768 9.99953 31.8676 11.2019 31.7624C12.4047 31.6632 13.6079 31.5676 14.8126 31.4906C16.017 31.4092 17.2231 31.3482 18.4309 31.3076ZM21.0428 37.3559C20.3335 38.0212 19.6043 38.6619 18.868 39.2941C18.1329 39.9278 17.386 40.5469 16.6368 41.1633C15.8838 41.775 15.1283 42.3836 14.361 42.9777C13.5949 43.5734 12.8216 44.1602 12.0283 44.7224C12.7372 44.0568 13.4664 43.4159 14.2028 42.7838C14.9378 42.1502 15.6848 41.531 16.4342 40.9149C17.1874 40.3035 17.9429 39.695 18.7103 39.1009C19.4765 38.5053 20.2496 37.9183 21.0428 37.3559ZM15.5298 35.0707C15.0169 35.2687 14.4964 35.4359 13.9731 35.5923C13.4503 35.7507 12.9229 35.8909 12.3946 36.0275C11.8649 36.1584 11.3341 36.2853 10.7989 36.3941C10.264 36.5049 9.72646 36.6046 9.18107 36.6734C9.6938 36.4751 10.2143 36.3077 10.7376 36.1514C11.2605 35.9931 11.7879 35.8529 12.3162 35.7166C12.8461 35.5862 13.3768 35.4593 13.9121 35.3505C14.4469 35.2398 14.9845 35.1399 15.5298 35.0707ZM14.0121 38.3982C13.3992 38.8588 12.7697 39.2924 12.1342 39.7166C11.4998 40.1426 10.8555 40.5525 10.2093 40.9594C9.55984 41.3613 8.90833 41.7597 8.2469 42.1422C7.58656 42.5265 6.92019 42.9011 6.23695 43.2486C6.84958 42.7877 7.47905 42.3539 8.11455 41.9298C8.74902 41.5039 9.39332 41.0939 10.0398 40.6874C10.6894 40.2859 11.3409 39.8875 12.0024 39.505C12.6628 39.1208 13.3291 38.7461 14.0121 38.3982ZM48.2161 33.9805C48.0316 34.4361 47.8441 34.8902 47.6467 35.3397C47.4514 35.7902 47.2572 36.2412 47.0519 36.687C46.8481 37.1335 46.6501 37.5828 46.4414 38.027C46.2353 38.4725 46.0167 38.9121 45.7968 39.3511L45.7695 39.2442C46.1525 39.5425 46.53 39.8483 46.9165 40.1419C47.3017 40.4373 47.6964 40.7196 48.0905 41.003C48.4865 41.2836 48.8863 41.5591 49.2859 41.8348C49.6861 42.1097 50.0813 42.3916 50.477 42.6726L50.3278 42.6837C50.8049 42.1778 51.2512 41.6436 51.664 41.084C52.0824 40.5282 52.4697 39.9496 52.8242 39.351C53.0006 39.0516 53.1662 38.7461 53.3209 38.4346C53.4727 38.122 53.609 37.8024 53.7375 37.4793C53.8608 37.1539 53.9664 36.8221 54.0541 36.4854C54.1389 36.1466 54.202 35.8027 54.243 35.4559C54.2432 35.4543 54.2437 35.4527 54.2444 35.4512C54.2452 35.4498 54.2463 35.4485 54.2476 35.4474C54.2489 35.4464 54.2503 35.4456 54.2519 35.4451C54.2535 35.4447 54.2552 35.4445 54.2568 35.4447C54.2599 35.4451 54.2628 35.4466 54.2649 35.4489C54.2669 35.4513 54.2681 35.4543 54.2681 35.4574C54.2586 35.8101 54.2228 36.1615 54.1611 36.5089C54.0923 36.8558 54.004 37.1985 53.8966 37.5355C53.6708 38.2066 53.3837 38.8554 53.0391 39.4738C52.6939 40.0908 52.3057 40.6827 51.8774 41.2451C51.4493 41.808 50.9859 42.3431 50.49 42.8471L50.4893 42.8478C50.47 42.8673 50.4442 42.8791 50.4169 42.881C50.3896 42.8829 50.3625 42.8748 50.3407 42.8582C49.9546 42.564 49.5679 42.2706 49.1863 41.9704C48.8041 41.671 48.4221 41.3712 48.0363 41.0767C47.6485 40.7849 47.2615 40.492 46.8648 40.2123C46.4695 39.9307 46.0652 39.6613 45.6664 39.3845C45.6504 39.3734 45.6388 39.3572 45.6335 39.3385C45.6281 39.3198 45.6294 39.2999 45.6371 39.282L45.6391 39.2775C45.8337 38.8267 46.0295 38.3765 46.2379 37.9321C46.4436 37.4865 46.6601 37.0458 46.8707 36.6025C47.0799 36.1585 47.3002 35.7196 47.5193 35.2803C47.7364 34.8399 47.9633 34.4042 48.1933 33.9699C48.1948 33.967 48.1974 33.9649 48.2004 33.9639C48.2035 33.9628 48.2068 33.963 48.2097 33.9644C48.2127 33.9657 48.2149 33.9682 48.2161 33.9712C48.2173 33.9742 48.2173 33.9775 48.2161 33.9805L48.2161 33.9805ZM41.306 25.2827C41.3583 25.2808 41.4078 25.2588 41.4442 25.2211C41.4805 25.1835 41.5008 25.1332 41.5008 25.0808C41.5008 25.0285 41.4805 24.9782 41.4442 24.9405C41.4078 24.9029 41.3583 24.8808 41.306 24.879C41.2537 24.8808 41.2042 24.9029 41.1679 24.9405C41.1315 24.9782 41.1112 25.0285 41.1112 25.0808C41.1112 25.1332 41.1315 25.1835 41.1679 25.2211C41.2042 25.2588 41.2537 25.2808 41.306 25.2827Z" fill="#141414"/>
</svg>
