<svg width="24" height="17" viewBox="0 0 24 17" fill="none" xmlns="http://www.w3.org/2000/svg">
<path d="M21.634 0H2.2487C1.00804 0 0 1.00804 0 2.2487V14.1513C0 15.392 1.00804 16.4 2.2487 16.4H21.634C22.8747 16.4 23.8827 15.392 23.8827 14.1513V2.2487C23.8827 1.00804 22.8747 0 21.634 0ZM21.634 1.35697C21.8279 1.35697 21.983 1.39574 22.1381 1.51206L12.4842 7.36643C12.1352 7.56028 11.7475 7.56028 11.3986 7.36643L1.74468 1.51206C1.89976 1.43452 2.05485 1.35697 2.2487 1.35697H21.634ZM21.634 15.0043H2.2487C1.78345 15.0043 1.35697 14.6165 1.35697 14.1125V2.86903L10.6619 8.52955C11.0496 8.76218 11.4761 8.87849 11.9026 8.87849C12.3291 8.87849 12.7556 8.76218 13.1433 8.52955L22.4482 2.86903V14.1125C22.5258 14.6165 22.0993 15.0043 21.634 15.0043Z" fill="#141414"/>
</svg>
