<svg width="67" height="67" viewBox="0 0 67 67" fill="none" xmlns="http://www.w3.org/2000/svg">
<path fill-rule="evenodd" clip-rule="evenodd" d="M33.2473 4.46091H28.6768V7.3083H30.3308L30.9492 7.93819L31.5788 7.3083H33.2473V4.46091Z" fill="#FFFAE9"/>
<path fill-rule="evenodd" clip-rule="evenodd" d="M38.3825 8.22055H33.812V11.0679H35.4661L36.0845 11.6978L36.7141 11.0679H38.3825V8.22055Z" fill="#FFFAE9"/>
<path fill-rule="evenodd" clip-rule="evenodd" d="M33.7131 12.5831H29.1426V15.4305H30.7967L31.4151 16.0604L32.0447 15.4305H33.7131V12.5831Z" fill="#FFFAE9"/>
<path d="M22.5283 14.2012C22.5712 14.6648 22.5815 15.1309 22.5593 15.5959C22.5474 15.8312 22.522 16.0657 22.4832 16.2981C22.4618 16.4174 22.433 16.5352 22.397 16.6509C22.3781 16.7114 22.3554 16.7707 22.3288 16.8283L22.2962 16.9009C22.2884 16.9211 22.2822 16.9418 22.2776 16.963C22.2512 17.1576 22.2952 17.3552 22.4018 17.5203C22.51 17.7106 22.6386 17.8886 22.7854 18.0511L22.8968 18.176L22.9545 18.2369L22.9837 18.267C23 18.2835 23.0149 18.3013 23.0282 18.3202C23.082 18.3972 23.1048 18.4914 23.0922 18.5844C23.0859 18.6299 23.0711 18.6739 23.0487 18.7141C23.0307 18.7438 23.0109 18.7725 22.9894 18.7998C22.8384 19.015 22.613 19.1669 22.3564 19.2263L22.4281 19.1676C22.2299 19.545 22.0098 19.9106 21.7689 20.2624C21.5371 20.6215 21.2641 20.9523 20.9554 21.2481C20.7953 21.3996 20.6099 21.5218 20.4075 21.6093C20.3005 21.6525 20.1871 21.6777 20.0719 21.6838C20.013 21.6859 19.954 21.6827 19.8957 21.674L19.7353 21.6455C19.5201 21.6076 19.3087 21.551 19.1034 21.4762C18.9954 21.4353 18.8922 21.3826 18.7958 21.319C18.7424 21.2838 18.6935 21.242 18.6505 21.1947C18.6254 21.1677 18.6038 21.1378 18.5859 21.1057C18.5753 21.0873 18.5665 21.068 18.5594 21.048C18.5484 21.0184 18.543 20.9871 18.5437 20.9556L18.7717 21.0838C18.4729 21.3289 18.2234 21.6283 18.0366 21.9661C17.9422 22.1343 17.8658 22.3119 17.8086 22.496C17.7518 22.6794 17.7105 22.8672 17.6853 23.0575L17.6839 23.0667C17.6779 23.1042 17.6603 23.139 17.6337 23.1661C17.607 23.1932 17.5725 23.2113 17.535 23.2179C17.4975 23.2245 17.4588 23.2193 17.4244 23.203C17.39 23.1866 17.3616 23.16 17.3431 23.1268C17.126 22.7306 16.9492 22.3137 16.8155 21.8824C16.679 21.4541 16.5862 21.0131 16.5385 20.5662C16.4871 20.1189 16.4993 19.6666 16.5749 19.2228C16.6479 18.7814 16.8017 18.3572 17.0285 17.9714C17.0308 17.9674 17.0346 17.9645 17.0391 17.9634C17.0435 17.9622 17.0482 17.9629 17.0522 17.9652C17.0557 17.9674 17.0584 17.9708 17.0597 17.9747C17.061 17.9787 17.0609 17.9829 17.0594 17.9868C16.9785 18.1889 16.9124 18.3967 16.8617 18.6083C16.8141 18.8186 16.7812 19.0319 16.763 19.2467C16.7338 19.6748 16.7544 20.105 16.8244 20.5284C16.8966 20.9514 17.0055 21.3674 17.1499 21.7716C17.2904 22.1746 17.4616 22.5664 17.6621 22.9433L17.3199 23.0126C17.3778 22.5836 17.5221 22.1706 17.744 21.7985C17.8528 21.6134 17.9799 21.4396 18.1233 21.2796C18.2664 21.1158 18.4286 20.9696 18.6066 20.8443L18.8346 20.9725C18.8345 20.9435 18.8331 20.9585 18.834 20.9574C18.8353 20.9624 18.8372 20.9672 18.8398 20.9717C18.8466 20.9862 18.8553 20.9996 18.8658 21.0117C18.8923 21.0439 18.9227 21.0726 18.9564 21.0971C19.0338 21.1536 19.117 21.2018 19.2047 21.2407C19.3907 21.3257 19.5838 21.3944 19.7817 21.446C20.1634 21.6013 20.5623 21.4238 20.8763 21.1576C21.1892 20.8808 21.4583 20.5582 21.6742 20.2009C21.8933 19.8448 22.0821 19.471 22.2388 19.0834C22.2443 19.0699 22.2529 19.0578 22.2638 19.048C22.2748 19.0383 22.2878 19.0311 22.3019 19.0271L22.3105 19.0247C22.5053 18.9597 22.6693 18.8254 22.7711 18.6475C22.7838 18.6282 22.7955 18.6082 22.806 18.5877C22.8105 18.5765 22.8129 18.5646 22.8129 18.5526C22.8133 18.5295 22.8058 18.507 22.7917 18.4888C22.788 18.4844 22.784 18.4803 22.7797 18.4764L22.747 18.4457L22.6824 18.3835C22.6399 18.3414 22.5978 18.2988 22.5571 18.2547C22.39 18.0767 22.2467 17.8779 22.1305 17.6633C21.9917 17.4311 21.9439 17.156 21.9961 16.8907C22.0056 16.8558 22.0178 16.8217 22.0326 16.7887L22.0748 16.7049C22.0988 16.6586 22.1198 16.6107 22.1375 16.5616C22.175 16.4582 22.2061 16.3525 22.2305 16.2452C22.2829 16.0245 22.3238 15.8011 22.353 15.5761C22.4164 15.1229 22.4593 14.663 22.4938 14.2018C22.494 14.1972 22.4961 14.1929 22.4995 14.1899C22.5029 14.1868 22.5074 14.1852 22.512 14.1855C22.5162 14.1858 22.5201 14.1875 22.523 14.1904C22.526 14.1933 22.5279 14.1971 22.5283 14.2012Z" fill="#141414"/>
<path d="M17.5027 18.7237C17.5624 19.0443 17.6636 19.3558 17.8036 19.6505C17.8735 19.7932 17.9603 19.9271 18.0621 20.0492C18.1685 20.1743 18.2863 20.2895 18.4138 20.3932C18.2471 20.3449 18.0936 20.2593 17.9652 20.1428C17.8342 20.0259 17.7269 19.885 17.6492 19.7278C17.5724 19.5721 17.5201 19.4055 17.4942 19.234C17.4661 19.0648 17.469 18.8919 17.5027 18.7237Z" fill="#141414"/>
<path d="M17.044 17.9789C15.7391 21.0403 17.5026 23.0349 17.5026 23.0349C14.2758 22.3424 12.6003 24.2791 12.6003 24.2791C11.7309 22.4235 9.72661 22.6968 9.72661 22.6968C9.72661 22.6968 8.49772 21.4288 10.0656 20.3933C11.1632 19.6684 11.3056 18.9954 11.2922 18.6567C11.2737 18.3509 11.3099 18.0442 11.399 17.751C11.538 17.3261 11.7485 16.9279 12.0213 16.5733C12.4692 16 12.806 15.3484 13.0142 14.6519C13.4605 13.1174 14.5164 10.6745 16.6937 10.8201C17.2447 10.7681 17.8003 10.7965 18.3431 10.9046C19.0887 11.0625 19.7978 11.3588 20.4336 11.7781C21.2226 12.2644 21.9205 12.8842 22.4959 13.6096C22.5626 14.2328 22.4238 14.8606 22.1004 15.398C21.5129 16.3456 20.5113 16.6332 19.9541 16.7205C19.7648 16.7535 19.5701 16.7374 19.3888 16.6738C19.2075 16.6101 19.0456 16.5011 18.9187 16.3571C18.829 16.2511 18.7614 16.1283 18.7201 15.9959C18.669 15.8019 18.579 15.6203 18.4555 15.4621C18.3321 15.3038 18.1777 15.1721 18.0018 15.075C17.567 14.8603 17.0347 14.9251 16.7822 16.2301C16.5721 17.3163 16.7667 17.7882 17.044 17.9789ZM36.7904 37.0244C36.2004 37.1271 35.605 37.1959 35.0071 37.2306C34.4126 37.2701 33.8179 37.291 33.2233 37.2932C32.6286 37.2963 32.0338 37.2774 31.439 37.2417C30.8409 37.2107 30.2451 37.145 29.6546 37.0451C30.2445 36.9417 30.84 36.8726 31.438 36.8381C32.0325 36.7989 32.6271 36.7766 33.2217 36.7762C33.8163 36.7741 34.411 36.7916 35.0058 36.8286C35.6039 36.8597 36.1998 36.9251 36.7904 37.0244Z" fill="#141414"/>
<path d="M23.2842 37.0832C22.1211 37.1799 20.9545 37.2302 19.7875 37.2651L19.3498 37.2784L19.1308 37.2843C19.0541 37.2885 18.9772 37.287 18.9008 37.2796C18.5636 37.2521 18.239 37.1394 17.9576 36.9522C17.6903 36.7756 17.4524 36.5583 17.2527 36.3081C17.0518 36.0652 16.8785 35.801 16.7357 35.5202C16.7304 35.5098 16.7261 35.499 16.7227 35.4879L16.7191 35.4759C16.3786 34.3357 16.0306 33.1942 15.6751 32.0513C15.4935 31.481 15.3049 30.9126 15.1093 30.3458L14.7966 29.5032L14.4603 28.6697C14.2266 28.1179 13.9858 27.5691 13.7292 27.0273C13.4734 26.4852 13.2022 25.9503 12.9312 25.4157C12.6576 24.8824 12.3786 24.3522 12.0943 23.825C11.9821 23.6004 11.8115 23.4101 11.6003 23.2738C11.3892 23.1376 11.1452 23.0604 10.8939 23.0504L9.11422 23.1166C8.5104 23.1345 7.90585 23.146 7.29879 23.1442C6.69101 23.1337 6.08458 23.1159 5.4618 23.0444C5.30576 23.0239 5.14861 22.9994 4.98518 22.9635C4.89909 22.945 4.81405 22.922 4.73044 22.8945C4.6176 22.8598 4.5116 22.806 4.41708 22.7355C4.37645 22.7029 4.34039 22.6651 4.30984 22.623C4.26564 22.5611 4.23672 22.4897 4.22544 22.4146C4.22063 22.3743 4.22043 22.3336 4.22487 22.2933L4.23705 22.2353C4.24454 22.1984 4.25552 22.1623 4.26984 22.1274C4.29243 22.072 4.32048 22.0189 4.35359 21.969C4.38045 21.926 4.41044 21.8851 4.44334 21.8465C4.55512 21.7153 4.67855 21.5945 4.81212 21.4855C5.30155 21.1103 5.81529 20.7678 6.35 20.4601L7.90603 19.553C8.16157 19.4012 8.41556 19.2457 8.65387 19.0807C8.71502 19.0397 8.76942 18.9978 8.82987 18.9541L9.02969 18.8152C9.09931 18.7737 9.17147 18.7363 9.24195 18.6974C9.31427 18.6617 9.38999 18.6329 9.46384 18.6018C9.76269 18.4946 10.0791 18.4443 10.3965 18.4536C10.7063 18.4569 11.0132 18.5145 11.3031 18.6237C11.3111 18.6268 11.3177 18.6327 11.3215 18.6404C11.3253 18.6481 11.3262 18.657 11.3238 18.6653C11.3214 18.6735 11.316 18.6806 11.3087 18.6851C11.3014 18.6896 11.2926 18.6912 11.2842 18.6896L11.281 18.689C10.7098 18.5659 10.1137 18.6347 9.58576 18.8847C9.52503 18.9201 9.46187 18.95 9.40308 18.9872L9.23209 19.1061L9.07448 19.2414C9.01789 19.2918 8.95827 19.3477 8.89915 19.3967C8.66189 19.5988 8.41428 19.7753 8.16764 19.9528C7.67437 20.3064 7.16797 20.6312 6.67535 20.9697C6.1837 21.2875 5.71193 21.6349 5.2627 22.01C5.16548 22.0933 5.0757 22.1849 4.99438 22.2837C4.97862 22.3023 4.96464 22.3223 4.95263 22.3435C4.94416 22.3561 4.93712 22.3695 4.93164 22.3836C4.92591 22.3916 4.93463 22.3836 4.93273 22.3833C4.9328 22.3821 4.93242 22.3808 4.93164 22.3798C4.93496 22.3582 4.93479 22.3362 4.93114 22.3147C4.92636 22.2615 4.90164 22.2121 4.86191 22.1763C4.85336 22.1698 4.90114 22.1963 4.95355 22.2101C5.01328 22.2278 5.0739 22.2424 5.13517 22.2537C5.26605 22.279 5.40672 22.2978 5.54915 22.3126C6.12147 22.3774 6.71859 22.3989 7.31259 22.4139C7.90784 22.4344 8.50594 22.4418 9.10446 22.4427L10.0028 22.4388L10.4522 22.4335C10.6039 22.4335 10.7411 22.4227 10.9311 22.4353C11.2838 22.4607 11.6227 22.5829 11.9103 22.7883C12.1979 22.9937 12.4229 23.2744 12.5606 23.5994C12.8022 24.151 13.0352 24.7058 13.2669 25.2608L13.9558 26.9274L14.654 28.5886C15.5758 30.8027 16.672 32.9668 17.3128 35.305L17.2962 35.2608C17.5218 35.7387 17.8579 36.1563 18.277 36.4793C18.4739 36.6262 18.7052 36.7204 18.9489 36.7531C19.0167 36.7629 19.0852 36.7674 19.1538 36.7665L19.3709 36.7748L19.8051 36.793C20.9634 36.841 22.1221 36.9044 23.2843 37.0142C23.2934 37.015 23.3019 37.0194 23.3078 37.0264C23.3138 37.0334 23.3167 37.0424 23.3159 37.0516C23.3152 37.0597 23.3116 37.0673 23.3058 37.0731C23.3 37.0788 23.2924 37.0824 23.2842 37.0832Z" fill="#141414"/>
<path d="M30.595 35.4785C31.5474 35.4521 32.4995 35.4368 33.4517 35.422L34.8799 35.3986L35.5939 35.389C35.8422 35.3816 36.0906 35.3972 36.336 35.4356C36.8329 35.5149 37.3096 35.6896 37.7397 35.9501C37.8499 36.017 37.9449 36.0821 38.0454 36.1473C38.1531 36.2169 38.2563 36.2934 38.3543 36.3761C38.7534 36.7187 39.0392 37.1737 39.1741 37.6814C39.2078 37.808 39.2318 37.937 39.2457 38.0673C39.2551 38.1323 39.2559 38.1979 39.2603 38.2634L39.2659 38.4432L39.301 39.8673L39.3661 42.7156L39.418 45.5641C39.454 47.4631 39.4741 49.3623 39.4785 51.2617L39.4719 54.111L39.4696 54.8233C39.4684 54.9435 39.4707 55.0574 39.4667 55.1828C39.4538 55.8352 39.1955 56.4591 38.7431 56.9304C38.3859 57.3022 37.9232 57.5561 37.4172 57.6582C37.172 57.7007 36.9231 57.718 36.6743 57.7099L35.9595 57.7107L33.1013 57.707C31.1961 57.7025 29.291 57.6845 27.386 57.653C25.4811 57.6171 23.5751 57.5865 21.6703 57.5028C19.7656 57.4232 17.8594 57.3335 15.958 57.1667C15.4823 57.1293 15.0076 57.0794 14.5322 57.0364C14.0574 56.9949 13.5814 56.943 13.105 56.8887L12.3907 56.8087L12.2121 56.7881L12.1229 56.7777C12.1001 56.7749 12.0775 56.7707 12.0553 56.7652L11.9991 56.7513C11.8627 56.7133 11.7306 56.661 11.6053 56.5952C11.3565 56.4651 11.1356 56.2879 10.955 56.0734C10.7789 55.8591 10.6428 55.6151 10.5529 55.353C10.403 54.8536 10.3573 54.3288 10.4187 53.811C10.4506 53.3591 10.4533 52.8837 10.4532 52.4151C10.4483 51.4738 10.4138 50.5295 10.3603 49.5866C10.3045 48.6436 10.2352 47.7013 10.1524 46.7597C10.0689 45.8183 9.95903 44.8795 9.84439 43.9415C9.72844 43.0037 9.59455 42.0683 9.44272 41.1354C9.28618 40.2037 9.11966 39.2735 8.93103 38.3478C8.56326 36.4944 8.09622 34.662 7.53194 32.8585C7.25127 31.9566 6.93959 31.0651 6.60975 30.1797C6.2636 29.3014 5.90838 28.4245 5.49282 27.5757C5.29746 27.1449 5.06931 26.7312 4.85644 26.3088C4.62133 25.8867 4.42652 25.4436 4.27458 24.9852C4.12948 24.524 4.03936 24.0473 4.0061 23.5651C3.98757 23.3203 4.01133 23.0741 4.07634 22.8373C4.11048 22.716 4.1703 22.6033 4.25175 22.507C4.33616 22.4119 4.44549 22.3421 4.56745 22.3055C4.57173 22.304 4.57628 22.3033 4.58083 22.3035C4.58538 22.3037 4.58985 22.3048 4.59397 22.3067C4.59809 22.3087 4.60179 22.3114 4.60485 22.3148C4.60791 22.3181 4.61027 22.3221 4.6118 22.3263C4.61333 22.3306 4.614 22.3352 4.61376 22.3397C4.61352 22.3442 4.61239 22.3487 4.61042 22.3528C4.60846 22.3569 4.6057 22.3606 4.6023 22.3636C4.59891 22.3666 4.59494 22.369 4.59064 22.3704L4.58831 22.3713C4.48391 22.4124 4.39189 22.4796 4.32118 22.5666C4.25046 22.6535 4.20343 22.7572 4.18463 22.8676C4.13861 23.0933 4.12984 23.3251 4.15867 23.5537C4.21399 24.018 4.32372 24.4743 4.48562 24.9131C4.65459 25.3494 4.86443 25.769 5.11234 26.1661C5.35057 26.5798 5.59145 26.9931 5.80571 27.42C6.68892 29.1162 7.43792 30.8788 8.04586 32.6914C9.24987 36.3197 10.0971 40.0562 10.5757 43.8481C10.8175 45.7413 10.9956 47.6428 11.0799 49.5504C11.1222 50.5043 11.1454 51.459 11.1386 52.417C11.1324 52.8979 11.1249 53.3729 11.0841 53.868C11.0714 53.9997 11.0697 54.0931 11.0616 54.2069C11.0536 54.3146 11.0539 54.4226 11.0622 54.5302C11.0705 54.7389 11.1063 54.9455 11.1687 55.1448C11.2871 55.5254 11.5492 55.8452 11.8996 56.0366C11.9844 56.0827 12.0737 56.1198 12.1663 56.1472L12.1967 56.1552C12.2031 56.1575 12.2098 56.1589 12.2167 56.1592L12.3046 56.1704L12.4805 56.1929L13.1838 56.2855C13.6522 56.349 14.1215 56.4105 14.5942 56.4621C15.0661 56.515 15.5373 56.5747 16.0099 56.6221C17.8997 56.8184 19.7936 56.9911 21.6911 57.1258C25.4861 57.3958 29.2893 57.515 33.1006 57.4835C34.0523 57.4757 35.0037 57.4534 35.9549 57.4273L36.668 57.4015C36.8955 57.4015 37.1224 57.3784 37.3452 57.3324C37.5592 57.2781 37.7648 57.1947 37.9561 57.0847C38.1433 56.97 38.3135 56.8298 38.4619 56.6682C38.7551 56.3435 38.9426 55.9377 39 55.5045C39.0147 55.3977 39.0213 55.2899 39.0196 55.1821C39.0197 55.0702 39.0134 54.9466 39.0105 54.8295L38.9885 54.1175L38.9032 51.2694C38.8562 49.3706 38.8238 47.4716 38.8059 45.5724L38.7789 42.7236L38.7652 39.8746L38.7609 38.4501L38.7605 38.2739C38.758 38.2208 38.7597 38.1674 38.7532 38.1146C38.7449 38.0084 38.7285 37.903 38.7041 37.7993C38.6545 37.5911 38.5743 37.3913 38.4659 37.2064C38.356 37.0214 38.2194 36.8534 38.0604 36.708C37.9787 36.635 37.8924 36.5673 37.8019 36.5054L37.5143 36.3063C37.137 36.0579 36.715 35.8849 36.2716 35.797C36.0478 35.7532 35.8204 35.7303 35.5923 35.7288L34.8782 35.7061L33.4501 35.6564C32.4981 35.6241 31.5461 35.5913 30.5944 35.5474C30.5854 35.547 30.577 35.5432 30.5708 35.5367C30.5647 35.5302 30.5613 35.5216 30.5614 35.5127C30.5614 35.5037 30.565 35.4952 30.5713 35.4888C30.5776 35.4824 30.5861 35.4787 30.595 35.4785L30.595 35.4785Z" fill="#141414"/>
<path d="M37.4777 39.1013L37.4957 39.6182C37.4959 39.6219 37.4953 39.6256 37.494 39.629C37.4927 39.6325 37.4907 39.6356 37.4882 39.6383C37.4857 39.641 37.4826 39.6432 37.4793 39.6447C37.4759 39.6462 37.4723 39.6471 37.4686 39.6472C37.4649 39.6473 37.4612 39.6467 37.4578 39.6455C37.4543 39.6442 37.4511 39.6422 37.4484 39.6397C37.4457 39.6372 37.4435 39.6342 37.442 39.6308C37.4405 39.6274 37.4396 39.6238 37.4395 39.6201L37.4394 39.619L37.4431 39.1017C37.4432 39.0972 37.445 39.0929 37.4482 39.0897C37.4514 39.0865 37.4557 39.0847 37.4602 39.0846C37.4647 39.0846 37.4691 39.0863 37.4724 39.0894C37.4756 39.0925 37.4776 39.0968 37.4777 39.1013ZM37.5133 40.1351L37.5287 40.6521C37.529 40.6582 37.528 40.6644 37.5258 40.6701C37.5236 40.6759 37.5203 40.6812 37.5161 40.6857C37.5119 40.6902 37.5068 40.6938 37.5012 40.6963C37.4956 40.6989 37.4895 40.7003 37.4833 40.7005C37.4771 40.7006 37.471 40.6996 37.4652 40.6974C37.4594 40.6952 37.4542 40.6919 37.4497 40.6877C37.4452 40.6834 37.4416 40.6783 37.4391 40.6727C37.4366 40.6671 37.4352 40.661 37.4351 40.6549L37.435 40.6534L37.4362 40.1362C37.4362 40.1261 37.4402 40.1164 37.4473 40.1092C37.4544 40.102 37.4641 40.0979 37.4742 40.0977C37.4844 40.0976 37.4941 40.1014 37.5015 40.1084C37.5088 40.1154 37.5131 40.125 37.5133 40.1351ZM37.5442 41.169L37.5596 41.686C37.5601 41.7028 37.5539 41.719 37.5423 41.7312C37.5308 41.7434 37.5149 41.7505 37.4981 41.751C37.4813 41.7515 37.465 41.7454 37.4528 41.7339C37.4406 41.7224 37.4334 41.7065 37.4329 41.6898L37.4329 41.6877L37.434 41.1706C37.434 41.1561 37.4397 41.1423 37.4499 41.132C37.4601 41.1218 37.4739 41.1159 37.4883 41.1157C37.5028 41.1155 37.5167 41.121 37.5272 41.131C37.5376 41.141 37.5437 41.1546 37.5442 41.169ZM37.5749 42.203L37.5904 42.7199C37.5908 42.7409 37.5829 42.7612 37.5684 42.7764C37.5539 42.7916 37.5339 42.8005 37.5129 42.8011C37.4919 42.8017 37.4714 42.7941 37.4561 42.7797C37.4407 42.7654 37.4316 42.7456 37.4307 42.7247L37.4307 42.7221L37.4318 42.2049C37.4319 42.1862 37.4394 42.1683 37.4526 42.1551C37.4658 42.1418 37.4837 42.1342 37.5024 42.134C37.5211 42.1337 37.5392 42.1408 37.5528 42.1537C37.5664 42.1666 37.5743 42.1843 37.575 42.203H37.5749ZM37.6036 43.2369L37.6161 43.7539C37.6166 43.778 37.6076 43.8014 37.5909 43.8189C37.5742 43.8364 37.5512 43.8465 37.527 43.8471C37.5028 43.8477 37.4794 43.8386 37.4619 43.822C37.4444 43.8053 37.4342 43.7824 37.4336 43.7583V43.7564L37.4317 43.2393C37.4316 43.2167 37.4405 43.195 37.4564 43.1789C37.4722 43.1628 37.4939 43.1535 37.5165 43.1532C37.5392 43.1529 37.561 43.1615 37.5773 43.1772C37.5936 43.1929 37.6031 43.2143 37.6036 43.2369ZM37.6285 44.2709L37.641 44.7879C37.6416 44.8148 37.6315 44.8409 37.6129 44.8604C37.5942 44.8799 37.5686 44.8912 37.5416 44.8919C37.5146 44.8925 37.4885 44.8824 37.4689 44.8639C37.4494 44.8453 37.438 44.8197 37.4374 44.7928L37.4374 44.7907L37.4355 44.2736C37.4354 44.2482 37.4453 44.2238 37.4631 44.2057C37.481 44.1876 37.5052 44.1772 37.5307 44.1769C37.5561 44.1765 37.5807 44.1862 37.599 44.2038C37.6173 44.2214 37.6279 44.2456 37.6285 44.2709ZM37.6534 45.3049L37.6658 45.8219C37.6662 45.8366 37.6636 45.8513 37.6583 45.865C37.653 45.8787 37.645 45.8913 37.6348 45.9019C37.6246 45.9126 37.6124 45.9211 37.599 45.9271C37.5855 45.9331 37.5709 45.9363 37.5562 45.9367C37.5414 45.937 37.5267 45.9345 37.513 45.9292C37.4992 45.9239 37.4866 45.9159 37.476 45.9057C37.4653 45.8956 37.4567 45.8834 37.4507 45.87C37.4448 45.8565 37.4415 45.842 37.4411 45.8273L37.4411 45.825L37.4392 45.3079C37.4391 45.2797 37.4502 45.2527 37.47 45.2326C37.4897 45.2126 37.5166 45.2011 37.5448 45.2007C37.573 45.2003 37.6003 45.211 37.6206 45.2306C37.6409 45.2501 37.6527 45.2768 37.6534 45.3049ZM37.6782 46.3389L37.6907 46.8559C37.6911 46.872 37.6883 46.8881 37.6825 46.9031C37.6767 46.9182 37.668 46.932 37.6569 46.9436C37.6457 46.9553 37.6324 46.9647 37.6176 46.9713C37.6028 46.9778 37.5869 46.9814 37.5707 46.9817C37.5546 46.9821 37.5385 46.9793 37.5234 46.9735C37.5083 46.9677 37.4946 46.959 37.4829 46.9478C37.4712 46.9367 37.4618 46.9233 37.4553 46.9086C37.4488 46.8938 37.4452 46.8779 37.4449 46.8618L37.4449 46.8593L37.443 46.3422C37.4429 46.3112 37.455 46.2815 37.4767 46.2595C37.4984 46.2374 37.528 46.2248 37.559 46.2244C37.59 46.2239 37.6199 46.2357 37.6422 46.2572C37.6646 46.2786 37.6775 46.308 37.6782 46.3389V46.3389ZM37.7031 47.3729L37.713 47.89C37.7136 47.9246 37.7004 47.958 37.6764 47.9829C37.6523 48.0078 37.6193 48.0221 37.5846 48.0228C37.5499 48.0235 37.5164 48.0104 37.4914 47.9864C37.4664 47.9624 37.4519 47.9295 37.4512 47.895V47.8936L37.4467 47.3765C37.4464 47.3426 37.4595 47.3101 37.4832 47.2859C37.5069 47.2617 37.5392 47.2479 37.5732 47.2474C37.607 47.2469 37.6397 47.2599 37.6641 47.2834C37.6885 47.3069 37.7025 47.3391 37.7031 47.3729V47.3729ZM37.7223 48.407L37.7316 48.9241C37.7322 48.9598 37.7185 48.9942 37.6936 49.0199C37.6687 49.0456 37.6346 49.0604 37.5988 49.061C37.563 49.0616 37.5284 49.0481 37.5026 49.0233C37.4768 48.9986 37.4619 48.9646 37.4612 48.9289V48.9278L37.4561 48.4107C37.4558 48.3756 37.4695 48.3418 37.4941 48.3167C37.5187 48.2916 37.5522 48.2772 37.5874 48.2767C37.6226 48.2763 37.6565 48.2897 37.6818 48.3141C37.7071 48.3385 37.7216 48.3719 37.7223 48.407ZM37.7409 49.4411L37.7503 49.9581C37.7509 49.995 37.7369 50.0307 37.7112 50.0573C37.6855 50.0839 37.6502 50.0991 37.6132 50.0998C37.5762 50.1005 37.5405 50.0865 37.5138 50.0608C37.4872 50.0352 37.4718 50 37.4712 49.9631V49.962L37.4662 49.4449C37.4657 49.4086 37.4798 49.3736 37.5052 49.3476C37.5306 49.3216 37.5653 49.3068 37.6017 49.3063C37.638 49.3058 37.6731 49.3197 37.6992 49.345C37.7253 49.3702 37.7403 49.4048 37.7409 49.4411ZM37.7595 50.4752L37.7688 50.9922C37.7695 51.0303 37.755 51.067 37.7285 51.0944C37.702 51.1217 37.6657 51.1375 37.6276 51.1382C37.5894 51.1389 37.5526 51.1244 37.5251 51.098C37.4977 51.0716 37.4819 51.0354 37.4812 50.9974V50.9962L37.4762 50.4791C37.4758 50.4417 37.4902 50.4057 37.5164 50.3789C37.5426 50.3521 37.5784 50.3368 37.6159 50.3363C37.6534 50.3358 37.6896 50.3501 37.7165 50.3761C37.7434 50.4022 37.7589 50.4378 37.7595 50.4752ZM37.7782 51.5093L37.7874 52.0263C37.7878 52.0457 37.7843 52.065 37.7772 52.0831C37.7701 52.1011 37.7595 52.1176 37.7459 52.1316C37.7324 52.1455 37.7163 52.1567 37.6985 52.1645C37.6806 52.1722 37.6614 52.1764 37.642 52.1767C37.6225 52.1771 37.6032 52.1736 37.5851 52.1665C37.567 52.1594 37.5505 52.1488 37.5365 52.1353C37.5225 52.1218 37.5113 52.1058 37.5035 52.088C37.4957 52.0702 37.4915 52.051 37.4912 52.0316V52.0304L37.4862 51.5133C37.4859 51.4748 37.5008 51.4378 37.5278 51.4102C37.5548 51.3827 37.5916 51.367 37.6302 51.3665C37.6687 51.3659 37.706 51.3807 37.7337 51.4074C37.7614 51.4342 37.7774 51.4708 37.7782 51.5093ZM37.7968 52.5434L37.8061 53.0604C37.8065 53.0804 37.8029 53.1003 37.7956 53.1189C37.7883 53.1375 37.7774 53.1545 37.7635 53.169C37.7496 53.1834 37.733 53.1949 37.7146 53.2029C37.6962 53.2109 37.6764 53.2152 37.6564 53.2156C37.6363 53.2159 37.6164 53.2123 37.5977 53.205C37.5791 53.1977 37.5621 53.1867 37.5476 53.1728C37.5332 53.1589 37.5217 53.1423 37.5137 53.124C37.5058 53.1056 37.5015 53.0859 37.5012 53.0659V53.0646L37.4962 52.5475C37.4958 52.5078 37.5111 52.4696 37.5389 52.4412C37.5667 52.4128 37.6046 52.3966 37.6444 52.396C37.6842 52.3955 37.7226 52.4107 37.7511 52.4383C37.7797 52.4659 37.7961 52.5037 37.7968 52.5434ZM37.8154 53.5775L37.8218 54.0983C37.8221 54.1185 37.8183 54.1386 37.8108 54.1574C37.8033 54.1762 37.7921 54.1933 37.7779 54.2078C37.7638 54.2223 37.7469 54.2338 37.7282 54.2418C37.7096 54.2498 37.6895 54.254 37.6693 54.2543C37.649 54.2545 37.6288 54.2508 37.61 54.2433C37.5912 54.2358 37.574 54.2246 37.5595 54.2105C37.5449 54.1964 37.5333 54.1795 37.5253 54.1609C37.5174 54.1423 37.5131 54.1223 37.5129 54.1021L37.5128 54.095L37.5062 53.5817C37.5059 53.5615 37.5096 53.5413 37.5171 53.5225C37.5245 53.5037 37.5357 53.4865 37.5498 53.472C37.5639 53.4574 37.5808 53.4458 37.5994 53.4378C37.6181 53.4298 37.6381 53.4255 37.6584 53.4252C37.6787 53.4249 37.6989 53.4285 37.7178 53.436C37.7367 53.4435 37.7539 53.4546 37.7684 53.4687C37.783 53.4828 37.7947 53.4996 37.8027 53.5182C37.8108 53.5368 37.8151 53.5568 37.8154 53.577V53.5775ZM37.7467 54.6471C37.6991 54.826 37.6296 54.9984 37.5397 55.1603C37.5204 55.1954 37.4879 55.2213 37.4494 55.2324C37.4109 55.2436 37.3696 55.239 37.3345 55.2198C37.2994 55.2005 37.2734 55.1681 37.2622 55.1297C37.251 55.0914 37.2556 55.0501 37.2749 55.0151C37.3518 54.8745 37.4109 54.725 37.451 54.57C37.456 54.5506 37.4648 54.5324 37.4768 54.5164C37.4889 54.5004 37.504 54.4869 37.5213 54.4768C37.5386 54.4666 37.5577 54.4599 37.5776 54.4571C37.5974 54.4543 37.6176 54.4554 37.6371 54.4604C37.6565 54.4654 37.6748 54.4742 37.6908 54.4862C37.7068 54.4982 37.7203 54.5133 37.7305 54.5305C37.7408 54.5478 37.7474 54.5668 37.7503 54.5866C37.7531 54.6065 37.7519 54.6266 37.7469 54.646L37.7467 54.6471ZM37.2138 55.6073C37.0873 55.7423 36.9448 55.8613 36.7893 55.9616C36.7565 55.9829 36.7166 55.9903 36.6783 55.9822C36.6401 55.9741 36.6066 55.9512 36.5852 55.9185C36.5639 55.8858 36.5564 55.846 36.5645 55.8078C36.5725 55.7697 36.5955 55.7362 36.6282 55.7149C36.7627 55.6268 36.8859 55.5226 36.9949 55.4046C37.0218 55.3757 37.059 55.3586 37.0985 55.357C37.138 55.3555 37.1765 55.3696 37.2056 55.3963C37.2347 55.4231 37.2519 55.4602 37.2536 55.4996C37.2553 55.539 37.2412 55.5774 37.2145 55.6065L37.2138 55.6073ZM36.2911 56.202C36.1157 56.2612 35.9336 56.2986 35.7491 56.3133C35.711 56.3165 35.6732 56.3045 35.644 56.2798C35.6148 56.2552 35.5966 56.22 35.5934 56.182C35.5903 56.1441 35.6023 56.1064 35.627 56.0773C35.6517 56.0482 35.687 56.03 35.7251 56.0268C35.8858 56.013 36.0441 55.9793 36.1966 55.9267C36.2147 55.9205 36.2339 55.9178 36.253 55.9189C36.2721 55.9201 36.2908 55.9249 36.3081 55.9333C36.3253 55.9416 36.3407 55.9533 36.3535 55.9675C36.3662 55.9818 36.376 55.9985 36.3823 56.0165C36.3885 56.0346 36.3912 56.0537 36.39 56.0728C36.3889 56.0919 36.384 56.1105 36.3756 56.1277C36.3673 56.1449 36.3556 56.1603 36.3413 56.173C36.3269 56.1857 36.3102 56.1954 36.2921 56.2017L36.2911 56.202ZM35.2223 56.3267L34.7039 56.3305C34.6677 56.3308 34.6329 56.3168 34.607 56.2916C34.5812 56.2664 34.5663 56.232 34.5658 56.1959C34.5652 56.1599 34.5789 56.125 34.6039 56.099C34.629 56.073 34.6633 56.0579 34.6995 56.057L35.2169 56.0427C35.2546 56.0416 35.2913 56.0554 35.3188 56.0812C35.3463 56.1071 35.3624 56.1427 35.3636 56.1804C35.3647 56.218 35.3508 56.2546 35.3249 56.282C35.2991 56.3094 35.2633 56.3255 35.2256 56.3266L35.2223 56.3267ZM34.1857 56.3326L33.6672 56.3333C33.6339 56.3334 33.602 56.3203 33.5783 56.297C33.5546 56.2737 33.5411 56.2419 33.5408 56.2087C33.5404 56.1755 33.5532 56.1435 33.5764 56.1197C33.5996 56.0959 33.6313 56.0822 33.6646 56.0815L34.1822 56.07C34.1995 56.0695 34.2168 56.0724 34.2329 56.0786C34.2491 56.0848 34.2639 56.0941 34.2765 56.106C34.289 56.1179 34.2991 56.1321 34.3061 56.1479C34.3132 56.1637 34.317 56.1807 34.3175 56.198C34.3179 56.2152 34.3149 56.2324 34.3087 56.2485C34.3025 56.2647 34.2931 56.2794 34.2812 56.2919C34.2692 56.3044 34.2549 56.3144 34.2391 56.3214C34.2232 56.3284 34.2062 56.3322 34.1888 56.3326L34.1857 56.3326ZM33.1492 56.3325L32.6308 56.3304C32.6004 56.3302 32.5713 56.3181 32.5498 56.2967C32.5283 56.2753 32.5162 56.2463 32.516 56.2159C32.5159 56.1856 32.5277 56.1565 32.549 56.1348C32.5703 56.1132 32.5993 56.1008 32.6297 56.1004L33.1473 56.0916C33.1793 56.0911 33.2102 56.1032 33.2332 56.1254C33.2563 56.1475 33.2695 56.1778 33.2702 56.2097C33.2708 56.2416 33.2587 56.2725 33.2366 56.2955C33.2144 56.3185 33.184 56.3318 33.152 56.3325L33.1492 56.3325ZM32.1123 56.3268L31.5938 56.3218C31.5663 56.3215 31.54 56.3105 31.5207 56.291C31.5013 56.2715 31.4905 56.2452 31.4905 56.2178C31.4905 56.1903 31.5014 56.164 31.5207 56.1446C31.5401 56.1251 31.5664 56.114 31.5938 56.1138L32.1118 56.1078C32.1264 56.1074 32.1408 56.1099 32.1544 56.1151C32.1679 56.1203 32.1803 56.1282 32.1908 56.1383C32.2012 56.1483 32.2096 56.1603 32.2154 56.1736C32.2212 56.1869 32.2243 56.2012 32.2245 56.2157C32.2247 56.2302 32.222 56.2446 32.2166 56.258C32.2112 56.2715 32.2032 56.2837 32.193 56.2941C32.1828 56.3044 32.1707 56.3126 32.1573 56.3182C32.1439 56.3238 32.1295 56.3268 32.115 56.3268H32.1123ZM31.0756 56.3153L30.5574 56.3074C30.5329 56.307 30.5095 56.297 30.4924 56.2795C30.4753 56.2621 30.4658 56.2386 30.4659 56.2142C30.466 56.1897 30.4758 56.1664 30.4932 56.1491C30.5105 56.1318 30.5339 56.1221 30.5584 56.122L31.0762 56.1186C31.0892 56.1184 31.1021 56.1208 31.1141 56.1257C31.1261 56.1305 31.1371 56.1376 31.1464 56.1467C31.1556 56.1557 31.163 56.1665 31.1681 56.1784C31.1732 56.1903 31.1758 56.2031 31.176 56.216C31.1761 56.229 31.1736 56.2418 31.1688 56.2538C31.1639 56.2658 31.1567 56.2767 31.1477 56.2859C31.1386 56.2951 31.1277 56.3025 31.1158 56.3075C31.1038 56.3125 31.091 56.3152 31.0781 56.3153L31.0756 56.3153ZM30.0389 56.2981L29.5205 56.2874C29.4991 56.2868 29.4788 56.2779 29.4639 56.2625C29.4491 56.2471 29.4409 56.2265 29.4412 56.2051C29.4414 56.1838 29.45 56.1634 29.4652 56.1483C29.4804 56.1332 29.5009 56.1247 29.5223 56.1246L30.0404 56.124C30.0636 56.1239 30.0858 56.133 30.1022 56.1493C30.1187 56.1655 30.128 56.1876 30.128 56.2107C30.1281 56.2338 30.119 56.256 30.1027 56.2724C30.0864 56.2888 30.0643 56.298 30.0411 56.2981L30.0389 56.2981ZM29.0021 56.2753L28.4843 56.2618C28.4658 56.2613 28.4482 56.2536 28.4354 56.2402C28.4225 56.2269 28.4155 56.209 28.4158 56.1906C28.4161 56.1721 28.4237 56.1545 28.437 56.1416C28.4502 56.1287 28.4681 56.1215 28.4866 56.1216L29.0042 56.1238C29.0243 56.1239 29.0436 56.1319 29.0578 56.1461C29.0721 56.1603 29.08 56.1796 29.08 56.1997C29.08 56.2198 29.072 56.239 29.0577 56.2532C29.0434 56.2674 29.0241 56.2753 29.004 56.2753L29.0021 56.2753ZM27.9662 56.2495L27.4481 56.2365C27.431 56.236 27.4147 56.2287 27.4029 56.2163C27.391 56.2039 27.3846 56.1873 27.385 56.1702C27.3854 56.1531 27.3926 56.1368 27.4049 56.1249C27.4173 56.1131 27.4339 56.1065 27.451 56.1068L27.9689 56.1153C27.9777 56.1155 27.9864 56.1173 27.9945 56.1208C28.0027 56.1243 28.01 56.1293 28.0162 56.1356C28.0223 56.1419 28.0272 56.1494 28.0305 56.1576C28.0337 56.1658 28.0354 56.1745 28.0352 56.1833C28.0351 56.1922 28.0333 56.2009 28.0298 56.209C28.0263 56.217 28.0212 56.2244 28.0149 56.2305C28.0085 56.2367 28.0011 56.2415 27.9928 56.2448C27.9846 56.248 27.9759 56.2496 27.967 56.2495L27.9662 56.2495ZM26.9299 56.222L26.4117 56.206C26.3957 56.2055 26.3805 56.1987 26.3695 56.1871C26.3586 56.1754 26.3526 56.1599 26.3531 56.144C26.3535 56.128 26.3603 56.1129 26.3719 56.1019C26.3836 56.0909 26.3991 56.0849 26.4151 56.0853L26.9331 56.0968C26.9413 56.097 26.9495 56.0987 26.9571 56.102C26.9647 56.1053 26.9715 56.11 26.9773 56.1159C26.983 56.1219 26.9875 56.1289 26.9906 56.1365C26.9936 56.1442 26.9951 56.1524 26.9949 56.1606C26.9947 56.1689 26.9929 56.177 26.9896 56.1846C26.9863 56.1921 26.9815 56.1989 26.9755 56.2047C26.9696 56.2104 26.9625 56.2148 26.9548 56.2178C26.9471 56.2208 26.9389 56.2222 26.9306 56.222L26.9299 56.222ZM25.8934 56.1885L25.3752 56.1694C25.3604 56.1689 25.3463 56.1625 25.3362 56.1517C25.3261 56.1409 25.3206 56.1265 25.3212 56.1117C25.3217 56.0968 25.3281 56.0828 25.3389 56.0727C25.3498 56.0626 25.3642 56.0572 25.3791 56.0577L25.8971 56.0723C25.9047 56.0725 25.9123 56.0741 25.9193 56.0772C25.9263 56.0803 25.9327 56.0847 25.938 56.0903C25.9433 56.0958 25.9474 56.1023 25.9502 56.1095C25.953 56.1166 25.9543 56.1242 25.9541 56.1319C25.9539 56.1395 25.9522 56.1471 25.9491 56.154C25.9459 56.161 25.9415 56.1674 25.9359 56.1726C25.9303 56.1779 25.9238 56.182 25.9166 56.1847C25.9094 56.1874 25.9018 56.1887 25.8941 56.1885L25.8934 56.1885ZM24.8571 56.1487L24.3397 56.1271C24.3259 56.1265 24.3129 56.1205 24.3035 56.1104C24.2941 56.1002 24.2892 56.0868 24.2898 56.073C24.2903 56.0593 24.2963 56.0463 24.3065 56.0369C24.3167 56.0276 24.3301 56.0227 24.3439 56.0232L24.8611 56.0415C24.8753 56.042 24.8888 56.0481 24.8986 56.0585C24.9083 56.0689 24.9135 56.0827 24.9131 56.0969C24.9126 56.1111 24.9065 56.1246 24.8961 56.1343C24.8857 56.144 24.8718 56.1492 24.8576 56.1488L24.8571 56.1487ZM23.822 56.1071L23.3042 56.0854C23.2969 56.0851 23.2898 56.0833 23.2832 56.0803C23.2766 56.0772 23.2707 56.0729 23.2657 56.0675C23.2608 56.0622 23.257 56.0559 23.2545 56.0491C23.252 56.0423 23.2509 56.035 23.2512 56.0278C23.2515 56.0205 23.2532 56.0134 23.2563 56.0068C23.2593 56.0003 23.2637 55.9943 23.269 55.9894C23.2744 55.9845 23.2807 55.9807 23.2875 55.9782C23.2943 55.9757 23.3016 55.9746 23.3089 55.9749L23.3094 55.9749L23.8267 55.9999C23.8409 56.0005 23.8544 56.0068 23.864 56.0173C23.8736 56.0277 23.8787 56.0416 23.8781 56.0558C23.8774 56.07 23.8712 56.0834 23.8607 56.093C23.8502 56.1026 23.8363 56.1077 23.822 56.1071ZM22.7864 56.0619L22.2685 56.0368C22.2529 56.036 22.2383 56.029 22.2279 56.0175C22.2175 56.006 22.212 55.9909 22.2128 55.9753C22.2135 55.9598 22.2204 55.9453 22.2319 55.9348C22.2435 55.9244 22.2587 55.9189 22.2742 55.9196L22.2748 55.9197L22.7921 55.9482C22.8072 55.949 22.8214 55.9557 22.8315 55.9669C22.8416 55.9781 22.8468 55.9929 22.8461 56.0079C22.8453 56.023 22.8386 56.0371 22.8274 56.0472C22.8162 56.0574 22.8015 56.0626 22.7864 56.0619L22.7864 56.0619ZM21.7506 56.0097L21.2328 55.9809C21.2246 55.9804 21.2166 55.9784 21.2093 55.9748C21.2019 55.9713 21.1953 55.9664 21.1899 55.9603C21.1845 55.9542 21.1803 55.9472 21.1776 55.9395C21.1749 55.9318 21.1737 55.9237 21.1742 55.9155C21.1746 55.9074 21.1767 55.8995 21.1802 55.8921C21.1838 55.8848 21.1887 55.8782 21.1948 55.8728C21.2009 55.8674 21.208 55.8632 21.2157 55.8605C21.2234 55.8578 21.2315 55.8567 21.2397 55.8571L21.2403 55.8572L21.7575 55.8893C21.7734 55.8904 21.7883 55.8976 21.7989 55.9095C21.8095 55.9214 21.8149 55.9371 21.814 55.953C21.8131 55.9689 21.8059 55.9838 21.7941 55.9944C21.7822 56.005 21.7665 56.0106 21.7506 56.0097H21.7506ZM20.715 55.9501L20.1972 55.9188C20.1795 55.9177 20.163 55.9096 20.1512 55.8964C20.1395 55.8831 20.1335 55.8658 20.1346 55.8481C20.1356 55.8305 20.1437 55.814 20.1569 55.8022C20.1702 55.7905 20.1876 55.7845 20.2053 55.7855L20.2064 55.7856L20.7232 55.8231C20.7316 55.8236 20.7398 55.8258 20.7473 55.8295C20.7548 55.8332 20.7615 55.8383 20.767 55.8446C20.7726 55.8508 20.7768 55.8582 20.7795 55.8661C20.7822 55.874 20.7833 55.8823 20.7828 55.8907C20.7822 55.899 20.7801 55.9072 20.7764 55.9147C20.7727 55.9222 20.7675 55.9289 20.7612 55.9344C20.7549 55.9399 20.7476 55.9441 20.7397 55.9468C20.7317 55.9495 20.7234 55.9506 20.715 55.9501H20.715ZM19.6802 55.8869L19.1621 55.8529C19.1522 55.8522 19.1424 55.8496 19.1335 55.8452C19.1245 55.8408 19.1165 55.8347 19.1099 55.8272C19.0966 55.8121 19.0899 55.7923 19.0912 55.7722C19.0926 55.7522 19.1018 55.7334 19.117 55.7202C19.1322 55.7069 19.152 55.7002 19.1721 55.7015L19.1738 55.7017L19.6905 55.7447C19.7094 55.7462 19.7268 55.755 19.7391 55.7693C19.7514 55.7836 19.7576 55.8022 19.7562 55.8209C19.7548 55.8397 19.7461 55.8572 19.7318 55.8696C19.7176 55.8819 19.699 55.8882 19.6802 55.8869ZM18.6446 55.8168L18.1271 55.7784C18.116 55.7776 18.105 55.7747 18.095 55.7697C18.085 55.7646 18.076 55.7577 18.0687 55.7493C18.0614 55.7408 18.0558 55.731 18.0523 55.7204C18.0487 55.7098 18.0474 55.6985 18.0482 55.6874C18.049 55.6762 18.0521 55.6654 18.0571 55.6554C18.0622 55.6454 18.0691 55.6365 18.0777 55.6292C18.0862 55.6219 18.096 55.6164 18.1067 55.6129C18.1173 55.6095 18.1286 55.6081 18.1398 55.609L18.1416 55.6091L18.6576 55.6565C18.6788 55.6583 18.6984 55.6685 18.7122 55.6847C18.7259 55.7009 18.7327 55.7219 18.731 55.7431C18.7292 55.7643 18.7192 55.7839 18.703 55.7977C18.6868 55.8115 18.6658 55.8184 18.6446 55.8168ZM17.6098 55.7378L17.0927 55.6948C17.0678 55.6927 17.0447 55.6808 17.0286 55.6618C17.0124 55.6427 17.0045 55.6181 17.0066 55.5932C17.0087 55.5684 17.0206 55.5454 17.0397 55.5292C17.0588 55.5131 17.0835 55.5052 17.1084 55.5073L17.1105 55.5075L17.6259 55.5595C17.6495 55.5618 17.6713 55.5732 17.6865 55.5914C17.7016 55.6096 17.7089 55.6331 17.7068 55.6566C17.7047 55.6802 17.6933 55.702 17.6751 55.7172C17.6569 55.7324 17.6335 55.7398 17.6098 55.7378ZM16.5757 55.6499L16.0589 55.6026C16.0312 55.6 16.0057 55.5867 15.9879 55.5654C15.9702 55.5441 15.9616 55.5166 15.9642 55.489C15.9667 55.4614 15.9801 55.436 16.0015 55.4182C16.0228 55.4005 16.0504 55.392 16.078 55.3945L16.0807 55.3948L16.5954 55.4524C16.6215 55.4553 16.6454 55.4683 16.662 55.4886C16.6785 55.5089 16.6863 55.5349 16.6837 55.5609C16.6811 55.587 16.6683 55.6109 16.6481 55.6276C16.6279 55.6443 16.6019 55.6523 16.5757 55.6499ZM15.5422 55.5526L15.0258 55.4999C14.9954 55.4968 14.9675 55.4818 14.9482 55.4581C14.9289 55.4345 14.9198 55.4042 14.9229 55.3738C14.926 55.3435 14.9411 55.3157 14.9648 55.2964C14.9885 55.2772 15.0189 55.2681 15.0493 55.2712L15.0522 55.2715L15.5663 55.3345C15.5951 55.3379 15.6214 55.3525 15.6394 55.3752C15.6575 55.3978 15.6659 55.4267 15.6627 55.4554C15.6595 55.4842 15.6451 55.5106 15.6225 55.5288C15.6 55.547 15.5711 55.5555 15.5422 55.5526V55.5526ZM14.5097 55.4443L13.9931 55.3857C13.9766 55.3839 13.9607 55.3788 13.9462 55.3709C13.9317 55.3629 13.9189 55.3522 13.9086 55.3393C13.8982 55.3264 13.8906 55.3116 13.886 55.2957C13.8814 55.2798 13.88 55.2632 13.8819 55.2468C13.8838 55.2304 13.8889 55.2145 13.8969 55.2001C13.9049 55.1857 13.9158 55.173 13.9287 55.1627C13.9417 55.1525 13.9566 55.1449 13.9725 55.1404C13.9884 55.1358 14.0051 55.1345 14.0215 55.1364L14.0248 55.1369L14.5386 55.2057C14.5702 55.2097 14.5989 55.2261 14.6184 55.2511C14.6379 55.2761 14.6468 55.3079 14.6429 55.3394C14.6391 55.3709 14.623 55.3996 14.598 55.4192C14.573 55.4389 14.5413 55.4479 14.5097 55.4443ZM13.4564 55.2938C13.2794 55.2315 13.1137 55.1409 12.9659 55.0256C12.9379 55.0038 12.9197 54.9719 12.9153 54.9367C12.9109 54.9016 12.9207 54.8662 12.9425 54.8383C12.9643 54.8103 12.9964 54.7922 13.0316 54.7878C13.0668 54.7835 13.1023 54.7932 13.1303 54.815L13.132 54.8163C13.2558 54.9155 13.3949 54.9941 13.5439 55.0489C13.5763 55.0606 13.6028 55.0847 13.6174 55.1158C13.6321 55.1469 13.6339 55.1825 13.6223 55.2148C13.6107 55.2472 13.5868 55.2737 13.5557 55.2885C13.5246 55.3033 13.4889 55.3052 13.4564 55.2938V55.2938ZM12.5867 54.6149C12.4849 54.4593 12.4059 54.29 12.3519 54.1122C12.3465 54.0946 12.3446 54.0761 12.3463 54.0577C12.348 54.0394 12.3534 54.0216 12.362 54.0053C12.3706 53.989 12.3824 53.9745 12.3966 53.9628C12.4109 53.951 12.4273 53.9422 12.4449 53.9367C12.4626 53.9313 12.4812 53.9294 12.4996 53.9311C12.518 53.9329 12.5358 53.9382 12.5522 53.9468C12.5685 53.9554 12.583 53.9671 12.5948 53.9813C12.6066 53.9955 12.6154 54.0119 12.6209 54.0295L12.6214 54.0314C12.6656 54.1846 12.7313 54.3307 12.8167 54.4655C12.8364 54.4959 12.8431 54.5328 12.8355 54.5682C12.8279 54.6036 12.8066 54.6345 12.7762 54.6543C12.7458 54.674 12.7088 54.6809 12.6733 54.6736C12.6378 54.6662 12.6066 54.6451 12.5867 54.6149ZM12.2513 53.575C12.2373 53.3955 12.2373 53.2152 12.2512 53.0357C12.2544 52.9969 12.2728 52.961 12.3024 52.9357C12.3319 52.9104 12.3704 52.8978 12.4092 52.9007C12.4481 52.9035 12.4842 52.9216 12.5098 52.9509C12.5354 52.9802 12.5483 53.0184 12.5457 53.0572L12.5455 53.0592C12.5305 53.2235 12.5283 53.3887 12.5388 53.5533C12.5414 53.5912 12.529 53.6286 12.504 53.6573C12.4791 53.686 12.4438 53.7038 12.4059 53.7067C12.3679 53.7095 12.3303 53.6973 12.3013 53.6726C12.2724 53.648 12.2544 53.6129 12.2513 53.575L12.2513 53.575ZM12.283 52.526L12.2938 52.0138L12.2939 52.0101C12.2949 51.9693 12.312 51.9305 12.3416 51.9023C12.3712 51.8741 12.4108 51.8587 12.4517 51.8596C12.4926 51.8604 12.5315 51.8775 12.5599 51.9069C12.5882 51.9363 12.6037 51.9758 12.6029 52.0166L12.6029 52.0187L12.5849 52.5388C12.5834 52.5784 12.5663 52.6159 12.5372 52.6431C12.5082 52.6702 12.4696 52.6848 12.4298 52.6837C12.39 52.6826 12.3523 52.6659 12.3248 52.6372C12.2973 52.6086 12.2822 52.5702 12.2829 52.5305L12.283 52.526ZM12.295 51.5L12.2889 50.9856L12.2889 50.9836C12.2887 50.9627 12.2925 50.9421 12.3003 50.9228C12.3081 50.9034 12.3196 50.8858 12.3341 50.8709C12.3487 50.8561 12.3661 50.8442 12.3853 50.836C12.4045 50.8278 12.4251 50.8234 12.446 50.8232C12.4668 50.823 12.4875 50.8268 12.5069 50.8346C12.5263 50.8423 12.5439 50.8538 12.5589 50.8683C12.5738 50.8829 12.5857 50.9002 12.5939 50.9193C12.6021 50.9385 12.6065 50.959 12.6067 50.9798L12.6068 50.981L12.6089 51.4997C12.6091 51.5411 12.5928 51.5809 12.5636 51.6104C12.5345 51.6398 12.4948 51.6566 12.4532 51.6569C12.4117 51.6573 12.3718 51.6412 12.3421 51.6122C12.3124 51.5832 12.2955 51.5436 12.295 51.5022L12.295 51.5ZM12.2766 50.4709L12.2589 49.9565L12.2588 49.9549C12.2574 49.9119 12.2731 49.87 12.3026 49.8386C12.332 49.8071 12.3728 49.7886 12.416 49.7871C12.4592 49.7856 12.5011 49.8013 12.5327 49.8307C12.5643 49.86 12.5829 49.9007 12.5844 49.9438L12.5844 49.945L12.5983 50.4628C12.5994 50.5052 12.5836 50.5463 12.5544 50.5771C12.5252 50.6079 12.4849 50.626 12.4424 50.6273C12.3999 50.6286 12.3586 50.613 12.3276 50.5841C12.2965 50.5551 12.2782 50.515 12.2767 50.4727L12.2766 50.4709ZM12.2362 49.4418L12.2088 48.9277L12.2088 48.9262C12.2076 48.9044 12.2107 48.8826 12.218 48.8619C12.2253 48.8413 12.2366 48.8223 12.2512 48.806C12.2659 48.7898 12.2836 48.7765 12.3034 48.7671C12.3232 48.7577 12.3446 48.7522 12.3665 48.7511C12.3884 48.7499 12.4103 48.7531 12.431 48.7604C12.4517 48.7677 12.4707 48.7789 12.487 48.7936C12.5033 48.8082 12.5165 48.8259 12.526 48.8457C12.5354 48.8654 12.5408 48.8868 12.542 48.9086L12.542 48.9099L12.5655 49.4271C12.5676 49.4706 12.5522 49.5131 12.5229 49.5454C12.4935 49.5776 12.4526 49.5969 12.409 49.599C12.3654 49.6012 12.3227 49.586 12.2903 49.5568C12.258 49.5276 12.2385 49.4868 12.2362 49.4433L12.2362 49.4418ZM12.1771 48.4134L12.1412 47.8992L12.1411 47.8978C12.138 47.8528 12.153 47.8085 12.1828 47.7745C12.2125 47.7405 12.2545 47.7196 12.2996 47.7165C12.3447 47.7133 12.3892 47.7282 12.4234 47.7577C12.4575 47.7873 12.4786 47.8291 12.4818 47.8741L12.4819 47.8754L12.5141 48.3926C12.5169 48.4371 12.5019 48.4809 12.4724 48.5143C12.4429 48.5478 12.4014 48.5683 12.3568 48.5712C12.3122 48.5741 12.2683 48.5593 12.2346 48.53C12.201 48.5007 12.1803 48.4593 12.1772 48.4148L12.1771 48.4134ZM12.1011 47.3858L12.057 46.8725L12.0569 46.8712C12.055 46.8484 12.0575 46.8254 12.0645 46.8036C12.0714 46.7818 12.0826 46.7615 12.0974 46.744C12.1272 46.7087 12.1699 46.6866 12.2161 46.6826C12.2623 46.6787 12.3081 46.6932 12.3436 46.723C12.379 46.7528 12.4012 46.7954 12.4051 46.8414L12.4052 46.8427L12.4456 47.3591C12.4492 47.4045 12.4345 47.4495 12.4049 47.4843C12.3753 47.519 12.3331 47.5406 12.2875 47.5443C12.2419 47.548 12.1968 47.5336 12.1618 47.5042C12.1269 47.4747 12.1051 47.4327 12.1012 47.3873L12.1011 47.3858ZM12.0089 46.3593L11.9569 45.8465L11.9567 45.8451C11.9543 45.8218 11.9566 45.7983 11.9633 45.7759C11.9701 45.7535 11.9812 45.7326 11.996 45.7145C12.0109 45.6963 12.0291 45.6813 12.0498 45.6702C12.0705 45.6591 12.0931 45.6522 12.1165 45.6498C12.1398 45.6475 12.1634 45.6497 12.1859 45.6564C12.2083 45.6632 12.2293 45.6743 12.2475 45.6891C12.2656 45.7039 12.2807 45.7221 12.2918 45.7427C12.3029 45.7633 12.3099 45.7859 12.3123 45.8092L12.3124 45.8105L12.3608 46.3265C12.3652 46.3729 12.3509 46.4192 12.3212 46.4552C12.2914 46.4912 12.2486 46.5139 12.2021 46.5184C12.1555 46.523 12.1091 46.5089 12.0729 46.4794C12.0368 46.4498 12.0138 46.4072 12.0091 46.3608L12.0089 46.3593ZM11.9008 45.3339L11.8409 44.8225L11.8407 44.8211C11.8351 44.7731 11.8489 44.7249 11.8789 44.687C11.9089 44.6491 11.9528 44.6247 12.0009 44.6191C12.049 44.6135 12.0974 44.6272 12.1354 44.6571C12.1734 44.6871 12.1979 44.7309 12.2035 44.7788L12.2037 44.7802L12.26 45.2948C12.2652 45.3422 12.2513 45.3897 12.2215 45.427C12.1916 45.4642 12.1482 45.4881 12.1007 45.4935C12.0532 45.4988 12.0055 45.4852 11.9681 45.4556C11.9307 45.4259 11.9065 45.3827 11.901 45.3353L11.9008 45.3339ZM11.7783 44.3112L11.7131 43.8L11.713 43.7986C11.7068 43.7507 11.7199 43.7024 11.7495 43.6642C11.7791 43.6259 11.8227 43.601 11.8707 43.5949C11.9187 43.5887 11.9672 43.6018 12.0055 43.6313C12.0438 43.6608 12.0688 43.7043 12.075 43.7521L12.142 44.2659C12.1453 44.2898 12.1438 44.3141 12.1376 44.3374C12.1314 44.3607 12.1207 44.3825 12.106 44.4017C12.0913 44.4208 12.073 44.4369 12.0521 44.4489C12.0312 44.461 12.0081 44.4688 11.9841 44.4719C11.9602 44.475 11.9358 44.4734 11.9125 44.4671C11.8892 44.4607 11.8674 44.4499 11.8483 44.4352C11.8292 44.4204 11.8132 44.402 11.8012 44.3811C11.7893 44.3601 11.7816 44.3371 11.7786 44.3131L11.7785 44.3126L11.7783 44.3112ZM11.6439 43.2893L11.5706 42.779L11.5704 42.7776C11.5635 42.7302 11.5758 42.682 11.6045 42.6437C11.6332 42.6053 11.676 42.5799 11.7235 42.5731C11.771 42.5662 11.8193 42.5785 11.8578 42.6071C11.8962 42.6358 11.9217 42.6785 11.9286 42.7258L12.0038 43.2388C12.0073 43.2623 12.006 43.2863 12.0002 43.3094C11.9943 43.3325 11.984 43.3542 11.9697 43.3733C11.9555 43.3923 11.9376 43.4085 11.9171 43.4207C11.8966 43.4328 11.8739 43.4409 11.8503 43.4443C11.8267 43.4478 11.8026 43.4466 11.7795 43.4407C11.7564 43.4349 11.7346 43.4246 11.7155 43.4104C11.6963 43.3962 11.6802 43.3783 11.6679 43.3579C11.6557 43.3374 11.6476 43.3148 11.6442 43.2912L11.6441 43.2907L11.6439 43.2893ZM11.4931 42.2693L11.4115 41.7602L11.4112 41.7587C11.4039 41.712 11.4154 41.6642 11.4433 41.6259C11.4711 41.5876 11.5131 41.5619 11.5599 41.5543C11.6068 41.5468 11.6547 41.558 11.6932 41.5857C11.7318 41.6133 11.7578 41.655 11.7655 41.7017L11.8492 42.2135C11.853 42.2368 11.8521 42.2606 11.8467 42.2836C11.8413 42.3065 11.8314 42.3282 11.8176 42.3474C11.8037 42.3665 11.7863 42.3828 11.7661 42.3952C11.746 42.4076 11.7236 42.416 11.7003 42.4198C11.6769 42.4236 11.6531 42.4227 11.63 42.4173C11.607 42.4119 11.5852 42.402 11.566 42.3883C11.5468 42.3745 11.5305 42.357 11.5181 42.337C11.5056 42.3169 11.4973 42.2946 11.4934 42.2713L11.4934 42.2708L11.4931 42.2693ZM11.3256 41.2518L11.2355 40.7449L11.2352 40.7434C11.227 40.6971 11.2376 40.6495 11.2646 40.6109C11.2915 40.5724 11.3327 40.5461 11.3791 40.5378C11.4255 40.5296 11.4733 40.54 11.512 40.5668C11.5507 40.5936 11.5771 40.6347 11.5855 40.6809L11.6776 41.1906C11.686 41.2371 11.6755 41.285 11.6485 41.3237C11.6214 41.3625 11.5801 41.389 11.5335 41.3974C11.4869 41.4058 11.4388 41.3954 11.3999 41.3684C11.361 41.3415 11.3344 41.3003 11.3259 41.2538L11.3259 41.2533L11.3256 41.2518ZM11.141 40.2386L11.0419 39.7329L11.0416 39.7314C11.0326 39.6856 11.0422 39.6382 11.0683 39.5995C11.0944 39.5608 11.1348 39.534 11.1806 39.525C11.2265 39.516 11.2741 39.5255 11.3129 39.5514C11.3518 39.5774 11.3787 39.6177 11.3878 39.6634L11.4889 40.1718C11.4935 40.1946 11.4935 40.218 11.4889 40.2408C11.4844 40.2635 11.4754 40.2852 11.4624 40.3045C11.4495 40.3238 11.4329 40.3403 11.4135 40.3532C11.3942 40.3661 11.3725 40.3751 11.3496 40.3796C11.3268 40.3841 11.3033 40.3841 11.2805 40.3795C11.2577 40.375 11.236 40.366 11.2167 40.3531C11.1973 40.3402 11.1807 40.3236 11.1678 40.3043C11.1549 40.285 11.1459 40.2634 11.1414 40.2406L11.1413 40.2401L11.141 40.2386ZM10.9382 39.2281L10.8299 38.7242L10.8295 38.7226C10.8199 38.6775 10.8286 38.6303 10.8538 38.5916C10.8789 38.5528 10.9184 38.5256 10.9637 38.5158C11.0089 38.5061 11.0562 38.5146 11.0951 38.5396C11.1341 38.5645 11.1615 38.6039 11.1714 38.649L11.282 39.1557C11.2869 39.1782 11.2873 39.2014 11.2832 39.2241C11.2791 39.2467 11.2706 39.2683 11.2581 39.2877C11.2456 39.3071 11.2295 39.3238 11.2105 39.3369C11.1916 39.35 11.1702 39.3593 11.1477 39.3642C11.1251 39.3691 11.1018 39.3695 11.0791 39.3654C11.0564 39.3613 11.0348 39.3528 11.0154 39.3404C10.996 39.3279 10.9792 39.3118 10.966 39.2929C10.9529 39.274 10.9436 39.2527 10.9387 39.2302L10.9386 39.2297L10.9382 39.2281ZM10.7167 38.2213L10.5986 37.7196L10.5982 37.7179C10.5878 37.6733 10.5955 37.6264 10.6196 37.5875C10.6438 37.5486 10.6825 37.5208 10.7272 37.5103C10.7718 37.4998 10.8189 37.5073 10.858 37.5313C10.897 37.5554 10.925 37.5939 10.9357 37.6384L11.056 38.1431C11.0666 38.1879 11.059 38.2351 11.0348 38.2742C11.0106 38.3134 10.9717 38.3414 10.9269 38.352C10.882 38.3627 10.8347 38.3551 10.7954 38.331C10.7561 38.3069 10.728 38.2683 10.7172 38.2235L10.7171 38.223L10.7167 38.2213ZM10.4762 37.2189L10.3506 36.7192L10.3502 36.7175C10.3394 36.6745 10.346 36.629 10.3687 36.5908C10.3915 36.5527 10.4284 36.5251 10.4714 36.5141C10.5144 36.503 10.5601 36.5093 10.5985 36.5317C10.6368 36.5541 10.6647 36.5908 10.6761 36.6336L10.8094 37.135C10.8211 37.1789 10.8147 37.2257 10.7918 37.2649C10.7689 37.3042 10.7314 37.3328 10.6873 37.3444C10.6433 37.3561 10.5965 37.3498 10.5571 37.327C10.5177 37.3043 10.489 37.2668 10.4772 37.2229L10.4769 37.2215L10.4762 37.2189ZM10.2197 36.2207L10.0832 35.7237L10.0828 35.7219C10.0715 35.681 10.077 35.6372 10.0979 35.6003C10.1189 35.5633 10.1536 35.5361 10.1946 35.5246C10.2356 35.5131 10.2795 35.5183 10.3167 35.5389C10.3539 35.5596 10.3814 35.5941 10.3932 35.6349L10.5374 36.1335C10.5434 36.1542 10.5452 36.1759 10.5428 36.1974C10.5404 36.2188 10.5338 36.2396 10.5233 36.2585C10.5129 36.2774 10.4988 36.294 10.4819 36.3075C10.4649 36.3209 10.4455 36.331 10.4248 36.3369C10.404 36.3429 10.3822 36.3448 10.3607 36.3423C10.3392 36.3399 10.3184 36.3333 10.2994 36.3229C10.2805 36.3125 10.2638 36.2984 10.2503 36.2815C10.2368 36.2647 10.2268 36.2453 10.2208 36.2246L10.2204 36.2233L10.2197 36.2207ZM9.94117 35.2282L9.79333 34.7345L9.79279 34.7327C9.78114 34.6938 9.78539 34.6519 9.80461 34.6161C9.82383 34.5803 9.85645 34.5536 9.89537 34.5417C9.93428 34.5298 9.97633 34.5338 10.0123 34.5527C10.0483 34.5716 10.0754 34.604 10.0876 34.6427L10.2433 35.1379C10.2558 35.1777 10.252 35.2208 10.2326 35.2578C10.2132 35.2948 10.1799 35.3226 10.14 35.3351C10.1001 35.3475 10.0569 35.3437 10.0198 35.3244C9.98272 35.3051 9.95487 35.2718 9.94235 35.232L9.94196 35.2308L9.94117 35.2282ZM9.6395 34.2426L9.47949 33.7527L9.47892 33.7509C9.46687 33.7141 9.46991 33.674 9.48739 33.6393C9.50487 33.6047 9.53537 33.5784 9.57223 33.5662C9.60908 33.5539 9.64931 33.5567 9.68411 33.574C9.71891 33.5912 9.74547 33.6214 9.75798 33.6581L9.92587 34.1494C9.93225 34.1681 9.93488 34.1878 9.93361 34.2075C9.93234 34.2272 9.9272 34.2464 9.91848 34.2641C9.90975 34.2818 9.89761 34.2977 9.88276 34.3107C9.8679 34.3237 9.85062 34.3337 9.8319 34.3401C9.81318 34.3464 9.79338 34.3491 9.77364 34.3478C9.7539 34.3465 9.73461 34.3414 9.71686 34.3327C9.69911 34.324 9.68325 34.3119 9.67019 34.2971C9.65713 34.2823 9.64712 34.265 9.64074 34.2463L9.64035 34.2452L9.6395 34.2426ZM9.31317 33.2649L9.14026 32.7794L9.13961 32.7776C9.13333 32.7604 9.13053 32.7421 9.13135 32.7237C9.13217 32.7054 9.13659 32.6874 9.14438 32.6708C9.16011 32.6373 9.18855 32.6113 9.22346 32.5987C9.25836 32.5861 9.29687 32.5878 9.33051 32.6035C9.36415 32.6191 9.39016 32.6475 9.40283 32.6823L9.5837 33.169C9.59681 33.2046 9.59525 33.2439 9.57934 33.2784C9.56343 33.3128 9.53449 33.3395 9.49885 33.3527C9.46321 33.3659 9.42379 33.3644 9.38923 33.3487C9.35466 33.3329 9.32778 33.3041 9.31448 33.2686L9.31409 33.2675L9.31317 33.2649ZM8.96058 32.2964L8.77392 31.8161L8.7732 31.8142C8.76053 31.7816 8.76132 31.7453 8.77538 31.7132C8.78945 31.6812 8.81566 31.6559 8.84829 31.6431C8.88092 31.6302 8.91733 31.6307 8.94958 31.6445C8.98183 31.6583 9.00731 31.6843 9.02045 31.7167L9.21514 32.1981C9.22184 32.2147 9.22521 32.2325 9.22504 32.2503C9.22487 32.2682 9.22118 32.2859 9.21417 32.3023C9.20715 32.3188 9.19696 32.3337 9.18417 32.3462C9.17138 32.3587 9.15624 32.3686 9.13962 32.3753C9.123 32.382 9.10521 32.3854 9.08729 32.3852C9.06937 32.385 9.05165 32.3813 9.03516 32.3743C9.01866 32.3674 9.00371 32.3572 8.99116 32.3444C8.9786 32.3317 8.96869 32.3166 8.96198 32.3L8.96157 32.299L8.96058 32.2964ZM8.5801 31.3386L8.38077 30.8634L8.38001 30.8615C8.36744 30.8316 8.36722 30.7979 8.37939 30.7678C8.39156 30.7377 8.41514 30.7136 8.44502 30.7008C8.47489 30.6879 8.50864 30.6874 8.53894 30.6992C8.56924 30.711 8.59364 30.7342 8.60685 30.7639L8.81837 31.2383C8.8253 31.2538 8.8291 31.2705 8.82956 31.2874C8.83001 31.3043 8.82712 31.3212 8.82103 31.337C8.81494 31.3529 8.80579 31.3674 8.79409 31.3797C8.78238 31.392 8.76837 31.4018 8.75284 31.4087C8.7373 31.4156 8.72056 31.4194 8.70357 31.4198C8.68658 31.4202 8.66967 31.4173 8.6538 31.4112C8.63794 31.4051 8.62344 31.396 8.61113 31.3843C8.59881 31.3726 8.58893 31.3586 8.58205 31.3431L8.58115 31.3411L8.5801 31.3386ZM8.17368 30.3914L7.95856 29.9231L7.95774 29.9213C7.94547 29.8945 7.94427 29.8641 7.95439 29.8364C7.96451 29.8088 7.98515 29.7863 8.01181 29.7738C8.03848 29.7612 8.06903 29.7597 8.09683 29.7694C8.12464 29.7792 8.14746 29.7995 8.16034 29.826L8.38759 30.293C8.39434 30.3069 8.39829 30.322 8.39921 30.3374C8.40012 30.3528 8.39798 30.3682 8.39292 30.3828C8.38785 30.3974 8.37996 30.4108 8.36969 30.4224C8.35941 30.4339 8.34696 30.4433 8.33305 30.45C8.31913 30.4568 8.30402 30.4607 8.28858 30.4616C8.27313 30.4625 8.25766 30.4604 8.24305 30.4554C8.22843 30.4503 8.21495 30.4424 8.20339 30.4322C8.19182 30.4219 8.18239 30.4095 8.17564 30.3956L8.17477 30.3938L8.17368 30.3914ZM7.73512 29.4586L7.5031 28.9983L7.50222 28.9966C7.49033 28.973 7.48823 28.9457 7.4964 28.9206C7.50457 28.8955 7.52234 28.8746 7.54584 28.8625C7.56935 28.8504 7.59671 28.848 7.62196 28.8559C7.64722 28.8637 7.66834 28.8812 7.68074 28.9045L7.9248 29.363C7.93151 29.3753 7.9357 29.3889 7.93714 29.4028C7.93858 29.4167 7.93724 29.4308 7.93319 29.4442C7.92914 29.4576 7.92247 29.4701 7.91356 29.4809C7.90465 29.4917 7.89367 29.5007 7.88127 29.5073C7.86887 29.5138 7.85529 29.5179 7.84131 29.5192C7.82733 29.5205 7.81323 29.519 7.79982 29.5148C7.78642 29.5107 7.77397 29.5039 7.76321 29.4949C7.75245 29.4859 7.74358 29.4749 7.73712 29.4624L7.73627 29.4608L7.73512 29.4586ZM7.26191 28.542C7.17874 28.3931 7.09772 28.2394 7.01802 28.0834C7.00739 28.0626 7.00541 28.0385 7.01251 28.0162C7.01961 27.994 7.03522 27.9754 7.05595 27.9646C7.07668 27.9537 7.10086 27.9515 7.12324 27.9583C7.14563 27.9651 7.16442 27.9805 7.17554 28.001L7.17613 28.0021C7.25654 28.1512 7.3394 28.3004 7.42756 28.4504C7.44026 28.472 7.44384 28.4978 7.43751 28.522C7.43117 28.5463 7.41543 28.567 7.39376 28.5797C7.37209 28.5924 7.34625 28.5959 7.32194 28.5896C7.29763 28.5833 7.27684 28.5676 7.26413 28.546L7.26332 28.5446L7.26191 28.542ZM6.7895 27.6175L6.56832 27.1477C6.5597 27.1294 6.55866 27.1084 6.56542 27.0894C6.57218 27.0703 6.5862 27.0547 6.60445 27.0458C6.62269 27.037 6.64368 27.0357 6.66288 27.0422C6.68207 27.0488 6.69792 27.0625 6.70699 27.0806L6.70751 27.0817L6.93871 27.5441L6.93924 27.5452C6.94414 27.5549 6.94706 27.5655 6.94784 27.5764C6.94862 27.5873 6.94724 27.5982 6.94378 27.6086C6.94032 27.6189 6.93485 27.6285 6.92768 27.6367C6.92051 27.645 6.91178 27.6517 6.90199 27.6566C6.8922 27.6615 6.88154 27.6644 6.87063 27.6651C6.85972 27.6659 6.84877 27.6645 6.8384 27.661C6.82803 27.6575 6.81845 27.6521 6.8102 27.6449C6.80196 27.6377 6.79521 27.629 6.79035 27.6192L6.7895 27.6175ZM6.35617 26.6747L6.15115 26.1978C6.14491 26.1833 6.14464 26.1669 6.15039 26.1522C6.15614 26.1375 6.16745 26.1256 6.18189 26.1192C6.19632 26.1127 6.21273 26.1121 6.22757 26.1176C6.24241 26.1231 6.25449 26.1342 6.26122 26.1485L6.2617 26.1495L6.48108 26.6176L6.48156 26.6186C6.48541 26.6268 6.4876 26.6356 6.48802 26.6446C6.48844 26.6536 6.48707 26.6626 6.48399 26.6711C6.48092 26.6796 6.4762 26.6874 6.47011 26.694C6.46401 26.7007 6.45666 26.7061 6.44848 26.7099C6.44029 26.7137 6.43143 26.7159 6.4224 26.7162C6.41337 26.7166 6.40436 26.7153 6.39587 26.7122C6.38738 26.7091 6.37958 26.7044 6.37292 26.6983C6.36626 26.6922 6.36088 26.6848 6.35707 26.6767L6.35617 26.6747ZM5.9555 25.7175L5.77215 25.2319C5.76812 25.2212 5.76845 25.2094 5.77308 25.1989C5.77771 25.1885 5.78626 25.1803 5.79689 25.1761C5.80752 25.1719 5.81938 25.172 5.82991 25.1765C5.84045 25.1809 5.84881 25.1893 5.8532 25.1998L5.85377 25.2012L6.05162 25.678L6.05218 25.6794C6.05479 25.6857 6.05614 25.6924 6.05614 25.6992C6.05613 25.706 6.05479 25.7128 6.05217 25.7191C6.04956 25.7253 6.04573 25.7311 6.0409 25.7359C6.03607 25.7407 6.03034 25.7445 6.02403 25.7471C6.01772 25.7497 6.01096 25.7511 6.00413 25.7511C5.99731 25.7511 5.99054 25.7497 5.98424 25.7471C5.97793 25.7445 5.9722 25.7407 5.96737 25.7359C5.96255 25.731 5.95872 25.7253 5.95611 25.719L5.9555 25.7175ZM5.6079 24.7392L5.48007 24.2339C5.47834 24.2271 5.47936 24.2199 5.48292 24.2139C5.48647 24.2078 5.49227 24.2034 5.49906 24.2016C5.50585 24.1997 5.51309 24.2006 5.51922 24.2041C5.52534 24.2075 5.52987 24.2132 5.53182 24.22L5.53277 24.2234L5.67504 24.7177L5.67593 24.7209C5.67847 24.7298 5.67734 24.7394 5.67281 24.7475C5.66828 24.7556 5.6607 24.7617 5.65174 24.7642C5.64278 24.7668 5.63316 24.7657 5.625 24.7612C5.61683 24.7567 5.61079 24.7492 5.60818 24.7403L5.6079 24.7392ZM5.49517 23.7098C5.51527 23.676 5.54722 23.6509 5.58483 23.6392C5.587 23.6385 5.58928 23.6383 5.59154 23.6385C5.5938 23.6387 5.596 23.6393 5.59801 23.6404C5.60002 23.6414 5.6018 23.6429 5.60325 23.6446C5.60471 23.6463 5.6058 23.6483 5.60648 23.6505C5.60774 23.6549 5.60727 23.6595 5.60518 23.6635C5.60309 23.6675 5.59954 23.6706 5.59525 23.6721C5.56612 23.6818 5.54172 23.7022 5.52685 23.729C5.52563 23.7311 5.52401 23.7329 5.52207 23.7344C5.52014 23.7359 5.51794 23.737 5.51559 23.7376C5.51323 23.7382 5.51079 23.7384 5.50837 23.7381C5.50596 23.7377 5.50363 23.7369 5.50153 23.7357C5.49942 23.7345 5.49758 23.7329 5.4961 23.731C5.49462 23.729 5.49354 23.7268 5.49292 23.7245C5.49229 23.7221 5.49214 23.7197 5.49246 23.7173C5.49278 23.7149 5.49358 23.7126 5.4948 23.7105L5.49517 23.7098ZM21.6182 35.4316C21.2401 35.5279 20.8546 35.5922 20.4658 35.6239C20.0819 35.6584 19.6982 35.6726 19.3147 35.6694C18.9312 35.6664 18.5478 35.6452 18.1646 35.6039C17.7763 35.5654 17.392 35.494 17.0159 35.3903C17.3938 35.2933 17.7794 35.2288 18.1683 35.1973C18.5522 35.1629 18.9358 35.1486 19.3194 35.1525C19.7029 35.1562 20.0863 35.1773 20.4694 35.2187C20.8577 35.2574 21.2419 35.3286 21.6182 35.4316ZM11.7035 56.2804C11.7694 56.8192 11.7985 57.3579 11.8201 57.8967C11.8392 58.4354 11.8501 58.9742 11.83 59.5129C11.8053 60.0517 11.7549 60.5904 11.7422 61.1292C11.7413 61.2638 11.7369 61.3985 11.7388 61.5332C11.7286 61.6615 11.7465 61.7904 11.7911 61.9111C11.8372 62.025 11.9123 62.1248 12.009 62.2009C12.1056 62.277 12.2204 62.3267 12.3422 62.345C12.4591 62.3602 12.578 62.3468 12.6885 62.3061C12.7944 62.264 12.8887 62.1974 12.9636 62.1117C13.0361 62.028 13.0868 61.9278 13.1111 61.8199C13.1228 61.7669 13.1284 61.7127 13.1278 61.6584L13.1236 61.4569C13.1116 60.9181 13.0971 60.3794 13.1018 59.8406C13.1164 58.7631 13.1598 57.6856 13.2689 56.6081C13.2693 56.6039 13.2713 56.5999 13.2745 56.597C13.2777 56.5941 13.2818 56.5925 13.2861 56.5925C13.2904 56.5925 13.2946 56.5941 13.2978 56.597C13.301 56.5999 13.303 56.6039 13.3034 56.6081C13.4124 57.6856 13.4558 58.7631 13.4705 59.8406C13.4751 60.3794 13.4606 60.9181 13.4487 61.4569L13.4442 61.6594C13.4422 61.7399 13.4298 61.8198 13.4072 61.8972C13.3425 62.1254 13.1908 62.3194 12.9846 62.4376C12.7785 62.5558 12.5341 62.5889 12.3038 62.5298C12.1601 62.4923 12.028 62.4199 11.9193 62.3189C11.8106 62.218 11.7287 62.0918 11.6809 61.9515C11.6581 61.883 11.643 61.8123 11.6359 61.7404C11.6313 61.6668 11.6329 61.6004 11.6336 61.5332C11.6354 61.3985 11.6311 61.2638 11.6301 61.1291C11.6174 60.5904 11.5671 60.0517 11.5423 59.5129C11.5222 58.9741 11.5331 58.4354 11.5522 57.8967C11.5738 57.3579 11.6029 56.8192 11.6689 56.2804C11.6694 56.2762 11.6715 56.2723 11.6746 56.2695C11.6778 56.2667 11.6819 56.2652 11.6862 56.2652C11.6904 56.2652 11.6945 56.2667 11.6977 56.2695C11.7009 56.2723 11.7029 56.2762 11.7035 56.2804ZM36.3663 57.487C36.4322 57.947 36.4613 58.407 36.4829 58.8669C36.502 59.3269 36.5129 59.7869 36.4928 60.2468C36.4715 60.7068 36.4157 61.1668 36.405 61.6268C36.3985 61.7346 36.417 61.8424 36.4592 61.9419C36.5014 62.0414 36.5661 62.1298 36.6482 62.2002C36.7437 62.2821 36.8597 62.3365 36.9839 62.3575C37.1081 62.3785 37.2356 62.3653 37.3529 62.3194C37.4701 62.2734 37.5725 62.1965 37.6491 62.0968C37.7257 61.997 37.7736 61.8784 37.7876 61.7535C37.7962 61.6705 37.7881 61.5454 37.7864 61.4319C37.7744 60.972 37.7599 60.512 37.7646 60.052C37.7728 59.1298 37.8285 58.2087 37.9316 57.2922C37.9321 57.288 37.9342 57.2841 37.9374 57.2813C37.9405 57.2785 37.9447 57.2769 37.9489 57.2769C37.9532 57.2769 37.9573 57.2785 37.9605 57.2813C37.9636 57.2841 37.9657 57.288 37.9662 57.2922C38.0693 58.2087 38.1251 59.1298 38.1333 60.052C38.1379 60.512 38.1235 60.972 38.1115 61.4319C38.1124 61.5547 38.1053 61.6774 38.0902 61.7992C38.0553 61.9982 37.9542 62.1798 37.8032 62.3144C37.6521 62.4491 37.4599 62.529 37.2577 62.5413C37.1314 62.5497 37.0046 62.5313 36.8859 62.4874C36.7672 62.4435 36.6591 62.375 36.5688 62.2864C36.4804 62.2008 36.4104 62.0982 36.363 61.9848C36.3156 61.8714 36.2917 61.7496 36.2929 61.6268C36.2823 61.1668 36.2265 60.7068 36.2051 60.2468C36.185 59.7869 36.1959 59.3269 36.215 58.8669C36.2367 58.407 36.2657 57.947 36.3317 57.487C36.3323 57.4829 36.3344 57.4791 36.3376 57.4763C36.3407 57.4736 36.3448 57.4721 36.349 57.4721C36.3532 57.4721 36.3572 57.4736 36.3604 57.4763C36.3636 57.4791 36.3657 57.4829 36.3663 57.487ZM12.5853 24.2705C12.7024 24.0785 12.8502 23.9069 13.0227 23.7623C13.1931 23.6151 13.3774 23.4847 13.5729 23.3729C13.969 23.1554 14.3971 23.0017 14.8413 22.9176C15.283 22.8272 15.7328 22.7823 16.1837 22.7834C16.4079 22.7931 16.6326 22.8017 16.8567 22.8158L17.525 22.8931C17.5524 22.8962 17.5779 22.9081 17.5978 22.9271L17.6026 22.9317C17.9604 23.2721 18.322 23.6086 18.6767 23.9523L18.5486 23.9102C19.1539 23.8635 19.7624 23.9385 20.338 24.1306C20.9073 24.3154 21.4406 24.5961 21.9148 24.9607C22.0333 25.0498 22.1398 25.1543 22.2525 25.2502C22.3073 25.2999 22.3653 25.3462 22.4172 25.3987L22.5669 25.5624C22.6641 25.6735 22.7712 25.7758 22.8627 25.8911L23.1268 26.2451C23.1696 26.3048 23.2173 26.3612 23.2568 26.423L23.3709 26.6115L23.599 26.9882C23.7345 27.248 23.8587 27.5138 23.9891 27.7767L23.9896 27.7779L23.9907 27.7809C24.1007 28.0933 24.2412 28.3941 24.4099 28.6792C24.4937 28.8189 24.5926 28.949 24.7048 29.0672C24.8045 29.1832 24.9367 29.2668 25.0844 29.3074C25.0949 29.3094 25.105 29.3134 25.1139 29.3193C25.1229 29.3252 25.1306 29.3328 25.1367 29.3416C25.1427 29.3505 25.1469 29.3604 25.1491 29.3709C25.1513 29.3814 25.1514 29.3922 25.1493 29.4027L25.1465 29.4135L25.1456 29.4161C24.947 29.9834 24.7119 30.5373 24.4418 31.0744C24.1727 31.6139 23.8629 32.1322 23.5149 32.6248C23.163 33.121 22.7591 33.5785 22.31 33.9893C21.8478 34.4009 21.3199 34.7325 20.7481 34.9705C20.7178 34.9828 20.6846 34.9863 20.6524 34.9808C20.6201 34.9752 20.5901 34.9608 20.5656 34.9392L20.5629 34.9367C19.9479 34.3912 19.3606 33.8265 18.7958 33.2347C18.2276 32.6473 17.6902 32.0298 17.1804 31.3897C16.9277 31.0678 16.6814 30.7405 16.4495 30.4026C16.2219 30.0615 16.0065 29.7119 15.8131 29.3495C15.6152 28.9881 15.4564 28.6068 15.3393 28.2119C15.2125 27.8179 15.1807 27.3995 15.2466 26.9909C15.2471 26.9887 15.2479 26.9866 15.2492 26.9847C15.2505 26.9828 15.2521 26.9812 15.254 26.98C15.2559 26.9787 15.258 26.9778 15.2602 26.9774C15.2625 26.977 15.2647 26.977 15.267 26.9774C15.2712 26.9784 15.275 26.9809 15.2775 26.9844C15.28 26.988 15.2812 26.9923 15.2807 26.9967C15.2506 27.3974 15.3113 27.7998 15.4584 28.1739C15.5992 28.5497 15.7748 28.9115 15.983 29.2548C16.4081 29.9396 16.8847 30.5913 17.4088 31.2042C17.9296 31.8216 18.4856 32.4094 19.0517 32.987C19.6212 33.56 20.2049 34.1254 20.8049 34.661L20.6197 34.6272C21.1546 34.4126 21.6505 34.1116 22.0874 33.7363C22.5245 33.3475 22.9207 32.9153 23.2697 32.4463C23.6226 31.9739 23.9417 31.4774 24.2247 30.9603C24.5151 30.4453 24.77 29.9112 24.9876 29.3616L25.0488 29.4703C24.8711 29.4173 24.7137 29.3117 24.5974 29.1675C24.4836 29.0373 24.3838 28.8957 24.2995 28.7448C24.1304 28.4498 23.9907 28.1389 23.8826 27.8166L23.8841 27.8208C23.7575 27.5609 23.6443 27.2935 23.5067 27.0392L23.2782 26.6704L23.164 26.486C23.125 26.4252 23.0763 26.3712 23.0325 26.3139L22.7634 25.9747C22.6706 25.8645 22.5632 25.7673 22.4625 25.6646L22.3094 25.5126C22.2565 25.4641 22.1978 25.422 22.1423 25.3765C22.0284 25.289 21.9212 25.1931 21.8026 25.1129C21.3331 24.7868 20.8113 24.543 20.2596 24.3918C19.7175 24.2361 19.1521 24.1767 18.5894 24.2165L18.5821 24.2171C18.5601 24.2189 18.5379 24.216 18.5171 24.2087C18.4963 24.2013 18.4773 24.1896 18.4613 24.1744C18.105 23.8325 17.7557 23.4833 17.4025 23.1381L17.48 23.1767L16.8311 23.0894C16.6141 23.0718 16.3966 23.0595 16.1791 23.0458C15.7446 23.0323 15.3097 23.058 14.8798 23.1226C14.45 23.1874 14.0316 23.3132 13.6375 23.496C13.4415 23.5903 13.2551 23.7032 13.0808 23.8331C12.9042 23.9611 12.7473 24.1143 12.6153 24.2877L12.6141 24.2893C12.6115 24.2928 12.6076 24.2953 12.6033 24.2961C12.5989 24.2969 12.5944 24.296 12.5907 24.2936C12.587 24.2911 12.5844 24.2874 12.5834 24.2831C12.5824 24.2788 12.583 24.2743 12.5853 24.2705L12.5853 24.2705Z" fill="#141414"/>
<path d="M16.1113 25.275C16.2158 25.0934 16.3487 24.9295 16.5049 24.7896C16.6609 24.6466 16.8356 24.5254 17.0243 24.4293C17.2146 24.3327 17.4202 24.2693 17.632 24.2419C17.8418 24.2138 18.0551 24.2298 18.2584 24.2888C18.0556 24.2977 17.8541 24.3263 17.6569 24.3741C17.4646 24.4229 17.2783 24.4931 17.1017 24.5833C16.7434 24.7709 16.4106 25.0033 16.1113 25.275ZM21.0165 34.6539C21.6242 35.4149 22.3074 36.113 23.0555 36.7374C23.7852 37.3683 24.6294 37.8537 25.5425 38.1673C25.993 38.3118 26.4669 38.3695 26.939 38.3373C27.4082 38.2983 27.8651 38.1671 28.2832 37.9514C29.1252 37.5274 29.774 36.7756 30.2443 35.9498C30.7078 35.1031 30.9681 34.1607 31.0047 33.1968L31.0383 30.2704L31.0391 29.5381C31.0315 29.2904 31.0482 29.0426 31.0888 28.7981C31.1248 28.5527 31.1806 28.3106 31.2556 28.0741C31.3467 27.8441 31.4501 27.619 31.5653 27.3999C31.7863 26.9627 32.0171 26.5324 32.2266 26.0942C32.4457 25.6687 32.6107 25.2176 32.7176 24.7513C32.7188 24.7448 32.7206 24.7383 32.7229 24.7321L32.7241 24.7288L33.2848 23.225L33.5553 22.4715C33.5766 22.4218 33.5906 22.3694 33.5968 22.3157C33.6008 22.27 33.5953 22.224 33.5806 22.1805C33.5682 22.1406 33.5463 22.1042 33.5167 22.0746C33.4872 22.0449 33.4509 22.0228 33.411 22.0102C33.2782 21.9607 33.0693 22.133 32.9261 22.3289C32.7746 22.5364 32.6435 22.758 32.5345 22.9906C32.2996 23.4892 32.0031 23.9567 31.652 24.382C31.4691 24.6031 31.2537 24.7952 31.013 24.9518C30.8811 25.0357 30.7357 25.0961 30.5832 25.1304C30.4036 25.1718 30.215 25.141 30.058 25.0446C29.9245 24.9389 29.8237 24.7978 29.767 24.6374C29.7103 24.4771 29.7002 24.3041 29.7377 24.1383C29.7628 23.9902 29.8079 23.8463 29.8717 23.7103L29.9182 23.6138C29.9316 23.5875 29.9438 23.5608 29.9552 23.5338C29.9779 23.4803 29.9965 23.4252 30.0111 23.3689C30.0401 23.2598 30.05 23.1464 30.0404 23.0339C30.0388 22.9982 30.0303 22.9632 30.0152 22.9307C30.0126 22.9256 30.0234 22.9401 30.032 22.9396C30.0422 22.9407 30.0356 22.9396 30.0228 22.9427C29.9256 22.9818 29.8374 23.0401 29.7633 23.114C29.6742 23.1968 29.594 23.2887 29.524 23.3882C29.242 23.8169 29.0466 24.2965 28.9489 24.7999L28.9509 24.765L29.0075 26.0559L29.0358 26.7012L29.05 27.0239C29.0582 27.1346 29.0592 27.2457 29.0529 27.3565C28.9883 27.795 28.862 28.2223 28.6778 28.6257C28.5118 29.0267 28.3229 29.4158 28.1375 29.8032L28.136 29.8063L28.1321 29.813C27.7192 30.4269 27.3084 31.0422 26.8894 31.6523C26.8868 31.656 26.883 31.6585 26.8786 31.6594C26.8742 31.6603 26.8696 31.6595 26.8659 31.6571C26.8621 31.6547 26.8594 31.651 26.8583 31.6466C26.8573 31.6423 26.8579 31.6377 26.8602 31.6338C27.2336 30.995 27.6153 30.3613 27.9948 29.7263L27.9894 29.7361C28.1624 29.3414 28.3364 28.9497 28.4862 28.5502C28.647 28.1642 28.7539 27.7581 28.8039 27.3431C28.8055 27.2391 28.8008 27.1351 28.7899 27.0316L28.7685 26.7102L28.726 26.0673L28.6408 24.782C28.6401 24.7703 28.6408 24.7585 28.6428 24.747C28.693 24.4736 28.7664 24.2049 28.8623 23.9439C28.9565 23.678 29.0834 23.4248 29.2401 23.19C29.3231 23.0694 29.4187 22.9577 29.5252 22.857C29.6404 22.7401 29.7816 22.6517 29.9373 22.5989C29.9992 22.5818 30.0645 22.5812 30.1267 22.5972C30.198 22.6169 30.2604 22.6603 30.3035 22.7203C30.3583 22.8024 30.3908 22.8973 30.3977 22.9957C30.4134 23.1503 30.4019 23.3064 30.3638 23.4571C30.3456 23.5307 30.322 23.6028 30.2932 23.673C30.2789 23.7078 30.2637 23.7422 30.2471 23.7758L30.2073 23.8606C30.1585 23.968 30.1235 24.081 30.1031 24.1971C30.0835 24.3021 30.0875 24.41 30.1146 24.5133C30.1386 24.6015 30.19 24.68 30.2612 24.7375C30.3826 24.8254 30.6203 24.7668 30.8201 24.6396C31.0294 24.5028 31.218 24.3367 31.3801 24.1464C31.7168 23.748 32.0024 23.3094 32.2303 22.8406C32.3521 22.5894 32.4982 22.3507 32.6663 22.1277C32.7566 22.0072 32.8645 21.901 32.9863 21.8125C33.0584 21.7562 33.1425 21.7174 33.2321 21.6989C33.3216 21.6804 33.4143 21.6828 33.5028 21.7058C33.5912 21.7339 33.6716 21.7829 33.737 21.8486C33.8024 21.9142 33.8509 21.9947 33.8784 22.0831C33.9056 22.1673 33.9151 22.2561 33.9061 22.3441C33.8962 22.4235 33.8751 22.5011 33.8433 22.5746L33.5532 23.3265C33.3553 23.8252 33.1584 24.3233 32.9515 24.8182L32.958 24.7957C32.832 25.279 32.6451 25.7444 32.4019 26.1809C32.1757 26.6173 31.9331 27.0421 31.7005 27.4702C31.5825 27.6804 31.4752 27.8964 31.379 28.1174C31.3027 28.3455 31.2456 28.5796 31.2082 28.8172C31.1656 29.0542 31.1465 29.2948 31.1512 29.5356L31.1427 30.2681C31.1422 31.246 31.1269 32.2175 31.1585 33.2003C31.1573 34.1975 30.923 35.1807 30.4744 36.0718C30.2473 36.5191 29.9608 36.9338 29.6226 37.3046C29.2824 37.6819 28.8764 37.9946 28.4244 38.2275C27.9679 38.457 27.4698 38.593 26.9597 38.6275C26.4518 38.6554 25.9432 38.5867 25.4609 38.4252C24.4983 38.115 23.6706 37.5278 22.9328 36.88C22.5643 36.5535 22.2174 36.2035 21.8943 35.8323C21.5682 35.4655 21.2656 35.0785 20.9883 34.6738C20.987 34.6719 20.9861 34.6698 20.9857 34.6676C20.9852 34.6653 20.9852 34.6631 20.9857 34.6608C20.9861 34.6586 20.987 34.6565 20.9882 34.6546C20.9895 34.6527 20.9911 34.6511 20.993 34.6498C20.9967 34.6475 21.0012 34.6466 21.0055 34.6474C21.0099 34.6481 21.0138 34.6504 21.0165 34.6539Z" fill="#141414"/>
<path d="M24.9197 29.7698C25.2552 30.0242 25.5711 30.3021 25.8804 30.5867C26.1909 30.8702 26.4864 31.1695 26.7761 31.4741C27.0637 31.7807 27.3421 32.0964 27.6046 32.4251C27.8697 32.7517 28.1165 33.0927 28.3437 33.4465C28.1989 33.2932 28.0679 33.1301 27.923 32.9781C27.7858 32.8201 27.6453 32.665 27.5035 32.5112C27.2188 32.2047 26.939 31.8943 26.6501 31.592L24.9197 29.7698ZM20.6743 24.3763C21.6072 23.6887 22.6038 23.0915 23.6505 22.5928C24.1735 22.3384 24.7115 22.1158 25.2614 21.9261C25.8131 21.7327 26.3826 21.5939 26.9616 21.5119C27.5371 21.4336 28.1169 21.3895 28.6977 21.3796C28.8428 21.3762 28.9883 21.3768 29.1337 21.3842L29.2428 21.3892C29.2836 21.3919 29.3238 21.3999 29.3625 21.4129C29.4405 21.4402 29.5091 21.4888 29.5606 21.5532C29.6056 21.6098 29.6363 21.6764 29.6499 21.7473C29.6636 21.8182 29.6599 21.8913 29.639 21.9605C29.6182 22.0297 29.5809 22.0928 29.5303 22.1445C29.4798 22.1961 29.4174 22.2348 29.3486 22.2573L29.2459 22.2915C28.6987 22.4764 28.15 22.6569 27.596 22.8261C27.3184 22.909 27.0401 22.9914 26.7559 23.0581C26.6138 23.092 26.4706 23.1231 26.3241 23.149C26.1687 23.1803 26.01 23.1928 25.8516 23.1862C25.8125 23.1834 25.7759 23.1656 25.7496 23.1366C25.7233 23.1076 25.7092 23.0696 25.7103 23.0305C25.7113 22.9913 25.7275 22.9542 25.7554 22.9266C25.7833 22.8991 25.8207 22.8834 25.86 22.8827L25.8718 22.8826L28.3437 22.8519L28.346 22.8518C28.3761 22.8516 28.4057 22.8593 28.4317 22.8743C28.4862 22.9058 28.5357 22.9452 28.5785 22.9914C28.6288 23.0462 28.6639 23.1131 28.6806 23.1855C28.6926 23.2576 28.6858 23.3315 28.6608 23.4002C28.6358 23.4689 28.5935 23.5299 28.538 23.5776C28.3902 23.703 28.2206 23.8003 28.0376 23.8647C27.873 23.9257 27.7052 23.9776 27.5348 24.0201C27.3672 24.0677 27.1989 24.0971 27.0311 24.1363L27.1186 24.0892C26.9266 24.2689 26.7198 24.4323 26.5003 24.5776C26.2822 24.7258 26.0498 24.8521 25.8067 24.9547C25.5572 25.0635 25.2888 25.1224 25.0166 25.1281C24.7345 25.1282 24.4608 25.0319 24.2412 24.8553L24.3608 24.8594C24.0895 25.0234 23.8213 25.1921 23.5473 25.3521C23.2742 25.5133 23.0027 25.6769 22.727 25.8342C22.7232 25.8364 22.7187 25.837 22.7144 25.836C22.7102 25.835 22.7064 25.8324 22.704 25.8287C22.7016 25.8251 22.7007 25.8207 22.7014 25.8163C22.7021 25.812 22.7045 25.8082 22.7079 25.8055C22.961 25.614 23.2183 25.4289 23.474 25.2414C23.7288 25.0526 23.9895 24.8725 24.247 24.6878C24.2633 24.6761 24.2828 24.6697 24.3028 24.6695C24.3229 24.6693 24.3425 24.6753 24.359 24.6866L24.3666 24.6919C24.555 24.8232 24.783 24.8858 25.0122 24.8693C25.2479 24.8532 25.4781 24.7915 25.69 24.6874C25.9097 24.583 26.1186 24.4573 26.3137 24.312C26.5096 24.1673 26.6958 24.0098 26.8709 23.8406C26.8935 23.8187 26.9215 23.803 26.952 23.7951L26.9584 23.7935C27.1187 23.7525 27.2834 23.7205 27.44 23.6723C27.5966 23.6296 27.7509 23.5791 27.9024 23.5209C28.0386 23.4737 28.1661 23.4042 28.2795 23.3153C28.3272 23.2724 28.318 23.2565 28.3208 23.2629C28.3229 23.2624 28.3163 23.2518 28.3055 23.2369C28.2903 23.2216 28.2737 23.2079 28.2558 23.1958L28.3437 23.2182L25.8718 23.1875L25.892 22.8839C26.0219 22.892 26.1523 22.8858 26.2809 22.8656C26.4193 22.847 26.5592 22.8229 26.699 22.7957C26.9783 22.7395 27.2592 22.6805 27.5389 22.6148C28.0984 22.4828 28.6549 22.3358 29.2087 22.174L29.3122 22.1431C29.3417 22.1345 29.3699 22.122 29.3959 22.1057C29.4484 22.0727 29.4904 22.0256 29.5171 21.9698C29.5434 21.9132 29.5537 21.8505 29.5467 21.7886C29.5396 21.7266 29.5157 21.6678 29.4774 21.6185C29.4391 21.5693 29.3875 21.532 29.3287 21.5109C29.2989 21.5014 29.268 21.4958 29.2367 21.4942L29.1296 21.4909C28.987 21.4857 28.8438 21.487 28.7007 21.4926C28.128 21.5262 27.5588 21.6039 26.9981 21.7251C26.4421 21.8496 25.8956 22.0134 25.3629 22.2152C24.8251 22.4056 24.2946 22.6184 23.7714 22.8536C22.7249 23.3196 21.6996 23.8415 20.6935 24.405C20.6916 24.4061 20.6894 24.4069 20.6872 24.4072C20.6849 24.4076 20.6827 24.4075 20.6804 24.4069C20.6782 24.4064 20.6762 24.4054 20.6743 24.4041C20.6725 24.4027 20.671 24.401 20.6698 24.3991C20.6677 24.3954 20.667 24.391 20.6678 24.3869C20.6686 24.3827 20.6709 24.379 20.6743 24.3763Z" fill="#141414"/>
<path d="M31.0483 19.3126L29.5327 21.6069C29.8213 22.0982 29.1767 22.2482 29.1767 22.2482L28.4422 23.1135C28.4422 23.1135 28.6513 23.46 28.0637 23.6564L28.9952 24.0598C28.9952 24.0598 29.3115 23.1135 29.7919 22.8463L29.3945 22.7205L31.1849 19.8056L33.6044 20.0521L31.8122 23.4858L30.2223 22.9825C30.2438 23.2874 30.1701 23.5915 30.0114 23.853L29.9112 24.2718L31.1106 24.6579C31.5658 24.0994 31.991 23.517 32.3843 22.9135C32.7559 22.2809 33.0894 21.7793 33.3279 21.8448L34.6656 19.5591L31.0483 19.3126ZM29.0004 23.4754C28.9332 23.4731 28.8696 23.4448 28.8229 23.3965C28.7763 23.3483 28.7502 23.2839 28.7502 23.2169C28.7502 23.1499 28.7763 23.0854 28.8229 23.0372C28.8696 22.989 28.9332 22.9607 29.0004 22.9583C29.0675 22.9607 29.1312 22.989 29.1778 23.0372C29.2245 23.0854 29.2506 23.1498 29.2506 23.2169C29.2506 23.2839 29.2245 23.3483 29.1778 23.3966C29.1312 23.4448 29.0675 23.4731 29.0004 23.4754ZM31.1158 24.1787C31.0486 24.1764 30.985 24.1481 30.9383 24.0998C30.8917 24.0516 30.8656 23.9872 30.8656 23.9202C30.8656 23.8532 30.8917 23.7887 30.9383 23.7405C30.985 23.6923 31.0486 23.664 31.1158 23.6616C31.1829 23.664 31.2466 23.6923 31.2932 23.7405C31.3399 23.7887 31.366 23.8531 31.366 23.9202C31.366 23.9872 31.3399 24.0516 31.2932 24.0999C31.2466 24.1481 31.1829 24.1764 31.1158 24.1787ZM21.8965 23.6559C22.2117 23.8801 22.5075 24.1304 22.7807 24.4042C23.0593 24.6724 23.3146 24.9638 23.5436 25.2752C23.2281 25.0512 22.9323 24.8009 22.6594 24.5269C22.3811 24.2584 22.1259 23.967 21.8965 23.6559ZM54.3916 42.6883C53.5431 42.266 47.1451 30.167 47.1451 30.167C46.1272 28.2933 44.7947 27.3625 43.5262 26.9316C42.6599 26.6472 41.74 26.5637 40.8365 26.6873C39.9329 26.811 39.0696 27.1386 38.3121 27.6452L31.0605 32.4148C31.1728 34.6195 30.6232 35.4469 30.6232 35.4469L36.7411 35.7209C39.1054 36.3794 39.0121 38.2859 39.0121 38.2859L39.2056 52.3258C43.1321 54.2271 47.9919 52.3258 47.9919 52.3258L47.2713 48.3939L46.5713 44.5482C46.3311 43.2692 46.0909 41.9919 45.8092 40.7233C45.6761 40.0872 45.524 39.4563 45.3616 38.8271C45.2026 38.1997 45.0263 37.574 44.8241 36.9603C44.6304 36.3444 44.3877 35.7449 44.0982 35.1676C43.9569 34.8795 43.7773 34.6116 43.5642 34.3713C43.457 34.2535 43.3294 34.156 43.1874 34.0834C43.1173 34.0446 43.039 34.0228 42.9588 34.0198C42.8786 34.0168 42.7989 34.0327 42.726 34.0662C42.798 34.0237 42.8792 33.9988 42.9627 33.9937C43.0462 33.9887 43.1298 34.0034 43.2065 34.0368C43.3624 34.0999 43.5053 34.1911 43.6282 34.3058C43.8673 34.5366 44.0748 34.798 44.2451 35.0832C44.5773 35.6522 44.8562 36.2506 45.0782 36.8707C45.5202 38.1044 45.8771 39.3668 46.1462 40.6491C46.4244 41.9264 46.6508 43.2141 46.8375 44.5051C47.0276 45.7962 47.1641 47.0942 47.2713 48.3939C50.5774 47.8027 54.3916 42.6883 54.3916 42.6883Z" fill="#141414"/>
<path d="M39.2362 55.5088C39.2836 56.3079 39.3053 57.1086 39.2767 57.9115C39.2713 58.3192 39.2307 58.7257 39.1552 59.1264C39.143 59.1802 39.1273 59.2331 39.1083 59.2849L39.0695 59.3693L39.0494 59.411C39.0475 59.4164 39.0453 59.4216 39.0428 59.4267C39.0364 59.4554 39.0361 59.4852 39.0422 59.5141C39.0482 59.543 39.0603 59.5702 39.0777 59.5941C39.1756 59.744 39.305 59.871 39.4569 59.9661C39.7725 60.1743 40.131 60.3089 40.5059 60.3599C40.8808 60.4108 41.2624 60.3768 41.6223 60.2604C41.7112 60.2301 41.7985 60.1952 41.8838 60.1557C41.976 60.1122 42.0705 60.0697 42.1656 60.0304C42.3571 59.9519 42.5543 59.8882 42.7556 59.8398C43.1581 59.7479 43.5722 59.7171 43.9839 59.7487C44.3919 59.7694 44.7955 59.842 45.185 59.9647C45.3794 60.0259 45.5688 60.1019 45.7515 60.192C45.9301 60.2766 46.1145 60.3483 46.3033 60.4067C46.6837 60.5262 47.071 60.6225 47.4631 60.695C47.855 60.7698 48.2493 60.8344 48.646 60.8774C49.4356 60.9718 50.2327 60.9866 51.0252 60.9217C51.41 60.8957 51.7882 60.8086 52.1455 60.6637C52.3041 60.5994 52.44 60.4897 52.5361 60.3484C52.5726 60.2787 52.5946 60.2023 52.6006 60.1239C52.6066 60.0455 52.5965 59.9667 52.571 59.8922L52.5979 59.9454C52.5211 59.859 52.4375 59.779 52.348 59.706C52.2562 59.6279 52.1574 59.5563 52.0586 59.4851C51.856 59.3463 51.6445 59.2207 51.4256 59.1092C50.9828 58.8867 50.5225 58.7007 50.0493 58.553C49.5729 58.4058 49.0888 58.2848 48.599 58.1905C48.3547 58.1373 48.1081 58.1068 47.8627 58.0636C47.6029 58.031 47.3461 57.9778 47.0948 57.9046C46.592 57.7595 46.1142 57.539 45.6779 57.2507C45.24 56.9641 44.8684 56.5878 44.5878 56.1467C44.3071 55.7057 44.1238 55.2101 44.0501 54.693C43.9777 54.1872 43.9817 53.6734 44.0622 53.1688C44.0628 53.1644 44.0652 53.1605 44.0687 53.1577C44.0722 53.155 44.0766 53.1538 44.0811 53.1542C44.0855 53.1547 44.0896 53.1568 44.0925 53.1602C44.0953 53.1636 44.0968 53.168 44.0966 53.1724C44.0603 53.6725 44.0943 54.1752 44.1976 54.6658C44.2965 55.1496 44.4934 55.608 44.7763 56.0131C45.0608 56.4111 45.4212 56.7492 45.8368 57.0081C46.2547 57.2652 46.7093 57.4575 47.185 57.5784C47.4217 57.64 47.6625 57.685 47.9054 57.7133C48.159 57.7537 48.416 57.7821 48.6671 57.8329C48.9189 57.8811 49.1712 57.9273 49.4193 57.9951C49.6695 58.0527 49.9155 58.1287 50.1616 58.2036C50.6539 58.3613 51.1311 58.5625 51.5875 58.8049C52.0614 59.0433 52.4889 59.364 52.8502 59.7518C52.8617 59.7649 52.8702 59.7805 52.8749 59.7973L52.8771 59.805C52.913 59.921 52.9245 60.0432 52.9107 60.1638C52.8968 60.2845 52.8581 60.4009 52.7969 60.5059C52.6651 60.6956 52.479 60.8413 52.2629 60.9239C51.8733 61.0726 51.4611 61.1536 51.0442 61.1636C50.236 61.1905 49.4271 61.14 48.6286 61.0128C47.8311 60.9043 47.0428 60.7365 46.2703 60.5108C46.0762 60.4515 45.8856 60.3814 45.6994 60.3008C45.5204 60.2188 45.335 60.1513 45.1451 60.0991C44.7638 60.0001 44.3715 59.9502 43.9775 59.9504C43.5877 59.9396 43.1985 59.9875 42.8231 60.0925C42.6375 60.1485 42.4558 60.2162 42.2789 60.2952C42.1899 60.3347 42.1029 60.3768 42.0152 60.4211C41.9201 60.4684 41.8224 60.5106 41.7227 60.5475C41.3195 60.6892 40.8873 60.7286 40.465 60.6621C40.0452 60.597 39.6455 60.4382 39.2958 60.1975C39.11 60.0751 38.9541 59.9128 38.8395 59.7224C38.8084 59.6658 38.7867 59.6046 38.7754 59.541C38.7606 59.4656 38.7698 59.3874 38.8016 59.3175L38.8288 59.2661L38.8403 59.24L38.8649 59.1885C38.8808 59.1468 38.8942 59.1041 38.9048 59.0607C38.9935 58.679 39.0503 58.2906 39.0747 57.8995C39.1357 57.1066 39.1725 56.3082 39.2017 55.5094C39.2018 55.5072 39.2023 55.5049 39.2032 55.5029C39.2041 55.5008 39.2054 55.4989 39.2071 55.4974C39.2087 55.4958 39.2106 55.4946 39.2128 55.4938C39.2149 55.493 39.2171 55.4926 39.2194 55.4926C39.2237 55.4928 39.2278 55.4945 39.2309 55.4975C39.234 55.5005 39.2359 55.5045 39.2362 55.5088ZM49.3642 47.5233C49.5315 47.8303 49.682 48.1455 49.8251 48.4645C49.968 48.7835 50.1035 49.1067 50.22 49.4376C50.3396 49.7688 50.4412 50.1062 50.5244 50.4484C50.6159 50.7963 50.6594 51.155 50.6535 51.5146C50.6508 51.6078 50.6409 51.7007 50.6239 51.7924C50.616 51.8396 50.6052 51.8862 50.5916 51.9321L50.57 52.0017C50.5671 52.0118 50.5613 52.028 50.5606 52.0333C50.56 52.0381 50.5589 52.0429 50.5575 52.0476C50.5362 52.1296 50.6201 52.281 50.724 52.3898C50.9532 52.6214 51.2342 52.7953 51.5439 52.8973C51.8542 53.0059 52.1831 53.0516 52.5113 53.0318C52.8413 53.0086 53.1631 52.918 53.4566 52.7657C53.7827 52.6111 54.1279 52.5003 54.4831 52.4362C54.8372 52.3814 55.1966 52.3684 55.5537 52.3975C55.9087 52.42 56.26 52.482 56.6012 52.5822C56.7715 52.6327 56.9384 52.6936 57.1011 52.7648C57.2562 52.8419 57.4153 52.9107 57.5778 52.9708C58.2377 53.1877 58.9188 53.3344 59.6096 53.4084C60.298 53.4963 60.9933 53.5167 61.6857 53.4694C62.0272 53.446 62.3658 53.3907 62.697 53.3041C62.8572 53.2598 63.0128 53.2002 63.1615 53.1259C63.3041 53.0599 63.4317 52.9653 63.5363 52.8481C63.6358 52.7401 63.6948 52.6012 63.7034 52.4549C63.7172 52.3055 63.6924 52.155 63.6314 52.0178C63.5647 51.8748 63.4747 51.7438 63.3651 51.6301C63.2536 51.505 63.134 51.3874 63.007 51.2781C62.4876 50.84 61.897 50.4935 61.2608 50.2535C60.9426 50.129 60.6177 50.0226 60.2875 49.9348C59.9559 49.8458 59.6054 49.7564 59.272 49.6434C58.5988 49.4214 57.9477 49.1373 57.3272 48.7948C56.7121 48.4467 56.128 48.0467 55.5813 47.5991C55.0314 47.1574 54.5281 46.6607 54.0794 46.1168C53.6266 45.5764 53.2734 44.9603 53.036 44.297C53.0345 44.2927 53.0348 44.288 53.0368 44.2838C53.0388 44.2797 53.0424 44.2766 53.0467 44.2751C53.0509 44.2738 53.0554 44.274 53.0594 44.2758C53.0634 44.2776 53.0665 44.2808 53.0683 44.2848C53.3541 44.9156 53.7405 45.4961 54.2124 46.0036C54.6796 46.512 55.1939 46.9753 55.7484 47.3873C56.8395 48.2311 58.0711 48.8765 59.3868 49.2939C59.7158 49.4018 60.0411 49.4882 60.3836 49.58C60.7283 49.6707 61.0665 49.7844 61.3959 49.9205C62.0642 50.1858 62.6821 50.563 63.2231 51.0358C63.3583 51.1564 63.4855 51.2857 63.6036 51.4229C63.7338 51.5633 63.8385 51.7252 63.9131 51.9013C63.9886 52.0863 64.0155 52.2875 63.9913 52.4858C63.9798 52.5871 63.9532 52.6862 63.9126 52.7798C63.8676 52.8703 63.8101 52.9542 63.7419 53.0289C63.6104 53.1693 63.4514 53.2813 63.2748 53.358C63.1079 53.433 62.934 53.4912 62.7556 53.5319C62.4072 53.607 62.0526 53.6492 61.6963 53.6578C60.9932 53.6732 60.2899 53.63 59.594 53.5286C58.8975 53.4383 58.2104 53.287 57.5406 53.0763C57.3752 53.02 57.2054 52.9477 57.0517 52.8795C56.8929 52.8148 56.7298 52.7611 56.5635 52.7189C56.2299 52.638 55.8883 52.5945 55.5451 52.5893C55.2046 52.5778 54.864 52.6058 54.53 52.6727C54.2006 52.7494 53.8823 52.8672 53.5827 53.0236C53.2587 53.2036 52.8993 53.311 52.5295 53.3383C52.1596 53.3657 51.7883 53.3124 51.4412 53.1821C51.0874 53.058 50.7687 52.851 50.5117 52.5785C50.4448 52.5043 50.388 52.4215 50.3428 52.3324C50.2866 52.2276 50.2676 52.1069 50.2889 51.9899L50.3025 51.9411L50.3122 51.9104L50.3303 51.8555C50.3422 51.8182 50.3517 51.7801 50.3588 51.7415C50.375 51.6623 50.385 51.5819 50.3887 51.5012C50.3845 50.8183 50.2694 50.1405 50.0479 49.4943C49.8427 48.8308 49.6041 48.1781 49.3331 47.5385C49.3313 47.5343 49.3312 47.5296 49.3328 47.5253C49.3345 47.5211 49.3378 47.5176 49.342 47.5158C49.3459 47.5141 49.3504 47.514 49.3545 47.5154C49.3586 47.5168 49.362 47.5196 49.3642 47.5233ZM21.4224 17.3975C21.4896 17.3952 21.5532 17.3669 21.5999 17.3187C21.6467 17.2705 21.6728 17.206 21.6728 17.1389C21.6728 17.0719 21.6467 17.0074 21.5999 16.9592C21.5532 16.911 21.4896 16.8827 21.4224 16.8804C21.3552 16.8827 21.2915 16.911 21.2448 16.9592C21.1981 17.0074 21.1719 17.0719 21.1719 17.1389C21.1719 17.206 21.1981 17.2705 21.2448 17.3187C21.2915 17.3669 21.3552 17.3952 21.4224 17.3975ZM17.3105 17.7186C17.3777 17.7163 17.4414 17.688 17.4881 17.6398C17.5348 17.5915 17.561 17.5271 17.561 17.46C17.561 17.393 17.5348 17.3285 17.4881 17.2803C17.4414 17.232 17.3777 17.2038 17.3105 17.2015C17.2433 17.2038 17.1796 17.232 17.1329 17.2803C17.0862 17.3285 17.0601 17.393 17.0601 17.46C17.0601 17.5271 17.0862 17.5915 17.1329 17.6398C17.1796 17.688 17.2433 17.7163 17.3105 17.7186ZM20.6839 19.2522C20.8043 19.3997 20.9037 19.5323 21.021 19.6494C21.0781 19.7092 21.1396 19.7647 21.205 19.8152C21.2702 19.8698 21.3438 19.9124 21.4223 19.9707C21.326 19.9836 21.2279 19.9703 21.1385 19.9322C21.0476 19.8956 20.9655 19.8402 20.8975 19.7698C20.8303 19.7004 20.7762 19.6195 20.7378 19.5309C20.698 19.4436 20.6795 19.3481 20.6839 19.2522ZM21.8963 16.3359C21.8056 16.3575 21.7104 16.3492 21.6249 16.3121C21.5394 16.275 21.4683 16.2112 21.4224 16.1304C21.5128 16.1068 21.6087 16.1152 21.6937 16.1541C21.7801 16.1899 21.8516 16.254 21.8963 16.3359ZM17.0439 17.979C17.1323 17.9904 17.2212 17.9966 17.3102 17.9975C17.3917 17.9989 17.4696 17.9862 17.5771 17.979C17.5512 18.0254 17.5123 18.0632 17.4651 18.0877C17.4175 18.1133 17.3644 18.1267 17.3104 18.1267C17.2567 18.1286 17.2036 18.1158 17.1566 18.0897C17.1097 18.0637 17.0707 18.0255 17.0439 17.979Z" fill="#141414"/>
<path fill-rule="evenodd" clip-rule="evenodd" d="M28.4844 13.0156H33.2908V16.0716H31.5588L30.8876 16.7412L30.2163 16.0716H28.4844V13.0156ZM28.7153 13.2465V15.8407H30.3118L30.8876 16.415L31.4633 15.8407H33.0599V13.2465H28.7153Z" fill="#141414"/>
<path fill-rule="evenodd" clip-rule="evenodd" d="M33.0598 8.67446H37.8663V11.7305H36.1342L35.4631 12.4001L34.7917 11.7305H33.0598V8.67446ZM33.2907 8.90539V11.4995H34.8872L35.463 12.0739L36.0387 11.4995H37.6354V8.90539H33.2907Z" fill="#141414"/>
<path fill-rule="evenodd" clip-rule="evenodd" d="M27.948 4.89665H32.7545V7.95265H31.0226L30.3514 8.62206L29.6801 7.95265H27.948V4.89665ZM28.1789 5.12758V7.72173H29.7755L30.3514 8.29593L30.9271 7.72173H32.5235V5.12758H28.1789Z" fill="#141414"/>
</svg>
