<svg width="67" height="67" viewBox="0 0 67 67" fill="none" xmlns="http://www.w3.org/2000/svg">
<path d="M17.457 7.2915C17.4345 7.16349 17.457 6.95867 17.457 6.95867C17.457 6.95867 17.6958 6.87566 17.8548 6.87236C17.9972 6.8694 18.2155 6.92764 18.2155 6.92764C18.2155 6.92764 18.4456 7.01219 18.4868 7.14038C18.5093 7.21031 18.4978 7.25584 18.4868 7.32846C18.4537 7.54613 18.3623 7.70108 18.16 7.78785C18.0723 7.82546 18.0145 7.83993 17.9195 7.83102C17.7822 7.81814 17.7027 7.76486 17.6081 7.66452C17.5003 7.55017 17.4842 7.4463 17.457 7.2915Z" fill="#FFFAE9"/>
<path d="M21.3821 54.8182L20.9362 46.2888C20.7977 45.534 20.6736 44.7792 20.5423 44.0244L20.1714 41.7572C19.9247 40.2447 19.6967 38.7309 19.4673 37.2155C19.2436 35.7002 19.0214 34.1849 18.8151 32.6682L18.5063 30.3909C18.4168 29.6662 18.3202 28.943 18.2365 28.2183C18.1629 28.1968 18.0907 28.1753 18.0186 28.1509L18.0157 28.1739L17.997 28.3862C17.984 28.5269 17.9796 28.6689 17.9739 28.811C17.958 29.0937 17.9537 29.3778 17.945 29.6619C17.9349 30.2287 17.9306 30.797 17.9292 31.3652C17.9219 32.5003 17.9234 33.6363 17.9335 34.7732C17.9464 37.0448 17.958 39.3164 17.984 41.5879L18.0316 48.4054L18.0489 51.8134V55.2214C20.7731 54.9789 21.3821 54.8182 21.3821 54.8182ZM26.1076 30.9132C25.9248 30.6628 25.7786 30.3879 25.6733 30.0967C25.5608 29.8097 25.4641 29.517 25.3761 29.2214C25.2 28.6316 25.0601 28.0332 24.9331 27.4334C24.809 26.8307 24.6979 26.228 24.6084 25.6211C24.5147 25.0141 24.442 24.4047 24.3906 23.7929C24.3906 23.7929 23.3199 23.1659 23.0227 22.8702C22.8134 22.6622 22.4311 22.6392 22.2219 22.6449C22.1596 22.6483 22.0973 22.6382 22.0392 22.6155C21.9812 22.5927 21.9288 22.5577 21.8856 22.5129C21.8602 22.4917 21.8404 22.4644 21.8283 22.4336C21.8161 22.4028 21.812 22.3694 21.8161 22.3366C21.8203 22.3037 21.8327 22.2725 21.8521 22.2456C21.8716 22.2188 21.8975 22.1972 21.9275 22.1829C22.0077 22.1266 22.1051 22.0997 22.2031 22.1068C22.4585 22.1212 23.0241 22.17 23.291 22.3436C23.2003 22.2708 23.1043 22.2046 23.0039 22.1456C19.9305 21.3894 14.8788 21.9533 14.8788 21.9533C14.8788 21.9533 14.7879 22.6148 14.6508 23.8245C14.7894 23.5702 14.9431 23.3244 15.1111 23.0884C15.1934 22.9721 15.2756 22.8559 15.3607 22.7411C15.4471 22.6221 15.5395 22.5076 15.6378 22.3981C15.6181 22.547 15.5763 22.692 15.5137 22.8286C15.4547 22.9646 15.3822 23.0944 15.2972 23.2161C15.2127 23.3379 15.1165 23.4513 15.0101 23.5547C14.9042 23.6616 14.7831 23.7525 14.6508 23.8245C14.1328 28.3532 12.9409 40.5648 13.2944 54.4136C14.7817 55.0893 16.4204 55.3677 18.0489 55.2214C18.0042 54.0864 17.9753 52.9499 17.9392 51.8148L17.8599 48.4068C17.8108 46.1353 17.7863 43.8623 17.7589 41.5907C17.7488 39.3178 17.7372 37.0448 17.7589 34.7718C17.7719 33.6353 17.7892 32.5003 17.8195 31.3638C17.8368 30.7955 17.8589 30.2273 17.8859 29.6591C17.9032 29.3764 17.9147 29.0923 17.9392 28.8081C17.9508 28.666 17.9609 28.5254 17.9811 28.3834L18.0071 28.1724L18.0114 28.148C17.9464 28.1265 17.8815 28.105 17.8166 28.082C17.6232 28.0089 17.4313 27.9328 17.2438 27.8438C17.0535 27.7576 16.8698 27.6579 16.694 27.5453C16.9007 27.5767 17.1051 27.6218 17.3058 27.6802C17.5049 27.7362 17.6997 27.8037 17.8945 27.8711C18.0864 27.9443 18.2783 28.0189 18.4674 28.1035C18.6564 28.1868 18.8411 28.2786 19.0257 28.3805C18.8166 28.3644 18.6096 28.3269 18.4082 28.2686C18.3519 28.2542 18.2971 28.237 18.2422 28.2212C18.3721 28.9373 18.4904 29.6562 18.616 30.3737L18.9868 32.6409C19.2335 34.1534 19.4615 35.6672 19.6909 37.1825C19.9132 38.6979 20.1368 40.2132 20.3432 41.7314L20.6505 44.0087C20.7457 44.7677 20.8482 45.5268 20.9362 46.2888L22.3589 54.7364C22.3589 54.7364 26.9518 55.7481 30.0007 54.7766C30.0007 54.7766 27.3832 40.318 26.1076 30.9132ZM17.8772 24.5592C17.8599 24.8878 17.8397 25.215 17.805 25.5421C17.7733 25.8693 17.7329 26.1965 17.6709 26.5208C17.6391 26.1907 17.6304 25.8621 17.629 25.5335C17.6276 25.2049 17.6391 24.8763 17.6521 24.5491C17.6708 24.2205 17.691 23.8934 17.7242 23.5662C17.7574 23.239 17.7978 22.9133 17.8599 22.5876C17.8902 22.9176 17.8988 23.2462 17.9003 23.5748C17.9017 23.9034 17.8916 24.232 17.8772 24.5592ZM17.8599 22.4053C17.816 22.4037 17.7744 22.3852 17.744 22.3538C17.7135 22.3224 17.6965 22.2804 17.6965 22.2367C17.6965 22.193 17.7135 22.1511 17.744 22.1196C17.7744 22.0882 17.816 22.0697 17.8599 22.0681C17.9038 22.0697 17.9453 22.0882 17.9758 22.1196C18.0063 22.1511 18.0233 22.193 18.0233 22.2367C18.0233 22.2804 18.0063 22.3224 17.9758 22.3538C17.9453 22.3852 17.9038 22.4037 17.8599 22.4053ZM23.8321 25.0815C23.6741 25.0514 23.518 25.0121 23.3646 24.9639C23.0542 24.8611 22.7641 24.7052 22.5075 24.5033C22.2548 24.2924 22.0498 24.0307 21.9058 23.7355C21.7597 23.447 21.6916 23.1255 21.7082 22.8028C21.7778 23.1037 21.8968 23.3912 22.0602 23.6537C22.2203 23.9091 22.42 24.1377 22.6518 24.331C22.7694 24.4257 22.8938 24.5116 23.0241 24.5879C23.1538 24.6677 23.2888 24.7387 23.4281 24.8003C23.4975 24.8341 23.5688 24.8638 23.6417 24.8893L23.8596 24.9739C24.0082 25.0213 24.1582 25.0643 24.3098 25.1203C24.151 25.1131 23.9923 25.1002 23.8321 25.0815ZM25.4266 24.1316C25.4237 23.912 25.428 23.7226 25.441 23.5648L25.2159 23.7097C24.9578 23.8279 24.6673 23.8572 24.3906 23.7929C24.5276 24.3913 24.6575 24.9901 24.7802 25.5895L25.1539 27.3875C25.2765 27.9859 25.4073 28.5823 25.5463 29.1769C25.6185 29.4725 25.6921 29.7695 25.7772 30.0623C25.8533 30.3578 25.9643 30.6435 26.1076 30.9132C25.7051 27.9443 25.4367 25.479 25.4266 24.1316H25.4266ZM25.0096 21.7022C24.9927 21.247 24.7999 20.8157 24.4714 20.4983C23.9317 20.1969 24.3011 21.055 24.3213 21.1038C24.3141 21.0966 24.2838 21.0651 24.2333 21.0206C24.2015 20.8642 24.1727 20.6991 24.1453 20.5298L24.1409 20.504C24.063 20.0161 23.9966 19.4823 23.9433 18.9241C23.9435 18.9188 23.943 18.9135 23.9418 18.9083C23.8935 17.8489 24.0178 16.7886 24.3098 15.7686C24.5233 14.9478 25.0009 14.9205 25.0009 14.9205L27.8868 18.1133L25.1221 21.3477C25.0491 21.4517 25.0099 21.5754 25.0096 21.7022Z" fill="#141414"/>
<path d="M58.7784 38.6059C58.7784 38.6059 56.5029 44.5495 52.2751 43.7416C51.8453 43.6612 51.4072 43.6338 50.9707 43.6599C50.1122 43.1863 49.2637 42.6999 48.4139 42.2163C47.5654 41.7284 46.7242 41.2333 45.8959 40.7153C45.0634 40.2045 44.2481 39.6678 43.4603 39.0967C43.2626 38.9532 43.062 38.814 42.8744 38.659C42.6854 38.5069 42.4877 38.3634 42.3045 38.2041L41.7533 37.722C41.5859 37.5469 41.4147 37.3728 41.2396 37.1997C41.811 38.0004 42.557 38.6619 43.3232 39.2746C43.5151 39.4281 43.707 39.5831 43.909 39.7237L44.5079 40.1542C44.9162 40.4283 45.3245 40.701 45.743 40.9593C46.5799 41.4744 47.4327 41.9623 48.3056 42.4114C49.1772 42.8649 50.0631 43.2853 50.9707 43.6599C47.0719 43.8765 42.9581 47.8829 42.5195 48.754C42.0318 49.724 32.357 39.3765 30.1406 32.8532C29.4841 30.9217 27.7656 27.561 25.4554 24.1803C25.4445 24.1648 25.4348 24.1485 25.4266 24.1315C25.3775 24.0453 25.301 23.8889 25.2159 23.7096L25.441 23.5647C25.5792 23.4529 25.691 23.3123 25.7685 23.1528C25.8436 23.2375 25.8941 23.2877 25.8941 23.2877C25.8941 23.2877 29.878 20.3776 30.7726 19.3258C31.6672 18.2754 30.7726 17.2235 30.7726 17.2235C30.7726 17.2235 28.1306 13.1411 26.7887 11.808C26.3573 11.4052 25.8259 11.1239 25.2491 10.9929C28.3196 11.587 35.5458 14.0795 43.1702 24.5548C53.2505 38.4065 58.7784 38.6059 58.7784 38.6059ZM12.2353 63.3949C12.3392 63.3906 12.4431 63.3877 12.5456 63.3791C11.2152 63.514 9.58755 63.3346 9.09985 61.8179C9.21282 61.6227 9.36217 61.4508 9.53992 61.3113C9.57443 61.2793 9.61532 61.255 9.65993 61.2398C9.70453 61.2246 9.75186 61.2189 9.79882 61.2231C9.84577 61.2273 9.89132 61.2413 9.93249 61.2642C9.97365 61.287 10.0095 61.3182 10.0378 61.3558C10.1736 61.5264 10.2862 61.7141 10.3725 61.914C10.4749 62.1178 10.5789 62.3258 10.6986 62.5325C10.8229 62.748 10.9869 62.9383 11.182 63.0935C11.3864 63.2412 11.6252 63.3345 11.876 63.3647C11.995 63.3825 12.115 63.3926 12.2353 63.3949Z" fill="#141414"/>
<path d="M19.6865 59.3369C19.5566 59.1675 19.4398 58.8633 19.4124 58.3152C19.3431 56.9476 18.3417 57.7139 18.3417 57.7139C16.6376 58.6108 16.1701 57.2217 16.0431 57.0022C15.9161 56.7841 14.8527 56.6607 14.4299 57.315C14.2763 57.5248 14.0862 57.7056 13.8686 57.8488C14.0603 57.872 14.2475 57.9232 14.4242 58.0009C14.602 58.0747 14.7709 58.168 14.9277 58.2793C15.0896 58.3908 15.232 58.528 15.3491 58.6854C15.4807 58.8399 15.5478 59.0386 15.5367 59.2407C15.4449 59.0849 15.3251 58.9472 15.1831 58.8346C15.049 58.7213 14.9061 58.6151 14.7589 58.5118L14.3145 58.1961C14.1644 58.0884 14.0158 57.9779 13.8686 57.8502C13.5412 58.0771 13.1974 58.2795 12.8398 58.4558C13.0288 58.4549 13.2159 58.4925 13.3896 58.5663C13.5649 58.6373 13.728 58.7351 13.873 58.8562C14.0206 58.9768 14.1444 59.1238 14.238 59.2895C14.3347 59.4526 14.3915 59.6359 14.4039 59.8248C14.277 59.6827 14.1789 59.5435 14.0548 59.4215C13.9396 59.2986 13.8167 59.1831 13.6868 59.0757C13.4286 58.8562 13.1457 58.6696 12.8398 58.4558C12.5685 58.5922 12.3738 58.6768 12.3738 58.6768C12.153 58.7457 11.9467 58.8174 11.7547 58.8892C11.9446 58.9338 12.1263 59.0079 12.293 59.1087C12.4622 59.2063 12.6184 59.3249 12.7576 59.4617C12.9017 59.5996 13.0208 59.7613 13.1096 59.9395C13.2038 60.1179 13.2396 60.3211 13.2121 60.5207C13.1319 60.3561 13.0331 60.2011 12.9178 60.0587C12.805 59.9201 12.6835 59.7888 12.5541 59.6655C12.3016 59.4086 12.0217 59.1747 11.7533 58.8892C8.66401 60.0443 9.01174 61.475 9.01174 61.475C9.03344 61.591 9.06234 61.7055 9.09829 61.818C9.16347 61.588 9.2838 61.3772 9.44895 61.2038C9.54421 61.1046 9.67349 61.0447 9.81112 61.0359C9.95347 61.0393 10.0894 61.0956 10.192 61.1937C10.2865 61.2779 10.3677 61.3756 10.433 61.4836C10.4994 61.5869 10.5542 61.6859 10.6134 61.7878C10.726 61.9916 10.8298 62.1953 10.9467 62.3847C11.0493 62.5724 11.1858 62.7397 11.3493 62.8784C11.3911 62.9071 11.4301 62.9415 11.4748 62.9688L11.6133 63.0434C11.713 63.0851 11.8158 63.1191 11.9207 63.1453C12.3678 63.2317 12.8232 63.2679 13.2785 63.2529C13.9519 63.0762 14.5871 62.7786 15.1528 62.3747C16.6203 61.3516 18.2594 61.4061 19.359 60.8221C19.382 60.8091 19.4051 60.7963 19.4282 60.7848C19.5494 60.7139 19.6537 60.6178 19.7339 60.5031C19.8141 60.3883 19.8684 60.2576 19.8929 60.12C19.9175 59.9824 19.9117 59.8411 19.8761 59.7059C19.8405 59.5707 19.7758 59.4448 19.6865 59.3369ZM17.626 59.5163C17.4485 59.6511 17.2653 59.7788 17.0763 59.8965C16.8872 60.0142 16.6924 60.1232 16.4933 60.2222C16.2923 60.3258 16.0828 60.4122 15.8671 60.4805C16.0233 60.3177 16.1927 60.168 16.3736 60.0329C16.551 59.8979 16.7343 59.7702 16.9233 59.6525C17.1109 59.5349 17.3057 59.4273 17.5063 59.3268C17.7072 59.223 17.9167 59.1366 18.1325 59.0685C17.9767 59.2317 17.8072 59.3815 17.626 59.5163Z" fill="#141414"/>
<path d="M12.5454 63.3795C12.58 63.3766 12.6147 63.3722 12.6493 63.3694C12.6291 63.3708 12.6103 63.3737 12.5901 63.3766C12.5757 63.378 12.5599 63.3795 12.5454 63.3795ZM12.9941 63.3162C12.9768 63.3205 12.9581 63.3233 12.9393 63.3277C12.9018 63.3349 12.8643 63.3406 12.8268 63.3449C12.883 63.3363 12.9393 63.3277 12.9941 63.3162Z" fill="#FCFCFC"/>
<path d="M16.0435 57.0028C16.0557 56.7068 16.078 56.4174 16.0852 56.1274C16.0974 55.837 16.0834 55.5461 16.0435 55.2581C16.1629 55.5329 16.2159 55.8316 16.198 56.1304C16.1912 56.4273 16.1391 56.7214 16.0435 57.0028ZM19.0893 57.5441C19.0364 57.3407 18.9987 57.1348 18.9643 56.9285C18.9289 56.7222 18.9037 56.5145 18.8817 56.3065C18.8625 56.0982 18.845 55.8895 18.8413 55.6799C18.8339 55.4703 18.8397 55.2604 18.8586 55.0515L18.928 55.6741L18.994 56.2954C19.0131 56.5028 19.0353 56.7099 19.0501 56.9181C19.0665 57.1261 19.0826 57.3343 19.0893 57.5441ZM17.5872 5.71927C17.5788 6.05184 17.5388 6.38288 17.4677 6.70794C17.4271 6.86497 17.4011 7.02539 17.39 7.18717C17.3799 7.35113 17.3808 7.51557 17.3927 7.67942C17.3372 7.5205 17.3066 7.35404 17.3019 7.18587C17.2969 7.01686 17.3156 6.84798 17.3575 6.68409C17.4284 6.36304 17.4938 6.03962 17.5872 5.71927Z" fill="#141414"/>
<path d="M18.3734 11.3919C18.6402 11.418 18.9052 11.4594 19.1671 11.5159C19.4384 11.5677 19.7059 11.6375 19.9678 11.7248L20.111 11.7757L20.0077 11.8667C19.828 12.0252 19.6393 12.1749 19.4704 12.3438C19.3013 12.513 19.1409 12.6907 18.9899 12.876L18.9612 12.9102L18.9115 12.8868C18.7721 12.8212 18.6322 12.7564 18.4957 12.6856L18.0883 12.4699C17.9524 12.3982 17.8171 12.3253 17.6843 12.2482C17.5511 12.1717 17.4205 12.091 17.2899 12.01L17.1116 11.8993L17.2956 11.8171C17.6473 11.6571 18.0071 11.5151 18.3734 11.3919ZM18.3758 11.4142C18.0402 11.6409 17.7189 11.8332 17.3942 12.013L17.3999 11.8202C17.5358 11.8919 17.6716 11.9638 17.8049 12.0401C17.9386 12.1157 18.0698 12.1955 18.2003 12.2765L18.5923 12.5189C18.7223 12.6008 18.8488 12.6887 18.9759 12.7758L18.8976 12.7866C19.0799 12.6316 19.2541 12.4674 19.4197 12.2948C19.585 12.1224 19.7304 11.9307 19.885 11.7478L19.9249 11.8898C19.6636 11.8425 19.406 11.7772 19.1539 11.6944C18.898 11.6144 18.6417 11.5269 18.3758 11.4142Z" fill="#141414"/>
<path d="M17.9245 8.99986C18.0312 9.18146 18.1199 9.37291 18.1895 9.57153C18.2617 9.76961 18.3185 9.97291 18.3595 10.1796C18.402 10.3863 18.4268 10.5962 18.4333 10.807C18.4421 11.0173 18.429 11.228 18.3942 11.4357C18.3838 11.3305 18.3884 11.2267 18.3751 11.123C18.3693 11.0194 18.3608 10.9161 18.3467 10.8135C18.3214 10.6082 18.2917 10.4037 18.2488 10.2016C18.2096 9.99873 18.1603 9.79781 18.1071 9.59739C18.0528 9.39714 17.9911 9.19878 17.9245 8.99986ZM20.7028 9.03916C20.7142 9.21268 20.7346 9.38347 20.7579 9.55243C20.7805 9.72044 20.8162 9.88647 20.8645 10.049C20.9087 10.2105 20.9763 10.3647 21.065 10.5069C21.1576 10.6492 21.28 10.7698 21.424 10.8605C21.2532 10.8047 21.1032 10.6993 20.9933 10.5578C20.8845 10.4153 20.804 10.2534 20.7563 10.0809C20.7065 9.91168 20.6777 9.73702 20.6706 9.56084C20.6606 9.38629 20.6714 9.21118 20.7028 9.03916ZM17.3482 11.926C17.0825 12.0264 16.8187 12.1288 16.5635 12.2498C16.3062 12.3647 16.055 12.4926 15.811 12.6331C15.3209 12.9053 14.8634 13.2317 14.4472 13.6062C13.6032 14.3561 12.8582 15.2094 12.2301 16.1458C12.0751 16.3807 11.9345 16.6246 11.809 16.8763C11.7792 16.937 11.7547 17.0001 11.7357 17.065C11.7194 17.1313 11.7075 17.1987 11.7003 17.2666C11.6854 17.4018 11.6892 17.5383 11.7115 17.6725C11.7226 17.7391 11.738 17.8049 11.7578 17.8695C11.7677 17.9024 11.7782 17.9323 11.7898 17.9629L11.8346 18.0592L12.0085 18.4464C12.1256 18.704 12.2348 18.9646 12.348 19.2237C12.8028 20.2591 13.2098 21.3124 13.5853 22.3803L13.5413 22.351C13.6496 22.359 13.7572 22.3745 13.8633 22.3974L14.1752 22.4628L14.4859 22.5282C14.5886 22.551 14.6928 22.5669 14.7977 22.5757V22.5982C14.6908 22.5963 14.5842 22.5872 14.4786 22.571L14.1638 22.5225L13.8503 22.4739C13.748 22.4575 13.6448 22.4481 13.5413 22.4456L13.5114 22.4457L13.4973 22.4163C13.0079 21.3944 12.5499 20.358 12.1397 19.3037C12.0367 19.0403 11.9297 18.7784 11.8305 18.5136L11.6801 18.1171L11.6438 18.0175C11.6325 17.9813 11.6217 17.9438 11.6133 17.9084C11.5611 17.6933 11.5524 17.47 11.5877 17.2515C11.5992 17.1793 11.6155 17.108 11.6367 17.0381C11.6607 16.9682 11.6907 16.9006 11.7266 16.8359C11.8625 16.5835 12.0127 16.3433 12.1705 16.1071C12.4871 15.6363 12.8127 15.1718 13.1602 14.7212C13.5044 14.2655 13.8899 13.8421 14.3117 13.4563C14.5261 13.2644 14.7532 13.087 14.9915 12.9253C15.2308 12.7671 15.4794 12.6234 15.7361 12.4949C15.9921 12.3669 16.2545 12.2522 16.5223 12.151C16.7904 12.0531 17.064 11.9708 17.3417 11.9044L17.3482 11.926Z" fill="#141414"/>
<path d="M16.4347 13.2244C16.3304 13.9577 16.2063 14.6867 16.0757 15.4144C15.9427 16.1416 15.8077 16.8682 15.64 17.5888C15.4785 18.3104 15.3147 19.0322 15.2031 19.763C15.142 20.1274 15.091 20.4935 15.0474 20.86C15.0257 21.0432 15.0059 21.2267 14.9902 21.4097C14.9711 21.5875 14.9641 21.7663 14.969 21.9451L14.8766 21.8638C15.5561 21.8327 16.2353 21.8168 16.9149 21.8005C17.5945 21.7831 18.2744 21.7798 18.9544 21.7872C19.6343 21.7945 20.3143 21.8154 20.9943 21.8497C21.3341 21.8704 21.6739 21.8943 22.0131 21.9285C22.1827 21.9465 22.352 21.9684 22.5206 21.9967C22.6923 22.0157 22.8595 22.0639 23.0148 22.1391L23.0023 22.1578C22.9264 22.1239 22.8456 22.102 22.763 22.0928C22.6799 22.0797 22.5962 22.0697 22.512 22.0627C22.3438 22.0473 22.1745 22.0404 22.0054 22.0332C21.6672 22.0184 21.3281 22.0139 20.989 22.0126C20.311 22.004 19.6325 22.0122 18.954 22.017L14.8815 22.0434L14.7912 22.044L14.7891 21.9621C14.7888 21.771 14.8054 21.5803 14.8388 21.3922C14.8659 21.208 14.8983 21.0254 14.93 20.8428L15.1291 19.7504C15.2677 19.0237 15.3729 18.2913 15.486 17.5599C15.5934 16.8275 15.741 16.1025 15.8951 15.379C16.0521 14.6561 16.2194 13.9353 16.4126 13.2199L16.4347 13.2244ZM14.2778 27.5396C14.0963 27.4011 13.9467 27.2255 13.839 27.0247C13.7838 26.9252 13.7339 26.8227 13.6895 26.7179L13.6246 26.5597L13.5725 26.3977C13.4416 25.9639 13.3663 25.5154 13.3484 25.0628C13.3388 24.8378 13.3436 24.613 13.3471 24.3887C13.3673 24.1653 13.3735 23.941 13.4063 23.7195C13.4388 23.4982 13.4698 23.2769 13.5151 23.0584C13.5659 22.8406 13.6158 22.6232 13.6785 22.4089C13.6791 22.6333 13.667 22.8547 13.6557 23.0756L13.6308 23.7367L13.6203 24.3946C13.6252 24.613 13.6226 24.8319 13.6365 25.0491L13.6543 25.3751C13.6603 25.4838 13.6791 25.5906 13.6878 25.6989C13.6953 25.8077 13.7127 25.9143 13.7309 26.0211C13.7472 26.1284 13.7645 26.2352 13.7894 26.3404C13.8612 26.7711 14.028 27.1806 14.2778 27.5396Z" fill="#141414"/>
<path d="M14.3738 26.1246C14.2343 26.1211 14.1012 26.0653 14.0013 25.9684C13.9078 25.8762 13.8422 25.7599 13.812 25.6325C13.7656 25.3928 13.7581 25.1472 13.7897 24.9051L13.8791 23.477L13.8664 24.9073C13.8485 25.1399 13.8663 25.3738 13.9191 25.6011C13.9484 25.7063 14.0069 25.8011 14.0879 25.8747C14.1647 25.9426 14.2637 25.9805 14.3664 25.9813L14.3738 26.1246ZM22.6851 63.9127C22.5652 63.9238 22.4446 63.9262 22.3243 63.92C22.0716 63.9155 21.8243 63.8468 21.6058 63.7205C21.3961 63.5859 21.214 63.413 21.069 63.2111C20.9276 63.0174 20.8035 62.8208 20.6794 62.6285C20.5739 62.4377 20.4428 62.262 20.2898 62.1062C20.2244 62.042 20.1377 62.0037 20.0459 61.9985C19.9496 62.0033 19.8585 62.0437 19.7905 62.1119C19.6285 62.2696 19.4973 62.456 19.4039 62.6615C20.0445 64.1151 21.6707 64.1337 22.9765 63.8697C22.8813 63.8855 22.7832 63.8985 22.6851 63.9127ZM29.6833 59.1257C29.5375 58.9693 29.3903 58.678 29.3066 58.1371C29.0974 56.7839 28.1797 57.6449 28.1797 57.6449C26.5766 58.7096 25.9692 57.3751 25.8205 57.1699C25.6734 56.9647 24.6013 56.9504 24.2477 57.6434C24.1164 57.8669 23.9464 58.0656 23.7456 58.2303C23.9379 58.2344 24.1285 58.2668 24.3112 58.3265C24.4955 58.3821 24.6731 58.4577 24.8408 58.5517C25.0133 58.6467 25.1692 58.7689 25.3025 58.9134C25.4486 59.0544 25.5357 59.245 25.5464 59.4472C25.4384 59.3022 25.3049 59.1777 25.1525 59.0798C25.0067 58.9808 24.8552 58.889 24.6979 58.8015L24.2232 58.5316C24.0631 58.4399 23.9043 58.3451 23.7442 58.2318C23.4421 58.4901 23.1214 58.726 22.7846 58.9377C22.9716 58.9184 23.1606 58.937 23.3402 58.9923C23.5219 59.0461 23.6942 59.1274 23.8509 59.2334C24.0097 59.3389 24.1481 59.4721 24.2593 59.6266C24.3716 59.7794 24.4462 59.9563 24.4772 60.1431C24.3372 60.014 24.2247 59.8848 24.089 59.7772C23.9621 59.6664 23.8281 59.5638 23.6879 59.4701C23.408 59.2779 23.1093 59.12 22.7832 58.9392C22.5263 59.1028 22.3416 59.2061 22.3416 59.2061C22.1295 59.298 21.9304 59.3883 21.7457 59.4802C21.9398 59.5052 22.1287 59.5604 22.3056 59.6437C22.4837 59.724 22.6509 59.8262 22.8034 59.948C22.9612 60.0703 23.096 60.2194 23.2016 60.3885C23.3139 60.5559 23.3704 60.7542 23.3632 60.9553C23.2666 60.7994 23.1523 60.6549 23.0227 60.5248C22.8965 60.399 22.7625 60.2811 22.6216 60.1718C22.3431 59.9422 22.0415 59.7371 21.7457 59.4802C18.7906 60.9395 19.2826 62.3286 19.2826 62.3286C19.3154 62.4422 19.3558 62.5534 19.4038 62.6615C19.4453 62.426 19.5433 62.204 19.6895 62.0143C19.7738 61.9061 19.8958 61.8334 20.0315 61.8105C20.174 61.8002 20.3154 61.8426 20.4283 61.9297C20.5302 62.0042 20.6206 62.0932 20.6967 62.1937C20.7732 62.2898 20.8367 62.3831 20.9059 62.4778C21.0401 62.6686 21.1642 62.8624 21.2998 63.0389C21.4208 63.2153 21.5734 63.3681 21.75 63.4895C21.7948 63.5139 21.8381 63.544 21.8842 63.567L22.03 63.6272C22.1336 63.6575 22.2392 63.681 22.346 63.6975C22.8007 63.7377 23.2586 63.7271 23.711 63.666C24.3615 63.4219 24.9619 63.0621 25.4829 62.6041C26.8393 61.4389 28.4755 61.3269 29.5087 60.6353C29.5317 60.621 29.5534 60.6052 29.5736 60.5908C29.6871 60.5085 29.7812 60.4025 29.8495 60.2804C29.9178 60.1583 29.9585 60.0228 29.969 59.8835C29.9794 59.7441 29.9593 59.6042 29.9099 59.4734C29.8606 59.3425 29.7833 59.2239 29.6833 59.1257ZM27.6516 59.5117C27.4886 59.6638 27.3193 59.8083 27.1437 59.9451C26.9677 60.0814 26.7859 60.2077 26.5968 60.3282C26.4075 60.4512 26.2082 60.5582 26.0009 60.6482C26.1397 60.4707 26.2926 60.3047 26.4583 60.1517C26.6214 59.9996 26.7907 59.8552 26.9662 59.7184C27.1423 59.5821 27.3245 59.4544 27.5131 59.3352C27.7024 59.211 27.9023 59.1034 28.1105 59.0138C27.9716 59.1921 27.8181 59.3587 27.6516 59.5117Z" fill="#141414"/>
<path d="M23.1021 63.844C23.0804 63.8483 23.0573 63.854 23.0357 63.8598C23.0198 63.8627 23.0054 63.8655 22.9895 63.8669C23.027 63.8598 23.0646 63.8526 23.1021 63.844ZM22.7846 58.9378L22.7832 58.9393C22.7832 58.9391 22.7832 58.9389 22.7831 58.9387C22.783 58.9386 22.7829 58.9384 22.7828 58.9383C22.7826 58.9381 22.7825 58.938 22.7823 58.9379C22.7821 58.9379 22.7819 58.9378 22.7817 58.9378H22.7846ZM23.7456 58.2304L23.7442 58.2318C23.7442 58.2316 23.7441 58.2315 23.7441 58.2313C23.744 58.2311 23.7439 58.2309 23.7438 58.2308C23.7436 58.2307 23.7435 58.2306 23.7433 58.2305C23.7431 58.2304 23.7429 58.2304 23.7427 58.2304H23.7456Z" fill="#FCFCFC"/>
<path d="M25.5457 57.5443L25.6136 56.9602C25.6347 56.7661 25.6576 56.5727 25.6737 56.3791C25.6934 56.1857 25.7017 55.9921 25.7053 55.7988C25.7127 55.6045 25.6918 55.4102 25.6432 55.222C25.7339 55.4001 25.7847 55.5957 25.7921 55.7953C25.8074 55.993 25.8054 56.1916 25.7861 56.3889C25.7684 56.5854 25.7393 56.7807 25.699 56.9738C25.6607 57.1672 25.6094 57.3577 25.5457 57.5443ZM28.9064 57.8485C28.8379 57.6254 28.7833 57.3994 28.7314 57.1728C28.6783 56.9464 28.635 56.7182 28.5937 56.4895C28.5549 56.2604 28.5175 56.0309 28.4923 55.7996C28.4631 55.5685 28.4461 55.3361 28.4412 55.1032C28.4899 55.3313 28.534 55.5588 28.5781 55.7865C28.6235 56.0139 28.6637 56.2421 28.7048 56.4702C28.7433 56.6988 28.7836 56.9272 28.8164 57.157C28.8505 57.3866 28.8836 57.6164 28.9064 57.8485ZM17.2756 5.7598C17.2756 5.7598 17.5646 6.06677 17.8059 5.25591C17.8059 5.25591 17.9469 4.89721 18.3823 5.18892C18.3823 5.18892 18.693 5.37879 18.8434 5.0757C18.8779 5.03673 18.9201 5.00526 18.9674 4.98327C19.0147 4.96128 19.0661 4.94924 19.1183 4.94789C19.1705 4.94654 19.2224 4.95593 19.2708 4.97545C19.3192 4.99497 19.363 5.02421 19.3995 5.06135C19.3995 5.06135 19.4994 5.16072 19.7299 5.05442C19.9605 4.94811 20.336 4.69222 20.4918 4.88162C20.6477 5.07102 20.432 5.1788 20.6151 5.39575C20.7982 5.6127 21.0139 5.55462 20.954 5.8021C20.8942 6.04958 21.0882 6.20799 21.059 6.44859C21.0299 6.68919 20.94 8.08159 20.7471 8.2115C20.5517 8.3774 20.3781 8.5672 20.2306 8.7764C20.1505 8.87776 19.5835 8.95066 19.4242 8.746C19.3092 8.61032 19.1672 8.49978 19.0071 8.42133C19.0071 8.42133 18.6825 8.17044 18.4421 8.32546C18.4421 8.32546 17.9493 8.05788 17.6456 8.44513C17.6456 8.44513 17.4106 8.44663 17.3848 8.25525C17.3723 8.06345 17.3749 7.87098 17.3927 7.67959C17.3927 7.67959 17.2729 7.62795 17.2691 8.36301C17.2652 9.09807 17.6463 10.3285 17.7151 10.39C17.7839 10.4515 18.3662 10.8224 19.5837 10.4414C20.8013 10.0605 20.9926 9.349 21.051 9.16596C21.1136 8.79161 21.1515 8.41359 21.1646 8.03432C21.1686 7.89558 21.123 7.25498 21.5286 6.89773C21.5286 6.89773 21.7947 6.63595 21.9303 6.77861C21.9303 6.77861 22.2142 6.26938 22.1341 5.36C22.1264 5.27309 22.1004 5.18877 22.0577 5.11254C22.015 5.03631 21.9566 4.96989 21.8864 4.9176C21.8736 4.90806 21.8606 4.89854 21.8477 4.88918C21.7281 4.79959 21.6479 4.66765 21.6237 4.52077C21.617 4.47208 21.6008 4.42517 21.5759 4.38274C21.5509 4.34031 21.5178 4.3032 21.4784 4.27353C21.439 4.24387 21.3941 4.22224 21.3463 4.20989C21.2985 4.19754 21.2486 4.19471 21.1997 4.20156C20.6595 4.20754 20.3268 4.03665 20.1612 4.09409C19.9955 4.15154 19.2553 3.76 18.5865 4.25013C18.2841 4.49394 17.9403 4.68194 17.5714 4.80525C17.4447 4.87219 16.8451 5.26981 17.2756 5.7598Z" fill="#141414"/>
<path d="M21.9303 6.77863C22.0027 6.82936 22.0522 6.90631 22.0681 6.99293C22.082 7.08212 22.0695 7.17339 22.0322 7.25565C21.9726 7.40893 21.9215 7.56535 21.8792 7.72421C21.8264 7.88882 21.7416 8.04148 21.6294 8.17344C21.5696 8.24126 21.4912 8.29037 21.4039 8.31483C21.3173 8.33323 21.227 8.31772 21.1516 8.27153C21.2288 8.29551 21.3119 8.2923 21.387 8.26242C21.4569 8.2295 21.5172 8.1794 21.5622 8.11686C21.6532 7.98476 21.7241 7.84002 21.7726 7.68732C21.8017 7.61024 21.8212 7.5351 21.8483 7.45175C21.8761 7.37093 21.9111 7.29275 21.9529 7.21815C21.9959 7.15177 22.0169 7.07363 22.0128 6.99477C22.0088 6.91591 21.9799 6.8403 21.9303 6.77863ZM17.4653 6.43751C17.643 6.39415 17.8285 6.39234 18.007 6.43223C18.0969 6.45194 18.1841 6.48256 18.2665 6.52342C18.3491 6.56504 18.4222 6.62329 18.481 6.69448C18.3204 6.62741 18.1537 6.57629 17.983 6.54188C17.8142 6.50485 17.6432 6.47837 17.4653 6.43751ZM19.0252 6.7485C19.217 6.68464 19.42 6.66034 19.6216 6.67711C19.8257 6.68596 20.0234 6.7508 20.1928 6.86446C20.0013 6.82765 19.8077 6.80245 19.6131 6.789C19.4198 6.77397 19.2263 6.76791 19.0252 6.7485ZM18.2153 7.84743C18.242 7.88508 18.2733 7.91928 18.3086 7.94923C18.3403 7.97606 18.3745 7.99987 18.4106 8.02035C18.4825 8.06407 18.5641 8.09582 18.6546 8.14948C18.6055 8.16604 18.5533 8.17165 18.5017 8.16591C18.4493 8.15988 18.3986 8.14317 18.353 8.11683C18.3057 8.08925 18.2665 8.04993 18.2392 8.00273C18.2109 7.95614 18.2023 7.90031 18.2153 7.84743ZM21.686 6.7807C21.4525 6.8826 21.2109 6.96496 20.9636 7.02691C20.7176 7.09373 20.4664 7.13979 20.2126 7.1646C20.446 7.06246 20.6877 6.9801 20.935 6.91838C21.1811 6.85179 21.4323 6.80574 21.686 6.7807ZM24.316 21.106C24.2221 20.9722 24.1599 20.8191 24.1337 20.6581C24.1273 20.6144 24.1288 20.5698 24.1381 20.5265C24.1425 20.5004 24.1539 20.476 24.171 20.4557C24.1881 20.4354 24.2103 20.42 24.2354 20.4111C24.281 20.4025 24.3282 20.4091 24.3695 20.43C24.4084 20.4456 24.4437 20.4648 24.4798 20.4832L24.4811 20.4839L24.4823 20.485C24.5709 20.5592 24.6527 20.6411 24.7268 20.7297C24.7981 20.8214 24.8586 20.9209 24.9074 21.0262C24.9993 21.2389 25.0369 21.471 25.0168 21.7017L25.0161 21.699L25.0166 21.7109H25.0053L25.0029 21.7055L25.0021 21.7028C24.9851 21.648 24.9723 21.5935 24.9579 21.5398C24.9401 21.4866 24.9283 21.4328 24.9104 21.3807C24.8785 21.2753 24.8362 21.1747 24.7971 21.0733C24.7566 20.9718 24.7087 20.8733 24.654 20.7787C24.6044 20.6798 24.539 20.5897 24.4602 20.5117L24.4627 20.5134C24.3992 20.4766 24.3101 20.4439 24.2583 20.4718C24.2159 20.4951 24.2277 20.5757 24.2343 20.6457C24.2531 20.7931 24.2978 20.944 24.3264 21.1017L24.316 21.106Z" fill="#141414"/>
<path d="M23.5177 21.8078C23.3366 21.6457 23.1591 21.4797 22.973 21.3306C22.9281 21.2938 22.8803 21.2606 22.8302 21.2313C22.8083 21.2182 22.7844 21.209 22.7595 21.2038L22.6718 21.1871C22.5549 21.1655 22.4368 21.1511 22.3181 21.1441C22.1988 21.1369 22.0761 21.1411 21.9525 21.1285C21.9189 21.1289 21.8857 21.1213 21.8556 21.1063C21.8256 21.0914 21.7995 21.0696 21.7796 21.0427C21.7606 21.0151 21.7492 20.983 21.7466 20.9496C21.7441 20.9162 21.7504 20.8828 21.765 20.8526C21.8233 20.7385 21.9243 20.6518 22.0463 20.6112C22.1629 20.5667 22.2846 20.5371 22.4087 20.5233L22.3714 20.578C22.3544 20.5231 22.3507 20.465 22.3607 20.4085C22.3657 20.3779 22.3768 20.3486 22.3934 20.3223C22.41 20.296 22.4317 20.2733 22.4572 20.2555C22.556 20.1998 22.6711 20.1799 22.7829 20.1993C22.9863 20.2287 23.1839 20.2893 23.3688 20.3787C23.5515 20.4657 23.7251 20.5708 23.8868 20.6922C24.0474 20.8128 24.1948 20.9499 24.3267 21.1012L24.3187 21.1091C24.1667 20.9825 24.0064 20.8661 23.8388 20.7607C23.6739 20.6548 23.5007 20.5624 23.3207 20.4844C23.144 20.406 22.9589 20.3478 22.769 20.3108C22.6838 20.2923 22.5948 20.3023 22.5159 20.3393C22.4846 20.3642 22.4618 20.3981 22.4506 20.4364C22.4394 20.4747 22.4402 20.5154 22.4531 20.5532L22.4652 20.6056L22.4157 20.6079C22.297 20.6104 22.179 20.6284 22.0649 20.6613C22.0083 20.6747 21.9552 20.6999 21.9092 20.7353C21.8631 20.7707 21.8252 20.8155 21.7979 20.8666C21.7861 20.8912 21.7811 20.9185 21.7836 20.9457C21.7861 20.9729 21.7959 20.9989 21.812 21.021C21.8281 21.0431 21.8499 21.0604 21.8751 21.0712C21.9002 21.082 21.9279 21.0858 21.9551 21.0823C22.0746 21.0828 22.1949 21.0666 22.3187 21.0623C22.4431 21.0564 22.5677 21.0651 22.6901 21.088C22.7209 21.0926 22.7509 21.1006 22.7811 21.1073C22.8154 21.1159 22.8482 21.1298 22.8781 21.1486C22.9316 21.1824 22.9823 21.2205 23.0298 21.2624C23.2121 21.4255 23.3782 21.6056 23.526 21.8002L23.5177 21.8078Z" fill="#141414"/>
<path d="M23.5192 21.8095L23.5176 21.8083L23.5186 21.8091C23.2216 21.6769 22.9135 21.571 22.5978 21.4926C22.4417 21.4465 22.2809 21.418 22.1184 21.4076C22.0373 21.4027 21.9558 21.4067 21.8756 21.4197C21.8383 21.4217 21.8019 21.4311 21.7683 21.4472C21.7347 21.4633 21.7047 21.4859 21.6799 21.5136C21.6509 21.5647 21.6979 21.6382 21.7474 21.6847C21.8013 21.7317 21.8691 21.7601 21.9405 21.7655C22.1085 21.7682 22.2753 21.7928 22.4369 21.8384C22.7595 21.9335 23.0538 22.1055 23.2944 22.3393L23.2874 22.3481C23.0148 22.1728 22.717 22.0398 22.4042 21.9537C22.2489 21.9106 22.0898 21.8827 21.929 21.8705C21.8353 21.8594 21.7486 21.8159 21.6839 21.7476C21.6514 21.7136 21.6269 21.6728 21.612 21.6283C21.6027 21.6042 21.5993 21.5782 21.602 21.5525C21.6047 21.5268 21.6135 21.5021 21.6277 21.4805C21.6925 21.4174 21.7793 21.3815 21.87 21.3805C21.9528 21.3723 22.036 21.3692 22.1192 21.3712C22.2859 21.3668 22.4526 21.3769 22.6176 21.4014C22.9469 21.4625 23.2574 21.5986 23.5249 21.7992L23.5258 21.7999L23.5259 21.8L23.5272 21.8016L23.5192 21.8095Z" fill="#141414"/>
<path d="M25.7738 23.155C25.6675 23.4171 25.4686 23.6316 25.2144 23.7581C25.0852 23.8192 24.9462 23.8569 24.8037 23.8696C24.6622 23.8807 24.5198 23.8696 24.3818 23.8366L24.3726 23.8345L24.3677 23.8313L23.3902 23.1834C23.3093 23.1285 23.2275 23.0745 23.148 23.0165C23.0679 22.9606 22.9933 22.8854 22.9204 22.8378C22.7558 22.7478 22.571 22.7005 22.3831 22.7004C22.3356 22.6982 22.2882 22.6983 22.2406 22.6998C22.187 22.703 22.1333 22.6988 22.0809 22.6875C21.9693 22.6654 21.8707 22.6011 21.8057 22.5082C21.7676 22.4568 21.7499 22.3931 21.7561 22.3294C21.7676 22.2677 21.8004 22.212 21.8488 22.1717C21.9317 22.0964 22.0396 22.054 22.1519 22.0527C22.3507 22.0624 22.5484 22.0877 22.7432 22.1285C22.9391 22.1612 23.1265 22.2327 23.2942 22.3386L23.2969 22.3434C23.2972 22.3417 23.294 22.3386 23.2925 22.3392V22.3505C23.2894 22.3512 23.2848 22.3468 23.2852 22.3435L23.2879 22.3483C23.1117 22.2684 22.9234 22.2184 22.7307 22.2003C22.5404 22.1757 22.3487 22.1623 22.1567 22.1601C21.9925 22.167 21.7974 22.3179 21.9053 22.4408C21.9537 22.5089 22.0257 22.5569 22.1074 22.5757C22.1503 22.5862 22.1945 22.5907 22.2387 22.5891C22.2887 22.589 22.339 22.5903 22.3891 22.5941C22.5941 22.6 22.7935 22.6616 22.9657 22.7723C23.0511 22.839 23.1075 22.9104 23.184 22.9714C23.2588 23.0325 23.334 23.0942 23.4136 23.1501C23.7322 23.3745 24.0663 23.5764 24.4134 23.7542L24.3994 23.7489C24.6602 23.801 24.9306 23.7767 25.1778 23.679C25.2994 23.6254 25.4113 23.5523 25.509 23.4626C25.609 23.3718 25.6947 23.2666 25.7634 23.1505L25.7738 23.155ZM22.4209 20.5101C22.56 20.539 22.697 20.5772 22.8309 20.6246C22.9644 20.6704 23.0942 20.7262 23.2193 20.7915C23.4749 20.9127 23.689 21.1059 23.8351 21.3472C23.6761 21.1199 23.4533 20.9442 23.1946 20.842C23.0685 20.7866 22.9385 20.7408 22.8055 20.7049C22.6737 20.6681 22.5395 20.6401 22.4039 20.6211L22.4209 20.5101Z" fill="#141414"/>
<path d="M24.1415 20.5685L24.1333 20.5329L24.1331 20.5319C24.0748 20.266 24.0226 19.9972 23.9833 19.7267C23.9631 19.5915 23.9454 19.4559 23.9302 19.3199L23.9094 19.1156L23.8935 18.9204L23.8921 18.9108C23.8443 18.1853 23.8824 17.4567 24.0056 16.74C24.067 16.3805 24.1493 16.03 24.2447 15.676C24.2945 15.491 24.3766 15.3162 24.4872 15.1595C24.5457 15.0735 24.6208 14.9999 24.708 14.9427C24.7952 14.8856 24.8929 14.8462 24.9955 14.8267L25.037 14.8202L25.0714 14.8577C25.5558 15.3867 26.0399 15.9161 26.5164 16.4522L27.2342 17.2536L27.9445 18.0618L27.9899 18.1135L27.9459 18.1635L26.5404 19.7611L25.148 21.3697L25.1499 21.3674C25.1019 21.4419 25.0694 21.5252 25.0541 21.6124C25.0389 21.6996 25.0413 21.789 25.0612 21.8752C25.0986 22.0534 25.1644 22.2245 25.2559 22.3822C25.4392 22.7018 25.6648 22.9956 25.9265 23.2557L25.867 23.2512C27.0082 22.3886 28.1412 21.5124 29.2369 20.596C29.5096 20.3658 29.7804 20.1332 30.0442 19.8951C30.1774 19.7769 30.3059 19.6552 30.4311 19.531C30.4965 19.4706 30.5528 19.405 30.6121 19.3413C30.6409 19.309 30.6725 19.278 30.6989 19.2447L30.7741 19.143C30.8729 19.0086 30.9493 18.8592 31.0003 18.7006C31.0448 18.5418 31.0623 18.3768 31.0519 18.2123C31.0169 17.8798 30.8885 17.5639 30.6813 17.3006L30.6745 17.292L30.672 17.2882C30.2873 16.697 29.8954 16.1096 29.4962 15.5259C29.0983 14.9422 28.6882 14.3673 28.2759 13.7945C27.8604 13.2247 27.4371 12.6584 26.9733 12.1316C26.853 12.0058 26.7384 11.8697 26.611 11.7575C26.4829 11.6425 26.3438 11.5401 26.1958 11.4518C25.8952 11.275 25.5716 11.1401 25.234 11.051L25.2491 11.0529L25.2462 11.0529L25.2377 11.0528L25.2311 11.051C24.8344 10.9469 24.4286 10.8813 24.0192 10.8553C23.6079 10.8268 23.195 10.833 22.7848 10.8737L22.7815 10.8515C23.1925 10.793 23.6077 10.7692 24.0227 10.7804C24.4399 10.7875 24.8552 10.8394 25.2613 10.9353L25.2462 10.9334L25.2491 10.9334L25.2559 10.9333L25.2642 10.9353C25.6165 11.0175 25.9558 11.1476 26.2725 11.3218C26.4318 11.4107 26.5821 11.5148 26.7212 11.6325C26.8629 11.7513 26.9783 11.8859 27.1051 12.0133C27.5866 12.5408 28.0216 13.102 28.4499 13.6673C28.8786 14.2325 29.2839 14.8138 29.6877 15.3957C30.0896 15.9792 30.4848 16.5671 30.8732 17.1594L30.864 17.1469C31.1008 17.4496 31.2451 17.8137 31.2798 18.1956C31.2904 18.3878 31.268 18.5805 31.2137 18.7652C31.154 18.9464 31.0652 19.1167 30.9507 19.2695L30.8651 19.3823C30.8357 19.4186 30.8029 19.4501 30.7719 19.4842C30.7089 19.5508 30.6475 19.6202 30.5808 19.6807C30.4508 19.8072 30.318 19.9296 30.1826 20.0479C29.914 20.2879 29.6352 20.514 29.3564 20.7398C28.2358 21.6358 27.0846 22.4881 25.9212 23.3247L25.8884 23.3483L25.8617 23.3201C25.7323 23.1835 25.6104 23.0401 25.4965 22.8905C25.3817 22.7413 25.2785 22.5837 25.1878 22.4189C25.0936 22.2535 25.0267 22.0741 24.9895 21.8877C24.9688 21.7922 24.9674 21.6936 24.9854 21.5975C25.0034 21.5015 25.0404 21.41 25.0943 21.3284L25.0953 21.327L25.0962 21.3259L26.4685 19.7002L27.8276 18.0634L27.829 18.1651L27.0963 17.3769L26.3712 16.582C25.8858 16.0538 25.4079 15.5189 24.9305 14.9836L25.0063 15.0147C24.9342 15.0281 24.866 15.0574 24.8069 15.1006C24.7412 15.148 24.6829 15.2048 24.6338 15.2691C24.5348 15.4075 24.4607 15.562 24.415 15.7257C24.3175 16.0667 24.2359 16.4196 24.1638 16.7688C24.0245 17.4724 23.9668 18.1894 23.9915 18.906L23.9901 18.8964C23.9924 18.9167 23.9936 18.9371 23.9938 18.9575L23.9956 19.0076L24.0001 19.1093L24.0121 19.3125C24.0215 19.448 24.0333 19.5833 24.0477 19.7185C24.0768 19.989 24.1147 20.2581 24.1574 20.5279L24.1572 20.527L24.1634 20.563L24.1415 20.5685Z" fill="#141414"/>
<path d="M21.4273 10.8713C21.1935 11.069 20.9596 11.2472 20.7223 11.4142C20.4887 11.5834 20.2461 11.7399 19.9955 11.883L19.9847 11.7259C20.2073 11.8468 20.4254 11.9774 20.6509 12.092C20.8774 12.2051 21.1096 12.3062 21.3467 12.395L21.2838 12.4075L21.622 11.9878C21.7358 11.8489 21.8549 11.7149 21.9739 11.5807C22.21 11.3106 22.4519 11.0458 22.6994 10.7861L22.7825 10.9743L21.4273 10.8713ZM21.421 10.8498L22.7827 10.7497L23.0516 10.73L22.8658 10.9379C22.6269 11.2054 22.3825 11.4679 22.1326 11.7254C22.0084 11.8548 21.8844 11.9844 21.7551 12.1092L21.3639 12.4805L21.3323 12.5105L21.3009 12.493C21.0798 12.37 20.8523 12.2587 20.6194 12.1594C20.3859 12.0619 20.1449 11.9803 19.9085 11.889L19.7615 11.8322L19.8976 11.7319C20.1393 11.5595 20.3899 11.3999 20.6484 11.2537C20.9036 11.1052 21.1623 10.9677 21.421 10.8498L21.421 10.8498ZM15.6418 17.1871C15.5184 17.2943 15.3893 17.3948 15.255 17.4881C15.1255 17.5748 15.0085 17.6785 14.907 17.7964C14.7977 17.9109 14.7141 18.0472 14.6619 18.1963C14.6134 18.3485 14.6046 18.5104 14.6364 18.6668C14.7144 18.9704 14.8148 19.2878 14.8843 19.6019C14.955 19.9193 15.0067 20.2407 15.0394 20.5642L15.0254 20.5674C14.9102 20.2632 14.813 19.9524 14.7345 19.6368C14.6954 19.4795 14.6642 19.3204 14.6318 19.1615C14.5948 19.0015 14.57 18.8388 14.5579 18.675C14.5539 18.5092 14.5738 18.3437 14.6169 18.1835C14.6534 18.0194 14.7196 17.8634 14.8123 17.7229C14.9123 17.585 15.0434 17.4724 15.1951 17.3942C15.3373 17.3132 15.4838 17.2401 15.634 17.175L15.6418 17.1871Z" fill="#141414"/>
<path d="M17.8152 19.0721L20.0529 13.5949L19.8057 19.0721L18.7129 19.9699L17.8152 19.0721Z" fill="#FFFAE9"/>
<path d="M20.105 13.2958L19.4805 12.7104L20.4042 11.8387L21.6011 12.359L20.105 13.2958Z" fill="#FFFAE9"/>
<path d="M19.1499 7.66781C19.1279 7.57394 19.1277 7.51472 19.1499 7.4209C19.163 7.36567 19.2023 7.28534 19.2023 7.28534C19.2023 7.28534 19.3362 7.21666 19.4274 7.18687C19.5576 7.14432 19.6357 7.12309 19.7727 7.12491C19.9002 7.12661 19.9761 7.13662 20.0933 7.18687C20.19 7.22831 20.3184 7.3347 20.3184 7.3347C20.3184 7.3347 20.3219 7.41375 20.3184 7.4642C20.3095 7.59297 20.2926 7.66779 20.2382 7.78485C20.1725 7.92641 20.1297 8.0266 19.9916 8.09933C19.8898 8.15293 19.8164 8.161 19.7018 8.15175C19.5126 8.13649 19.4004 8.05752 19.2794 7.91126C19.2107 7.82829 19.1745 7.77264 19.1499 7.66781Z" fill="#FFFAE9"/>
<path fill-rule="evenodd" clip-rule="evenodd" d="M17.4717 19.1058C17.611 17.8686 19.695 13.6669 19.695 13.6669C19.9992 14.5966 19.6252 19.3666 19.6252 19.3666L18.2081 20.2483L17.4646 19.2049C17.4646 19.2042 17.4646 19.2035 17.4646 19.2028L18.3392 20.0776L19.432 19.1797L19.6792 13.7025L17.4717 19.1058Z" fill="#141414"/>
<path fill-rule="evenodd" clip-rule="evenodd" d="M18.9436 12.8314L19.9463 11.8075L21.3236 12.444L19.695 13.6669L18.9436 12.8314ZM19.1067 12.818L19.7312 13.4034L21.2273 12.4666L20.0304 11.9463L19.1067 12.818Z" fill="#141414"/>
<path fill-rule="evenodd" clip-rule="evenodd" d="M18.4741 7.03866C18.1465 6.51914 17.3124 6.76427 17.3124 6.76427C17.3124 6.76427 17.1541 7.44425 17.6578 7.70298C18.1615 7.96171 18.4602 7.17642 18.4602 7.17642C18.8738 7.0386 18.9995 7.27993 18.9995 7.27993C18.8947 7.92571 19.6002 8.06484 19.6002 8.06484C20.2929 8.03424 20.2403 7.16437 20.2403 7.16437C20.0649 7.03115 19.8512 6.95713 19.6305 6.95309C19.4098 6.94905 19.1936 7.0152 19.0133 7.14191C18.8411 6.96579 18.4741 7.03866 18.4741 7.03866ZM19.036 7.5411C19.0139 7.44723 19.0137 7.38801 19.036 7.29419C19.0491 7.23896 19.0884 7.15863 19.0884 7.15863C19.0884 7.15863 19.2222 7.08995 19.3134 7.06016C19.4437 7.01761 19.5218 6.99638 19.6588 6.9982C19.7863 6.9999 19.8622 7.00991 19.9794 7.06016C20.0761 7.1016 20.2045 7.20799 20.2045 7.20799C20.2045 7.20799 20.208 7.28704 20.2045 7.33749C20.1956 7.46626 20.1787 7.54107 20.1243 7.65814L20.1177 7.67234L20.1177 7.67234C20.0556 7.80643 20.0111 7.90235 19.8777 7.97262C19.7759 8.02622 19.7025 8.03428 19.5878 8.02504C19.3986 8.00978 19.2864 7.93081 19.1654 7.78455C19.0968 7.70158 19.0606 7.64593 19.036 7.5411ZM17.3433 6.83196C17.3433 6.83196 17.3208 7.03677 17.3433 7.16479C17.3439 7.16851 17.3446 7.1722 17.3452 7.17586C17.3713 7.32458 17.3891 7.4262 17.4944 7.53781C17.589 7.63815 17.6685 7.69143 17.8058 7.70431C17.9008 7.71322 17.9586 7.69875 18.0463 7.66114C18.2486 7.57437 18.34 7.41942 18.3731 7.20175C18.3743 7.19373 18.3755 7.18604 18.3767 7.17861C18.3862 7.11878 18.3931 7.07588 18.3731 7.01367C18.3319 6.88548 18.1018 6.80093 18.1018 6.80093C18.1018 6.80093 17.8835 6.74269 17.741 6.74565C17.5821 6.74895 17.3433 6.83196 17.3433 6.83196Z" fill="#141414"/>
</svg>
