<svg width="67" height="67" viewBox="0 0 67 67" fill="none" xmlns="http://www.w3.org/2000/svg">
<path d="M32.1926 19.6472C32.0863 19.8551 32.0957 19.8582 31.728 20.5876L32.4497 20.9745L32.5349 20.4145L32.6368 19.4732L32.8624 19.1183L33.219 19.3428L33.3646 19.8859L33.4374 20.6969L33.8376 21.2256L34.0838 21.3261L36.0732 17.2273L33.8818 16.2856L32.2 19.6275L32.1926 19.6459V19.6472Z" fill="#E0885B"/>
<path d="M21.4112 9.00299C22.8813 9.04539 25.3879 9.42128 25.5961 11.4723C24.8458 12.1166 23.9445 12.5624 22.9753 12.7688C22.9753 12.7688 21.924 11.7375 21.6871 13.1224C21.4502 14.5073 22.3979 14.7135 22.3979 14.7135C22.3979 14.7135 22.4275 16.7172 23.1974 18.0137C23.6584 18.7967 23.8653 19.7023 23.7897 20.6067C23.7897 20.6067 21.8648 18.4851 18.3112 19.1039C14.7576 19.7227 16.5936 17.5422 16.5344 16.8351C16.4752 16.1279 16.7417 15.3912 17.2747 14.3305C17.8078 13.2697 17.228 11.4834 18.4296 10.2053C18.4654 10.1672 18.5015 10.1303 18.538 10.0944C18.918 9.72885 19.3685 9.44365 19.8623 9.25606C20.3561 9.06847 20.8831 8.98238 21.4112 9.00299Z" fill="#141414"/>
<path d="M25.6082 11.4706C25.6858 11.7764 25.7281 12.0902 25.7341 12.4056C25.7378 12.5648 25.7315 12.724 25.7153 12.8824L25.7004 13.0004L25.6929 13.1016L25.7019 13.1992C25.712 13.2298 25.7162 13.2618 25.7271 13.292C25.7817 13.4192 25.8635 13.533 25.9667 13.6257C26.0889 13.7323 26.1996 13.8512 26.2971 13.9805C26.3477 14.0578 26.3697 14.1502 26.3594 14.2418C26.3521 14.3302 26.317 14.4141 26.2591 14.4814C26.1367 14.5987 25.9732 14.6639 25.8033 14.6633L25.8415 14.6242C25.8502 15.001 25.8666 15.377 25.8584 15.7563C25.8581 16.1433 25.7992 16.528 25.6836 16.8975C25.6489 17.0009 25.5962 17.0974 25.528 17.1827C25.5078 17.2073 25.4846 17.2294 25.459 17.2484L25.4181 17.2779L25.3688 17.301C25.3421 17.3126 25.3143 17.3215 25.2858 17.3275L25.21 17.3468C25.016 17.3825 24.8187 17.3975 24.6215 17.3916C24.2388 17.3829 23.8577 17.3401 23.4827 17.2638L23.533 17.2535C23.4231 17.3126 23.3196 17.3828 23.2241 17.463C23.1772 17.502 23.1362 17.5475 23.1023 17.5981C23.0848 17.6217 23.0733 17.6492 23.0688 17.6782C23.0642 17.7072 23.0667 17.7369 23.0761 17.7647L23.0544 17.7764C23.0356 17.7456 23.0249 17.7106 23.0232 17.6747C23.0215 17.6387 23.0288 17.6028 23.0446 17.5704C23.0721 17.507 23.1086 17.4478 23.1532 17.3949C23.2417 17.2924 23.3427 17.2014 23.4538 17.1239L23.4706 17.1117L23.5042 17.1136C23.8764 17.1348 24.2518 17.1538 24.6196 17.1424C24.7995 17.139 24.9789 17.1215 25.156 17.0902L25.2171 17.0748C25.2348 17.0716 25.2521 17.0665 25.2686 17.0594C25.2735 17.057 25.2786 17.055 25.2837 17.0535L25.2995 17.0411C25.3118 17.0322 25.3231 17.0221 25.3332 17.0108C25.3843 16.9505 25.4247 16.882 25.4526 16.8082C25.5688 16.4626 25.6457 16.1051 25.6819 15.7425C25.7361 15.3728 25.7639 14.9997 25.765 14.6261L25.7647 14.5879L25.8033 14.5871C25.8758 14.5892 25.948 14.576 26.015 14.5482C26.082 14.5205 26.1423 14.4789 26.1919 14.4262C26.2335 14.3716 26.2541 14.304 26.25 14.2356C26.2495 14.1705 26.2255 14.1079 26.1823 14.059C26.076 13.9527 25.9598 13.8567 25.8353 13.7721C25.6947 13.6681 25.5853 13.5279 25.519 13.3665C25.5044 13.3232 25.4928 13.2789 25.4843 13.2341C25.4804 13.1891 25.4782 13.1439 25.4762 13.099L25.4899 12.9678L25.5078 12.8548C25.5331 12.7058 25.5469 12.554 25.5593 12.4013C25.5794 12.0959 25.5879 11.786 25.5838 11.4741L25.6082 11.4706Z" fill="#141414"/>
<path d="M24.9741 13.6601C25.0221 13.6584 25.0675 13.6383 25.1009 13.6039C25.1342 13.5696 25.1529 13.5237 25.1529 13.4759C25.1529 13.4282 25.1342 13.3823 25.1009 13.3479C25.0675 13.3135 25.0221 13.2934 24.9741 13.2918C24.9261 13.2934 24.8807 13.3135 24.8473 13.3479C24.814 13.3823 24.7953 13.4282 24.7953 13.4759C24.7953 13.5237 24.814 13.5696 24.8473 13.6039C24.8807 13.6383 24.9261 13.6584 24.9741 13.6601ZM24.1746 12.9161C24.2219 12.8239 24.2985 12.7498 24.3926 12.7054C24.4856 12.6585 24.5888 12.6349 24.693 12.6369C24.7967 12.6381 24.8985 12.6638 24.9902 12.712C25.0814 12.7584 25.1578 12.829 25.211 12.9161C25.1048 12.9158 24.9514 12.7759 24.8657 12.7709C24.7816 12.7605 24.7481 12.7747 24.6695 12.7709C24.4972 12.7706 24.3453 12.8933 24.1746 12.9161Z" fill="#141414"/>
<path d="M25.0319 15.5048C24.9405 15.5004 24.8489 15.5072 24.759 15.5251C24.8078 15.6103 24.8769 15.6815 24.96 15.732C25.0368 15.7806 25.1212 15.8152 25.2095 15.8346C25.3001 15.858 25.3945 15.862 25.4868 15.8463C25.579 15.8307 25.6671 15.7957 25.7454 15.7436C25.6713 15.6884 25.5905 15.6431 25.5051 15.609C25.4298 15.5786 25.3522 15.5545 25.2731 15.537C25.1937 15.5197 25.113 15.5089 25.0319 15.5048Z" fill="#141414"/>
<path d="M20.6208 26.6472L22.5815 28.8081L22.3915 28.9648L20.6208 26.6472Z" fill="#141414"/>
<path d="M33.3149 34.0067C33.8016 33.1796 34.1733 32.2908 34.4198 31.3643C34.6677 30.4398 34.8444 29.4978 34.9485 28.5466C35.0059 28.0712 35.0471 27.5945 35.0906 27.1151C35.1061 26.8695 35.1442 26.6258 35.2044 26.387C35.2706 26.1504 35.3551 25.9192 35.4573 25.6957C35.8542 24.8081 36.3784 23.9972 36.6568 23.0894C36.7291 22.8643 36.789 22.6354 36.8363 22.4039C36.8584 22.2882 36.8786 22.1719 36.8914 22.0554C36.9066 21.9424 36.9118 21.8283 36.9069 21.7144C36.8703 21.4837 36.8092 21.2575 36.7245 21.0397C36.6437 20.8162 36.5531 20.5946 36.4528 20.3793C36.4278 20.3246 36.4017 20.2745 36.3744 20.2195C36.3588 20.1853 36.349 20.1487 36.3455 20.1112C36.3407 20.0781 36.3397 20.0446 36.3424 20.0113C36.351 19.8875 36.3705 19.7648 36.4009 19.6445C36.4558 19.4079 36.5228 19.1776 36.5806 18.9453C36.6416 18.7153 36.6842 18.481 36.7082 18.2443C36.7193 18.1277 36.7199 18.0067 36.7194 17.8889C36.721 17.7729 36.7069 17.6571 36.6773 17.5448C36.6635 17.4923 36.6366 17.4442 36.5991 17.4048C36.5617 17.3654 36.5148 17.336 36.463 17.3194C36.4359 17.3094 36.4087 17.2995 36.3803 17.2909C36.3753 17.2896 36.3616 17.2843 36.3638 17.2863C36.3647 17.2857 36.3629 17.2864 36.3608 17.2867C36.352 17.2905 36.344 17.2958 36.337 17.3023C36.2979 17.3427 36.2645 17.3881 36.2375 17.4373C36.1227 17.6466 36.0226 17.8635 35.9379 18.0865C35.76 18.5318 35.5975 18.9841 35.4315 19.4351C35.2636 19.8857 35.1025 20.3385 34.9127 20.7837C34.8651 20.8963 34.8116 21.0063 34.7524 21.1133C34.6922 21.232 34.5959 21.3288 34.4772 21.3899C34.3523 21.4464 34.2108 21.4549 34.08 21.4139C33.9559 21.3758 33.8405 21.314 33.74 21.2322L33.7153 21.2128L33.715 21.1798V21.1786L33.7402 21.2311C33.5901 21.1135 33.4703 20.9618 33.3911 20.7888C33.3713 20.7434 33.3561 20.6961 33.3459 20.6476C33.3361 20.5964 33.333 20.5546 33.3275 20.5082L33.3057 20.2407C33.2956 20.0667 33.2745 19.8934 33.2426 19.7219C33.2221 19.5625 33.1546 19.4127 33.0487 19.2914C33.0365 19.279 33.0226 19.2685 33.0072 19.2603C32.994 19.2495 32.9788 19.2414 32.9624 19.2365C32.9468 19.2316 32.9293 19.2234 32.9159 19.2201C32.9064 19.2182 32.8966 19.2183 32.8871 19.2203C32.855 19.2244 32.8066 19.2836 32.778 19.3567C32.7199 19.5153 32.683 19.6808 32.6682 19.8489C32.6323 20.1973 32.6209 20.5477 32.634 20.8977L32.6348 20.9263L32.6175 20.9583C32.4922 21.168 32.3962 21.3936 32.332 21.629C32.2698 21.8651 32.2419 22.1088 32.2491 22.3528C32.2579 22.5981 32.2955 22.8415 32.3611 23.0781C32.4243 23.3139 32.5151 23.5414 32.6318 23.756L32.6566 23.8007L32.6455 23.8463C32.5457 24.2569 32.441 24.6666 32.3159 25.0701C32.1957 25.4751 32.0584 25.8748 31.9101 26.2702C31.7633 26.6662 31.6049 27.0576 31.435 27.4445C31.2652 27.8321 31.088 28.2132 30.8894 28.5917L30.8421 28.6817L30.7463 28.6536C30.5199 28.5765 30.3093 28.4597 30.1243 28.3088C29.9474 28.1671 29.779 28.0152 29.6198 27.854C29.3039 27.5342 29.0153 27.1942 28.7342 26.8497C28.1747 26.1587 27.6511 25.4438 27.1208 24.7364L26.723 24.2062L26.3076 23.6899L25.4755 22.6574C24.9307 21.9605 24.3496 21.2928 23.7805 20.6146L23.7989 20.5982C24.3914 21.2561 25.001 21.8997 25.567 22.5816L26.4272 23.5953L26.857 24.1027L27.2688 24.6245C27.811 25.3248 28.3447 26.03 28.9099 26.7062C29.1931 27.0433 29.4844 27.3736 29.7945 27.6803C29.947 27.8337 30.1082 27.9782 30.2774 28.1131C30.4366 28.2423 30.617 28.3433 30.8107 28.4117L30.6677 28.4736C30.8582 28.1074 31.0345 27.7258 31.2004 27.3434C31.3665 26.9602 31.5218 26.5726 31.6663 26.1805C31.8106 25.7887 31.9452 25.3936 32.0699 24.9953C32.1971 24.5977 32.3038 24.1943 32.4059 23.79L32.4196 23.8803C32.2936 23.646 32.1963 23.3975 32.1297 23.1401C32.0614 22.8848 32.0233 22.6224 32.0162 22.3583C32.0037 21.8237 32.1489 21.2972 32.4339 20.8438L32.4174 20.9044C32.4106 20.5435 32.4293 20.1826 32.4732 19.8243C32.4933 19.6383 32.5385 19.4559 32.6074 19.2818C32.6284 19.2334 32.6557 19.188 32.6885 19.1466C32.729 19.095 32.786 19.0586 32.8501 19.0436C32.8845 19.0368 32.9199 19.0373 32.9541 19.0449C32.9811 19.0528 33.0076 19.0622 33.0335 19.0731C33.0594 19.0826 33.0836 19.096 33.1054 19.1129C33.1287 19.1269 33.1501 19.1438 33.1691 19.1632C33.3002 19.3108 33.3828 19.4947 33.4058 19.6903C33.4358 19.869 33.4544 20.0493 33.4616 20.2303L33.4781 20.4946C33.48 20.5761 33.4961 20.6567 33.5259 20.7326C33.5932 20.8855 33.696 21.0203 33.8258 21.1259L33.8514 21.1471L33.8511 21.1785L33.8511 21.1797L33.8261 21.1273C33.9961 21.2698 34.232 21.3702 34.4257 21.2803C34.6202 21.1932 34.7107 20.95 34.8149 20.7404C35.0127 20.3055 35.1808 19.8545 35.3497 19.4051C35.5191 18.9553 35.685 18.504 35.867 18.058C35.9556 17.8326 36.0569 17.6123 36.1702 17.3982C36.2006 17.3416 36.2388 17.2894 36.2837 17.2433C36.2987 17.2293 36.3163 17.2183 36.3356 17.211C36.3489 17.2063 36.3631 17.2051 36.377 17.2073C36.3863 17.2087 36.3954 17.2111 36.4042 17.2142C36.4336 17.2228 36.4631 17.2332 36.4927 17.2438C36.5554 17.266 36.6125 17.3013 36.6601 17.3475C36.7057 17.3963 36.7393 17.455 36.7583 17.5189C36.8687 18.01 36.7872 18.4991 36.6785 18.9683C36.6262 19.2036 36.5647 19.4366 36.5168 19.6693C36.4912 19.7827 36.4755 19.8981 36.47 20.0142C36.4663 20.0633 36.4736 20.1125 36.4914 20.1585C36.5188 20.2103 36.5496 20.2663 36.5759 20.3202C36.684 20.5381 36.7812 20.7596 36.8693 20.986C36.9645 21.2143 37.0344 21.4522 37.0778 21.6955C37.0872 21.8215 37.085 21.948 37.0711 22.0735C37.0606 22.1961 37.0426 22.3172 37.0225 22.4379C36.9806 22.6784 36.9236 22.9162 36.8519 23.1496C36.7041 23.6129 36.5176 24.0631 36.2944 24.4954C36.082 24.9288 35.8544 25.353 35.6554 25.7835C35.5555 25.9963 35.4724 26.2166 35.4069 26.4423C35.3477 26.6691 35.3094 26.9009 35.2928 27.1348C35.2449 27.6116 35.1989 28.0918 35.1365 28.5697C35.0728 29.0476 34.9985 29.5245 34.8979 29.9967C34.8539 30.2338 34.7912 30.4674 34.7387 30.7028C34.6746 30.9355 34.6169 31.17 34.5442 31.4002C34.2723 32.3276 33.8651 33.2102 33.3356 34.02L33.3149 34.0067Z" fill="#141414"/>
<path d="M31.519 29.0631L30.7065 28.6324L30.8507 28.4332L31.519 29.0631Z" fill="#141414"/>
<path d="M27.1703 24.6548C27.3225 24.4109 27.4879 24.176 27.6582 23.9438C27.8282 23.7094 28.0137 23.4867 28.2137 23.277C28.3164 23.1666 28.432 23.0688 28.558 22.9857C28.5926 22.9676 28.6358 22.9436 28.6645 22.9315C28.6952 22.9187 28.7252 22.9043 28.7544 22.8884C28.8135 22.8579 28.8699 22.8223 28.9228 22.782C29.1378 22.599 29.342 22.4039 29.5345 22.1976C29.7374 21.9937 29.9422 21.7904 30.1542 21.5953C30.3645 21.3982 30.5876 21.2131 30.7942 21.0226C31.0035 20.8347 31.1958 20.6287 31.3688 20.4071C31.453 20.2975 31.5257 20.1797 31.5858 20.0555C31.6472 19.939 31.6752 19.8079 31.6667 19.6767L31.6657 19.669L31.6658 19.6661L31.6658 19.6649L31.6668 19.6757C31.6623 19.642 31.6505 19.6097 31.6322 19.581C31.6241 19.5687 31.614 19.5579 31.6023 19.549C31.5993 19.5466 31.5959 19.5446 31.5923 19.5433C31.5877 19.5423 31.583 19.5422 31.5784 19.5429C31.5035 19.5631 31.433 19.5966 31.3702 19.6418C31.2299 19.7346 31.095 19.835 30.9658 19.9426L30.5758 20.2689C30.5432 20.2964 30.5106 20.3238 30.4759 20.3506C30.4567 20.3684 30.4341 20.3822 30.4094 20.3912C30.3848 20.4003 30.3586 20.4043 30.3324 20.4032C30.3048 20.3982 30.279 20.3865 30.2573 20.3689C30.2355 20.3514 30.2186 20.3286 30.2081 20.3028C30.1898 20.2593 30.1793 20.2128 30.177 20.1657C30.1752 19.9903 30.2073 19.8163 30.2714 19.653C30.3277 19.491 30.3946 19.3327 30.4716 19.1793C30.6256 18.8736 30.803 18.5831 30.976 18.2921C31.154 18.0102 31.314 17.7175 31.4551 17.4157C31.4847 17.3492 31.5033 17.2785 31.5101 17.2061C31.5135 17.1882 31.5099 17.1696 31.5001 17.1543C31.4916 17.1476 31.4815 17.1435 31.4707 17.1424C31.408 17.1519 31.3481 17.1749 31.2952 17.2098C31.2271 17.2508 31.1619 17.2965 31.1002 17.3465C30.8448 17.5601 30.6054 17.792 30.3842 18.0405C30.1578 18.2878 29.9386 18.5453 29.7259 18.8029L29.6819 18.8562L29.6109 18.8511C29.1444 18.8328 28.6836 18.9591 28.2923 19.2125C27.8861 19.4698 27.5153 19.7788 27.1895 20.1316C26.8597 20.4906 26.553 20.87 26.2712 21.2674C26.1129 21.4663 25.9124 21.6279 25.684 21.7408C25.4618 21.8542 25.2229 21.9317 24.9763 21.9704L24.9722 21.9462C25.4459 21.8395 25.8672 21.5713 26.1632 21.1882C26.423 20.7685 26.7155 20.3696 27.0379 19.9953C27.3644 19.6139 27.7422 19.2792 28.1606 19.0006C28.5946 18.7081 29.1126 18.5642 29.6361 18.5905L29.5211 18.6386C29.7386 18.3728 29.965 18.1193 30.201 17.871C30.4356 17.6176 30.6888 17.3818 30.9584 17.1656C31.0296 17.1103 31.1046 17.0599 31.1829 17.015C31.2732 16.9577 31.3776 16.9262 31.4847 16.9241C31.5217 16.927 31.5577 16.9376 31.5902 16.9554C31.6228 16.9731 31.6512 16.9975 31.6736 17.0269C31.7117 17.0823 31.7286 17.1495 31.7212 17.2162C31.7108 17.3124 31.6841 17.4061 31.6422 17.4934C31.4888 17.8013 31.3115 18.0968 31.1119 18.3772C30.9235 18.6587 30.7342 18.9384 30.571 19.2311C30.4889 19.3765 30.4175 19.5277 30.3575 19.6834C30.295 19.8348 30.2619 19.9965 30.2599 20.1601C30.2615 20.236 30.2908 20.3203 30.3423 20.3252C30.3917 20.3342 30.4638 20.2601 30.5278 20.2118L30.9151 19.882C31.0465 19.7737 31.1759 19.663 31.3183 19.5645C31.3919 19.5083 31.4752 19.4663 31.5642 19.4404C31.5805 19.4375 31.5971 19.4374 31.6134 19.4402C31.6305 19.4435 31.6469 19.4501 31.6614 19.4596C31.6848 19.4747 31.7053 19.4938 31.722 19.516C31.7522 19.557 31.773 19.6042 31.7829 19.6541L31.7837 19.6579L31.7839 19.6649L31.7839 19.6661L31.7829 19.6557C31.8039 19.8106 31.7808 19.9684 31.7162 20.1109C31.6591 20.2482 31.5879 20.3792 31.5035 20.5017C31.3374 20.7427 31.148 20.9669 30.938 21.1712C30.73 21.3775 30.5128 21.5612 30.3047 21.7568C30.0949 21.9506 29.8851 22.144 29.6801 22.3435C29.4768 22.5525 29.2614 22.7493 29.0348 22.933C28.9726 22.9785 28.9063 23.0183 28.8368 23.0517C28.802 23.0684 28.7664 23.0833 28.7301 23.0964C28.6917 23.1104 28.6727 23.1229 28.6425 23.1356C28.5254 23.2056 28.4169 23.289 28.3193 23.384C27.9156 23.7876 27.5386 24.2168 27.1906 24.6688L27.1703 24.6548Z" fill="#141414"/>
<path d="M29.0608 19.3102L29.5341 18.6364L29.7129 18.8055L29.0608 19.3102Z" fill="#141414"/>
<path d="M31.282 19.6464C31.4034 19.293 31.5414 18.9474 31.6783 18.6013L31.8904 18.0854L32.1103 17.5732C32.2575 17.232 32.412 16.8942 32.5651 16.5559C32.7242 16.2203 32.8773 15.8819 33.0413 15.5486L33.1171 15.3946L33.2746 15.4576C33.8069 15.6706 34.336 15.8916 34.862 16.1205C35.1238 16.2379 35.3874 16.3508 35.6471 16.4734C35.9081 16.5926 36.1672 16.7169 36.4255 16.843L36.4785 16.8689L36.4566 16.9139C36.3727 17.0865 36.2864 17.2582 36.1977 17.4289C36.2468 17.243 36.2991 17.0583 36.3535 16.8743L36.3846 16.9452C36.1098 16.8602 35.8358 16.7733 35.5639 16.6814C35.2905 16.5928 35.0211 16.4945 34.7499 16.4007C34.2096 16.2075 33.6727 16.0061 33.139 15.7966L33.3723 15.7056C33.2155 16.0422 33.0478 16.3737 32.886 16.708C32.7184 17.0395 32.5521 17.3717 32.3785 17.7003L32.1171 18.1929L31.8481 18.6818C31.6642 19.0056 31.4813 19.3299 31.282 19.6464Z" fill="#141414"/>
<path d="M30.8065 21.1249L30.7505 21.2343L32.1336 21.9361L32.1897 21.8267L30.8065 21.1249Z" fill="#141414"/>
<mask id="path-13-inside-1_641_130300" fill="white">
<path d="M35.6054 17.2464L33.7829 21.1789C33.5963 21.0372 33.4657 20.8346 33.414 20.6068C33.3548 20.1648 33.414 19.2513 32.9402 19.1335C32.4664 19.0156 32.5256 20.9014 32.5256 20.9014C32.4691 20.991 32.4184 21.0841 32.3738 21.1801L31.3213 20.6068C31.6878 20.1488 31.7569 19.8419 31.7248 19.6663V19.6651L31.7322 19.6467L33.414 16.3047L35.6054 17.2464ZM29.0559 34.0319C28.3666 33.8543 27.7065 33.5788 27.0961 33.2139C26.4835 32.8542 25.8985 32.45 25.3459 32.0044C24.7897 31.5635 24.2596 31.0911 23.758 30.5895C23.632 30.4644 23.508 30.3378 23.3856 30.2074C23.262 30.0724 23.1489 29.9429 23.0322 29.8084L22.6874 29.4048C22.5728 29.2652 22.4624 29.1392 22.3488 28.9728L22.4809 29.0487C22.1691 29.0219 21.864 28.944 21.5779 28.8181C21.2959 28.6975 21.0319 28.5389 20.7933 28.3468C20.3215 27.963 19.9434 27.4775 19.6877 26.9271L19.5937 26.7231L19.5469 26.6211C19.5336 26.5863 19.5226 26.5507 19.5104 26.5155L19.3676 26.0925C19.323 25.9509 19.2978 25.8045 19.2621 25.661C19.2247 25.5181 19.1961 25.3731 19.1764 25.2267C19.1403 24.934 19.0869 24.6447 19.0765 24.3487C19.0615 24.054 19.067 23.7587 19.0931 23.4648C19.1444 22.8772 19.2843 22.3007 19.5083 21.7547C19.6195 21.4817 19.7563 21.2197 19.9169 20.9722C20.0806 20.7242 20.2782 20.5001 20.504 20.3063C20.7381 20.1172 21.0098 19.9797 21.3013 19.9029L21.5228 19.8578C21.5974 19.8496 21.6728 19.8486 21.7478 19.8437L21.8605 19.8386L21.9724 19.8485L22.1964 19.8686C22.7803 19.9861 23.3369 20.2117 23.8371 20.5335L23.7243 20.6658C23.2512 20.2204 22.6983 19.8674 22.0942 19.6251C21.4938 19.3759 20.8575 19.2227 20.209 19.1712C19.5601 19.1276 18.9082 19.1648 18.2685 19.2819C17.9329 19.3438 17.5929 19.3794 17.2516 19.3881C17.0735 19.3913 16.8956 19.3772 16.7203 19.3459C16.5239 19.3133 16.3395 19.2301 16.1854 19.1046L15.9597 18.9088L16.2436 18.8009L16.2441 18.8007L16.5859 18.6708L16.4806 19.0271C16.2965 19.6677 16.1607 20.3212 16.0745 20.982C16.0481 21.1472 16.0296 21.3135 16.0117 21.48C15.9943 21.6464 15.9716 21.8123 15.9585 21.9792L15.9242 22.4802L15.9077 22.7307L15.9022 22.9817C15.8577 24.3214 15.9592 25.662 16.2048 26.9799C16.2721 27.3081 16.3227 27.6405 16.4192 27.9621L16.5489 28.4482C16.593 28.61 16.6308 28.7739 16.6906 28.9309L17.0178 29.8836C17.1447 30.1942 17.2786 30.5023 17.4088 30.8124C17.5402 31.1226 17.6873 31.4259 17.8495 31.7212C18.0066 32.0204 18.1692 32.3165 18.3346 32.611C18.5013 32.9046 18.6734 33.1955 18.8612 33.4754C18.9552 33.6153 19.0534 33.7522 19.1595 33.8822C19.2117 33.9474 19.2682 34.0091 19.3286 34.0669C19.3849 34.1261 19.4536 34.1724 19.5297 34.2025L19.5208 34.2382C19.4361 34.2116 19.3584 34.1667 19.2933 34.1066C19.2273 34.051 19.1651 33.9912 19.1071 33.9275C18.992 33.801 18.8835 33.6687 18.7822 33.531C18.5777 33.2578 18.3895 32.9739 18.2065 32.6871C18.0231 32.4005 17.8502 32.1077 17.6807 31.8131C17.5055 31.5207 17.3453 31.2196 17.2005 30.9111C17.0566 30.6019 16.9087 30.2937 16.7677 29.9823L16.4095 29.0225C16.345 28.8639 16.3026 28.6983 16.2539 28.5346L16.1104 28.0425C16.0047 27.7167 15.945 27.3797 15.8687 27.0465C15.5862 25.7064 15.4645 24.3377 15.5063 22.9691L15.5124 22.7126L15.5296 22.4567L15.5656 21.9448C15.5792 21.7743 15.6025 21.6047 15.6206 21.4346C15.6386 21.2645 15.6588 21.0946 15.6886 20.9259C15.7863 20.2448 15.9357 19.5721 16.1352 18.9134L16.3717 19.1397L16.3713 19.1399L16.4295 18.8362C16.5346 18.9195 16.6592 18.975 16.7916 18.9974C16.9429 19.0259 17.0966 19.0398 17.2505 19.0388C17.5731 19.0343 17.8948 19.0046 18.2126 18.95C18.8815 18.8388 19.562 18.8142 20.2372 18.8767C20.9135 18.9438 21.5737 19.1228 22.1906 19.4065C22.8117 19.6813 23.3761 20.0685 23.8549 20.5485L24.3757 21.0879L23.742 20.6808C23.2703 20.3527 22.7377 20.121 22.1752 19.9993L21.9632 19.9783L21.8571 19.9675L21.751 19.9714C21.6804 19.9753 21.6093 19.9753 21.539 19.9821L21.331 20.0223C21.0557 20.0919 20.7984 20.2187 20.5759 20.3943C20.1458 20.777 19.8186 21.2605 19.624 21.801C19.415 22.3369 19.2944 22.9029 19.2669 23.4771C19.2522 23.763 19.2574 24.0497 19.2826 24.3349C19.3029 24.62 19.3664 24.9018 19.4111 25.1844C19.4351 25.3253 19.4678 25.4646 19.5091 25.6015C19.5485 25.7385 19.5774 25.8789 19.6251 26.0128L19.7756 26.4111C19.7884 26.4441 19.8 26.4777 19.8138 26.5102L19.8616 26.6048L19.9571 26.7937C20.2063 27.295 20.5613 27.737 20.9977 28.0895C21.2142 28.2626 21.4535 28.4052 21.709 28.5135C21.9571 28.6252 22.2215 28.6967 22.4924 28.7254L22.5791 28.7333L22.6244 28.8013C22.708 28.9266 22.8264 29.0692 22.9344 29.202L23.2719 29.6045L23.6126 30.0015C23.7287 30.1301 23.8487 30.2575 23.9701 30.3829C24.2128 30.6343 24.4622 30.8795 24.7182 31.1185C24.8454 31.2387 24.9724 31.3592 25.1037 31.4749C25.2333 31.5925 25.364 31.709 25.4985 31.821C26.0297 32.2771 26.5914 32.6968 27.1798 33.077C27.7645 33.4657 28.3987 33.7748 29.0656 33.9963L29.0559 34.0319ZM34.9505 29.1607C35.2755 28.987 35.6053 28.8252 35.9377 28.6697C36.1031 28.59 36.271 28.5165 36.4376 28.4398C36.604 28.3627 36.7731 28.292 36.9407 28.2178L37.0146 28.1851L37.0852 28.2352C37.2613 28.3607 37.4299 28.4962 37.5902 28.641C37.7542 28.779 37.9032 28.9318 38.0546 29.0822C38.3463 29.3926 38.6143 29.7242 38.8562 30.0744C39.3352 30.7755 39.7855 31.4865 40.1926 32.2272C40.3045 32.4073 40.3946 32.5985 40.4896 32.7878L40.6332 33.0717L40.7045 33.2142L40.7662 33.3607C40.8466 33.5569 40.928 33.7533 41.0047 33.9517C41.0842 34.1491 41.1336 34.3563 41.1983 34.5589C41.3224 34.966 41.4238 35.3797 41.5022 35.798C41.5852 36.2156 41.6103 36.6422 41.6568 37.0643L41.6743 37.223L41.5138 37.2607C41.2419 37.3245 40.9677 37.3793 40.6947 37.4388L39.8728 37.605C39.5983 37.6584 39.3232 37.7095 39.0476 37.7582C38.771 37.8033 38.4957 37.8533 38.2176 37.892L38.2087 37.8562C38.4732 37.7623 38.7405 37.6798 39.0066 37.5922C39.2735 37.5082 39.5411 37.4266 39.8092 37.3476L40.6151 37.116C40.8847 37.0429 41.1532 36.9651 41.4239 36.8963L41.2809 37.0927L41.1992 36.4779C41.1814 36.2721 41.153 36.0674 41.1142 35.8645C41.0369 35.459 40.9808 35.048 40.8628 34.6508L40.785 34.3502C40.7584 34.2502 40.7371 34.1484 40.7012 34.0512C40.6352 33.855 40.5739 33.6569 40.5116 33.4585L40.4662 33.3091L40.4109 33.1635L40.2992 32.872C40.224 32.6777 40.1511 32.4818 40.0573 32.2953C39.7126 31.5326 39.2477 30.8296 38.6802 30.2127C38.4022 29.9016 38.1093 29.6066 37.8192 29.3111C37.669 29.1687 37.5246 29.02 37.3722 28.8807C37.2234 28.7386 37.0619 28.6043 36.9092 28.4782L37.0536 28.4955C36.8813 28.5581 36.7104 28.6244 36.5369 28.6841C36.3636 28.7442 36.1915 28.8076 36.017 28.8647C35.6695 28.9829 35.3193 29.0948 34.9644 29.1948L34.9505 29.1607Z"/>
</mask>
<path d="M35.6054 17.2464L33.7829 21.1789C33.5963 21.0372 33.4657 20.8346 33.414 20.6068C33.3548 20.1648 33.414 19.2513 32.9402 19.1335C32.4664 19.0156 32.5256 20.9014 32.5256 20.9014C32.4691 20.991 32.4184 21.0841 32.3738 21.1801L31.3213 20.6068C31.6878 20.1488 31.7569 19.8419 31.7248 19.6663V19.6651L31.7322 19.6467L33.414 16.3047L35.6054 17.2464ZM29.0559 34.0319C28.3666 33.8543 27.7065 33.5788 27.0961 33.2139C26.4835 32.8542 25.8985 32.45 25.3459 32.0044C24.7897 31.5635 24.2596 31.0911 23.758 30.5895C23.632 30.4644 23.508 30.3378 23.3856 30.2074C23.262 30.0724 23.1489 29.9429 23.0322 29.8084L22.6874 29.4048C22.5728 29.2652 22.4624 29.1392 22.3488 28.9728L22.4809 29.0487C22.1691 29.0219 21.864 28.944 21.5779 28.8181C21.2959 28.6975 21.0319 28.5389 20.7933 28.3468C20.3215 27.963 19.9434 27.4775 19.6877 26.9271L19.5937 26.7231L19.5469 26.6211C19.5336 26.5863 19.5226 26.5507 19.5104 26.5155L19.3676 26.0925C19.323 25.9509 19.2978 25.8045 19.2621 25.661C19.2247 25.5181 19.1961 25.3731 19.1764 25.2267C19.1403 24.934 19.0869 24.6447 19.0765 24.3487C19.0615 24.054 19.067 23.7587 19.0931 23.4648C19.1444 22.8772 19.2843 22.3007 19.5083 21.7547C19.6195 21.4817 19.7563 21.2197 19.9169 20.9722C20.0806 20.7242 20.2782 20.5001 20.504 20.3063C20.7381 20.1172 21.0098 19.9797 21.3013 19.9029L21.5228 19.8578C21.5974 19.8496 21.6728 19.8486 21.7478 19.8437L21.8605 19.8386L21.9724 19.8485L22.1964 19.8686C22.7803 19.9861 23.3369 20.2117 23.8371 20.5335L23.7243 20.6658C23.2512 20.2204 22.6983 19.8674 22.0942 19.6251C21.4938 19.3759 20.8575 19.2227 20.209 19.1712C19.5601 19.1276 18.9082 19.1648 18.2685 19.2819C17.9329 19.3438 17.5929 19.3794 17.2516 19.3881C17.0735 19.3913 16.8956 19.3772 16.7203 19.3459C16.5239 19.3133 16.3395 19.2301 16.1854 19.1046L15.9597 18.9088L16.2436 18.8009L16.2441 18.8007L16.5859 18.6708L16.4806 19.0271C16.2965 19.6677 16.1607 20.3212 16.0745 20.982C16.0481 21.1472 16.0296 21.3135 16.0117 21.48C15.9943 21.6464 15.9716 21.8123 15.9585 21.9792L15.9242 22.4802L15.9077 22.7307L15.9022 22.9817C15.8577 24.3214 15.9592 25.662 16.2048 26.9799C16.2721 27.3081 16.3227 27.6405 16.4192 27.9621L16.5489 28.4482C16.593 28.61 16.6308 28.7739 16.6906 28.9309L17.0178 29.8836C17.1447 30.1942 17.2786 30.5023 17.4088 30.8124C17.5402 31.1226 17.6873 31.4259 17.8495 31.7212C18.0066 32.0204 18.1692 32.3165 18.3346 32.611C18.5013 32.9046 18.6734 33.1955 18.8612 33.4754C18.9552 33.6153 19.0534 33.7522 19.1595 33.8822C19.2117 33.9474 19.2682 34.0091 19.3286 34.0669C19.3849 34.1261 19.4536 34.1724 19.5297 34.2025L19.5208 34.2382C19.4361 34.2116 19.3584 34.1667 19.2933 34.1066C19.2273 34.051 19.1651 33.9912 19.1071 33.9275C18.992 33.801 18.8835 33.6687 18.7822 33.531C18.5777 33.2578 18.3895 32.9739 18.2065 32.6871C18.0231 32.4005 17.8502 32.1077 17.6807 31.8131C17.5055 31.5207 17.3453 31.2196 17.2005 30.9111C17.0566 30.6019 16.9087 30.2937 16.7677 29.9823L16.4095 29.0225C16.345 28.8639 16.3026 28.6983 16.2539 28.5346L16.1104 28.0425C16.0047 27.7167 15.945 27.3797 15.8687 27.0465C15.5862 25.7064 15.4645 24.3377 15.5063 22.9691L15.5124 22.7126L15.5296 22.4567L15.5656 21.9448C15.5792 21.7743 15.6025 21.6047 15.6206 21.4346C15.6386 21.2645 15.6588 21.0946 15.6886 20.9259C15.7863 20.2448 15.9357 19.5721 16.1352 18.9134L16.3717 19.1397L16.3713 19.1399L16.4295 18.8362C16.5346 18.9195 16.6592 18.975 16.7916 18.9974C16.9429 19.0259 17.0966 19.0398 17.2505 19.0388C17.5731 19.0343 17.8948 19.0046 18.2126 18.95C18.8815 18.8388 19.562 18.8142 20.2372 18.8767C20.9135 18.9438 21.5737 19.1228 22.1906 19.4065C22.8117 19.6813 23.3761 20.0685 23.8549 20.5485L24.3757 21.0879L23.742 20.6808C23.2703 20.3527 22.7377 20.121 22.1752 19.9993L21.9632 19.9783L21.8571 19.9675L21.751 19.9714C21.6804 19.9753 21.6093 19.9753 21.539 19.9821L21.331 20.0223C21.0557 20.0919 20.7984 20.2187 20.5759 20.3943C20.1458 20.777 19.8186 21.2605 19.624 21.801C19.415 22.3369 19.2944 22.9029 19.2669 23.4771C19.2522 23.763 19.2574 24.0497 19.2826 24.3349C19.3029 24.62 19.3664 24.9018 19.4111 25.1844C19.4351 25.3253 19.4678 25.4646 19.5091 25.6015C19.5485 25.7385 19.5774 25.8789 19.6251 26.0128L19.7756 26.4111C19.7884 26.4441 19.8 26.4777 19.8138 26.5102L19.8616 26.6048L19.9571 26.7937C20.2063 27.295 20.5613 27.737 20.9977 28.0895C21.2142 28.2626 21.4535 28.4052 21.709 28.5135C21.9571 28.6252 22.2215 28.6967 22.4924 28.7254L22.5791 28.7333L22.6244 28.8013C22.708 28.9266 22.8264 29.0692 22.9344 29.202L23.2719 29.6045L23.6126 30.0015C23.7287 30.1301 23.8487 30.2575 23.9701 30.3829C24.2128 30.6343 24.4622 30.8795 24.7182 31.1185C24.8454 31.2387 24.9724 31.3592 25.1037 31.4749C25.2333 31.5925 25.364 31.709 25.4985 31.821C26.0297 32.2771 26.5914 32.6968 27.1798 33.077C27.7645 33.4657 28.3987 33.7748 29.0656 33.9963L29.0559 34.0319ZM34.9505 29.1607C35.2755 28.987 35.6053 28.8252 35.9377 28.6697C36.1031 28.59 36.271 28.5165 36.4376 28.4398C36.604 28.3627 36.7731 28.292 36.9407 28.2178L37.0146 28.1851L37.0852 28.2352C37.2613 28.3607 37.4299 28.4962 37.5902 28.641C37.7542 28.779 37.9032 28.9318 38.0546 29.0822C38.3463 29.3926 38.6143 29.7242 38.8562 30.0744C39.3352 30.7755 39.7855 31.4865 40.1926 32.2272C40.3045 32.4073 40.3946 32.5985 40.4896 32.7878L40.6332 33.0717L40.7045 33.2142L40.7662 33.3607C40.8466 33.5569 40.928 33.7533 41.0047 33.9517C41.0842 34.1491 41.1336 34.3563 41.1983 34.5589C41.3224 34.966 41.4238 35.3797 41.5022 35.798C41.5852 36.2156 41.6103 36.6422 41.6568 37.0643L41.6743 37.223L41.5138 37.2607C41.2419 37.3245 40.9677 37.3793 40.6947 37.4388L39.8728 37.605C39.5983 37.6584 39.3232 37.7095 39.0476 37.7582C38.771 37.8033 38.4957 37.8533 38.2176 37.892L38.2087 37.8562C38.4732 37.7623 38.7405 37.6798 39.0066 37.5922C39.2735 37.5082 39.5411 37.4266 39.8092 37.3476L40.6151 37.116C40.8847 37.0429 41.1532 36.9651 41.4239 36.8963L41.2809 37.0927L41.1992 36.4779C41.1814 36.2721 41.153 36.0674 41.1142 35.8645C41.0369 35.459 40.9808 35.048 40.8628 34.6508L40.785 34.3502C40.7584 34.2502 40.7371 34.1484 40.7012 34.0512C40.6352 33.855 40.5739 33.6569 40.5116 33.4585L40.4662 33.3091L40.4109 33.1635L40.2992 32.872C40.224 32.6777 40.1511 32.4818 40.0573 32.2953C39.7126 31.5326 39.2477 30.8296 38.6802 30.2127C38.4022 29.9016 38.1093 29.6066 37.8192 29.3111C37.669 29.1687 37.5246 29.02 37.3722 28.8807C37.2234 28.7386 37.0619 28.6043 36.9092 28.4782L37.0536 28.4955C36.8813 28.5581 36.7104 28.6244 36.5369 28.6841C36.3636 28.7442 36.1915 28.8076 36.017 28.8647C35.6695 28.9829 35.3193 29.0948 34.9644 29.1948L34.9505 29.1607Z" stroke="#141414" stroke-width="2" mask="url(#path-13-inside-1_641_130300)"/>
<path d="M16.1268 19.6651C14.39 19.8297 12.657 20.024 10.9278 20.2479C10.0638 20.3609 9.20149 20.4862 8.34377 20.6325C7.48702 20.7812 6.63193 20.9473 5.79878 21.172C5.38719 21.2744 4.98862 21.4231 4.61072 21.615C4.52697 21.6606 4.44966 21.7171 4.38084 21.783C4.35471 21.8099 4.33247 21.8402 4.31478 21.8732C4.31038 21.888 4.3062 21.8981 4.30251 21.9141L4.29917 21.9706C4.31153 22.1785 4.33814 22.3853 4.37884 22.5895C4.53665 23.4345 4.74535 24.2784 4.95327 25.1193C5.3774 26.8009 5.80793 28.4828 6.25769 30.1596L7.592 35.1951L8.27039 37.7102L8.969 40.2199C9.2047 41.0556 9.43531 41.8928 9.67748 42.7267L10.4053 45.2282C10.8877 46.8965 11.3936 48.5583 11.8929 50.2216L11.7944 50.1495L17.7458 49.9892L23.6975 49.8507L29.6495 49.7221L32.6256 49.6659L35.6019 49.6194L35.4911 49.6576L39.55 46.6297C40.9048 45.6229 42.2554 44.6105 43.6155 43.6105L43.5679 43.6914C43.6587 43.0356 43.7136 42.3678 43.7385 41.7029C43.7662 41.0378 43.7466 40.3715 43.6799 39.7092C43.6465 39.3791 43.5899 39.0519 43.5103 38.7297C43.4342 38.4084 43.3134 38.0991 43.1514 37.811C42.9945 37.5212 42.7476 37.2897 42.4477 37.1509C42.1369 37.0305 41.7957 37.0115 41.4734 37.0964L41.4645 37.0606C41.7953 36.9519 42.1539 36.9624 42.4776 37.0903C42.8013 37.2181 43.0696 37.4552 43.2353 37.76C43.4116 38.0521 43.5461 38.3672 43.6348 38.6963C43.726 39.0223 43.794 39.3543 43.8383 39.6898C43.9228 40.3591 43.9576 41.0336 43.9427 41.7079C43.9315 42.3819 43.8909 43.0521 43.8121 43.7251L43.8064 43.7735L43.7644 43.806C42.4297 44.8392 41.0854 45.8599 39.7455 46.8863L35.7199 49.9578L35.6715 49.9947L35.609 49.996L32.633 50.06L29.6569 50.1142L23.7042 50.2066L17.7514 50.2892L11.7981 50.3498L11.7202 50.3506L11.6996 50.2777L10.2805 45.2638L9.568 42.7578L8.84522 40.2547L7.39246 35.2503C6.90892 33.5818 6.4268 31.9128 5.96128 30.2389L5.28243 27.7225C5.059 26.8829 4.83964 26.0419 4.63782 25.196C4.43572 24.3497 4.23346 23.5051 4.07911 22.6417C4.03661 22.4198 4.01017 22.1951 4 21.9694C4.00124 21.9355 4.00486 21.8986 4.00833 21.8636C4.01658 21.8245 4.02855 21.7863 4.04407 21.7495C4.07622 21.6859 4.11818 21.6277 4.16842 21.577C4.25681 21.492 4.3564 21.4194 4.46446 21.3612C4.86509 21.1596 5.28773 21.0047 5.724 20.8995C6.57447 20.6847 7.43591 20.5156 8.30462 20.3928C9.16943 20.2622 10.0364 20.153 10.9044 20.0563C11.7721 19.9575 12.6419 19.8796 13.5119 19.8083C14.3819 19.7372 15.2524 19.6738 16.1242 19.6283L16.1268 19.6651Z" fill="#141414"/>
<path d="M35.6055 49.807C35.6055 49.807 35.4278 38.4922 34.9576 36.7243C34.4874 34.9563 20.7367 36.622 16.5936 36.1055C15.2931 35.9433 14.3294 35.1688 13.6744 34.3965C13.1029 33.7131 12.6713 32.9252 12.4037 32.077C10.4094 25.8952 9.55082 23.3439 8.7757 22.3155C7.97614 21.2547 4.156 21.8809 4.156 21.8809C3.88948 23.2879 11.7963 50.249 11.7963 50.249L35.6055 49.807Z" fill="#141414"/>
<path d="M8.50854 21.161C9.04847 21.1607 9.58142 21.2823 10.0673 21.5167C10.5531 21.751 10.9792 22.092 11.3134 22.5139C11.482 22.7249 11.6322 22.9497 11.7624 23.1861C11.8861 23.4251 11.9924 23.6726 12.0804 23.9268C12.1746 24.1802 12.2483 24.4348 12.3158 24.6902C12.3865 24.9452 12.4478 25.2019 12.5107 25.458C12.7601 26.4827 12.9849 27.5091 13.2602 28.5196C13.5178 29.5295 13.8669 30.5142 14.3032 31.4615C14.5234 31.9277 14.7984 32.3662 15.1224 32.768C15.442 33.1682 15.8486 33.491 16.3118 33.712C16.3685 33.7412 16.4275 33.7658 16.4882 33.7854L16.6682 33.851C16.7937 33.8784 16.9135 33.9194 17.0442 33.9365C17.3038 33.9725 17.5612 34.023 17.8236 34.0475C18.0858 34.0726 18.3479 34.0986 18.6108 34.1193L19.4012 34.1654C20.4564 34.2108 21.5134 34.2212 22.5702 34.2086C23.6271 34.2061 24.6837 34.1637 25.7399 34.1275C26.7962 34.0875 27.8517 34.0303 28.9074 33.9826L30.4905 33.9002L31.2816 33.8567C31.5402 33.8458 31.8046 33.8159 32.0708 33.8007C33.134 33.7216 34.2011 33.7102 35.2658 33.7668C35.813 33.7889 36.3549 33.8832 36.8772 34.0474C37.0186 34.0963 37.153 34.1635 37.2768 34.2473C37.4282 34.3447 37.5394 34.4929 37.5903 34.665C37.6477 34.9535 37.6787 35.204 37.7096 35.4714C37.9337 37.5747 38.053 39.6734 38.1626 41.7787L38.1797 42.1744C38.1826 42.2397 38.1848 42.3071 38.1854 42.3761L38.1861 42.4266C38.1878 42.4335 38.1861 42.4413 38.1879 42.4479C38.1902 42.4615 38.1957 42.4743 38.2038 42.4855C38.2362 42.5167 38.2752 42.5404 38.3179 42.5548C38.3606 42.5692 38.406 42.574 38.4508 42.5689C38.5707 42.5648 38.6894 42.5441 38.8035 42.5072C39.0458 42.4263 39.2778 42.3179 39.4951 42.184C39.7182 42.05 39.9334 41.9033 40.1395 41.7446C40.9639 41.0907 41.7309 40.3684 42.4322 39.5853L42.4603 39.6094C42.1265 40.0182 41.7779 40.415 41.4144 40.8C41.0516 41.1874 40.6646 41.5517 40.2557 41.8907C40.0493 42.0612 39.8331 42.2197 39.6083 42.3655C39.3805 42.5167 39.1358 42.641 38.8792 42.7361C38.743 42.785 38.6005 42.8145 38.4559 42.8234C38.3758 42.8272 38.2956 42.8182 38.2184 42.7965C38.1269 42.7718 38.0458 42.7185 37.9868 42.6446C37.9549 42.6032 37.9324 42.5554 37.921 42.5045C37.9158 42.4793 37.9126 42.4537 37.9114 42.428L37.909 42.3799L37.899 42.1874L37.8736 41.7951C37.8001 40.7472 37.7166 39.6993 37.6229 38.6515C37.5278 37.6051 37.4436 36.5557 37.3175 35.5175C37.3031 35.3871 37.2832 35.2597 37.2673 35.1306C37.2595 35.0655 37.2492 35.0028 37.2383 34.9405L37.2226 34.8467L37.2148 34.7998L37.2109 34.7764L37.207 34.763C37.179 34.6814 37.1227 34.6123 37.0482 34.5682C36.9528 34.5044 36.8495 34.4532 36.7408 34.4159C36.2525 34.266 35.7475 34.1766 35.2373 34.1496C34.19 34.0819 33.1395 34.0809 32.0921 34.1465C31.8302 34.1583 31.5684 34.185 31.2985 34.1934L30.5053 34.2248L28.9188 34.2746C27.8611 34.3061 26.8029 34.3188 25.7448 34.3291C23.6286 34.346 21.5127 34.3519 19.3963 34.2848L18.6024 34.2525L17.8086 34.1982C17.5438 34.1824 17.2796 34.1402 17.0146 34.1123C16.8823 34.0995 16.7484 34.0604 16.615 34.0351L16.4203 33.9719C16.3546 33.9528 16.2906 33.9287 16.2287 33.8997C15.7266 33.6809 15.2812 33.3513 14.9261 32.9359C14.5726 32.5284 14.2709 32.0792 14.0276 31.5985C13.5607 30.6412 13.1973 29.6374 12.9435 28.6038C12.6717 27.5811 12.4576 26.5481 12.2312 25.5225L12.0546 24.756C11.9957 24.5005 11.9308 24.2472 11.8488 24.0043C11.7724 23.7584 11.6784 23.5183 11.5674 23.2859C11.4505 23.0571 11.3143 22.8386 11.1603 22.6327C10.8505 22.2189 10.4559 21.8753 10.0028 21.6246C9.94713 21.5911 9.88913 21.5617 9.82924 21.5365L9.65176 21.4553C9.52888 21.4131 9.40859 21.3606 9.28158 21.3297C9.03086 21.2541 8.77167 21.2098 8.50996 21.1978L8.50854 21.161Z" fill="#141414"/>
<path d="M38.2337 42.4263L38.0486 46.802L37.8635 42.4263H38.2337Z" fill="#141414"/>
<path d="M36.0371 49.8075H35.1733V57.9401H36.0371V49.8075Z" fill="#141414"/>
<path d="M44.0684 42.2864H43.2046V50.419H44.0684V42.2864Z" fill="#141414"/>
<path d="M12.6094 49.8075H11.7456V57.9401H12.6094V49.8075Z" fill="#141414"/>
<path d="M50.6426 45.3771L51.0632 47.8034L51.4199 51.8878C51.4199 51.8878 49.1025 52.3179 48.2133 52.1417C48.2133 52.1417 46.237 49.0081 44.5485 45.9717C43.4246 43.9467 42.5841 41.7785 42.0501 39.5271L41.4695 37.0775C41.4096 36.2797 41.2758 35.4892 41.0698 34.716C41.4708 34.3519 41.8549 33.9737 42.2337 33.5903C42.6139 33.2081 42.9836 32.8156 43.3546 32.4257C43.5174 32.2508 43.6788 32.0746 43.8415 31.8985C44.5797 31.7533 45.342 31.7852 46.0652 31.9917C46.4527 32.1063 46.8153 32.2922 47.134 32.5397C47.4484 32.7892 47.7125 33.0955 47.9126 33.4426C48.101 33.7993 48.2557 34.1727 48.3747 34.5579C48.5049 34.9439 48.6169 35.3365 48.7223 35.7328C48.9306 36.523 49.1116 37.3223 49.2796 38.1242C49.6311 39.724 49.9227 41.3393 50.2156 42.9534C50.364 43.7604 50.5047 44.5688 50.6426 45.3771Z" fill="#141414"/>
<path d="M53.6511 49.9438L51.063 47.8038C50.9796 46.9864 50.8716 46.1729 50.7687 45.358C50.6555 44.5445 50.537 43.7319 50.4133 42.9201C50.2922 42.1079 50.1464 41.2996 50.0032 40.4912C49.8561 39.6829 49.7025 38.8746 49.5332 38.0701C49.3575 37.267 49.1687 36.4664 48.95 35.671C48.8406 35.2734 48.7235 34.8783 48.5881 34.487C48.4612 34.0883 48.2923 33.704 48.0842 33.3406C47.8616 32.9806 47.5733 32.6651 47.2341 32.4105C46.8941 32.1602 46.5093 31.9769 46.1001 31.8703C45.695 31.7682 45.277 31.7254 44.8594 31.7434C44.5227 31.7541 44.1881 31.7997 43.8609 31.8794C44.0575 31.667 44.2554 31.4558 44.4493 31.2421C44.8165 30.8483 45.1667 30.4402 45.556 30.0658L45.3854 30.176C45.3281 30.2148 45.276 30.2576 45.2214 30.299C45.1133 30.3806 45.0105 30.4687 44.9063 30.5555C44.7006 30.7317 44.5001 30.9135 44.3048 31.1009C43.9104 31.4701 43.5354 31.8587 43.1644 32.2499C42.796 32.6437 42.434 33.044 42.0838 33.4546C41.7336 33.864 41.3912 34.2811 41.0696 34.7163C39.937 30.4635 36.9973 28.3559 36.9973 28.3559C36.9973 28.3559 43.5419 24.7029 45.6145 26.3532C47.6871 28.0023 48.6349 28.7691 51.4184 36.6659C54.2031 44.5627 55.7263 47.6625 55.7263 47.6625L53.6511 49.9438ZM48.2315 51.2334C48.2566 51.7967 48.2139 52.361 48.1042 52.9142C48.0705 53.0537 48.0238 53.1898 47.9649 53.3207C47.9147 53.4468 47.8718 53.5756 47.8363 53.7066C47.7629 53.9619 47.7501 54.2307 47.7988 54.4917C47.8562 54.7448 47.9925 54.9734 48.1883 55.1448C48.2373 55.1885 48.2888 55.2295 48.3423 55.2676L48.4252 55.3225C48.4564 55.3429 48.4882 55.3635 48.5172 55.3854C48.6198 55.471 48.7313 55.5456 48.8498 55.6078C49.1007 55.7069 49.3669 55.7621 49.6367 55.771C49.9133 55.7903 50.1931 55.7942 50.4728 55.7911C51.5944 55.7558 52.7128 55.6535 53.822 55.4847L57.1545 55.005L57.0527 55.1074C57.0496 55.0862 57.0449 55.0652 57.0386 55.0448C57.0288 55.0159 57.0161 54.9881 57.0007 54.9617C56.9679 54.9038 56.9279 54.8502 56.8815 54.8024C56.7824 54.6999 56.671 54.61 56.5499 54.5346C56.2973 54.3782 56.0297 54.2471 55.7511 54.1434C55.4683 54.0364 55.1836 53.9475 54.8867 53.8606C54.5915 53.7717 54.2991 53.673 54.009 53.5676C53.4228 53.3659 52.8606 53.101 52.3324 52.7777C52.066 52.6143 51.8254 52.4126 51.6183 52.1792C51.4041 51.9468 51.2837 51.6439 51.2805 51.3286C51.2806 51.3255 51.2819 51.3226 51.2841 51.3205C51.2863 51.3184 51.2892 51.3172 51.2923 51.3172C51.2953 51.3171 51.2983 51.3183 51.3005 51.3204C51.3027 51.3224 51.3041 51.3253 51.3043 51.3284C51.3321 51.6289 51.4679 51.9094 51.6866 52.1185C51.9008 52.3298 52.143 52.511 52.4065 52.657C52.9401 52.9462 53.5002 53.1842 54.0792 53.3678C54.6551 53.5653 55.2503 53.694 55.8413 53.9078C56.1379 54.0169 56.4221 54.1565 56.6894 54.3245C56.8279 54.412 56.9541 54.5175 57.0646 54.6381C57.1232 54.7016 57.1736 54.7722 57.2144 54.8483C57.2658 54.9357 57.2916 55.0357 57.2886 55.137C57.2878 55.162 57.2781 55.186 57.2612 55.2045C57.2444 55.2231 57.2214 55.235 57.1964 55.2382L57.1867 55.2394C56.0725 55.3815 54.9564 55.5124 53.8368 55.611C52.7167 55.706 51.6008 55.8271 50.477 55.8997C50.1958 55.9178 49.9137 55.9295 49.6293 55.9244C49.3366 55.9299 49.0451 55.8833 48.7688 55.7867C48.6366 55.7229 48.5116 55.6453 48.396 55.555L48.2208 55.44C48.1598 55.3973 48.1013 55.3512 48.0455 55.302C47.8165 55.1009 47.6607 54.8301 47.6022 54.5318C47.553 54.2404 47.5727 53.9415 47.6597 53.659C47.6988 53.5205 47.7489 53.3853 47.8097 53.2548C47.8724 53.1339 47.9235 53.0073 47.9621 52.8768C48.0928 52.3372 48.175 51.7871 48.2077 51.233C48.2078 51.2315 48.2082 51.2299 48.2089 51.2285C48.2095 51.2271 48.2105 51.2259 48.2116 51.2248C48.2128 51.2238 48.2141 51.223 48.2156 51.2224C48.2171 51.2219 48.2186 51.2217 48.2202 51.2217C48.2232 51.222 48.226 51.2233 48.228 51.2255C48.2301 51.2276 48.2313 51.2304 48.2315 51.2334Z" fill="#141414"/>
<path d="M49.0924 52.7444C49.0906 52.9311 49.1323 53.1156 49.2142 53.2835C49.2558 53.363 49.3116 53.4343 49.379 53.4939C49.4507 53.5573 49.5275 53.6147 49.6087 53.6655C49.5068 53.6556 49.4088 53.6219 49.3224 53.5672C49.2323 53.5114 49.1587 53.4327 49.1094 53.3392C49.0611 53.2479 49.0345 53.1469 49.0315 53.0438C49.0286 52.9407 49.0494 52.8383 49.0924 52.7444Z" fill="#FCFCFC"/>
<path d="M49.8579 53.7603L49.6002 53.7263C49.4886 53.7154 49.3813 53.6782 49.2871 53.6178C49.1887 53.5568 49.1085 53.4708 49.0548 53.3686C49.0021 53.2688 48.9731 53.1583 48.9699 53.0456C48.9667 52.9329 48.9893 52.8209 49.0362 52.7182L49.1441 52.4897L49.1537 52.742C49.1508 52.9192 49.1899 53.0946 49.268 53.2539C49.3062 53.3272 49.3575 53.393 49.4195 53.4479C49.4804 53.5025 49.5457 53.552 49.6149 53.5957L49.8579 53.7603ZM48.0176 55.2181C48.0176 55.2181 47.3495 55.4738 47.7635 56.6826C47.7635 56.6826 47.7239 57.1387 49.3477 57L57.5386 56.7411C57.5386 56.7411 58.1005 55.3878 56.8327 55.1677L54.7828 55.4247C54.7828 55.4247 55.2539 54.1903 55.098 53.7975C54.8671 53.4491 54.5265 53.1867 54.1297 53.0514C53.7328 52.9161 53.3021 52.9156 52.9049 53.05C52.9049 53.05 53.0544 55.0008 51.5631 55.7184C51.5631 55.7184 49.3332 55.6802 48.0176 55.2181ZM53.355 49.6103C53.7477 50.0168 54.0901 50.4687 54.3749 50.9562C54.4421 51.0831 54.4974 51.216 54.54 51.353C54.586 51.4807 54.6392 51.6057 54.6995 51.7273C54.8138 51.9673 54.9825 52.1775 55.1924 52.3416C55.4035 52.4939 55.6575 52.5761 55.9183 52.5762C55.9841 52.5767 56.0499 52.5737 56.1154 52.5671L56.2141 52.554C56.2511 52.5488 56.2886 52.5433 56.3249 52.5407C56.4588 52.5376 56.592 52.5204 56.7223 52.4893C56.9765 52.3988 57.213 52.2653 57.4216 52.0948C57.6421 51.9275 57.8548 51.7467 58.0628 51.5605C58.8817 50.7971 59.6537 49.9855 60.3747 49.1299L62.5591 46.5802L62.5505 46.724C62.5342 46.7101 62.5168 46.6974 62.4984 46.6862C62.4719 46.671 62.4439 46.6584 62.4149 46.6487C62.3518 46.6267 62.2862 46.6129 62.2196 46.6074C62.0772 46.5956 61.9339 46.6012 61.7928 46.6242C61.4993 46.6727 61.2114 46.7501 60.9333 46.8552C60.6499 46.9607 60.3771 47.0809 60.0965 47.2108C59.8158 47.3379 59.5307 47.4559 59.2429 47.5674C58.6689 47.801 58.0709 47.9715 57.4596 48.0757C57.1511 48.128 56.8366 48.1346 56.5262 48.0955C56.2111 48.0617 55.9197 47.9132 55.7079 47.6786C55.706 47.6762 55.7051 47.6732 55.7053 47.6701C55.7055 47.6671 55.7069 47.6643 55.7092 47.6622C55.7115 47.6602 55.7145 47.6591 55.7176 47.6592C55.7206 47.6593 55.7235 47.6606 55.7257 47.6628C55.946 47.8702 56.2341 47.9916 56.5372 48.0049C56.8382 48.0229 57.1403 47.9998 57.4351 47.9364C58.0278 47.803 58.6064 47.6137 59.1631 47.3712C59.7266 47.1412 60.259 46.8467 60.8448 46.619C61.1398 46.506 61.446 46.4242 61.7582 46.3747C61.9203 46.3494 62.085 46.3457 62.2481 46.3637C62.3343 46.3729 62.4189 46.3928 62.5 46.4232C62.5967 46.455 62.6824 46.5132 62.7473 46.5912C62.7634 46.6105 62.772 46.6348 62.7716 46.6599C62.7712 46.6849 62.7619 46.709 62.7453 46.7278L62.7388 46.7351C61.9963 47.5738 61.245 48.4054 60.4697 49.2151C59.6915 50.0224 58.9338 50.8464 58.138 51.6393C57.9389 51.8376 57.7348 52.0318 57.5179 52.2148C57.3016 52.4113 57.0518 52.5677 56.7802 52.6767C56.6386 52.7158 56.4932 52.7396 56.3464 52.7477L56.1386 52.7765C56.0644 52.7844 55.9899 52.7883 55.9154 52.788C55.6099 52.7874 55.3132 52.6865 55.0713 52.5008C54.841 52.3143 54.6574 52.077 54.5353 51.8076C54.4727 51.6779 54.4207 51.5435 54.3798 51.4055C54.3466 51.2735 54.3009 51.1449 54.2433 51.0215C53.9833 50.5304 53.68 50.0633 53.3369 49.6256C53.335 49.6232 53.334 49.6201 53.3344 49.6169C53.3348 49.6138 53.3363 49.6109 53.3388 49.609C53.3412 49.6072 53.3442 49.6064 53.3472 49.6066C53.3501 49.6069 53.3529 49.6082 53.355 49.6103Z" fill="#141414"/>
<path d="M55.0042 50.1794C55.1266 50.3208 55.2804 50.4319 55.4534 50.5042C55.5374 50.5366 55.6266 50.5535 55.7167 50.554C55.8126 50.5545 55.9084 50.5471 56.0031 50.5319C55.9201 50.5914 55.8241 50.6306 55.7229 50.6462C55.6182 50.6635 55.5107 50.6527 55.4116 50.6149C55.3148 50.5781 55.2277 50.5197 55.1571 50.4442C55.0865 50.3687 55.0341 50.2781 55.0042 50.1794Z" fill="#FCFCFC"/>
<path d="M55.6288 50.717C55.5475 50.7162 55.4669 50.7014 55.3907 50.6732C55.2849 50.6328 55.1897 50.5689 55.1125 50.4864C55.0353 50.4039 54.978 50.3049 54.9451 50.197L54.8745 49.9548L55.0491 50.1377C55.1646 50.2727 55.3104 50.3786 55.4747 50.447C55.552 50.4769 55.6342 50.4926 55.7172 50.4931C55.7991 50.4943 55.8809 50.4885 55.9618 50.4758L56.2535 50.4398L56.0377 50.5835C55.9467 50.6486 55.8413 50.6912 55.7304 50.7077C55.6969 50.7139 55.6629 50.7171 55.6288 50.717ZM55.8391 52.7436C55.8391 52.7436 55.5071 53.3746 56.6201 54.0104C56.6201 54.0104 56.8931 54.3789 58.0205 53.2078L63.9999 47.6319C63.9999 47.6319 63.5239 46.2464 62.4257 46.9141L61.0568 48.4539C61.0568 48.4539 60.5915 47.2174 60.2137 47.0248C59.809 46.9148 59.3791 46.9415 58.9913 47.1007C58.6035 47.2598 58.2797 47.5424 58.0706 47.9043C58.0706 47.9043 59.4775 49.2712 58.8338 50.7899C58.8338 50.7899 57.1337 52.2263 55.8391 52.7436Z" fill="#141414"/>
<path d="M35.788 25.2614C35.9255 25.333 36.0524 25.4231 36.1652 25.5293C36.225 25.5852 36.2767 25.6491 36.3187 25.7192C36.3705 25.7998 36.3927 25.8958 36.3818 25.9908C36.3723 26.0435 36.3508 26.0933 36.319 26.1365C36.2885 26.1757 36.2513 26.2092 36.2091 26.2354C36.1339 26.2802 36.0516 26.3121 35.9657 26.3296C35.8089 26.3615 35.6481 26.3693 35.4889 26.3529C35.1846 26.3113 34.8843 26.2452 34.5908 26.1552C34.2982 26.076 34.0047 26.0024 33.7119 25.9179C33.4169 25.8374 33.1295 25.7313 32.8532 25.6006C32.5709 25.4739 32.3034 25.3168 32.0554 25.1322C31.9285 25.035 31.8134 24.9236 31.7121 24.8001C31.6582 24.7335 31.6136 24.6599 31.5795 24.5814C31.5379 24.4898 31.5311 24.3863 31.5603 24.2901C31.5777 24.2437 31.6047 24.2014 31.6395 24.166C31.6742 24.1306 31.716 24.1027 31.7622 24.0842C31.8387 24.0513 31.9202 24.0312 32.0033 24.0247C32.1581 24.0128 32.3139 24.0219 32.4662 24.0518L32.465 24.0764C32.317 24.0867 32.1702 24.1108 32.0266 24.1482C31.9608 24.1658 31.8978 24.1925 31.8395 24.2275C31.8167 24.2399 31.7966 24.2567 31.7806 24.2771C31.7646 24.2975 31.7529 24.3209 31.7464 24.3459C31.7289 24.4286 31.8036 24.5497 31.8953 24.6471C31.9928 24.7495 32.1 24.8423 32.2153 24.9242C32.4517 25.0979 32.6998 25.2551 32.958 25.3946C33.2199 25.5326 33.4861 25.6665 33.7585 25.7917C34.2997 26.0513 34.8969 26.1739 35.4972 26.1487C35.6391 26.1492 35.7808 26.1385 35.9209 26.1167C36.0537 26.0926 36.1753 26.0368 36.1939 25.9553C36.203 25.9003 36.1949 25.8437 36.1707 25.7934C36.1422 25.7305 36.1072 25.6708 36.0662 25.6152C35.9758 25.4977 35.8779 25.3861 35.7731 25.281L35.788 25.2614Z" fill="#141414"/>
<path d="M35.4394 26.1226C35.5803 26.1912 35.7125 26.2761 35.8332 26.3758C35.8961 26.427 35.9534 26.4847 36.0042 26.5478C36.0621 26.6157 36.1042 26.6955 36.1274 26.7816C36.1409 26.8334 36.1418 26.8875 36.1303 26.9397C36.1187 26.992 36.0949 27.0407 36.0607 27.082C35.9958 27.1526 35.9129 27.2047 35.8209 27.2327C35.6629 27.2811 35.4971 27.2995 35.3322 27.2866C35.0216 27.2535 34.7148 27.1924 34.4153 27.1041C34.1172 27.0274 33.8187 26.9544 33.5207 26.871C33.2206 26.7914 32.9282 26.6855 32.6468 26.5546C32.3596 26.4279 32.087 26.2708 31.8336 26.086C31.7044 25.9889 31.5862 25.878 31.4811 25.7554C31.4259 25.6895 31.3789 25.6172 31.3411 25.5401C31.2961 25.451 31.2818 25.3497 31.3005 25.2517C31.3138 25.2025 31.3378 25.1568 31.3708 25.1177C31.4037 25.0787 31.4449 25.0473 31.4913 25.0258C31.5683 24.9894 31.6511 24.9669 31.736 24.9591C31.8931 24.9449 32.0515 24.9528 32.2064 24.9828L32.2053 25.0073C32.055 25.0176 31.9062 25.0427 31.7609 25.0822C31.6948 25.1007 31.6319 25.1289 31.5742 25.166C31.5524 25.1795 31.5336 25.1975 31.5193 25.2187C31.505 25.24 31.4954 25.264 31.4911 25.2893C31.5071 25.4097 31.5676 25.5199 31.6608 25.5984C31.7623 25.7007 31.8729 25.7938 31.9912 25.8763C32.2331 26.0505 32.4867 26.2081 32.7502 26.3479C33.0172 26.486 33.2886 26.6202 33.5664 26.7445C33.8438 26.8702 34.1344 26.9648 34.4329 27.0264C34.7299 27.0803 35.0323 27.099 35.3337 27.0823C35.4751 27.0796 35.6158 27.0607 35.7528 27.026C35.8088 27.0123 35.8603 26.9845 35.9024 26.9453C35.9187 26.9289 35.9307 26.9088 35.9372 26.8867C35.9437 26.8646 35.9446 26.8412 35.9398 26.8187C35.9035 26.6874 35.8351 26.567 35.7406 26.4685C35.6446 26.356 35.5356 26.2501 35.4252 26.1427L35.4394 26.1226Z" fill="#141414"/>
</svg>
