<svg width="67" height="67" viewBox="0 0 67 67" fill="none" xmlns="http://www.w3.org/2000/svg">
<path d="M42.0889 23.1541C42.5754 23.0416 42.7125 22.2967 42.7203 21.9382C43.3517 22.3826 43.8429 22.2422 44.3106 22.6398C44.6848 22.9578 44.2482 24.7368 43.9832 25.5865C43.0664 26.2226 42.3384 25.3214 42.0889 24.7913C41.8862 24.2924 41.6025 23.2665 42.0889 23.1541Z" fill="#FFFAE9"/>
<path d="M27.3981 30.6778L26.7141 31.2402L29.3751 34.0653L30.073 34.3709V33.5502L27.3981 30.6778Z" fill="#FFFAE9"/>
<path d="M62.7264 43.6958C62.7264 43.6958 58.4359 44.1516 53.2664 39.4887C53.2664 39.4887 52.5129 42.6417 52.0087 43.4444C51.636 44.2045 51.0697 44.8527 50.3668 45.3239C47.2966 47.3102 42.8374 44.7687 41.4335 44.0315C40.785 43.692 40.6875 43.6714 38.2865 42.3791C37.6155 42.017 34.0466 39.9669 34.0466 39.9669C33.162 39.5768 31.6475 39.6424 31.6475 39.6424L30.536 41.4769C30.1065 42.1855 29.5276 42.7917 28.8397 43.2531C29.5838 43.1912 30.3223 43.1443 31.0627 43.0974C31.8012 43.0449 32.5397 42.9999 33.2744 42.9324C33.6437 42.9042 34.011 42.8667 34.3765 42.8236C34.742 42.7861 35.1057 42.7317 35.4693 42.6735C35.8309 42.6163 36.1889 42.538 36.5414 42.4391C36.8984 42.3519 37.2326 42.1895 37.5217 41.9627C37.2764 42.2535 36.9609 42.4769 36.6052 42.6116C36.2564 42.7582 35.8959 42.8749 35.5274 42.9605C34.7976 43.1322 34.0556 43.2476 33.3081 43.3056C32.5622 43.3675 31.8162 43.3975 31.0701 43.3882C30.3247 43.3863 29.5799 43.3412 28.8397 43.2531L28.8378 43.2531C28.1736 43.6997 27.4223 44.0002 26.6335 44.1347L18.2214 45.5808C18.2214 45.5808 20.2119 48.1411 18.1558 53.498C18.1558 53.498 22.3262 53.076 24.9353 53.8619C27.5426 54.6459 31.5444 54.6459 35.7804 53.1154C40.0165 51.5848 42.2508 51.9768 45.0754 52.5264C47.9001 53.076 58.1754 58.0615 61.7835 48.8764C61.7835 48.8764 63 45.8941 62.7264 43.6958ZM46.7493 34.7338C46.8739 34.9158 47.0249 35.0783 47.1972 35.2159C47.1335 35.199 46.618 35.0527 46.6405 34.867V34.8557C46.6603 34.8029 46.6991 34.7595 46.7493 34.7338ZM62.5839 35.2646C62.4533 33.1699 62.0552 31.1004 61.3993 29.1068C60.2222 25.5599 59.092 24.2001 59.092 24.2001C59.092 24.2001 58.6309 24.8022 58.0292 24.3745C57.4275 23.9469 55.7425 23.3691 55.7425 23.3691C52.8091 22.5889 51.7426 23.8362 51.7426 23.8362C51.2128 24.5603 50.6414 25.253 50.0313 25.9107C50.2828 25.7318 50.5538 25.5821 50.8391 25.4643C51.2296 25.2974 51.6452 25.1973 52.0687 25.1679C52.2849 25.1554 52.5018 25.1673 52.7154 25.2035C52.9308 25.243 53.1396 25.3124 53.3358 25.4099C53.7191 25.6052 54.0278 25.9207 54.2149 26.3083C53.9397 26.0305 53.6062 25.8176 53.2385 25.6849C52.8709 25.5522 52.4783 25.5031 52.0893 25.5412C51.698 25.5672 51.3104 25.6338 50.9328 25.74C50.5823 25.8356 50.23 25.9501 49.8757 26.0776L49.8738 26.0795C47.8064 28.2496 46.29 28.8761 46.29 28.8761C45.6303 31.6183 45.9883 33.2727 46.4362 34.2011C46.4362 34.1317 46.4419 34.0623 46.4456 33.9929C46.4761 33.6783 46.5287 33.3661 46.603 33.0588C46.7515 32.449 46.9355 31.8484 47.1541 31.2601C47.3734 30.6749 47.6096 30.0953 47.872 29.5288C48.1297 28.959 48.4182 28.4036 48.7361 27.8651C48.3706 29.0637 47.9282 30.2247 47.5065 31.3895C47.2909 31.971 47.081 32.5524 46.8861 33.1376C46.7905 33.4302 46.6968 33.7247 46.6274 34.0229C46.5929 34.156 46.5685 34.2914 46.5543 34.4281C46.6135 34.5336 46.6786 34.6357 46.7493 34.7338C46.9548 34.6296 47.1756 34.5586 47.4034 34.5237C48.9985 34.1974 58.2597 36.073 53.9093 37.0709L53.6694 38.005C59.7124 40.087 63 37.3766 63 37.3766C62.762 37.0634 62.642 36.1481 62.5839 35.2646ZM55.8137 31.5002C55.7893 31.8941 55.7706 32.2898 55.7312 32.6819L55.66 33.2708C55.6375 33.4659 55.6113 33.661 55.5738 33.856C55.5044 34.2424 55.4407 34.6326 55.3526 35.0152C55.2607 35.3997 55.1689 35.7823 55.0602 36.1594C55.0864 35.7655 55.1295 35.3753 55.1708 34.9871C55.2158 34.5969 55.2401 34.2068 55.2832 33.8185C55.3545 33.0401 55.4107 32.2636 55.4388 31.4871C55.4679 30.7127 55.451 29.9373 55.3882 29.165C55.3638 28.9737 55.3526 28.7786 55.317 28.5892L55.272 28.3022C55.2533 28.2084 55.2308 28.1146 55.2101 28.0208C55.138 27.6387 55.0004 27.2719 54.8034 26.9367C54.9431 27.0784 55.0589 27.2418 55.1464 27.4206C55.1951 27.5078 55.2383 27.5981 55.2757 27.6907C55.3176 27.7812 55.3545 27.8738 55.3863 27.9683C55.5176 28.3446 55.6148 28.7319 55.6768 29.1256C55.7954 29.9112 55.8412 30.7061 55.8137 31.5002ZM46.29 28.8761C46.2496 28.9697 46.2146 29.0655 46.1851 29.1631C46.1926 29.0824 46.1982 29.0018 46.2019 28.9193C46.2582 28.893 46.29 28.8761 46.29 28.8761Z" fill="#141414"/>
<path d="M47.227 35.1052L46.5391 38.367L46.1905 40.282L45.78 40.1826C42.2862 39.4455 36.5244 36.9302 36.5244 36.9302L35.1992 35.2177C36.0258 35.4128 36.2789 34.4862 36.2789 34.4862C37.2404 34.7282 37.276 33.7416 37.276 33.7416C38.1214 33.8279 37.9733 32.6218 37.9733 32.6218C38.8749 32.7212 38.5843 31.6652 38.5843 31.6652C37.7156 30.8094 37.2158 29.6475 37.1917 28.4278C37.1393 28.423 37.0866 28.423 37.0342 28.4278C37.0342 28.4278 39.6996 23.8587 42.125 24.7384L44.5523 25.6181C44.2709 26.1873 44.1192 26.8119 44.1081 27.4468C44.3293 29.5007 45.6675 29.1406 46.1324 28.9493C45.9987 29.3215 45.8934 29.7033 45.8175 30.0915C45.7234 30.5541 45.6639 31.0231 45.6394 31.4945C45.6338 31.7309 45.6338 31.9672 45.6451 32.2054C45.6607 32.4444 45.6933 32.6819 45.7425 32.9163C45.7904 33.1546 45.8698 33.3855 45.9787 33.6028C46.0631 33.7718 46.1796 33.9228 46.3217 34.0473C46.339 34.0633 46.3571 34.0784 46.376 34.0923L46.3779 34.0942C46.5541 34.2574 47.227 35.1052 47.227 35.1052ZM40.2687 14.4854C40.2973 14.8498 40.3449 15.2125 40.4114 15.572C40.4753 15.9268 40.5671 16.276 40.6861 16.6162C40.7445 16.7831 40.814 16.9458 40.8941 17.1034C40.9916 17.284 41.049 17.4835 41.0624 17.6883C41.0929 18.083 41.033 18.4794 40.8875 18.8474L40.8832 18.8564L40.8779 18.8659C40.8265 18.9589 40.7903 19.0595 40.7707 19.164C40.7606 19.202 40.7582 19.2416 40.7637 19.2805C40.7691 19.3195 40.7822 19.3569 40.8023 19.3907C40.8586 19.4502 40.933 19.4895 41.0139 19.5023C41.0684 19.5071 41.1203 19.5173 41.1767 19.52L41.3507 19.5192L41.3616 19.5192C41.3953 19.5191 41.4284 19.5283 41.4572 19.5458C41.486 19.5634 41.5094 19.5886 41.5248 19.6186C41.5959 19.7576 41.6801 19.9005 41.7657 20.0349C41.8478 20.169 41.9413 20.2957 42.0453 20.4136C42.0944 20.4688 42.1487 20.5191 42.2074 20.5638C42.2796 20.6183 42.3479 20.6776 42.412 20.7414C42.5428 20.8707 42.6538 21.0186 42.7417 21.1802L42.7326 21.1653C42.8408 21.3199 42.9669 21.4612 43.1081 21.5864C43.2497 21.713 43.4106 21.8163 43.5848 21.8922C43.7607 21.9674 43.9521 21.999 44.1428 21.9844C44.3404 21.9668 44.5327 21.9113 44.7092 21.8209C44.5459 21.9464 44.3574 22.0352 44.1567 22.0809C43.9484 22.1262 43.7321 22.1177 43.528 22.0562C43.3244 21.9935 43.1331 21.8962 42.9624 21.7686C42.789 21.6431 42.634 21.4938 42.5021 21.3252L42.493 21.3101C42.4102 21.1835 42.3102 21.0691 42.1959 20.9701C42.1387 20.9186 42.0785 20.8708 42.0154 20.8268C41.9388 20.7732 41.8674 20.7124 41.8022 20.6454C41.6791 20.5175 41.5675 20.379 41.4685 20.2317C41.3708 20.0875 41.2811 19.9381 41.1997 19.7842L41.3737 19.8835L41.1628 19.8873C41.0913 19.8851 41.0161 19.8735 40.943 19.8657C40.7689 19.8378 40.611 19.7471 40.4991 19.6107C40.4501 19.5362 40.4167 19.4525 40.4008 19.3648C40.385 19.277 40.3871 19.187 40.4069 19.1C40.4357 18.9518 40.4893 18.8095 40.5653 18.6791L40.5557 18.6975C40.6816 18.3817 40.7419 18.0436 40.7327 17.7037C40.7271 17.5411 40.6893 17.3812 40.6214 17.2334C40.5467 17.0587 40.4839 16.8792 40.4333 16.6961C40.3369 16.335 40.2764 15.9652 40.2529 15.5921C40.2259 15.2235 40.2312 14.8531 40.2687 14.4854Z" fill="#141414"/>
<path d="M42.0945 20.6828C42.2081 21.0287 42.2589 21.3921 42.2445 21.756C42.2422 22.1369 42.1453 22.5113 41.9624 22.8454C41.8613 22.9772 41.7717 23.1174 41.6947 23.2645C41.6345 23.4092 41.5988 23.5628 41.5888 23.7191C41.5745 24.0627 41.6128 24.4065 41.7023 24.7386C41.4698 24.447 41.3286 24.0932 41.2963 23.7216C41.2783 23.5243 41.3011 23.3254 41.3632 23.1374C41.4348 22.9644 41.5282 22.8014 41.6412 22.6522C41.7966 22.3626 41.9026 22.0491 41.9548 21.7246C42.0181 21.3886 42.0563 21.0413 42.0945 20.6828ZM33.9611 33.7388C33.8915 33.6297 33.8323 33.5144 33.7842 33.3942C33.7343 33.2727 33.6992 33.1456 33.6798 33.0156C33.6528 32.871 33.679 32.7214 33.7535 32.5946C33.8444 32.4681 33.9814 32.3826 34.1349 32.3565L34.1081 32.3639C34.1674 32.3352 34.2168 32.2894 34.2501 32.2324C34.2602 32.2121 34.2641 32.1893 34.2613 32.1667C34.2594 32.1545 34.2561 32.1426 34.2514 32.1312L34.2276 32.0726C34.1843 31.964 34.1684 31.8465 34.1814 31.7303C34.1944 31.6142 34.2359 31.5031 34.3022 31.4069C34.3704 31.3113 34.4604 31.2335 34.5647 31.1799C34.6551 31.1371 34.7492 31.103 34.846 31.078C34.8957 31.0659 34.9393 31.0362 34.9689 30.9945C34.9743 30.9813 34.9757 30.9668 34.9731 30.9529C34.9696 30.9322 34.9626 30.9122 34.9525 30.8938C34.942 30.8794 34.9347 30.8629 34.9309 30.8455L34.9301 30.8413C34.89 30.66 34.8921 30.4719 34.9362 30.2915C34.9618 30.1941 35.0061 30.1027 35.0666 30.0222C35.131 29.9409 35.2135 29.8757 35.3074 29.8317C35.3879 29.7958 35.4724 29.7696 35.5591 29.7538C35.6214 29.7406 35.6812 29.7177 35.7364 29.6859C35.7812 29.6621 35.8172 29.6246 35.8392 29.5788C35.857 29.5342 35.8599 29.485 35.8473 29.4387L35.8387 29.4075C35.8363 29.3985 35.8358 29.3891 35.8371 29.3799C35.8621 29.2184 35.9124 29.0619 35.9861 28.9161C36.058 28.769 36.1616 28.6395 36.2893 28.5371C36.4168 28.434 36.5709 28.3691 36.7337 28.3501C36.8124 28.3395 36.8919 28.3361 36.9712 28.34C37.0496 28.3447 37.1262 28.3609 37.2035 28.3711C37.2169 28.3728 37.2292 28.3796 37.2378 28.3901C37.2464 28.4005 37.2508 28.4138 37.25 28.4274L37.2497 28.4331C37.2358 28.7304 37.2634 29.0281 37.3317 29.3177C37.3962 29.6085 37.4952 29.8905 37.6268 30.1578C37.754 30.4245 37.9108 30.676 38.0943 30.9076C38.275 31.1385 38.475 31.3537 38.6922 31.5507C38.7113 31.5687 38.7257 31.5912 38.7341 31.6161C38.7803 31.752 38.8093 31.8931 38.8203 32.0362C38.8355 32.1956 38.8077 32.3562 38.7398 32.5011C38.7163 32.5405 38.6906 32.5785 38.6627 32.6149C38.6291 32.6475 38.594 32.6799 38.5574 32.7091C38.5178 32.7312 38.4768 32.7522 38.4354 32.7715C38.3951 32.7856 38.3538 32.7966 38.3118 32.8044C38.2337 32.8184 38.1542 32.8236 38.0749 32.8201C38.002 32.8123 37.9303 32.8013 37.8579 32.7911L38.082 32.5751C38.1075 32.7215 38.1189 32.87 38.1161 33.0185C38.1153 33.176 38.0876 33.3322 38.0342 33.4804C37.9712 33.6581 37.8404 33.8035 37.6706 33.8851C37.5051 33.95 37.324 33.9633 37.1508 33.9235L37.3925 33.7301C37.3853 33.8769 37.3544 34.0216 37.3012 34.1586C37.2463 34.3082 37.1519 34.4401 37.028 34.5403C36.8963 34.6427 36.7326 34.695 36.566 34.6881C36.4911 34.686 36.4167 34.6768 36.3436 34.6607C36.2752 34.6417 36.2093 34.6189 36.1427 34.5975L36.3757 34.4537C36.35 34.61 36.301 34.7616 36.2302 34.9033C36.1576 35.0588 36.0405 35.1892 35.8938 35.278C35.8163 35.3206 35.731 35.3471 35.643 35.3559C35.555 35.3647 35.4662 35.3555 35.3818 35.3291C35.306 35.3056 35.2323 35.2762 35.1612 35.241L34.9699 35.1209C34.9476 35.1068 34.931 35.0854 34.9228 35.0604C34.8788 34.9358 34.8224 34.8161 34.7544 34.7028C34.6861 34.5847 34.6068 34.4724 34.526 34.3603C34.4429 34.2489 34.3541 34.142 34.2599 34.0399C34.1665 33.9385 34.0644 33.8375 33.9611 33.7388ZM33.9899 33.7147C34.1073 33.7928 34.2203 33.8774 34.3282 33.9683C34.438 34.0605 34.5429 34.1583 34.6426 34.2614C34.7428 34.366 34.8353 34.4777 34.9195 34.5956C35.0084 34.7166 35.0844 34.8466 35.1461 34.9835L35.0991 34.9231L35.2717 35.0103C35.3282 35.0313 35.3861 35.0483 35.445 35.061C35.4948 35.0744 35.5467 35.0774 35.5976 35.07C35.6485 35.0625 35.6974 35.0448 35.7413 35.0179C35.8296 34.9537 35.8975 34.8653 35.9365 34.7633C35.984 34.6515 36.0151 34.5334 36.0288 34.4128C36.0315 34.3883 36.0393 34.3647 36.0519 34.3436C36.0644 34.3224 36.0813 34.3041 36.1014 34.29C36.1215 34.2759 36.1445 34.2663 36.1686 34.2618C36.1928 34.2572 36.2176 34.2579 36.2415 34.2638L36.2619 34.269L36.4174 34.3082C36.4656 34.3155 36.5144 34.3186 36.5632 34.3173C36.6461 34.3195 36.727 34.2919 36.7912 34.2395C36.8578 34.1802 36.9072 34.1041 36.9345 34.0192C36.9678 33.9239 36.9869 33.8242 36.9909 33.7234C36.9917 33.6968 36.9977 33.6706 37.0086 33.6463C37.0194 33.6221 37.035 33.6002 37.0543 33.5819C37.0736 33.5637 37.0964 33.5494 37.1212 33.5399C37.146 33.5305 37.1725 33.526 37.199 33.5268L37.2173 33.5281L37.2327 33.53C37.3236 33.5522 37.4188 33.5485 37.5077 33.5194C37.5446 33.5003 37.5773 33.4742 37.604 33.4424C37.6308 33.4106 37.651 33.3739 37.6634 33.3343C37.7026 33.2285 37.7247 33.1172 37.7291 33.0045C37.735 32.8831 37.7298 32.7615 37.7135 32.6412C37.7094 32.6113 37.7124 32.5809 37.7222 32.5524C37.7321 32.5238 37.7484 32.498 37.77 32.477C37.7916 32.4559 37.8178 32.4402 37.8465 32.4312C37.8752 32.4221 37.9057 32.4199 37.9355 32.4247L37.9377 32.4251L38.101 32.4525C38.1496 32.4558 38.1984 32.4543 38.2467 32.448C38.2846 32.4469 38.3215 32.4361 38.3539 32.4164C38.3862 32.3968 38.413 32.369 38.4314 32.3359C38.5006 32.1353 38.5016 31.9174 38.4342 31.7161L38.4761 31.7815C38.2544 31.5611 38.0561 31.3184 37.8844 31.0572C37.7138 30.7975 37.571 30.5206 37.4582 30.2311C37.3458 29.9439 37.2617 29.6465 37.2072 29.343C37.1486 29.04 37.124 28.7314 37.1338 28.423L37.1799 28.485C37.0399 28.4561 36.8958 28.4535 36.7549 28.4773C36.6181 28.4991 36.4912 28.5616 36.3905 28.6567C36.2916 28.7526 36.215 28.8692 36.1663 28.9981C36.1159 29.1265 36.0852 29.2618 36.0753 29.3994L36.0652 29.3406C36.1107 29.4422 36.1177 29.5569 36.0849 29.6633C36.0509 29.766 35.9848 29.8549 35.8962 29.917C35.7555 29.9997 35.6057 30.0659 35.4498 30.1143C35.401 30.1415 35.3587 30.1789 35.3257 30.224C35.2927 30.2692 35.2699 30.3209 35.2589 30.3757C35.2317 30.5036 35.2309 30.6357 35.2566 30.7639L35.2342 30.7115C35.2717 30.773 35.2952 30.842 35.3032 30.9137C35.3124 30.9921 35.2985 31.0716 35.2632 31.1422C35.1949 31.2603 35.083 31.3469 34.9516 31.3834C34.8683 31.4028 34.7868 31.4289 34.7078 31.4614C34.6446 31.4892 34.589 31.5318 34.5458 31.5856C34.5047 31.6416 34.4775 31.7066 34.4668 31.7753C34.456 31.844 34.4618 31.9142 34.4838 31.9802L34.5067 32.0526C34.5163 32.0853 34.5217 32.1191 34.523 32.1531C34.5247 32.2238 34.5065 32.2935 34.4704 32.3542C34.4054 32.4563 34.3091 32.5346 34.196 32.5775C34.1882 32.5809 34.18 32.5833 34.1716 32.5846L34.1691 32.585C34.0714 32.5908 33.9796 32.6338 33.9124 32.7051C33.8514 32.7932 33.8217 32.8992 33.828 33.0062C33.8302 33.1269 33.8468 33.2469 33.8776 33.3637C33.9083 33.4827 33.9458 33.5999 33.9899 33.7147Z" fill="#141414"/>
<path d="M35.5836 31.0182C35.6999 31.2658 35.8 31.5207 35.8831 31.7813C35.9266 31.9111 35.9621 32.0433 35.996 32.1774C36.0137 32.2413 36.0231 32.3227 36.0418 32.3655C36.0629 32.4219 36.0912 32.4755 36.1258 32.5248C36.2775 32.7417 36.4469 32.9456 36.6323 33.1345L37.1917 33.7265C36.958 33.5833 36.7369 33.4206 36.5308 33.2399C36.3166 33.061 36.1273 32.8543 35.9677 32.6254C35.926 32.5624 35.8925 32.4943 35.868 32.4228C35.8484 32.3544 35.8333 32.2847 35.8229 32.2143C35.7999 32.0828 35.7688 31.9516 35.7424 31.8189C35.6844 31.5548 35.6306 31.2881 35.5836 31.0182ZM34.7354 32.1775C34.8416 32.3862 34.925 32.6057 34.9843 32.8322C34.9999 32.8887 35.0144 32.9455 35.0263 33.003C35.0394 33.0506 35.059 33.0962 35.0844 33.1385C35.1387 33.2331 35.2022 33.3221 35.2739 33.4043C35.4155 33.578 35.5741 33.7426 35.7305 33.9101C35.8882 34.0767 36.0479 34.243 36.2023 34.419C36.0001 34.3022 35.8088 34.1677 35.6305 34.017C35.4487 33.8679 35.2809 33.7026 35.1291 33.5231C35.0507 33.4296 34.9829 33.3277 34.9269 33.2193C34.8976 33.1598 34.8768 33.0966 34.8649 33.0313L34.8416 32.8619L34.7354 32.1775ZM36.5249 30.2725C36.7503 30.6756 36.9445 31.0841 37.1591 31.4809C37.263 31.681 37.3741 31.8762 37.4923 32.0666C37.6082 32.2606 37.7441 32.442 37.8977 32.6079C37.6925 32.4949 37.5137 32.3394 37.3733 32.1518C37.2283 31.9703 37.1012 31.7752 36.9938 31.5692C36.8858 31.3653 36.7917 31.1543 36.7124 30.9376C36.6304 30.7218 36.5677 30.4993 36.5249 30.2725Z" fill="#141414"/>
<path d="M52.455 17.4556L50.9072 15.1159L49.9504 13.1332L49.0379 11.9239L48.1969 11.3192C48.1969 11.3192 47.602 11.0306 47.1964 10.9178C46.9389 10.8461 46.7924 10.8005 46.5258 10.7807C46.2232 10.7583 46.0518 10.798 45.7507 10.8356C45.5501 10.8606 45.4306 10.8516 45.2395 10.9178C45.0671 10.9775 44.8272 11.1379 44.8272 11.1379C44.8272 11.1379 44.1081 11.5475 43.6674 11.8415C43.1073 12.2151 42.7955 12.433 42.2876 12.875C42.0024 13.1231 41.8501 13.2714 41.584 13.54C41.4397 13.6856 41.3478 13.7581 41.2212 13.9194C41.0589 14.1261 40.8749 14.4966 40.8749 14.4966L40.8364 14.722V14.9585L40.8749 15.0961L40.9409 15.2335C40.9409 15.2335 41.1819 15.3579 41.3366 15.4369C41.7984 15.6725 42.0524 15.8152 42.524 16.0305C43.0723 16.2809 43.3724 16.4519 43.9532 16.6132C44.174 16.6745 44.5249 16.7451 44.5249 16.7451L44.6623 16.6462C44.6623 16.6462 44.6968 16.4135 44.7888 16.3054C44.902 16.1722 45.1955 16.1185 45.1955 16.1185C45.1955 16.1185 45.3649 16.0618 45.4759 16.069C45.6108 16.0777 45.6858 16.1179 45.8002 16.1899C45.9559 16.288 46.0238 16.3811 46.1135 16.5418C46.2465 16.78 46.2122 16.9575 46.24 17.2289C46.2851 17.6711 46.2671 18.195 46.207 18.3668L46.0531 18.8065C46.0531 18.8065 45.9267 18.8605 45.8607 18.9165C45.703 19.05 45.72 19.2071 45.6463 19.4002C45.479 19.8385 45.4152 20.1003 45.3549 20.5655C45.2882 21.0808 45.2834 21.3813 45.3549 21.8958C45.3875 22.1302 45.4388 22.2558 45.4759 22.4895C45.6091 23.3291 45.5516 23.8196 45.4759 24.6663C45.4273 25.2088 45.4242 25.523 45.2725 26.046C45.1803 26.3638 44.9702 26.8376 44.9702 26.8376L44.7448 27.3598L44.7063 27.871L44.8712 28.6131L45.2175 29.2453L45.3989 29.4707L45.6903 29.6191L46.0476 29.6466H46.5258L47.103 29.4707L48.2354 28.778L49.3128 27.8765L50.4397 26.7387L51.4291 25.6503L52.4021 24.4409L52.6385 24.2595L52.8308 24.1331L52.9903 24.0177L53.3146 23.9187L53.6554 23.8033L53.9522 23.7703L54.447 23.7071H54.886L55.5767 23.8222L56.3826 23.9374L57.1555 24.3321L58.208 24.8419L58.9645 25.1543L59.4415 25.0721L59.8197 24.8419L59.9677 24.4143V23.9374L59.8197 23.4111L59.2605 22.6381L57.9613 21.5856L56.8924 20.9278L55.7247 20.2535L54.6064 19.4806L53.3908 18.3912L52.455 17.4556Z" fill="#FFFAE9"/>
<mask id="path-8-inside-1_641_130003" fill="white">
<path d="M40.3341 14.5591C40.8617 14.8302 41.4066 15.0993 41.9514 15.347C42.4871 15.6063 43.0477 15.8105 43.6246 15.9566C43.6922 15.9697 43.7609 15.9765 43.8297 15.9768C43.8921 15.975 43.9499 15.9569 43.9548 15.9403C43.9558 15.9301 43.9571 15.9433 43.9656 15.9175L43.9873 15.858C44.0016 15.8177 44.0198 15.779 44.0417 15.7423C44.0845 15.6667 44.1396 15.5987 44.2047 15.5412C44.3368 15.4321 44.4961 15.3613 44.6655 15.3366C44.7482 15.323 44.8321 15.3184 44.9158 15.3229C45.0077 15.3352 45.0962 15.3661 45.1759 15.4136C45.3157 15.5068 45.4341 15.6288 45.5231 15.7714C45.6122 15.914 45.6698 16.0739 45.6923 16.2405C45.7439 16.5516 45.7498 16.8685 45.7097 17.1812L45.7107 17.1571C45.7212 17.3622 45.7136 17.5679 45.6879 17.7717C45.6757 17.8822 45.6487 17.9905 45.6078 18.0938C45.5965 18.1244 45.5815 18.1535 45.5629 18.1804C45.5533 18.1951 45.5451 18.2095 45.5337 18.2241C45.5193 18.2393 45.5041 18.2541 45.4885 18.2683C45.4533 18.2998 45.411 18.3223 45.3653 18.3339C45.3188 18.3428 45.2712 18.3432 45.2246 18.335L45.3879 18.2601C44.9585 19.1719 44.7861 20.1838 44.8892 21.1865C44.9183 21.4269 44.9724 21.696 45.0003 21.9535C45.0318 22.2139 45.0542 22.4761 45.0615 22.7394C45.0687 23.0031 45.0627 23.267 45.0434 23.5301C45.0236 23.7954 44.9869 24.0525 44.9522 24.3095C44.8874 24.8301 44.7859 25.3455 44.6483 25.8517C44.6102 25.9852 44.5596 26.1148 44.4972 26.2388L44.3959 26.4076C44.3672 26.458 44.3419 26.5104 44.3201 26.5642C44.2333 26.7847 44.199 27.0225 44.2201 27.2585C44.282 27.7335 44.4299 28.2506 44.7564 28.5928C44.9179 28.765 45.1334 28.8766 45.3671 28.9091C45.6092 28.9384 45.8548 28.9153 46.0873 28.8416C46.5691 28.6827 47.0227 28.4482 47.4311 28.1469C47.8481 27.8477 48.2453 27.5219 48.6202 27.1714C49.3762 26.4717 50.087 25.7247 50.7485 24.9348C51.0856 24.5414 51.4035 24.1467 51.736 23.741C51.9197 23.5458 52.1398 23.3885 52.384 23.2781C52.5038 23.2218 52.6265 23.1721 52.7517 23.1293C52.8796 23.0978 53.0058 23.0546 53.1358 23.0331C53.2661 23.0154 53.396 22.9883 53.5271 22.9786L53.9214 22.9614C54.1836 22.9662 54.4451 22.9889 54.7043 23.0291C54.8332 23.0509 54.9639 23.066 55.0916 23.0935L55.472 23.1879C55.7251 23.2516 55.9748 23.3283 56.2201 23.4177C56.4712 23.4923 56.705 23.6078 56.9473 23.7039C57.1909 23.7982 57.4221 23.9172 57.6549 24.0333L58.0046 24.207L58.0921 24.2504C58.1185 24.2624 58.1413 24.2748 58.1668 24.2852C58.217 24.3059 58.2694 24.321 58.323 24.3302C58.4282 24.3502 58.5366 24.3457 58.6399 24.3172C58.7431 24.2886 58.8384 24.2368 58.9185 24.1656C58.9968 24.0882 59.0596 23.9967 59.1037 23.8958C59.1293 23.8458 59.1491 23.793 59.1625 23.7384L59.185 23.6577L59.1942 23.5743C59.2111 23.3444 59.168 23.114 59.0691 22.9058C58.8349 22.4706 58.5198 22.0842 58.1407 21.7674C57.3597 21.1122 56.5088 20.5452 55.6035 20.0768C54.6836 19.5749 53.8252 18.9678 53.0453 18.2677C52.6561 17.9173 52.2885 17.5434 51.9446 17.1483C51.5982 16.7553 51.2764 16.3414 50.9809 15.9089C50.6837 15.4776 50.4124 15.0291 50.1683 14.5657C50.0491 14.3325 49.9291 14.0998 49.8244 13.8596C49.7702 13.7407 49.715 13.6212 49.6649 13.5024L49.5006 13.1622L49.3383 12.8208L49.1419 12.5C49.074 12.3948 49.016 12.282 48.9401 12.1828L48.7091 11.8877L48.5938 11.7397L48.4624 11.6071L48.1992 11.3417L47.9073 11.1099C47.8115 11.0307 47.7087 10.9605 47.6002 10.8999C46.7489 10.3668 45.7305 10.1682 44.7415 10.3424L44.7708 10.331C44.2904 10.5849 43.8152 10.86 43.3501 11.1462C42.8852 11.4338 42.4292 11.7359 41.9909 12.0613C41.547 12.3777 41.1348 12.7364 40.76 13.1323C40.5751 13.3297 40.4221 13.5548 40.3066 13.7994C40.2471 13.9182 40.2185 14.05 40.2233 14.1828C40.2281 14.3155 40.2662 14.445 40.3341 14.5591ZM40.309 14.587C40.2293 14.4684 40.1813 14.3314 40.1694 14.189C40.1575 14.0466 40.1823 13.9035 40.2412 13.7733C40.3502 13.5156 40.4989 13.2765 40.6818 13.0648C41.0462 12.6474 41.4502 12.2664 41.888 11.9269C42.3222 11.5853 42.7741 11.268 43.2349 10.965C43.6969 10.6629 44.1648 10.3743 44.648 10.1017L44.6493 10.1009C44.658 10.096 44.6675 10.0924 44.6773 10.0903C45.203 9.97893 45.7452 9.97051 46.2741 10.0654C46.8026 10.1561 47.3091 10.3463 47.7667 10.6259C47.8844 10.6895 47.9964 10.7633 48.1013 10.8464L48.4194 11.091L48.7063 11.37L48.8493 11.5103L48.975 11.6652L49.2262 11.9757C49.3086 12.0802 49.372 12.1971 49.4457 12.3073L49.6588 12.6435L49.8355 12.9982L50.0102 13.3541C50.0609 13.4729 50.1145 13.5875 50.1677 13.7032C50.2701 13.9362 50.3877 14.1617 50.5042 14.3878C50.743 14.8371 51.0081 15.2718 51.2983 15.6896C51.5867 16.1086 51.9007 16.5094 52.2385 16.8897C52.5737 17.2722 52.9319 17.6339 53.3111 17.9727C54.0661 18.656 54.8954 19.2522 55.7835 19.7502C56.7081 20.2402 57.5758 20.831 58.3705 21.512C58.7819 21.8627 59.1194 22.2917 59.3635 22.7741C59.482 23.0363 59.5297 23.3249 59.5017 23.6113L59.4867 23.72C59.478 23.7554 59.4666 23.7903 59.4564 23.8254C59.4372 23.8957 59.4104 23.9638 59.3766 24.0283C59.314 24.1631 59.2261 24.2846 59.1175 24.3861C59.003 24.4858 58.8671 24.5578 58.7203 24.5966C58.5735 24.6354 58.4198 24.6399 58.271 24.6098C58.1976 24.5958 58.1259 24.5738 58.0573 24.5441C58.0233 24.5298 57.9894 24.5111 57.9578 24.4951L57.873 24.4503L57.5338 24.2712C57.3078 24.1513 57.083 24.0282 56.8472 23.9303C56.6125 23.8305 56.3847 23.7104 56.142 23.632C55.9048 23.5387 55.663 23.4577 55.4174 23.3893L55.0489 23.2888C54.9253 23.2593 54.7993 23.2422 54.6746 23.2182C54.4249 23.1737 54.1724 23.1463 53.919 23.1359L53.5398 23.1442C53.4137 23.1507 53.2896 23.1742 53.1641 23.1882C52.6642 23.2544 52.1988 23.4795 51.8363 23.8303C51.5116 24.2201 51.1785 24.6268 50.8408 25.0144C50.1689 25.8012 49.4579 26.5537 48.7106 27.2693C48.3351 27.6278 47.9368 27.9618 47.5183 28.269C47.103 28.5927 46.6387 28.848 46.143 29.0254C45.8845 29.1144 45.6098 29.1467 45.3377 29.1201C45.055 29.0875 44.7918 28.9598 44.591 28.758C44.3983 28.5607 44.2491 28.3252 44.1529 28.0667C44.053 27.8154 43.9839 27.5529 43.9472 27.285C43.9152 27.0053 43.9489 26.722 44.0456 26.4576C44.0705 26.3911 44.0998 26.3263 44.1333 26.2637L44.227 26.0982C44.277 25.9897 44.3184 25.8775 44.3509 25.7626C44.4794 25.2709 44.5733 24.7708 44.6318 24.266C44.7767 23.2557 44.7554 22.2284 44.5686 21.225C44.5111 20.695 44.5342 20.1594 44.6369 19.6363C44.7358 19.1141 44.9012 18.6068 45.1291 18.1268L45.2925 18.0518C45.3014 18.0452 45.2918 18.0584 45.3013 18.0472C45.3037 18.0445 45.3066 18.0424 45.3098 18.041L45.3207 18.0231C45.3306 18.0099 45.3383 17.9952 45.3435 17.9794C45.3749 17.8999 45.3958 17.8166 45.4057 17.7316C45.43 17.5454 45.4395 17.3577 45.4339 17.1701L45.4338 17.1644C45.4338 17.1582 45.4342 17.152 45.4349 17.1458C45.4788 16.8615 45.4813 16.5723 45.4423 16.2873C45.4295 16.1542 45.3886 16.0252 45.3224 15.9091C45.2562 15.7929 45.1661 15.692 45.0582 15.6132C45.0089 15.5825 44.9547 15.5605 44.898 15.5482C44.8314 15.5432 44.7645 15.5453 44.6983 15.5544C44.5678 15.5696 44.4438 15.6201 44.3398 15.7004C44.2911 15.7416 44.2495 15.7906 44.2168 15.8453C44.1992 15.8727 44.1846 15.9019 44.1732 15.9324L44.1548 15.9784C44.1437 16.0054 44.1302 16.0314 44.1147 16.0561C44.0793 16.0953 44.0355 16.1258 43.9866 16.1453C43.9376 16.1648 43.8848 16.1728 43.8323 16.1686C43.7506 16.1666 43.6693 16.1568 43.5896 16.1393C43.2913 16.0672 43.0006 15.9668 42.7213 15.8395C42.443 15.7194 42.1701 15.5898 41.9002 15.4547C41.3589 15.1835 40.8349 14.8981 40.309 14.587V14.587Z"/>
</mask>
<path d="M40.3341 14.5591C40.8617 14.8302 41.4066 15.0993 41.9514 15.347C42.4871 15.6063 43.0477 15.8105 43.6246 15.9566C43.6922 15.9697 43.7609 15.9765 43.8297 15.9768C43.8921 15.975 43.9499 15.9569 43.9548 15.9403C43.9558 15.9301 43.9571 15.9433 43.9656 15.9175L43.9873 15.858C44.0016 15.8177 44.0198 15.779 44.0417 15.7423C44.0845 15.6667 44.1396 15.5987 44.2047 15.5412C44.3368 15.4321 44.4961 15.3613 44.6655 15.3366C44.7482 15.323 44.8321 15.3184 44.9158 15.3229C45.0077 15.3352 45.0962 15.3661 45.1759 15.4136C45.3157 15.5068 45.4341 15.6288 45.5231 15.7714C45.6122 15.914 45.6698 16.0739 45.6923 16.2405C45.7439 16.5516 45.7498 16.8685 45.7097 17.1812L45.7107 17.1571C45.7212 17.3622 45.7136 17.5679 45.6879 17.7717C45.6757 17.8822 45.6487 17.9905 45.6078 18.0938C45.5965 18.1244 45.5815 18.1535 45.5629 18.1804C45.5533 18.1951 45.5451 18.2095 45.5337 18.2241C45.5193 18.2393 45.5041 18.2541 45.4885 18.2683C45.4533 18.2998 45.411 18.3223 45.3653 18.3339C45.3188 18.3428 45.2712 18.3432 45.2246 18.335L45.3879 18.2601C44.9585 19.1719 44.7861 20.1838 44.8892 21.1865C44.9183 21.4269 44.9724 21.696 45.0003 21.9535C45.0318 22.2139 45.0542 22.4761 45.0615 22.7394C45.0687 23.0031 45.0627 23.267 45.0434 23.5301C45.0236 23.7954 44.9869 24.0525 44.9522 24.3095C44.8874 24.8301 44.7859 25.3455 44.6483 25.8517C44.6102 25.9852 44.5596 26.1148 44.4972 26.2388L44.3959 26.4076C44.3672 26.458 44.3419 26.5104 44.3201 26.5642C44.2333 26.7847 44.199 27.0225 44.2201 27.2585C44.282 27.7335 44.4299 28.2506 44.7564 28.5928C44.9179 28.765 45.1334 28.8766 45.3671 28.9091C45.6092 28.9384 45.8548 28.9153 46.0873 28.8416C46.5691 28.6827 47.0227 28.4482 47.4311 28.1469C47.8481 27.8477 48.2453 27.5219 48.6202 27.1714C49.3762 26.4717 50.087 25.7247 50.7485 24.9348C51.0856 24.5414 51.4035 24.1467 51.736 23.741C51.9197 23.5458 52.1398 23.3885 52.384 23.2781C52.5038 23.2218 52.6265 23.1721 52.7517 23.1293C52.8796 23.0978 53.0058 23.0546 53.1358 23.0331C53.2661 23.0154 53.396 22.9883 53.5271 22.9786L53.9214 22.9614C54.1836 22.9662 54.4451 22.9889 54.7043 23.0291C54.8332 23.0509 54.9639 23.066 55.0916 23.0935L55.472 23.1879C55.7251 23.2516 55.9748 23.3283 56.2201 23.4177C56.4712 23.4923 56.705 23.6078 56.9473 23.7039C57.1909 23.7982 57.4221 23.9172 57.6549 24.0333L58.0046 24.207L58.0921 24.2504C58.1185 24.2624 58.1413 24.2748 58.1668 24.2852C58.217 24.3059 58.2694 24.321 58.323 24.3302C58.4282 24.3502 58.5366 24.3457 58.6399 24.3172C58.7431 24.2886 58.8384 24.2368 58.9185 24.1656C58.9968 24.0882 59.0596 23.9967 59.1037 23.8958C59.1293 23.8458 59.1491 23.793 59.1625 23.7384L59.185 23.6577L59.1942 23.5743C59.2111 23.3444 59.168 23.114 59.0691 22.9058C58.8349 22.4706 58.5198 22.0842 58.1407 21.7674C57.3597 21.1122 56.5088 20.5452 55.6035 20.0768C54.6836 19.5749 53.8252 18.9678 53.0453 18.2677C52.6561 17.9173 52.2885 17.5434 51.9446 17.1483C51.5982 16.7553 51.2764 16.3414 50.9809 15.9089C50.6837 15.4776 50.4124 15.0291 50.1683 14.5657C50.0491 14.3325 49.9291 14.0998 49.8244 13.8596C49.7702 13.7407 49.715 13.6212 49.6649 13.5024L49.5006 13.1622L49.3383 12.8208L49.1419 12.5C49.074 12.3948 49.016 12.282 48.9401 12.1828L48.7091 11.8877L48.5938 11.7397L48.4624 11.6071L48.1992 11.3417L47.9073 11.1099C47.8115 11.0307 47.7087 10.9605 47.6002 10.8999C46.7489 10.3668 45.7305 10.1682 44.7415 10.3424L44.7708 10.331C44.2904 10.5849 43.8152 10.86 43.3501 11.1462C42.8852 11.4338 42.4292 11.7359 41.9909 12.0613C41.547 12.3777 41.1348 12.7364 40.76 13.1323C40.5751 13.3297 40.4221 13.5548 40.3066 13.7994C40.2471 13.9182 40.2185 14.05 40.2233 14.1828C40.2281 14.3155 40.2662 14.445 40.3341 14.5591ZM40.309 14.587C40.2293 14.4684 40.1813 14.3314 40.1694 14.189C40.1575 14.0466 40.1823 13.9035 40.2412 13.7733C40.3502 13.5156 40.4989 13.2765 40.6818 13.0648C41.0462 12.6474 41.4502 12.2664 41.888 11.9269C42.3222 11.5853 42.7741 11.268 43.2349 10.965C43.6969 10.6629 44.1648 10.3743 44.648 10.1017L44.6493 10.1009C44.658 10.096 44.6675 10.0924 44.6773 10.0903C45.203 9.97893 45.7452 9.97051 46.2741 10.0654C46.8026 10.1561 47.3091 10.3463 47.7667 10.6259C47.8844 10.6895 47.9964 10.7633 48.1013 10.8464L48.4194 11.091L48.7063 11.37L48.8493 11.5103L48.975 11.6652L49.2262 11.9757C49.3086 12.0802 49.372 12.1971 49.4457 12.3073L49.6588 12.6435L49.8355 12.9982L50.0102 13.3541C50.0609 13.4729 50.1145 13.5875 50.1677 13.7032C50.2701 13.9362 50.3877 14.1617 50.5042 14.3878C50.743 14.8371 51.0081 15.2718 51.2983 15.6896C51.5867 16.1086 51.9007 16.5094 52.2385 16.8897C52.5737 17.2722 52.9319 17.6339 53.3111 17.9727C54.0661 18.656 54.8954 19.2522 55.7835 19.7502C56.7081 20.2402 57.5758 20.831 58.3705 21.512C58.7819 21.8627 59.1194 22.2917 59.3635 22.7741C59.482 23.0363 59.5297 23.3249 59.5017 23.6113L59.4867 23.72C59.478 23.7554 59.4666 23.7903 59.4564 23.8254C59.4372 23.8957 59.4104 23.9638 59.3766 24.0283C59.314 24.1631 59.2261 24.2846 59.1175 24.3861C59.003 24.4858 58.8671 24.5578 58.7203 24.5966C58.5735 24.6354 58.4198 24.6399 58.271 24.6098C58.1976 24.5958 58.1259 24.5738 58.0573 24.5441C58.0233 24.5298 57.9894 24.5111 57.9578 24.4951L57.873 24.4503L57.5338 24.2712C57.3078 24.1513 57.083 24.0282 56.8472 23.9303C56.6125 23.8305 56.3847 23.7104 56.142 23.632C55.9048 23.5387 55.663 23.4577 55.4174 23.3893L55.0489 23.2888C54.9253 23.2593 54.7993 23.2422 54.6746 23.2182C54.4249 23.1737 54.1724 23.1463 53.919 23.1359L53.5398 23.1442C53.4137 23.1507 53.2896 23.1742 53.1641 23.1882C52.6642 23.2544 52.1988 23.4795 51.8363 23.8303C51.5116 24.2201 51.1785 24.6268 50.8408 25.0144C50.1689 25.8012 49.4579 26.5537 48.7106 27.2693C48.3351 27.6278 47.9368 27.9618 47.5183 28.269C47.103 28.5927 46.6387 28.848 46.143 29.0254C45.8845 29.1144 45.6098 29.1467 45.3377 29.1201C45.055 29.0875 44.7918 28.9598 44.591 28.758C44.3983 28.5607 44.2491 28.3252 44.1529 28.0667C44.053 27.8154 43.9839 27.5529 43.9472 27.285C43.9152 27.0053 43.9489 26.722 44.0456 26.4576C44.0705 26.3911 44.0998 26.3263 44.1333 26.2637L44.227 26.0982C44.277 25.9897 44.3184 25.8775 44.3509 25.7626C44.4794 25.2709 44.5733 24.7708 44.6318 24.266C44.7767 23.2557 44.7554 22.2284 44.5686 21.225C44.5111 20.695 44.5342 20.1594 44.6369 19.6363C44.7358 19.1141 44.9012 18.6068 45.1291 18.1268L45.2925 18.0518C45.3014 18.0452 45.2918 18.0584 45.3013 18.0472C45.3037 18.0445 45.3066 18.0424 45.3098 18.041L45.3207 18.0231C45.3306 18.0099 45.3383 17.9952 45.3435 17.9794C45.3749 17.8999 45.3958 17.8166 45.4057 17.7316C45.43 17.5454 45.4395 17.3577 45.4339 17.1701L45.4338 17.1644C45.4338 17.1582 45.4342 17.152 45.4349 17.1458C45.4788 16.8615 45.4813 16.5723 45.4423 16.2873C45.4295 16.1542 45.3886 16.0252 45.3224 15.9091C45.2562 15.7929 45.1661 15.692 45.0582 15.6132C45.0089 15.5825 44.9547 15.5605 44.898 15.5482C44.8314 15.5432 44.7645 15.5453 44.6983 15.5544C44.5678 15.5696 44.4438 15.6201 44.3398 15.7004C44.2911 15.7416 44.2495 15.7906 44.2168 15.8453C44.1992 15.8727 44.1846 15.9019 44.1732 15.9324L44.1548 15.9784C44.1437 16.0054 44.1302 16.0314 44.1147 16.0561C44.0793 16.0953 44.0355 16.1258 43.9866 16.1453C43.9376 16.1648 43.8848 16.1728 43.8323 16.1686C43.7506 16.1666 43.6693 16.1568 43.5896 16.1393C43.2913 16.0672 43.0006 15.9668 42.7213 15.8395C42.443 15.7194 42.1701 15.5898 41.9002 15.4547C41.3589 15.1835 40.8349 14.8981 40.309 14.587V14.587Z" stroke="#8FE9CE" stroke-width="2" mask="url(#path-8-inside-1_641_130003)"/>
<path d="M54.2324 35.8112C54.0957 36.496 53.9378 37.1759 53.7739 37.8544C53.6098 38.5329 53.4404 39.2103 53.2561 39.8837C53.073 40.5573 52.8837 41.2294 52.6884 41.8998C52.5854 42.2357 52.4998 42.5671 52.3813 42.9065C52.2678 43.2466 52.1164 43.5729 51.93 43.8792C51.5603 44.5024 51.0428 45.025 50.4234 45.4006C49.8044 45.7682 49.1194 46.0109 48.4072 46.1151C47.7029 46.2229 46.9872 46.2346 46.2797 46.1498C46.1033 46.1303 45.9275 46.1057 45.7522 46.0748C45.5736 46.038 45.3969 45.9923 45.2229 45.9378L44.7253 45.7503L44.2402 45.544C41.6898 44.3816 39.2663 43.0008 36.8243 41.6514C36.2155 41.3111 35.6129 40.9599 35.0112 40.6058C34.8614 40.5155 34.7099 40.4298 34.5625 40.3338C34.4196 40.2381 34.2718 40.1498 34.1199 40.069C33.8086 39.9259 33.4776 39.83 33.138 39.7845C32.4481 39.7081 31.7531 39.6894 31.0601 39.7286C30.972 39.7288 30.8837 39.7282 30.7934 39.7222C30.6967 39.72 30.6009 39.7024 30.5097 39.6701C30.48 39.6584 30.4526 39.6414 30.429 39.62L30.3792 39.5736L30.2843 39.484L30.0946 39.3049L29.3363 38.5889L29.3299 38.5823C29.2725 38.5175 29.2207 38.448 29.175 38.3745C29.1287 38.2984 29.0918 38.217 29.0651 38.132C29.0387 38.0441 29.026 37.9527 29.0276 37.861C29.0285 37.7632 29.0503 37.6667 29.0915 37.578L29.1083 37.7096C29.0251 37.6168 28.9587 37.5102 28.9119 37.3945C28.8664 37.2865 28.8303 37.1747 28.804 37.0605C28.7512 36.8368 28.7193 36.6087 28.7087 36.3791L28.7302 36.4476C28.6236 36.2809 28.5584 36.0911 28.5399 35.8941C28.5299 35.7998 28.5267 35.7049 28.5303 35.6102C28.5336 35.5143 28.5443 35.4189 28.5625 35.3247L28.6964 35.4967C28.408 35.4853 28.1247 35.4167 27.863 35.2949C27.7344 35.2366 27.6099 35.1697 27.4904 35.0944C27.3693 35.0187 27.2539 34.9341 27.1452 34.8414C27.14 34.8369 27.1353 34.832 27.131 34.8267L27.129 34.8242C27.0194 34.6982 26.9378 34.5503 26.8895 34.3904C26.863 34.2935 26.863 34.1912 26.8896 34.0943C26.9197 33.994 26.9792 33.9051 27.0604 33.8392C27.1371 33.7793 27.2269 33.7384 27.3225 33.7198C27.418 33.7012 27.5166 33.7054 27.6102 33.7322L28.0292 33.8345L29.7038 34.2489L29.4935 34.4731C29.4197 34.2419 29.3883 33.9994 29.4007 33.757C29.41 33.6324 29.4332 33.5091 29.4699 33.3896C29.5074 33.2522 29.5813 33.1275 29.6839 33.0287C29.8036 32.9232 29.9604 32.8696 30.1196 32.8797C30.2515 32.8898 30.3806 32.9231 30.5009 32.9782C30.7133 33.0773 30.9142 33.1996 31.0997 33.343C31.2814 33.4783 31.4536 33.623 31.6211 33.7608L31.7443 33.8587C31.7796 33.8839 31.8167 33.9062 31.8555 33.9256C31.9426 33.9671 32.0338 33.9995 32.1276 34.0223C32.5389 34.1126 32.96 34.1509 33.3808 34.1363L33.3893 34.1362C33.4011 34.1361 33.413 34.1373 33.4246 34.1398C33.8703 34.2478 34.2887 34.4476 34.653 34.7265C35.0061 34.9901 35.3355 35.2841 35.6374 35.605C35.9373 35.9217 36.2191 36.2551 36.4813 36.6038C36.5901 36.7531 36.734 36.8733 36.9004 36.9536L37.4804 37.2184C38.26 37.5687 39.0446 37.906 39.8343 38.2304C40.6096 38.5667 41.4133 38.8332 42.236 39.0267L42.2462 39.0287L42.2545 39.0307C43.5595 39.4057 44.863 39.7859 46.1651 40.1712L46.0221 40.2579L46.6508 37.4797L47.2926 34.7043C47.2937 34.6995 47.2966 34.6953 47.3008 34.6927C47.3049 34.69 47.3099 34.6891 47.3147 34.6901C47.3195 34.6912 47.3238 34.694 47.3265 34.6981C47.3292 34.7022 47.3302 34.7072 47.3293 34.712L46.7944 37.51L46.2464 40.3053C46.2406 40.3347 46.2234 40.3607 46.1985 40.3774C46.1736 40.3941 46.1431 40.4003 46.1137 40.3945L46.1069 40.393L46.1033 40.392C44.7904 40.0453 43.4792 39.6928 42.1695 39.3345L42.188 39.3385C41.7573 39.2592 41.3332 39.1471 40.9194 39.0033C40.5094 38.8661 40.1051 38.717 39.7032 38.5627C38.8997 38.2536 38.1092 37.9161 37.325 37.5654L36.7349 37.2984C36.5132 37.1921 36.3208 37.0332 36.1744 36.8356C35.9201 36.4999 35.6469 36.1788 35.3563 35.874C35.0696 35.5713 34.7572 35.2941 34.4225 35.0456C34.1038 34.8022 33.7386 34.627 33.3494 34.5308L33.3931 34.5343C32.9341 34.548 32.4754 34.5018 32.0283 34.3969C31.9087 34.3664 31.7926 34.3235 31.6819 34.2687C31.6227 34.2383 31.566 34.2031 31.5125 34.1635C31.4646 34.1269 31.4218 34.091 31.3785 34.0551C31.2077 33.912 31.0442 33.7723 30.8744 33.6434C30.713 33.5159 30.5382 33.4065 30.3531 33.3169C30.2736 33.279 30.1882 33.2549 30.1006 33.2459C30.0696 33.2426 30.0384 33.2456 30.0086 33.2546C29.9789 33.2637 29.9512 33.2786 29.9274 33.2986C29.8202 33.4363 29.7606 33.605 29.7574 33.7794C29.7459 33.9775 29.7699 34.1761 29.8282 34.3657L29.8289 34.368C29.8382 34.3979 29.8393 34.4296 29.8322 34.46C29.8251 34.4904 29.81 34.5184 29.7885 34.541C29.767 34.5636 29.7398 34.5801 29.7098 34.5887C29.6798 34.5973 29.648 34.5977 29.6178 34.5899L27.9473 34.1592L27.53 34.0502C27.4855 34.0348 27.438 34.0303 27.3915 34.037C27.3449 34.0437 27.3006 34.0614 27.2623 34.0887C27.2287 34.1146 27.2041 34.1504 27.1919 34.191C27.1798 34.2316 27.1806 34.275 27.1944 34.3151C27.2302 34.4313 27.2894 34.5389 27.3683 34.6313L27.3522 34.6142C27.4469 34.6968 27.5473 34.7726 27.6528 34.841C27.7594 34.9105 27.8706 34.9727 27.9856 35.027C28.2102 35.1364 28.4541 35.2002 28.7034 35.2149L28.7044 35.2149C28.7422 35.2167 28.7777 35.2333 28.8031 35.2612C28.8286 35.2891 28.8419 35.326 28.8402 35.3638C28.8398 35.3715 28.8388 35.3792 28.8373 35.3868C28.8214 35.4651 28.811 35.5444 28.8061 35.6241C28.801 35.7049 28.8018 35.786 28.8083 35.8667C28.8184 36.0214 28.865 36.1716 28.9441 36.3049L28.9455 36.3071C28.958 36.327 28.965 36.3499 28.9657 36.3735C28.9707 36.5862 28.9953 36.7981 29.039 37.0063C29.0716 37.2052 29.1515 37.3934 29.272 37.5549L29.2728 37.5558C29.2881 37.5735 29.2978 37.5954 29.3007 37.6187C29.3035 37.642 29.2994 37.6656 29.2888 37.6866C29.2633 37.7441 29.2491 37.806 29.2469 37.8689C29.2442 37.9375 29.2521 38.0062 29.2703 38.0725C29.2901 38.141 29.3182 38.2068 29.3538 38.2686C29.3913 38.3321 29.4341 38.3923 29.4819 38.4484L29.4755 38.4419L30.2228 39.1777L30.4096 39.3616L30.5029 39.4536C30.5177 39.4678 30.5357 39.4867 30.5479 39.497C30.5569 39.5046 30.567 39.5106 30.578 39.5147C30.7354 39.5571 30.8983 39.5757 31.0613 39.5699C31.7613 39.5468 32.4621 39.5752 33.1579 39.655C33.5099 39.7051 33.8525 39.8075 34.1743 39.9588C34.3296 40.0427 34.4806 40.1344 34.6266 40.2337C34.7706 40.3291 34.9219 40.4163 35.07 40.5071C35.6678 40.8635 36.2775 41.2012 36.8879 41.5371C38.1074 42.2114 39.3411 42.8589 40.5891 43.4796C41.8349 44.101 43.0871 44.7171 44.3631 45.258L44.8417 45.4572L45.324 45.6345L45.5627 45.6997C45.6426 45.7243 45.7243 45.7431 45.807 45.7556C45.9752 45.7839 46.1449 45.8063 46.3149 45.8237C46.9945 45.8957 47.6802 45.8844 48.357 45.7902C49.0293 45.699 49.6773 45.4771 50.2643 45.1368C50.8463 44.7918 51.3341 44.3085 51.6847 43.7296C52.0525 43.1587 52.2346 42.4932 52.4523 41.8277C52.6631 41.1637 52.8681 40.4978 53.0674 39.83C53.4641 38.4941 53.8491 37.1538 54.1958 35.8031C54.1964 35.8007 54.1974 35.7984 54.1989 35.7965C54.2003 35.7945 54.2022 35.7928 54.2043 35.7915C54.2064 35.7902 54.2087 35.7894 54.2111 35.789C54.2136 35.7886 54.2161 35.7887 54.2185 35.7893C54.2231 35.7905 54.2271 35.7935 54.2297 35.7975C54.2323 35.8016 54.2333 35.8065 54.2324 35.8112Z" fill="#141414"/>
<path d="M40.3341 14.5591C40.8617 14.8302 41.4066 15.0993 41.9514 15.347C42.4871 15.6063 43.0477 15.8105 43.6246 15.9566C43.6922 15.9697 43.7609 15.9765 43.8297 15.9768C43.8921 15.975 43.9499 15.9569 43.9548 15.9403C43.9558 15.9301 43.9571 15.9433 43.9656 15.9175L43.9873 15.858C44.0016 15.8177 44.0198 15.779 44.0417 15.7423C44.0845 15.6667 44.1396 15.5987 44.2047 15.5412C44.3368 15.4321 44.4961 15.3613 44.6655 15.3366C44.7482 15.323 44.8321 15.3184 44.9158 15.3229C45.0077 15.3352 45.0962 15.3661 45.1759 15.4136C45.3157 15.5068 45.4341 15.6288 45.5231 15.7714C45.6122 15.914 45.6698 16.0739 45.6923 16.2405C45.7439 16.5516 45.7498 16.8685 45.7097 17.1812L45.7107 17.1571C45.7212 17.3622 45.7136 17.5679 45.6879 17.7717C45.6757 17.8822 45.6487 17.9905 45.6078 18.0938C45.5965 18.1244 45.5815 18.1535 45.5629 18.1804C45.5533 18.1951 45.5451 18.2095 45.5337 18.2241C45.5193 18.2393 45.5041 18.2541 45.4885 18.2683C45.4533 18.2998 45.411 18.3223 45.3653 18.3339C45.3188 18.3428 45.2712 18.3432 45.2246 18.335L45.3879 18.2601C44.9585 19.1719 44.7861 20.1838 44.8892 21.1865C44.9183 21.4269 44.9724 21.696 45.0003 21.9535C45.0318 22.2139 45.0542 22.4761 45.0615 22.7394C45.0687 23.0031 45.0627 23.267 45.0434 23.5301C45.0236 23.7954 44.9869 24.0525 44.9522 24.3095C44.8874 24.8301 44.7859 25.3455 44.6483 25.8517C44.6102 25.9852 44.5596 26.1148 44.4972 26.2388L44.3959 26.4076C44.3672 26.458 44.3419 26.5104 44.3201 26.5642C44.2333 26.7847 44.199 27.0225 44.2201 27.2585C44.282 27.7335 44.4299 28.2506 44.7564 28.5928C44.9179 28.765 45.1334 28.8766 45.3671 28.9091C45.6092 28.9384 45.8548 28.9153 46.0873 28.8417C46.5691 28.6827 47.0227 28.4482 47.4311 28.1469C47.8481 27.8477 48.2453 27.5219 48.6202 27.1714C49.3762 26.4717 50.087 25.7247 50.7485 24.9348C51.0856 24.5414 51.4035 24.1467 51.736 23.741C51.9197 23.5458 52.1398 23.3885 52.384 23.2781C52.5038 23.2218 52.6265 23.1721 52.7517 23.1293C52.8796 23.0978 53.0058 23.0546 53.1358 23.0331C53.2661 23.0154 53.396 22.9883 53.5271 22.9786L53.9214 22.9614C54.1836 22.9662 54.4451 22.9889 54.7043 23.0291C54.8332 23.0509 54.9639 23.066 55.0916 23.0935L55.472 23.1879C55.7252 23.2516 55.9748 23.3283 56.2201 23.4177C56.4712 23.4923 56.705 23.6078 56.9473 23.7039C57.1909 23.7982 57.4221 23.9172 57.6549 24.0333L58.0046 24.207L58.0921 24.2504C58.1185 24.2624 58.1413 24.2748 58.1668 24.2852C58.217 24.3059 58.2694 24.321 58.323 24.3302C58.4282 24.3502 58.5366 24.3457 58.6399 24.3172C58.7431 24.2886 58.8385 24.2368 58.9185 24.1656C58.9968 24.0882 59.0596 23.9967 59.1037 23.8958C59.1293 23.8458 59.1491 23.793 59.1625 23.7384L59.185 23.6577L59.1942 23.5743C59.2111 23.3444 59.168 23.114 59.0691 22.9058C58.8349 22.4706 58.5198 22.0842 58.1407 21.7674C57.3597 21.1122 56.5088 20.5452 55.6035 20.0768C54.6836 19.5749 53.8252 18.9678 53.0453 18.2677C52.6561 17.9173 52.2885 17.5434 51.9446 17.1483C51.5983 16.7553 51.2764 16.3414 50.9809 15.9089C50.6837 15.4776 50.4124 15.0291 50.1683 14.5657C50.0491 14.3325 49.9291 14.0998 49.8244 13.8596C49.7702 13.7407 49.715 13.6212 49.6649 13.5024L49.5006 13.1622L49.3383 12.8208L49.1419 12.5C49.074 12.3948 49.016 12.282 48.9401 12.1828L48.7091 11.8877L48.5938 11.7397L48.4624 11.6071L48.1992 11.3417L47.9073 11.1099C47.8115 11.0307 47.7087 10.9605 47.6002 10.8999C46.7489 10.3668 45.7305 10.1682 44.7415 10.3424L44.7708 10.331C44.2904 10.5849 43.8152 10.86 43.3501 11.1462C42.8852 11.4338 42.4292 11.7359 41.9909 12.0613C41.547 12.3777 41.1348 12.7364 40.76 13.1323C40.5751 13.3297 40.4221 13.5548 40.3066 13.7994C40.2471 13.9182 40.2185 14.05 40.2233 14.1828C40.2281 14.3155 40.2662 14.445 40.3341 14.5591ZM40.309 14.587C40.2293 14.4684 40.1813 14.3314 40.1694 14.189C40.1575 14.0466 40.1823 13.9035 40.2412 13.7733C40.3502 13.5156 40.4989 13.2765 40.6818 13.0648C41.0462 12.6474 41.4502 12.2664 41.888 11.9269C42.3222 11.5853 42.7741 11.268 43.2349 10.965C43.6969 10.6629 44.1648 10.3743 44.648 10.1017L44.6493 10.1009C44.658 10.096 44.6675 10.0924 44.6773 10.0903C45.203 9.97893 45.7452 9.97051 46.2741 10.0654C46.8026 10.1561 47.3091 10.3463 47.7667 10.6259C47.8844 10.6895 47.9964 10.7633 48.1013 10.8464L48.4194 11.091L48.7063 11.37L48.8493 11.5103L48.975 11.6652L49.2262 11.9757C49.3086 12.0802 49.372 12.1971 49.4457 12.3073L49.6588 12.6435L49.8355 12.9982L50.0102 13.3541C50.0609 13.4729 50.1145 13.5875 50.1677 13.7032C50.2701 13.9362 50.3877 14.1617 50.5042 14.3878C50.743 14.8371 51.0081 15.2718 51.2983 15.6896C51.5867 16.1086 51.9007 16.5094 52.2385 16.8897C52.5737 17.2722 52.9319 17.6339 53.3111 17.9727C54.0661 18.656 54.8954 19.2522 55.7835 19.7502C56.7081 20.2402 57.5758 20.831 58.3705 21.512C58.7819 21.8627 59.1194 22.2917 59.3635 22.7741C59.482 23.0363 59.5297 23.3249 59.5017 23.6113L59.4867 23.72C59.478 23.7554 59.4666 23.7903 59.4564 23.8254C59.4372 23.8957 59.4104 23.9638 59.3766 24.0283C59.314 24.1631 59.2261 24.2846 59.1175 24.3861C59.003 24.4858 58.8671 24.5578 58.7203 24.5966C58.5735 24.6354 58.4198 24.6399 58.271 24.6098C58.1976 24.5958 58.1259 24.5738 58.0573 24.5441C58.0233 24.5298 57.9894 24.5111 57.9578 24.4951L57.873 24.4503L57.5338 24.2712C57.3078 24.1513 57.083 24.0282 56.8472 23.9303C56.6125 23.8305 56.3847 23.7104 56.142 23.632C55.9048 23.5387 55.663 23.4577 55.4174 23.3893L55.0489 23.2888C54.9253 23.2593 54.7993 23.2422 54.6746 23.2182C54.4249 23.1737 54.1724 23.1463 53.919 23.1359L53.5398 23.1442C53.4137 23.1507 53.2896 23.1742 53.1641 23.1882C52.6642 23.2544 52.1988 23.4795 51.8363 23.8303C51.5116 24.2201 51.1785 24.6268 50.8408 25.0144C50.1689 25.8012 49.4579 26.5537 48.7106 27.2693C48.3351 27.6278 47.9368 27.9618 47.5183 28.269C47.103 28.5927 46.6387 28.848 46.143 29.0254C45.8845 29.1144 45.6098 29.1467 45.3377 29.1201C45.055 29.0875 44.7918 28.9598 44.591 28.758C44.3983 28.5607 44.2491 28.3252 44.1529 28.0667C44.053 27.8154 43.9839 27.5529 43.9472 27.285C43.9152 27.0053 43.9489 26.722 44.0456 26.4576C44.0705 26.3911 44.0998 26.3263 44.1333 26.2637L44.227 26.0982C44.277 25.9897 44.3184 25.8775 44.3509 25.7626C44.4794 25.2709 44.5733 24.7708 44.6318 24.266C44.7767 23.2557 44.7554 22.2284 44.5686 21.225C44.5111 20.695 44.5342 20.1594 44.6369 19.6363C44.7358 19.1141 44.9012 18.6068 45.1291 18.1268L45.2925 18.0518C45.3014 18.0452 45.2918 18.0584 45.3013 18.0472C45.3037 18.0445 45.3066 18.0424 45.3098 18.041L45.3207 18.0231C45.3306 18.0099 45.3383 17.9952 45.3435 17.9794C45.3749 17.8999 45.3958 17.8166 45.4057 17.7316C45.43 17.5454 45.4395 17.3577 45.4339 17.1701L45.4338 17.1644C45.4338 17.1582 45.4342 17.152 45.4349 17.1458C45.4788 16.8615 45.4813 16.5723 45.4423 16.2873C45.4295 16.1542 45.3886 16.0252 45.3224 15.9091C45.2562 15.7929 45.1661 15.692 45.0582 15.6132C45.0089 15.5825 44.9547 15.5605 44.898 15.5482C44.8314 15.5432 44.7645 15.5453 44.6983 15.5544C44.5678 15.5696 44.4438 15.6201 44.3398 15.7004C44.2911 15.7416 44.2495 15.7906 44.2168 15.8453C44.1992 15.8727 44.1846 15.9019 44.1732 15.9324L44.1548 15.9784C44.1437 16.0054 44.1302 16.0314 44.1147 16.0561C44.0793 16.0953 44.0355 16.1258 43.9866 16.1453C43.9376 16.1648 43.8848 16.1728 43.8323 16.1686C43.7506 16.1666 43.6693 16.1568 43.5896 16.1393C43.2913 16.0672 43.0006 15.9668 42.7213 15.8395C42.443 15.7194 42.1701 15.5898 41.9002 15.4547C41.3589 15.1835 40.8349 14.8981 40.309 14.587V14.587Z" fill="#141414"/>
<path d="M47.2077 40.6036L46.1075 40.3712C46.0831 40.3661 46.0617 40.3514 46.0481 40.3305C46.0345 40.3096 46.0297 40.2841 46.0349 40.2597C46.04 40.2353 46.0547 40.2139 46.0756 40.2003C46.0965 40.1867 46.1219 40.1819 46.1463 40.1871C46.1514 40.1882 46.1565 40.1897 46.1613 40.1916L47.2077 40.6036ZM29.661 34.4192C30.002 34.4294 30.3414 34.4706 30.6748 34.5426C30.8403 34.5779 31.0054 34.6139 31.1689 34.6575C31.3338 34.6971 31.493 34.7529 31.6614 34.7865C31.4909 34.8201 31.3161 34.8253 31.144 34.8017C30.974 34.7855 30.805 34.7604 30.6377 34.7263C30.3014 34.6619 29.9737 34.5588 29.661 34.4192ZM28.7 35.3556C28.9627 35.3758 29.218 35.4517 29.4491 35.5783C29.5668 35.64 29.6762 35.7166 29.7745 35.806C29.8798 35.8929 29.9564 36.0095 29.9944 36.1406C29.9003 36.0567 29.7971 35.9837 29.6867 35.923C29.5795 35.8618 29.4722 35.8003 29.3607 35.7435C29.133 35.6275 28.9124 35.498 28.7 35.3556ZM28.8373 36.3761C29.0259 36.4413 29.2016 36.5392 29.3561 36.6655C29.5153 36.7859 29.6518 36.9338 29.7591 37.1022C29.5703 37.0374 29.3946 36.9394 29.2403 36.8128C29.0813 36.6921 28.9449 36.5442 28.8373 36.3761ZM29.1903 37.6321C29.3571 37.6766 29.5132 37.7547 29.6488 37.8615C29.7888 37.9627 29.9064 38.0917 29.9944 38.2404C29.8274 38.1963 29.6713 38.1182 29.5359 38.011C29.3962 37.9095 29.2786 37.7805 29.1903 37.6321ZM30.7592 39.0058C30.7011 38.9774 30.6515 38.9341 30.6155 38.8802C30.5796 38.8264 30.5586 38.764 30.5546 38.6993C30.5413 38.5708 30.5567 38.4408 30.5998 38.319L30.5974 38.3263C30.6107 38.2639 30.6176 38.2003 30.6181 38.1364C30.624 38.0894 30.6152 38.0417 30.5931 37.9999C30.5405 37.9367 30.5015 37.8634 30.4785 37.7845C30.4531 37.7099 30.4401 37.6315 30.44 37.5526C30.4383 37.4704 30.4555 37.3889 30.4903 37.3144C30.5281 37.2578 30.5626 37.1991 30.5939 37.1386C30.6372 37.0102 30.6519 36.8738 30.637 36.7391C30.7059 36.8717 30.7302 37.0229 30.7063 37.1704C30.6875 37.2402 30.6617 37.308 30.6294 37.3727C30.6125 37.4288 30.6066 37.4877 30.6121 37.546C30.6217 37.6661 30.6639 37.7814 30.7341 37.8793C30.7873 37.9568 30.8098 38.0513 30.7973 38.1446C30.7902 38.2209 30.7751 38.2962 30.7525 38.3694L30.7514 38.3728L30.75 38.3768C30.7285 38.4287 30.706 38.4802 30.6899 38.5336C30.6741 38.5863 30.6635 38.6404 30.6584 38.6952C30.6509 38.7512 30.6561 38.8082 30.6735 38.862C30.691 38.9157 30.7203 38.9649 30.7592 39.0058ZM29.0679 34.2694C28.7974 34.0406 28.5356 33.8034 28.2754 33.5647C28.0168 33.3245 27.7579 33.0845 27.5059 32.838C26.997 32.3496 26.501 31.8489 26.0108 31.3425C25.9941 31.3251 25.9809 31.3047 25.972 31.2822C25.9632 31.2598 25.9588 31.2359 25.9592 31.2118C25.9596 31.1876 25.9647 31.1638 25.9743 31.1417C25.9838 31.1196 25.9977 31.0995 26.015 31.0828L26.0242 31.0744L26.0272 31.0719C26.2643 30.8724 26.5055 30.678 26.747 30.484L26.7489 30.4826C26.7852 30.4536 26.8311 30.4395 26.8774 30.4431C26.9236 30.4467 26.9668 30.4677 26.9982 30.502C27.4527 31.0008 27.8955 31.5104 28.3316 32.0261C28.5501 32.2835 28.7652 32.5441 28.9768 32.8079C29.1888 33.0713 29.3982 33.3371 29.6002 33.6098C29.346 33.3851 29.0992 33.1536 28.855 32.9198C28.6112 32.6855 28.3701 32.4489 28.1317 32.2097C27.6555 31.7308 27.186 31.2458 26.7281 30.7501L26.9792 30.768C26.7414 30.9665 26.5032 31.1646 26.2609 31.3576L26.2773 31.0871C26.7618 31.5989 27.2404 32.1163 27.7061 32.6461C27.9414 32.9087 28.1697 33.1779 28.3985 33.4467C28.6256 33.7172 28.8511 33.9891 29.0679 34.2694ZM27.8175 29.5794C27.6498 29.2096 27.5145 28.8259 27.4133 28.4327C27.3039 28.0416 27.2292 27.6417 27.19 27.2375C27.3581 27.6071 27.4934 27.9908 27.5942 28.3841C27.7032 28.7753 27.7779 29.1752 27.8175 29.5794ZM29.5303 30.3513C29.6695 30.1185 29.8384 29.9049 30.0327 29.7159C30.2214 29.5211 30.4349 29.352 30.6677 29.213C30.5288 29.446 30.3599 29.6596 30.1652 29.8484C29.9763 30.0429 29.7628 30.2119 29.5303 30.3513ZM30.903 32.1175C31.1458 32.0515 31.3967 32.02 31.6483 32.0238C31.8999 32.0196 32.1508 32.0511 32.3935 32.1175C32.1508 32.1838 31.8999 32.2154 31.6483 32.2112C31.3967 32.215 31.1458 32.1834 30.903 32.1175ZM17.9073 46.2343C17.9278 46.1122 17.9587 45.9922 17.9997 45.8754C18.0218 45.8157 18.0501 45.7584 18.084 45.7045C18.1197 45.6405 18.1781 45.5923 18.2475 45.5693C18.2867 45.5624 18.3269 45.5659 18.3643 45.5793C18.4017 45.5928 18.435 45.6158 18.4607 45.6461C18.5078 45.6939 18.5487 45.7474 18.5824 45.8053C18.6461 45.9153 18.7008 46.0302 18.7462 46.1489C18.9177 46.6171 19.0413 47.1015 19.1152 47.5946C19.2315 48.5801 19.2366 49.5755 19.1305 50.5621C19.0788 51.0539 19.0113 51.5445 18.9102 52.0315C18.8575 52.2747 18.7984 52.517 18.7226 52.7577C18.6534 53.0118 18.5425 53.2526 18.3945 53.4704C18.3437 53.5383 18.2782 53.5938 18.2029 53.6325C18.152 53.6558 18.0958 53.665 18.0401 53.6593C17.9876 53.6522 17.9375 53.6327 17.8941 53.6023C17.7809 53.5077 17.6957 53.3838 17.6478 53.2442C17.559 53.0081 17.492 52.7643 17.4476 52.516C17.363 52.0306 17.307 51.5408 17.2798 51.0489C17.3896 51.5275 17.4843 52.0084 17.6262 52.4729C17.6883 52.7027 17.7703 52.9266 17.8713 53.142C17.9101 53.2325 17.9692 53.3128 18.0438 53.3768C18.0724 53.3888 18.0643 53.3855 18.0822 53.378C18.1127 53.3553 18.1389 53.3275 18.1597 53.2957C18.2713 53.0979 18.3547 52.8854 18.4077 52.6645C18.4708 52.4357 18.5195 52.1999 18.562 51.9628C18.6495 51.4889 18.713 51.0079 18.7577 50.5254C18.8085 50.0434 18.8382 49.5589 18.8524 49.0749C18.8702 48.5924 18.8613 48.1092 18.8256 47.6276C18.8089 47.3874 18.7681 47.1548 18.7273 46.9136C18.6856 46.6749 18.6366 46.4376 18.5729 46.2068C18.5436 46.0922 18.5053 45.9802 18.4583 45.8717C18.4133 45.7724 18.3413 45.6556 18.2665 45.6663C18.182 45.6793 18.1049 45.7985 18.051 45.8987C17.9935 46.0062 17.9455 46.1185 17.9073 46.2343ZM53.2837 39.4831L54.3297 40.2775L54.8702 40.6557C55.0512 40.78 55.2249 40.9144 55.4141 41.0262C55.7873 41.2569 56.1491 41.5044 56.5367 41.7085C56.7295 41.8118 56.9143 41.9296 57.1107 42.0256L57.6978 42.3166C58.487 42.6902 59.3024 43.0058 60.1375 43.2607C60.9723 43.5241 61.844 43.6512 62.7192 43.6371L62.6662 43.6961C62.671 43.1856 62.6682 42.6751 62.6614 42.1646C62.6568 41.6541 62.6386 41.1435 62.6272 40.633L62.5838 39.1015L62.5554 37.57L62.8345 37.7006C62.5086 37.9468 62.1546 38.1534 61.78 38.3161L61.5035 38.4366L61.2208 38.5403C61.0339 38.6152 60.8388 38.6618 60.647 38.7205C59.8727 38.9235 59.075 39.0237 58.2746 39.0185L57.6773 39.0049C57.4787 38.994 57.2815 38.9656 57.0838 38.9467C56.6869 38.9175 56.2997 38.8255 55.9093 38.7605C55.5213 38.683 55.1408 38.572 54.7592 38.4721L53.64 38.0898L53.7543 38.0292C53.6037 38.5031 53.4474 38.9837 53.2837 39.4831ZM53.2478 39.4937C53.3528 39.0048 53.4652 38.4971 53.5833 37.9826L53.6031 37.8964L53.6976 37.9221L54.8248 38.2278L55.3956 38.3441C55.5861 38.38 55.7729 38.4353 55.966 38.4554C56.3501 38.5036 56.7308 38.579 57.1172 38.5917C57.3098 38.6035 57.502 38.6202 57.6943 38.6281L58.2716 38.6307C59.0386 38.6195 59.8019 38.5224 60.5474 38.3412C60.7309 38.2891 60.9189 38.2492 61.0974 38.1817L61.3684 38.0892L61.6327 37.9807C61.9803 37.8386 62.3104 37.657 62.6165 37.4393L62.9019 37.2275L62.8956 37.57L62.8671 39.1015L62.8238 40.633C62.8123 41.1435 62.7942 41.6541 62.7895 42.1646C62.7828 42.6751 62.7799 43.1856 62.7848 43.6961L62.7853 43.7513L62.7317 43.7551C62.2856 43.7806 61.8382 43.7689 61.3941 43.7203L61.0617 43.6844L60.7315 43.6327C60.5099 43.6035 60.2937 43.5495 60.0749 43.5048C59.2031 43.3074 58.357 43.0097 57.5536 42.6178L56.9587 42.3112C56.7596 42.2106 56.5731 42.0876 56.3813 41.9744C55.994 41.7534 55.6332 41.4915 55.2694 41.236C55.0843 41.1127 54.9138 40.9695 54.7408 40.8302L54.224 40.4104C53.8865 40.1062 53.5565 39.7904 53.2478 39.4937Z" fill="#141414"/>
<path d="M18.7055 46.3238C18.1006 46.3561 17.4941 46.3459 16.8906 46.2935C16.2853 46.2457 15.6837 46.1601 15.0891 46.0373C14.4918 45.9173 13.9042 45.7531 13.3312 45.546C12.7575 45.3332 12.2042 45.0691 11.6779 44.7569C11.5482 44.6758 11.41 44.606 11.2871 44.5154L10.9157 44.2469C10.6682 44.0649 10.4196 43.8992 10.1717 43.7245L8.68588 42.6856L5.7258 40.5933L5.75262 40.609C5.67901 40.5766 5.60251 40.5512 5.52414 40.5332C5.46048 40.5162 5.39397 40.5128 5.32891 40.5232C5.28762 40.5393 5.29315 40.5321 5.27981 40.5792C5.26985 40.5947 5.27934 40.6374 5.2757 40.6656L5.29437 40.7771L5.2946 40.7785C5.30271 40.8269 5.2932 40.8766 5.26783 40.9185C5.25041 40.9515 5.23709 40.9865 5.22816 41.0227C5.21753 41.0653 5.21181 41.1089 5.21112 41.1527C5.21147 41.2449 5.22948 41.3362 5.26417 41.4217L5.20268 41.6344C5.22543 41.6158 5.2142 41.6246 5.21767 41.6216L5.21508 41.6267C5.21159 41.6344 5.20908 41.6425 5.20759 41.6508C5.20266 41.6784 5.20232 41.7065 5.20661 41.7342C5.21824 41.8099 5.24111 41.8834 5.27447 41.9524L5.2791 42.0922C5.2854 42.0726 5.27729 42.1053 5.27938 42.1188C5.27949 42.139 5.28118 42.1591 5.28445 42.179C5.2921 42.2253 5.30495 42.2706 5.32274 42.3141C5.36213 42.4113 5.41336 42.5033 5.47526 42.588L5.48654 42.7841C5.49042 42.7775 5.4936 42.7705 5.49603 42.7632C5.49654 42.761 5.4967 42.7614 5.4967 42.7614C5.49673 42.7635 5.49654 42.7656 5.49612 42.7677C5.49632 42.7779 5.49708 42.7881 5.49839 42.7982C5.50399 42.8278 5.51256 42.8567 5.52399 42.8846C5.55314 42.9527 5.58925 43.0175 5.63172 43.0782C5.67712 43.1441 5.72647 43.2073 5.7795 43.2673C5.83252 43.3284 5.90004 43.3931 5.95959 43.4558L6.69683 44.2142L8.17137 45.731L11.1192 48.7667L11.1237 48.7714C11.127 48.7748 11.1301 48.7784 11.1329 48.7822C11.3832 49.1192 11.6177 49.4607 11.8409 49.8141C12.0697 50.1673 12.2697 50.5384 12.4391 50.9236C12.5205 51.0955 12.6318 51.2516 12.7676 51.3847C13.2036 51.7957 13.7628 52.0514 14.3587 52.112C14.7544 52.1479 15.1517 52.0618 15.4971 51.8654L15.6258 51.7904L15.7416 51.6961C15.8182 51.6346 15.8968 51.5698 15.9779 51.4993C16.0557 51.4281 16.1389 51.3632 16.2269 51.3052C16.3116 51.2427 16.4009 51.1868 16.4941 51.1381C17.2364 50.742 18.0947 50.6217 18.9171 50.7983C18.1012 50.6671 17.265 50.82 16.5482 51.2315C16.4602 51.2817 16.3762 51.3387 16.2971 51.402C16.2147 51.4607 16.1373 51.5259 16.0654 51.5971C15.993 51.6647 15.915 51.7344 15.8334 51.8055L15.7126 51.9111L15.5771 51.9975C15.2091 52.2276 14.7781 52.336 14.3451 52.3073C13.9157 52.2776 13.4987 52.1501 13.1259 51.9345C12.7331 51.7322 12.4121 51.4136 12.2066 51.0221C12.0345 50.6548 11.8333 50.3018 11.605 49.9665C11.3793 49.6266 11.1381 49.2922 10.8884 48.9717L10.9021 48.9872L7.92303 45.9722L6.43414 44.4636L5.68965 43.7093C5.62731 43.6445 5.56625 43.5879 5.50285 43.5164C5.43838 43.4447 5.37839 43.3691 5.32321 43.29C5.26393 43.2063 5.21458 43.116 5.17614 43.0209C5.1547 42.9668 5.13919 42.9105 5.12989 42.853C5.12521 42.8194 5.12338 42.7855 5.12442 42.7515C5.12543 42.7316 5.12776 42.7118 5.1314 42.6922C5.13337 42.6807 5.13607 42.6693 5.13948 42.6582C5.14445 42.6401 5.15142 42.6227 5.16024 42.6062L5.17152 42.8022C5.09261 42.6919 5.02769 42.5722 4.97824 42.446C4.9514 42.3777 4.93225 42.3067 4.92112 42.2342C4.9151 42.1948 4.91224 42.1549 4.91258 42.115C4.91199 42.0636 4.91998 42.0124 4.93624 41.9637L4.94089 42.1034C4.89234 41.9996 4.85999 41.8891 4.84499 41.7755C4.83643 41.7084 4.8391 41.6404 4.85287 41.5742C4.86097 41.5358 4.87397 41.4985 4.89156 41.4634C4.90144 41.4438 4.91286 41.425 4.92572 41.4073C4.94353 41.3825 4.9649 41.3605 4.98914 41.3421L4.92767 41.5547C4.87625 41.4246 4.85054 41.2857 4.85199 41.1458C4.85366 41.0738 4.86367 41.0022 4.88182 40.9325C4.90074 40.8562 4.93174 40.7834 4.97366 40.7169L4.94712 40.8582C4.93798 40.8036 4.9282 40.75 4.92133 40.6942C4.91651 40.6303 4.92062 40.5661 4.93354 40.5033C4.94743 40.4248 4.9844 40.3522 5.03972 40.2947C5.09505 40.2373 5.16622 40.1977 5.24415 40.181C5.36249 40.1572 5.48468 40.1607 5.60145 40.1913C5.70438 40.2155 5.80467 40.2498 5.90086 40.2937C5.90938 40.2975 5.9175 40.3022 5.92511 40.3075L5.92775 40.3095L8.87703 42.4278L10.3459 43.4942C10.5883 43.6733 10.8389 43.8491 11.0745 44.0309L11.432 44.3022C11.5505 44.394 11.6824 44.4637 11.8069 44.5457C12.3141 44.8624 12.8489 45.1327 13.4046 45.3533C14.5292 45.7836 15.703 46.0718 16.8988 46.2112C17.4982 46.2856 18.1016 46.3232 18.7055 46.3238Z" fill="#141414"/>
<path d="M5.12077 40.8178C5.1866 40.7632 5.27129 40.7368 5.35645 40.7443C5.44137 40.7483 5.5242 40.772 5.59846 40.8134C5.67127 40.8523 5.73749 40.9025 5.79467 40.9621C5.82133 40.9931 5.84912 41.0225 5.87399 41.0542C5.89554 41.0893 5.9195 41.1214 5.93791 41.158C5.79939 41.0722 5.68028 40.9767 5.54769 40.9098C5.48384 40.874 5.41585 40.8462 5.34525 40.827C5.27208 40.807 5.19533 40.8038 5.12077 40.8178ZM5.09595 41.4883C5.10234 41.4444 5.14938 41.4169 5.19095 41.4044C5.23369 41.3961 5.27749 41.3948 5.32065 41.4005C5.40317 41.4122 5.48312 41.4378 5.55711 41.4762C5.70259 41.5486 5.83207 41.6495 5.93791 41.7729C5.86277 41.7453 5.78931 41.7134 5.71789 41.6772L5.50924 41.574C5.44227 41.5393 5.37328 41.5085 5.30264 41.482C5.26883 41.4685 5.23318 41.4601 5.19689 41.4572C5.1788 41.4539 5.16017 41.4549 5.1426 41.4604C5.12502 41.4658 5.10901 41.4754 5.09595 41.4883ZM5.1077 42.028C5.14702 41.9839 5.19858 41.9526 5.2558 41.9379C5.31302 41.9233 5.37329 41.9261 5.42893 41.9459C5.54052 41.9737 5.64592 42.0222 5.73968 42.0888C5.83262 42.1516 5.91844 42.2244 5.99559 42.3058C6.07383 42.3851 6.14426 42.4717 6.20592 42.5644C6.11145 42.5035 6.02829 42.4327 5.94018 42.3687C5.85321 42.3037 5.768 42.2377 5.67908 42.1794C5.59356 42.1185 5.5017 42.0671 5.40513 42.0259C5.35823 42.0056 5.30805 41.9939 5.257 41.9914C5.20443 41.985 5.15134 41.998 5.1077 42.028ZM5.32342 42.6953C5.32397 42.6696 5.33085 42.6444 5.34345 42.622C5.35605 42.5996 5.37399 42.5807 5.39567 42.5669C5.44313 42.5412 5.4979 42.5325 5.55098 42.5422C5.6485 42.5597 5.74062 42.5997 5.82012 42.6589C5.97463 42.7683 6.10579 42.9074 6.20594 43.0681C6.12324 43.0201 6.0531 42.9604 5.97782 42.908C5.90394 42.8541 5.83279 42.7981 5.75884 42.7489C5.68975 42.6973 5.61399 42.6552 5.53364 42.6238C5.49628 42.6055 5.45319 42.6027 5.4138 42.6161C5.37441 42.6295 5.34191 42.658 5.32342 42.6953Z" fill="#141414"/>
<path d="M17.1923 50.8924C16.6969 51.0004 16.2489 51.2637 15.9135 51.6441C14.6584 52.8805 12.6973 51.86 12.3247 50.9769C11.9521 50.0938 11.0107 48.877 11.0107 48.877C10.7861 48.6556 10.4844 48.3528 10.1399 48.0042C11.4981 46.8567 11.0392 44.1816 11.0392 44.1816C10.1067 42.3775 7.8981 41.9273 7.8981 41.9273C8.17822 44.175 7.0341 44.8297 7.03402 44.8297C6.24455 44.018 5.66667 43.4213 5.66667 43.4213C5.2058 42.9111 5.32347 42.6952 5.32347 42.6952C5.01949 42.2635 5.10775 42.028 5.10775 42.028C4.92145 41.6159 5.09599 41.4883 5.09599 41.4883C5.04721 41.3824 5.02403 41.2666 5.02835 41.1501C5.03266 41.0336 5.06434 40.9197 5.12082 40.8178L5.10775 40.687L3.4902 42.2133C3.28255 42.4091 3.13254 42.6581 3.05647 42.9333C2.9804 43.2085 2.9812 43.4993 3.05877 43.774C3.47284 45.2415 4.61074 47.9685 7.4611 48.7593C7.4611 48.7593 11.2264 50.6825 8.36321 51.8993L12.2854 55.8242C12.2854 55.8242 12.4489 55.0065 13.1843 54.8248C13.8659 54.6455 14.4706 54.2488 14.9066 53.6947C15.0614 53.5032 15.2293 53.2797 15.4092 53.0189C15.6823 52.6185 16.0051 52.2544 16.3698 51.9353C16.6925 51.6564 17.0521 51.4136 17.2798 51.4675L17.1923 50.8924Z" fill="#141414"/>
<path d="M16.8352 49.3218C16.9421 49.4349 17.0684 49.5279 17.2082 49.5964C17.2747 49.6237 17.3469 49.6348 17.4186 49.6287C17.4967 49.6193 17.5732 49.5991 17.6458 49.5687C17.5915 49.6366 17.5177 49.6862 17.4345 49.7111C17.3466 49.7373 17.2523 49.7325 17.1675 49.6974C17.0864 49.6627 17.0147 49.6093 16.9583 49.5414C16.9021 49.4778 16.8601 49.4029 16.8352 49.3218ZM41.1923 17.0259C41.2549 16.9104 41.3361 16.806 41.4327 16.7171C41.5278 16.6265 41.6335 16.5478 41.7476 16.4827C41.8641 16.4184 41.9894 16.3714 42.1196 16.3432C42.2508 16.316 42.3866 16.3213 42.5153 16.3586C42.3956 16.394 42.2777 16.4356 42.1623 16.4832C42.0522 16.5343 41.9444 16.5867 41.8388 16.6464C41.6258 16.7644 41.4223 16.8991 41.1923 17.0259ZM41.9768 18.0006C42.0615 17.9976 42.1418 17.9619 42.2007 17.9008C42.2596 17.8398 42.2925 17.7583 42.2925 17.6735C42.2925 17.5886 42.2596 17.5071 42.2007 17.4461C42.1418 17.3851 42.0615 17.3493 41.9768 17.3464C41.892 17.3493 41.8118 17.3851 41.7529 17.4461C41.694 17.5071 41.6611 17.5886 41.6611 17.6735C41.6611 17.7583 41.694 17.8398 41.7529 17.9008C41.8118 17.9619 41.892 17.9976 41.9768 18.0006ZM44.7093 17.3987C44.7816 17.4553 44.8637 17.4981 44.9515 17.5249C44.9845 17.5225 44.9817 17.5243 44.9966 17.4978C45.0059 17.4847 45.0132 17.4703 45.0182 17.455C45.0269 17.4367 45.033 17.4172 45.0362 17.3971C45.05 17.354 45.0604 17.3099 45.0671 17.2652C45.0809 17.2205 45.0834 17.1716 45.0955 17.1241C45.1135 17.024 45.1395 16.9255 45.1734 16.8296C45.212 16.9265 45.235 17.0289 45.2415 17.133C45.2521 17.2395 45.2434 17.347 45.2158 17.4505C45.2086 17.4791 45.1979 17.5068 45.1838 17.5329C45.1625 17.5815 45.1281 17.6232 45.0845 17.6535C45.0648 17.6633 45.0444 17.6715 45.0236 17.6783C44.9842 17.6863 44.9433 17.6812 44.907 17.6638C44.8523 17.638 44.8062 17.5968 44.7744 17.5452C44.7442 17.5007 44.7221 17.451 44.7093 17.3987ZM44.4086 16.5549C44.3602 16.4622 44.3345 16.3594 44.3334 16.2549C44.3255 16.1376 44.3618 16.0216 44.4351 15.9297C44.4831 15.8796 44.5465 15.847 44.6152 15.8371C44.6762 15.8316 44.7376 15.8413 44.7939 15.8653C44.8428 15.8877 44.8889 15.9158 44.9313 15.949C44.9694 15.9844 45.0044 16.0229 45.0361 16.0642C44.9865 16.0563 44.9374 16.0452 44.8893 16.0309C44.8427 16.0224 44.7972 16.0121 44.7558 16.0066C44.7238 15.9987 44.6904 15.999 44.6587 16.0075C44.6269 16.016 44.5978 16.0325 44.5741 16.0553C44.5264 16.1191 44.4936 16.1928 44.4782 16.2711L44.4086 16.5549ZM41.4407 19.4397C41.5296 19.383 41.6243 19.3361 41.7232 19.2998C41.7654 19.284 41.804 19.2675 41.8442 19.2496C41.8911 19.2258 41.9355 19.1975 41.9768 19.165C41.9868 19.1969 41.9892 19.2307 41.9838 19.2638C41.9784 19.2968 41.9653 19.3281 41.9455 19.3552C41.9071 19.4086 41.854 19.4498 41.7928 19.4739C41.7357 19.4962 41.6743 19.5053 41.6133 19.5003C41.5511 19.4972 41.4912 19.4761 41.4407 19.4397ZM42.1258 20.0285C42.4365 19.8502 42.7638 19.7023 43.1029 19.587C43.12 19.5808 43.1384 19.5797 43.1561 19.5838C43.1737 19.588 43.1898 19.5972 43.2023 19.6104C43.2147 19.6236 43.2231 19.6401 43.2262 19.658C43.2294 19.6758 43.2273 19.6942 43.2201 19.7109C43.1482 19.884 43.0599 20.0498 42.9564 20.206C42.9041 20.2858 42.8437 20.3601 42.7762 20.4276C42.7408 20.4625 42.7005 20.4921 42.6564 20.5152C42.6329 20.527 42.607 20.5334 42.5807 20.5339C42.568 20.5329 42.5557 20.5293 42.5445 20.5234C42.5332 20.5175 42.5233 20.5093 42.5153 20.4994C42.5344 20.5084 42.5559 20.5105 42.5763 20.5054C42.5967 20.5003 42.6147 20.4882 42.6272 20.4714C42.6571 20.4404 42.683 20.4058 42.7042 20.3684C42.7498 20.292 42.7913 20.2133 42.8285 20.1325C42.904 19.9703 42.9783 19.8039 43.0475 19.6395L43.1647 19.7634C42.8277 19.885 42.4798 19.9738 42.1258 20.0285Z" fill="#141414"/>
</svg>
